<svg width="105" height="38" fill="none" xmlns="http://www.w3.org/2000/svg"><path d="M20.517 1v36h-8.976V4.072l4.368 3.984L.501 10.744V3.736L13.845 1h6.672zm9.64 0h27.745v6.816H32.894l3.648-1.728-2.016 13.536h-2.304c.704-1.184 1.664-2.272 2.88-3.264 1.248-.992 2.768-1.792 4.56-2.4 1.792-.608 3.872-.912 6.24-.912 3.072 0 5.712.512 7.92 1.536s3.904 2.432 5.088 4.224c1.216 1.792 1.824 3.856 1.824 6.192 0 2.464-.688 4.656-2.064 6.576-1.376 1.92-3.36 3.44-5.952 4.56-2.56 1.088-5.632 1.632-9.216 1.632-3.52 0-6.576-.512-9.168-1.536-2.592-1.024-4.624-2.416-6.096-4.176-1.472-1.792-2.336-3.776-2.592-5.952h9.024c.352 1.408 1.28 2.528 2.784 3.36 1.536.832 3.552 1.248 6.048 1.248 1.696 0 3.152-.224 4.368-.672 1.216-.48 2.16-1.152 2.832-2.016.672-.864 1.008-1.888 1.008-3.072 0-1.12-.304-2.112-.912-2.976-.576-.864-1.456-1.536-2.64-2.016-1.152-.48-2.592-.72-4.32-.72-1.44 0-2.736.16-3.888.48-1.12.32-2.112.736-2.976 1.248-.832.512-1.52 1.04-2.064 1.584h-7.776L30.158 1zm54.424 36.768c-4.064 0-7.584-.784-10.56-2.352-2.976-1.568-5.28-3.744-6.912-6.528-1.632-2.816-2.448-6.112-2.448-9.888 0-3.744.816-7.024 2.448-9.84 1.632-2.816 3.936-5.008 6.912-6.576C76.997 1.016 80.517.232 84.581.232c4.032 0 7.536.784 10.512 2.352 2.976 1.568 5.28 3.76 6.912 6.576 1.632 2.784 2.448 6.064 2.448 9.84 0 3.744-.816 7.024-2.448 9.84-1.632 2.816-3.936 5.008-6.912 6.576-2.976 1.568-6.48 2.352-10.512 2.352zm0-7.392c3.424 0 6.08-.992 7.968-2.976 1.92-1.984 2.88-4.784 2.88-8.4 0-3.616-.96-6.416-2.88-8.4-1.888-1.984-4.544-2.976-7.968-2.976-3.424 0-6.096.992-8.016 2.976s-2.88 4.784-2.88 8.4c0 3.616.96 6.416 2.88 8.4s4.592 2.976 8.016 2.976z" fill="#fff"/></svg>