<svg width="84" height="44" fill="none" xmlns="http://www.w3.org/2000/svg"><path d="M23.745 43.896c-4.74 0-8.848-.915-12.32-2.744-3.472-1.83-6.16-4.368-8.064-7.616C1.457 30.251.506 26.406.506 22c0-4.368.952-8.195 2.856-11.48s4.591-5.843 8.063-7.672c3.473-1.83 7.58-2.744 12.32-2.744 4.704 0 8.793.915 12.265 2.744 3.471 1.83 6.16 4.387 8.064 7.672 1.904 3.248 2.855 7.075 2.855 11.48 0 4.368-.952 8.195-2.855 11.48-1.904 3.285-4.593 5.843-8.064 7.672-3.472 1.83-7.56 2.744-12.264 2.744zm0-8.624c3.995 0 7.094-1.157 9.296-3.472 2.24-2.315 3.36-5.581 3.36-9.8s-1.12-7.485-3.36-9.8c-2.202-2.315-5.3-3.472-9.295-3.472s-7.112 1.157-9.352 3.472-3.36 5.581-3.36 9.8 1.12 7.485 3.36 9.8c2.24 2.315 5.357 3.472 9.351 3.472zm32.182 8.288c-1.12 0-2.146-.261-3.08-.784a6.27 6.27 0 01-2.128-2.184c-.523-.896-.784-1.904-.784-3.024s.261-2.128.784-3.024a5.817 5.817 0 012.128-2.128c.934-.56 1.96-.84 3.08-.84s2.128.28 3.024.84a5.817 5.817 0 012.128 2.128c.56.896.84 1.904.84 3.024s-.28 2.128-.84 3.024a6.269 6.269 0 01-2.128 2.184c-.896.523-1.904.784-3.024.784zM83.098 1v42H72.626V4.584l5.096 4.648-17.976 3.136V4.192L75.314 1h7.784z" fill="#fff"/></svg>