<svg width="21" height="20" fill="none" xmlns="http://www.w3.org/2000/svg"><g clip-path="url(#clip0_6217_19184)"><path d="M8.933 1.667V3.55L10.6 4.658V3.333h8.333v12.5h-4.167V17.5H20.6V1.666H8.933zm-2.083 2.5L.6 8.332V17.5h12.5V8.333L6.85 4.166zM12.266 5v.775l1.342.891h.325V5h-1.667zM15.6 5v1.667h1.666V5H15.6zM6.85 6.25l4.583 2.916v6.667h-2.5v-5H4.766v5h-2.5V9.166L6.85 6.25zm8.75 2.083V10h1.666V8.333H15.6zm0 3.333v1.667h1.666v-1.667H15.6z" fill="#D1D1D1"/></g><defs><clipPath id="clip0_6217_19184"><path fill="#fff" transform="translate(.6)" d="M0 0h20v20H0z"/></clipPath></defs></svg>