<svg width="20" height="20" fill="none" xmlns="http://www.w3.org/2000/svg"><path d="M1.667 4.167h16.667v12.5H1.667v-12.5zm15 10.834V5.834H3.334v9.167h13.333zm-2.5-8.334a1.667 1.667 0 001.667 1.667v4.167a1.667 1.667 0 00-1.667 1.667H5.834A1.667 1.667 0 004.167 12.5V8.334a1.667 1.667 0 001.667-1.667h8.333zm0 4.167v-.833c0-.917-.558-1.667-1.25-1.667s-1.25.75-1.25 1.667v.833c0 .917.558 1.667 1.25 1.667s1.25-.75 1.25-1.667zm-1.25-1.667a.417.417 0 01.417.417v1.667a.416.416 0 11-.834 0V9.584a.416.416 0 01.417-.417zm-2.083 1.667v-.833c0-.917-.559-1.667-1.25-1.667-.692 0-1.25.75-1.25 1.667v.833c0 .917.558 1.667 1.25 1.667.691 0 1.25-.75 1.25-1.667zm-1.25-1.667a.417.417 0 01.416.417v1.667a.417.417 0 11-.833 0V9.584a.417.417 0 01.417-.417zm-2.917 3.334H7.5V8.334h-.833l-.833.417v.833l.833-.417v3.334z" fill="#D1D1D1"/></svg>