<svg width="354" height="354" fill="none" xmlns="http://www.w3.org/2000/svg"><path d="M168.68 24.297v-18h4.896V21.68l-1.368-.312 10.2-15.072h6.504v18h-4.92V8.625l1.392.312-10.392 15.36h-6.312z" fill="#12CE75"/><path d="M190.937 6.457l4.931.605-2.192 17.866-4.931-.605 2.192-17.866zm14.054 1.726l4.955.608-2.192 17.866-4.955-.608 2.192-17.866zm-12.101 5.212l13.34 1.638-.538 4.383-13.339-1.638.537-4.383zm29.58 9.167l.636-.798c1.336.39 2.386.896 3.148 1.514.781.607 1.297 1.308 1.548 2.104.255.78.264 1.612.028 2.493-.252.942-.694 1.727-1.326 2.353-.627.61-1.431 1.016-2.412 1.217-.962.19-2.084.112-3.367-.232l-12.843-3.44 3.734-8.566.922-8.822 12.379 3.317c1.607.43 2.758 1.144 3.451 2.142.698.982.869 2.138.513 3.467a4.676 4.676 0 01-1.069 1.95c-.518.573-1.217.99-2.099 1.251-.862.25-1.943.266-3.243.05zm-9.538 5.37l-1.252-2.745 8.647 2.317c.695.186 1.282.161 1.759-.075.477-.237.797-.656.958-1.26.162-.602.081-1.137-.241-1.604-.318-.483-.886-.834-1.705-1.054l-7.14-1.913.881-3.292 6.491 1.74c.556.149 1.064.11 1.521-.115.478-.236.793-.64.946-1.212.124-.464.063-.886-.183-1.267-.241-.396-.664-.675-1.266-.836l-7.79-2.087 2.434-1.758-.786 7.666-3.274 7.496zm33.948.998l-1.348 3.337-12.217-4.935 1.348-3.339 12.217 4.936zm-9.753-2l-3.795 6.258-1.025-2.847 12.773 5.16-1.509 3.74-15.51-6.267 4.638-7.833 2.101-8.858 15.398 6.221-1.509 3.74-12.662-5.116 2.714-1.337-1.614 7.14zm29.414 17.464c-.944 1.284-2.111 2.217-3.501 2.8-1.381.57-2.88.767-4.497.591-1.602-.167-3.235-.731-4.898-1.691-1.815-1.048-3.205-2.304-4.172-3.767-.966-1.463-1.478-3.024-1.536-4.684-.045-1.651.4-3.288 1.336-4.91.935-1.621 2.129-2.825 3.581-3.613 1.466-.78 3.073-1.117 4.823-1.012 1.75.105 3.532.681 5.348 1.73 1.662.96 2.967 2.091 3.914 3.396.961 1.312 1.536 2.716 1.727 4.211.198 1.482-.023 2.952-.662 4.412l-4.323-2.496c.245-.745.299-1.462.161-2.151-.13-.704-.449-1.368-.956-1.993-.494-.618-1.163-1.17-2.008-1.659-.97-.56-1.913-.863-2.827-.911a4.224 4.224 0 00-2.497.581c-.75.436-1.389 1.11-1.916 2.026-.528.914-.797 1.812-.806 2.693-.002.868.246 1.685.745 2.454.507.754 1.245 1.412 2.215 1.972.846.488 1.655.798 2.428.93.787.14 1.518.091 2.191-.148.674-.24 1.276-.658 1.807-1.257l4.323 2.496zm11.382-2.154l3.987 3.004-9.514 12.635-3.987-3.005 9.514-12.634zm-4.168-5.876l14.95 11.266-2.656 3.528-14.951-11.266 2.657-3.528zm4.468 26.097l12.724-12.732 3.462 3.462-10.875 10.882-.746-1.188 17.866-3.449 4.599 4.6-12.724 12.731-3.479-3.478 11.078-11.086.764 1.205-18.206 3.516-4.463-4.463zm35.305 12.817c.926 1.185 1.522 2.364 1.789 3.537.276 1.186.22 2.296-.169 3.331-.377 1.026-1.057 1.923-2.04 2.691-.97.76-2.005 1.202-3.103 1.33-1.086.118-2.17-.1-3.253-.656-1.073-.541-2.073-1.405-2.999-2.59l-4.802-6.147 3.139-2.454 4.61 5.901c.492.63 1.028 1.004 1.606 1.12.591.107 1.157-.051 1.699-.475.555-.434.846-.945.872-1.535.04-.6-.187-1.214-.68-1.845l-4.344-5.56 3.19.34-12.857 10.052-3.059-3.915 14.18-11.087 6.221 7.962zm-4.857 26.235c-1.064-1.843-1.661-3.66-1.79-5.452-.121-1.777.204-3.406.975-4.887.779-1.466 1.979-2.668 3.6-3.604 1.621-.937 3.261-1.376 4.92-1.318 1.667.071 3.24.604 4.719 1.597 1.487 1.007 2.762 2.433 3.826 4.275 1.072 1.857 1.669 3.675 1.79 5.452.121 1.778-.204 3.407-.975 4.888-.771 1.48-1.967 2.688-3.588 3.625-1.621.936-3.265 1.369-4.932 1.297-1.667-.071-3.24-.604-4.719-1.597-1.479-.994-2.754-2.419-3.826-4.276zm3.844-2.22c.584 1.011 1.261 1.784 2.032 2.318.77.534 1.586.811 2.447.831.869.034 1.747-.206 2.634-.718.887-.512 1.533-1.153 1.938-1.923.413-.757.581-1.602.503-2.536-.077-.935-.408-1.908-.992-2.92-.576-.997-1.249-1.763-2.02-2.297-.77-.535-1.59-.819-2.459-.852-.869-.034-1.747.206-2.634.718-.887.512-1.533 1.153-1.938 1.923s-.569 1.623-.491 2.557c.077.934.404 1.9.98 2.898z" fill="#12CE75"/><path d="M326.437 118.006l1.021.009c.515 1.294.763 2.432.745 3.413.003.989-.232 1.828-.705 2.516-.458.681-1.107 1.2-1.947 1.556-.898.382-1.788.517-2.67.405-.867-.119-1.682-.503-2.444-1.152-.742-.642-1.372-1.573-1.891-2.796l-5.195-12.239 9.048-2.331 7.519-4.706 5.008 11.797c.65 1.532.796 2.878.437 4.039-.345 1.154-1.15 2.001-2.416 2.539a4.685 4.685 0 01-2.195.358c-.771-.055-1.53-.35-2.278-.884-.727-.525-1.406-1.367-2.037-2.524zm-10.103-4.209l1.392-2.678 3.498 8.241c.281.662.662 1.109 1.142 1.34.481.23 1.008.223 1.582-.02.575-.244.947-.637 1.117-1.179.184-.547.111-1.212-.22-1.992l-2.889-6.805 3.137-1.332 2.626 6.186c.225.53.567.906 1.026 1.128.481.231.993.23 1.538-.001.442-.188.737-.496.886-.924.163-.434.123-.939-.121-1.513l-3.151-7.423 2.883.835-6.524 4.101-7.922 2.036zm9.348 17.149l3.852-1.105 3.42 11.927-3.852 1.106-3.42-11.928zm16.619 5.194l-15.046 12.831-1.462-5.098 13.38-10.98.397 1.384-17.171-2.239-1.461-5.099 19.557 2.903 1.806 6.298zm.614 15.545l.694 4.944-15.662 2.202-.694-4.943 15.662-2.203zm1.207-7.101l2.605 18.538-4.373.615-2.605-18.538 4.373-.615zm-15.089 23.812l17.997-.315.087 4.968-16.318.285 2.193-2.271.122 7.007c.015.816.234 1.444.657 1.885.424.456.988.679 1.692.666.72-.012 1.276-.254 1.668-.725.392-.455.581-1.09.567-1.906l-.13-7.439 3.935-.069.136 7.751c.026 1.52-.215 2.828-.724 3.925-.493 1.113-1.198 1.966-2.116 2.558-.917.608-2 .923-3.248.944-1.248.022-2.349-.255-3.303-.83-.938-.56-1.672-1.387-2.203-2.482-.531-1.079-.81-2.378-.837-3.898l-.175-10.054zm13.369 50.35l-.726 2.911-3.429-1.029.45 3.551-2.991.193-.102-3.562-3.247 1.515-1.113-2.776 3.369-1.212-2.405-2.654 2.286-1.928 2.15 2.887 1.761-3.098 2.551 1.576-2.071 2.947 3.517.679zm-29.204 25.379l15.741 8.731-2.374 4.282-13.453-7.462.936-1.045 8.235 16.232-3.153 5.688-15.741-8.731 2.386-4.303 13.704 7.602-.947 1.066-8.394-16.54 3.06-5.52z" fill="#12CE75"/><path d="M318.198 272.026l-2.989 3.968-14.372-10.838 2.989-3.967 14.372 10.837zm-8.521 11.309l-3.005 3.987-14.371-10.838 3.004-3.987 14.372 10.838zm1.538-13.088l-8.089 10.734-3.525-2.659 8.088-10.734 3.526 2.659zm-21.776 22.472l.39.943c-.99.98-1.94 1.652-2.85 2.019-.91.389-1.773.5-2.591.333-.806-.156-1.537-.55-2.193-1.184-.701-.678-1.173-1.445-1.414-2.301-.229-.845-.194-1.746.106-2.701.301-.934.912-1.878 1.835-2.833l9.236-9.564 5.678 7.422 7.266 5.086-8.903 9.219c-1.156 1.197-2.338 1.857-3.546 1.979-1.197.134-2.291-.277-3.28-1.233a4.682 4.682 0 01-1.186-1.881c-.251-.731-.276-1.546-.077-2.443.2-.875.71-1.829 1.529-2.861zm-.07-10.949l3.008.237-6.219 6.439c-.5.518-.763 1.043-.787 1.576-.025.532.187 1.015.636 1.449.448.433.955.623 1.52.568.576-.044 1.159-.371 1.748-.981l5.135-5.318 2.45 2.369-4.668 4.834c-.4.414-.613.876-.638 1.386-.024.532.176 1.004.602 1.415.345.334.743.485 1.196.455.463-.019.912-.254 1.345-.702l5.602-5.801.357 2.981-6.321-4.406-4.966-6.501zm-17.934 28.004l-2.264-2.798 10.239-8.292 2.265 2.799-10.24 8.291zm6.478-7.561l-3.631-6.356 2.986.485-10.706 8.67-2.536-3.135 13-10.527 4.598 7.857 6.725 6.136-12.907 10.451-2.536-3.134 10.613-8.594-.148 3.022-5.458-4.875zm-28.965 18.131c-.664-1.449-.915-2.922-.751-4.421.173-1.485.728-2.892 1.665-4.22.924-1.321 2.209-2.476 3.855-3.464 1.797-1.08 3.569-1.687 5.316-1.823 1.748-.135 3.361.174 4.841.928 1.465.762 2.68 1.945 3.643 3.55.964 1.605 1.438 3.234 1.422 4.886-.03 1.66-.514 3.23-1.455 4.71-.94 1.48-2.309 2.759-4.106 3.839-1.645.989-3.268 1.581-4.867 1.777-1.614.204-3.12.026-4.519-.533-1.392-.545-2.57-1.452-3.537-2.719l4.279-2.571c.533.576 1.134.971 1.803 1.185.678.227 1.414.27 2.206.13.78-.132 1.587-.45 2.424-.952.96-.577 1.683-1.254 2.168-2.031a4.223 4.223 0 00.703-2.466c-.017-.867-.297-1.754-.841-2.659-.544-.905-1.198-1.576-1.964-2.012-.757-.422-1.593-.601-2.506-.538-.906.078-1.838.405-2.798.982-.837.502-1.501 1.06-1.992 1.672-.504.621-.815 1.283-.933 1.989-.118.705-.043 1.435.223 2.19l-4.279 2.571zm-3.962 10.453l-4.56 2.03-6.43-14.45 4.561-2.03 6.429 14.45zm7.158-.797l-17.101 7.615-1.795-4.035 17.101-7.614 1.795 4.034zm-25.37-9.312l4.958 17.304-4.706 1.35-4.238-14.789 1.401-.077-5.653 17.3-6.252 1.793-4.958-17.304 4.729-1.356 4.317 15.066-1.424.083 5.759-17.63 6.067-1.74zm-28.351 25.526c-1.485.235-2.805.185-3.96-.15-1.171-.333-2.114-.921-2.831-1.763-.713-.827-1.168-1.856-1.363-3.089-.193-1.217-.078-2.336.343-3.359.424-1.007 1.141-1.849 2.151-2.528.995-.675 2.235-1.131 3.72-1.366l7.704-1.221.623 3.935-7.396 1.172c-.79.125-1.376.412-1.759.862-.38.465-.516 1.037-.408 1.717.11.695.416 1.197.919 1.506.505.325 1.152.425 1.942.3l6.97-1.104-1.845 2.625-2.551-16.119 4.907-.777 2.814 17.778-9.98 1.581zm-20.414-17.096c2.127-.037 4.006.323 5.635 1.078 1.614.756 2.881 1.83 3.801 3.222.904 1.393 1.373 3.025 1.406 4.897.032 1.871-.379 3.519-1.234 4.942-.872 1.423-2.1 2.541-3.687 3.353-1.602.812-3.466 1.236-5.594 1.274-2.144.037-4.022-.322-5.636-1.078-1.613-.756-2.88-1.83-3.801-3.222-.92-1.392-1.397-3.024-1.429-4.896-.033-1.872.387-3.519 1.258-4.943.871-1.423 2.1-2.541 3.686-3.353 1.586-.812 3.451-1.236 5.595-1.274zm.077 4.44c-1.168.02-2.172.238-3.013.652-.841.415-1.479.994-1.914 1.738-.451.744-.668 1.628-.65 2.652.018 1.024.265 1.9.742 2.627.461.728 1.119 1.285 1.973 1.67.855.385 1.867.568 3.034.547 1.152-.02 2.149-.237 2.989-.652.841-.415 1.487-.994 1.938-1.738.452-.744.668-1.628.65-2.652-.018-1.024-.265-1.899-.742-2.627-.476-.728-1.142-1.285-1.997-1.67-.855-.385-1.858-.567-3.01-.547z" fill="#12CE75"/><path d="M154.791 336.738l-.504.888c-1.381-.177-2.496-.512-3.345-1.003-.867-.477-1.487-1.089-1.859-1.836-.373-.731-.512-1.55-.417-2.457.102-.971.416-1.815.941-2.532.525-.701 1.256-1.227 2.193-1.579.921-.338 2.041-.437 3.362-.299l13.223 1.39-2.349 9.044.469 8.858-12.746-1.34c-1.655-.174-2.903-.699-3.744-1.576-.842-.861-1.192-1.975-1.048-3.344a4.676 4.676 0 01.751-2.093c.421-.647 1.047-1.169 1.877-1.564.812-.381 1.878-.567 3.196-.557zm8.581-6.796l1.666 2.516-8.903-.936c-.716-.075-1.291.041-1.726.349-.434.309-.684.773-.75 1.394-.065.62.098 1.136.49 1.547.389.427 1.005.685 1.849.774l7.351.772-.356 3.39-6.683-.703c-.573-.06-1.068.057-1.485.351-.434.308-.682.757-.744 1.346-.05.477.076.884.378 1.222.301.353.762.563 1.382.628l8.02.843-2.129 2.117-.422-7.695 2.062-7.915zm-19.435-.834l-.969 3.889-12.04-3.001.969-3.89 12.04 3.002zm-12.808 11.796l-3.589-19.446 5.146 1.283 2.819 17.078-1.397-.349 10.525-13.75 5.146 1.283-12.293 15.486-6.357-1.585zm-14.032-6.871l-4.66-1.789 5.664-14.767 4.661 1.789-5.665 14.767zm5.626 4.498l-17.476-6.708 1.581-4.123 17.477 6.708-1.582 4.123zm-12.563-25.043l-8.722 15.746-4.345-2.409L105 312.549l.87 3.035-6.129-3.398c-.714-.395-1.367-.52-1.96-.373-.608.139-1.082.516-1.423 1.132-.35.63-.418 1.232-.206 1.807.198.567.654 1.049 1.368 1.444l6.507 3.607-1.907 3.443-6.78-3.758c-1.33-.737-2.342-1.6-3.038-2.589-.717-.984-1.103-2.021-1.157-3.112-.068-1.098.2-2.194.805-3.285.604-1.092 1.394-1.907 2.37-2.446.953-.533 2.037-.755 3.25-.668 1.2.08 2.464.488 3.794 1.225l8.795 4.875zm-50.98-12.636l-2.194-2.046 2.56-2.502-3.322-1.327 1.28-2.711 3.164 1.638.248-3.575 2.967.371-.572 3.536 3.486-.819.579 2.935-3.566.482 1.855 3.043-2.614 1.467-1.573-3.24-2.298 2.748zm-7.721-37.704l-15.262 9.543-2.594-4.152 13.043-8.156.46 1.325-18.184-.659-3.446-5.516 15.262-9.543 2.607 4.172-13.288 8.309-.473-1.345 18.53.669 3.345 5.353z" fill="#12CE75"/><path d="M24.797 253.32l-2.02-4.538 16.442-7.326 2.02 4.539-16.442 7.325zm-5.76-12.936l-2.03-4.56 16.442-7.325 2.03 4.56-16.441 7.325zm10.7 7.687l-5.466-12.278 4.034-1.797 5.466 12.278-4.034 1.797zm-9.265-29.484l-1.015-.117c-.376-1.34-.504-2.498-.384-3.471.101-.985.422-1.794.965-2.429.526-.629 1.226-1.078 2.098-1.345.933-.285 1.833-.326 2.698-.122.85.208 1.62.675 2.31 1.401.671.715 1.2 1.708 1.589 2.978l3.887 12.715-9.242 1.372-7.97 3.894-3.747-12.256c-.487-1.591-.49-2.946-.012-4.062.463-1.112 1.352-1.87 2.668-2.272a4.673 4.673 0 012.22-.127c.76.135 1.485.507 2.173 1.117.668.598 1.256 1.506 1.762 2.724zm9.608 5.242l-1.665 2.517-2.617-8.561c-.21-.688-.542-1.172-.996-1.452-.454-.279-.979-.328-1.575-.145-.597.182-1.008.534-1.234 1.055-.24.525-.237 1.193.01 2.004l2.162 7.069-3.259.997-1.965-6.426c-.168-.551-.47-.961-.903-1.23-.453-.279-.963-.332-1.53-.159-.458.14-.784.415-.976.826-.208.415-.22.921-.038 1.517l2.357 7.712-2.78-1.132 6.917-3.396 8.092-1.196zm-15.712-29.452l3.556-.564 2.06 13.014-3.555.563-2.061-13.013zm3.31 9.389l7.318.031-1.912 2.344-2.155-13.606 3.982-.631 2.617 16.522-9.103.057-8.675 2.76-2.598-16.403 3.982-.631 2.136 13.488-2.543-1.638 6.95-2.293zm-.98-33.703c1.589.121 2.999.616 4.23 1.485 1.215.87 2.176 2.038 2.884 3.502.707 1.448 1.094 3.131 1.16 5.05.074 2.095-.254 3.94-.983 5.534-.728 1.594-1.78 2.856-3.157 3.785-1.377.912-3.001 1.401-4.872 1.467-1.871.065-3.525-.31-4.962-1.124-1.438-.83-2.576-2.015-3.415-3.555-.838-1.539-1.293-3.357-1.367-5.451-.067-1.919.202-3.626.806-5.12.604-1.51 1.49-2.741 2.657-3.695 1.151-.952 2.515-1.544 4.092-1.776l.175 4.989c-.762.187-1.399.521-1.91 1.004-.528.482-.922 1.105-1.184 1.866-.262.746-.376 1.606-.342 2.582.039 1.119.28 2.079.725 2.88a4.224 4.224 0 001.816 1.81c.767.405 1.678.59 2.733.553 1.055-.037 1.96-.285 2.712-.744.736-.458 1.298-1.102 1.685-1.932.372-.829.538-1.803.499-2.923-.035-.975-.2-1.826-.498-2.552-.298-.742-.727-1.335-1.287-1.78-.56-.445-1.234-.733-2.023-.866l-.174-4.989zm-7.794-8.19l.522-4.965 15.73 1.655-.522 4.964-15.73-1.654zm-2.89 6.598l1.958-18.618 4.391.462-1.957 18.618-4.391-.462zm20.748-18.409l-17.538-4.051 1.101-4.771 14.99 3.463-.612 1.263-12.39-13.332 1.462-6.337 17.538 4.052-1.107 4.794-15.27-3.528.618-1.286 12.628 13.583-1.42 6.15zm-9.094-35.785c.515-1.413 1.198-2.544 2.052-3.391.858-.862 1.83-1.402 2.914-1.62 1.068-.224 2.19-.122 3.362.305 1.158.421 2.081 1.064 2.771 1.929.675.859 1.064 1.894 1.168 3.107.109 1.198-.094 2.503-.608 3.916l-2.668 7.33-3.743-1.364 2.56-7.036c.274-.752.307-1.404.1-1.956-.223-.558-.657-.955-1.304-1.19-.661-.241-1.25-.217-1.763.073-.53.284-.93.802-1.204 1.554l-2.413 6.63-1.402-2.886 15.335 5.585-1.7 4.669-16.913-6.16 3.456-9.495zm25.289-9.74c-.999 1.879-2.224 3.347-3.674 4.406-1.444 1.044-2.997 1.631-4.66 1.761-1.657.116-3.311-.266-4.964-1.145-1.652-.88-2.894-2.038-3.724-3.477-.822-1.452-1.204-3.069-1.145-4.85.067-1.795.6-3.632 1.599-5.511 1.006-1.893 2.231-3.362 3.675-4.406 1.443-1.045 2.996-1.632 4.66-1.762 1.664-.13 3.322.245 4.974 1.125 1.653.879 2.89 2.045 3.713 3.497.822 1.453 1.204 3.07 1.145 4.85-.06 1.782-.592 3.619-1.599 5.512zm-3.92-2.086c.549-1.031.846-2.015.89-2.952.046-.936-.152-1.775-.591-2.517-.432-.755-1.1-1.373-2.004-1.854-.904-.481-1.79-.69-2.657-.626-.86.05-1.666.355-2.417.916-.751.561-1.401 1.357-1.95 2.388-.54 1.018-.833 1.995-.878 2.931-.045.937.148 1.783.58 2.538.432.756 1.1 1.374 2.004 1.855.904.481 1.79.689 2.657.625.868-.064 1.677-.376 2.429-.937.75-.561 1.397-1.35 1.938-2.367zm8.361-22.8l-.532-.87c.825-1.123 1.657-1.936 2.499-2.44.838-.527 1.673-.772 2.507-.735.82.028 1.604.303 2.35.827.8.56 1.386 1.244 1.758 2.051.359.799.465 1.694.317 2.685-.15.969-.607 1.997-1.369 3.085l-7.626 10.891-6.769-6.442-7.972-3.887 7.35-10.498c.955-1.363 2.02-2.2 3.194-2.51 1.161-.32 2.305-.085 3.432.705a4.681 4.681 0 011.466 1.672c.362.683.514 1.483.458 2.401-.06.895-.415 1.917-1.063 3.065zm1.783 10.803l-3.008.237 5.134-7.333c.413-.59.59-1.15.532-1.68-.06-.53-.344-.973-.855-1.331s-1.041-.466-1.59-.323c-.563.133-1.087.547-1.573 1.242l-4.24 6.055-2.791-1.956 3.854-5.504c.33-.472.468-.962.413-1.469-.059-.53-.33-.964-.815-1.304-.393-.275-.81-.363-1.252-.262-.455.092-.861.393-1.22.904l-4.625 6.606-.819-2.89 6.933 3.364 5.922 5.644zm10.375-15.932l-2.93-2.735 8.462-9.074 2.93 2.734-8.462 9.075zm-4.103-16.926l18.742 6.295-3.618 3.879-16.297-5.82.982-1.053 6.919 15.877-3.618 3.88-7.578-18.267 4.468-4.791zm12.413-9.733l3.824-3.209 10.162 12.12-3.824 3.208-10.162-12.12zM61.205 50.6l14.34-12.033 2.837 3.384-14.34 12.033-2.837-3.384zm27.931 1.164l-9.533-15.268 4.213-2.633 8.644 13.843-3.075-.71 5.943-3.714c.692-.432 1.118-.944 1.277-1.534.173-.599.073-1.197-.3-1.794-.38-.61-.874-.963-1.48-1.056-.591-.102-1.233.063-1.925.496l-6.31 3.942-2.084-3.338 6.574-4.108c1.289-.806 2.535-1.273 3.737-1.401 1.207-.151 2.3.015 3.28.496.995.474 1.822 1.24 2.483 2.298.661 1.059.99 2.145.988 3.26.003 1.092-.328 2.148-.993 3.167-.651 1.011-1.622 1.92-2.91 2.725l-8.529 5.329zm36.219-37.588l2.869-.877.884 3.47 2.812-2.215 1.706 2.464-3.001 1.922 2.97 2.003-1.806 2.384-2.774-2.264-1.036 3.429-2.83-.967 1.367-3.33-3.562.086.037-2.998 3.592.257-1.228-3.364z" fill="#12CE75"/></svg>