<svg width="350" height="348" fill="none" xmlns="http://www.w3.org/2000/svg"><path d="M178.575 24.384c-2.128 0-4-.392-5.616-1.176-1.6-.784-2.848-1.88-3.744-3.288-.88-1.408-1.32-3.048-1.32-4.92 0-1.872.44-3.512 1.32-4.92.896-1.408 2.144-2.504 3.744-3.288 1.616-.784 3.488-1.176 5.616-1.176 2.144 0 4.016.392 5.616 1.176 1.6.784 2.848 1.88 3.744 3.288.896 1.408 1.344 3.048 1.344 4.92 0 1.872-.448 3.512-1.344 4.92-.896 1.408-2.144 2.504-3.744 3.288-1.6.784-3.472 1.176-5.616 1.176zm0-4.44c1.168 0 2.176-.2 3.024-.6.848-.4 1.496-.968 1.944-1.704.464-.736.696-1.616.696-2.64s-.232-1.904-.696-2.64c-.448-.736-1.096-1.304-1.944-1.704-.848-.4-1.856-.6-3.024-.6-1.152 0-2.152.2-3 .6-.848.4-1.504.968-1.968 1.704-.464.736-.696 1.616-.696 2.64s.232 1.904.696 2.64c.464.736 1.12 1.304 1.968 1.704.848.4 1.848.6 3 .6z" fill="#12CE75"/><path d="M193.056 13.341l7.885.968c1.509.186 2.719.568 3.631 1.148.913.579 1.555 1.319 1.929 2.219.375.884.494 1.882.358 2.994-.136 1.112-.518 2.056-1.145 2.833-.626.762-1.459 1.313-2.5 1.652-1.039.324-2.249.401-3.631.231l-11.625-1.427 2.518-9.097-.327-8.77 16.841 2.069-.458 3.74-13.769-1.69 2.159-2.033.258 7.165-2.199 7.879-1.604-2.494 8.004.982c.714.088 1.301-.025 1.758-.34.474-.313.75-.786.827-1.422.08-.65-.073-1.177-.459-1.58-.368-.415-.909-.667-1.624-.755l-7.241-.89.414-3.382zm18.375 14.485l4.507-4.69.069.018 9.81-10.293 5.239 1.307-14.385 14.964-5.24-1.306zm3.66-1.586l-4.97-17.292 5.333 1.33 3.866 13.578-4.229 2.384zm19.769 3.604c-2.39-.918-3.982-2.24-4.777-3.967-.773-1.737-.708-3.785.197-6.146l1.709-4.46 4.638 1.78-1.563 4.08c-.452 1.18-.472 2.192-.059 3.036.414.844 1.262 1.513 2.547 2.006.747.287 1.563.506 2.447.657.89.136 1.809.197 2.757.184l-1.157 3.823a13.763 13.763 0 01-3.33-.096 15.871 15.871 0 01-3.409-.897zm3.391 7.112l6.443-16.808 4.66 1.789-6.442 16.808-4.661-1.79z" fill="#12CE75"/><path d="M247.431 37.035l1.941-3.507 10.852 6.016-1.941 3.506-10.852-6.015zm15.418-8.082l-1.559 19.716-4.639-2.572 1.691-17.228 1.26.698-13.719 10.561-4.639-2.571 15.875-11.78 5.73 3.176zm10.763 9.897l4.038 2.934-9.287 12.802-4.039-2.934 9.288-12.802zm-4.271-5.802l15.145 11.003-2.593 3.575-15.145-11.004 2.593-3.574zm5.609 27.03l12.267-13.173 3.633 3.388-11.121 11.944-.112-3.156 5.126 4.78c.596.556 1.2.835 1.812.836.622.012 1.174-.24 1.653-.755.491-.527.703-1.095.636-1.704-.055-.598-.381-1.176-.977-1.732l-5.442-5.074 2.683-2.88 5.669 5.286c1.112 1.037 1.885 2.12 2.321 3.248.459 1.127.583 2.227.371 3.299-.199 1.083-.724 2.081-1.575 2.994-.85.914-1.813 1.514-2.89 1.801-1.053.286-2.158.24-3.315-.138-1.144-.367-2.272-1.07-3.384-2.106l-7.355-6.858zm31.966 22.962c-1.326.885-2.741 1.364-4.246 1.437-1.493.063-2.968-.264-4.427-.982-1.448-.706-2.79-1.794-4.024-3.265-1.347-1.605-2.225-3.261-2.632-4.967-.408-1.705-.356-3.348.157-4.928.522-1.567 1.5-2.953 2.933-4.158 1.433-1.204 2.967-1.928 4.6-2.172 1.644-.232 3.269 0 4.878.698 1.608.696 3.085 1.848 4.433 3.453 1.234 1.471 2.073 2.981 2.517 4.53.454 1.563.515 3.08.182 4.55-.32 1.46-1.03 2.767-2.129 3.921l-3.209-3.824c.485-.617.781-1.273.887-1.968.118-.705.046-1.439-.217-2.2-.253-.749-.693-1.497-1.32-2.245-.72-.858-1.502-1.466-2.345-1.823a4.22 4.22 0 00-2.544-.307c-.854.153-1.685.569-2.493 1.248-.809.68-1.368 1.432-1.678 2.257-.298.814-.344 1.668-.138 2.56.218.883.687 1.754 1.407 2.611.627.748 1.282 1.316 1.963 1.705.692.401 1.395.605 2.11.61.714.005 1.423-.183 2.126-.565l3.209 3.825zm9.867 11.02l-2.957 1.923-4.092-6.3.068-.072c-.75-1.154-1.213-2.294-1.391-3.42-.168-1.111-.054-2.14.343-3.085.406-.932 1.085-1.708 2.037-2.327.98-.637 1.977-.951 2.993-.944 1.038.012 2.037.317 2.997.914.982.601 1.848 1.48 2.598 2.633l5.986 9.219-15.089 9.813-2.719-4.186 13.983-9.094-.656 3.089-4.091-6.3c-.444-.685-.961-1.112-1.549-1.283-.566-.167-1.144-.058-1.734.326-.576.375-.911.86-1.002 1.453-.069.599.119 1.24.563 1.924l3.712 5.717zm-2.949-1.633l-10.408-.56-3.137-4.83 10.513.72 3.032 4.67zm24.299 28.859l.977 2.837-3.436 1.006 2.311 2.732-2.403 1.794-2.024-2.933-1.898 3.041-2.445-1.721 2.164-2.853-3.461-.914.867-2.863 3.374 1.249-.21-3.558 2.997-.069-.131 3.599 3.318-1.347zm-9.521 45.019c-.149-2.122.112-4.017.781-5.684.671-1.651 1.677-2.973 3.019-3.965 1.343-.976 2.949-1.529 4.816-1.66s3.534.193 5 .973c1.467.795 2.647 1.964 3.541 3.505.895 1.557 1.417 3.397 1.565 5.52.15 2.139-.111 4.034-.781 5.685-.671 1.651-1.677 2.972-3.019 3.964s-2.947 1.554-4.814 1.685c-1.868.13-3.535-.202-5.002-.997-1.467-.796-2.648-1.964-3.541-3.505-.894-1.542-1.416-3.382-1.565-5.521zm4.429-.31c.082 1.165.351 2.157.81 2.975.458.818 1.07 1.425 1.835 1.82.767.412 1.661.582 2.682.51 1.022-.072 1.883-.364 2.585-.879.703-.498 1.224-1.184 1.564-2.058.34-.874.469-1.893.388-3.059-.08-1.149-.35-2.132-.808-2.95-.458-.818-1.07-1.433-1.837-1.845-.767-.411-1.661-.581-2.682-.509-1.022.071-1.883.364-2.585.878-.702.515-1.223 1.209-1.563 2.083-.34.873-.469 1.885-.389 3.034zm7.044 15.07l-.416 7.933c-.079 1.518-.376 2.752-.891 3.703-.514.95-1.207 1.642-2.079 2.077-.856.436-1.844.625-2.962.566-1.118-.059-2.087-.374-2.907-.946-.803-.571-1.41-1.363-1.822-2.378-.395-1.015-.556-2.217-.483-3.607l.613-11.696 9.25 1.88 8.725-.936-.888 16.944-3.763-.197.726-13.853 2.178 2.013-7.13.755-8.013-1.646 2.377-1.774-.423 8.053c-.037.719.117 1.296.463 1.731.344.45.836.692 1.476.726.655.034 1.169-.155 1.543-.568.39-.396.603-.954.641-1.673l.382-7.286 3.403.179zm-12.619 18.132l4.991 4.172-.012.071 10.95 9.074-.937 5.318-15.93-13.317.938-5.318zm1.837 3.542l16.901-6.155-.954 5.412-13.275 4.797-2.672-4.054zm-1.676 19.589c.749-2.448 1.957-4.128 3.624-5.04 1.678-.892 3.726-.968 6.143-.228l4.567 1.398-1.453 4.751-4.176-1.278c-1.209-.371-2.22-.32-3.033.15-.813.471-1.421 1.364-1.823 2.68a12.85 12.85 0 00-.484 2.487c-.074.898-.071 1.819.008 2.764l-3.894-.891a13.811 13.811 0 01-.136-3.33c.087-1.161.306-2.316.657-3.463zm-6.856 3.874l17.211 5.27-1.459 4.774-17.212-5.27 1.46-4.774z" fill="#12CE75"/><path d="M319.881 236.305l3.661 1.632-5.047 11.335-3.661-1.632 5.047-11.335zm9.389 14.671l-19.769.146 2.157-4.845 17.303.199-.586 1.316-11.709-12.763 2.157-4.845 13.111 14.806-2.664 5.986zm-8.607 12.732l-2.571 4.279-13.552-8.154 2.571-4.279 13.552 8.154zm5.406-4.757l-9.641 16.046-3.784-2.277 9.642-16.046 3.783 2.277zm-25.698 6.473l13.98 11.337-3.126 3.861-12.676-10.279 3.138-.329-4.41 5.446c-.514.634-.75 1.257-.709 1.867.032.622.321 1.155.867 1.599.56.453 1.141.626 1.743.517.593-.096 1.146-.461 1.659-1.095l4.683-5.782 3.057 2.479-4.879 6.024c-.956 1.181-1.982 2.029-3.077 2.542-1.092.535-2.18.734-3.263.597-1.094-.124-2.125-.579-3.094-1.365-.97-.786-1.635-1.707-1.995-2.761-.359-1.033-.389-2.139-.092-3.319.287-1.168.909-2.343 1.865-3.524l6.329-7.815zm-20.764 33.561c-.973-1.262-1.548-2.642-1.725-4.139-.166-1.486.059-2.982.674-4.488.603-1.495 1.595-2.909 2.977-4.243 1.507-1.456 3.097-2.446 4.769-2.971 1.673-.525 3.314-.586 4.924-.184 1.599.414 3.048 1.294 4.348 2.642 1.299 1.347 2.127 2.828 2.483 4.441.344 1.625.224 3.264-.36 4.918-.583 1.654-1.629 3.208-3.137 4.664-1.381 1.334-2.829 2.276-4.343 2.826-1.526.562-3.033.728-4.522.497-1.478-.219-2.83-.837-4.056-1.855l3.591-3.468c.648.442 1.322.692 2.023.75.711.069 1.437-.054 2.178-.369.729-.304 1.445-.795 2.147-1.473.806-.778 1.358-1.6 1.656-2.466a4.237 4.237 0 00.131-2.562c-.212-.841-.684-1.642-1.417-2.402-.733-.761-1.521-1.267-2.365-1.52-.833-.241-1.687-.228-2.563.04-.865.278-1.7.807-2.505 1.585-.702.678-1.224 1.37-1.564 2.077-.353.719-.507 1.435-.463 2.149.044.714.28 1.408.71 2.084l-3.591 3.467zm-10.325 10.461l-2.121-2.819 5.999-4.521.077.062c1.099-.828 2.203-1.37 3.313-1.625 1.097-.245 2.13-.203 3.1.128.957.341 1.777.965 2.46 1.873.702.933 1.085 1.907 1.148 2.922.059 1.037-.176 2.055-.705 3.055-.532 1.022-1.348 1.947-2.447 2.775l-8.779 6.616-10.822-14.383 3.986-3.005 10.03 13.329-3.125-.441 5.999-4.521c.652-.491 1.043-1.036 1.173-1.634.127-.577-.021-1.146-.445-1.709-.413-.55-.919-.85-1.518-.9-.601-.027-1.228.205-1.879.696l-5.444 4.102zm1.425-3.057l-.159-10.429 4.6-3.466.005 10.544-4.446 3.351zm-27.688 26.533l-2.761 1.172-1.241-3.358-2.565 2.496-1.954-2.273 2.784-2.225-3.163-1.681 1.548-2.561 2.995 1.962.672-3.518 2.915.666-1.012 3.454 3.534-.457.275 2.985-3.599.12 1.572 3.218zm-45.742-5.636c2.102-.333 4.012-.238 5.73.283 1.703.524 3.107 1.411 4.212 2.662 1.089 1.253 1.78 2.804 2.072 4.653.293 1.849.114 3.538-.535 5.066-.665 1.531-1.726 2.809-3.184 3.834-1.474 1.027-3.261 1.707-5.363 2.04-2.118.335-4.028.241-5.731-.283-1.703-.524-3.106-1.412-4.211-2.662-1.105-1.251-1.804-2.801-2.096-4.65-.293-1.849-.107-3.539.558-5.07.665-1.53 1.727-2.808 3.185-3.833 1.457-1.025 3.245-1.705 5.363-2.04zm.693 4.386c-1.153.182-2.118.537-2.893 1.065-.775.528-1.326 1.19-1.654 1.987-.343.8-.434 1.705-.275 2.717.16 1.011.527 1.844 1.1 2.499.558.656 1.287 1.116 2.187 1.379.9.262 1.927.302 3.08.119 1.138-.18 2.094-.534 2.869-1.062.776-.528 1.335-1.191 1.678-1.991.343-.799.435-1.705.275-2.716-.16-1.012-.527-1.845-1.1-2.499-.573-.654-1.31-1.113-2.21-1.375-.9-.263-1.919-.304-3.057-.123z" fill="#12CE75"/><path d="M184.64 339.911l-7.942.139c-1.52.026-2.772-.184-3.756-.631s-1.723-1.09-2.218-1.93c-.494-.823-.751-1.795-.771-2.915-.019-1.119.228-2.108.741-2.965.513-.841 1.262-1.502 2.245-1.983.985-.466 2.172-.71 3.564-.735l11.71-.204-1.229 9.359 1.543 8.638-16.965.296-.066-3.767 13.87-.242-1.856 2.313-1.251-7.06 1.083-8.108 1.935 2.247-8.063.14c-.72.013-1.284.207-1.694.582-.425.376-.633.883-.621 1.523.011.656.236 1.156.674 1.501.422.36.993.534 1.713.522l7.295-.128.059 3.408zm-19.989-11.736l-3.811 5.271-.072-.008-8.284 11.557-5.37-.564 12.166-16.82 5.371.564zm-3.404 2.08l7.325 16.431-5.466-.574-5.716-12.908 3.857-2.949zm-19.427.236c2.494.576 4.255 1.664 5.282 3.264 1.007 1.612 1.227 3.65.659 6.113l-1.073 4.654-4.84-1.118.981-4.256c.284-1.232.163-2.237-.364-3.015-.526-.779-1.46-1.323-2.801-1.632a12.892 12.892 0 00-2.515-.31c-.9-.011-1.819.056-2.755.202l.614-3.947a13.76 13.76 0 013.312-.369c1.164.006 2.331.144 3.5.414zm-4.347-6.57l-4.044 17.54-4.864-1.123 4.044-17.54 4.864 1.123z" fill="#12CE75"/><path d="M127.785 324.343l-1.369 3.766-11.66-4.243 1.369-3.767 11.66 4.244zm-13.967 10.394l-1.542-19.717 4.985 1.814 1.023 17.28-1.354-.492 11.9-12.577 4.984 1.814-13.839 14.118-6.157-2.24zm-12.709-8.204l-4.447-2.266 7.172-14.097 4.448 2.267-7.173 14.096zm5.126 5.063l-16.68-8.499 2.003-3.936 16.679 8.499-2.002 3.936zm-9.95-25.633l-10.055 14.93-4.12-2.778 9.118-13.536.603 3.099-5.81-3.919c-.676-.456-1.316-.637-1.92-.542-.617.085-1.122.42-1.515 1.004-.403.597-.523 1.191-.362 1.782.148.583.56 1.102 1.237 1.558l6.168 4.161-2.199 3.264-6.427-4.335c-1.26-.85-2.193-1.798-2.8-2.844-.63-1.042-.924-2.109-.883-3.201.028-1.101.39-2.169 1.087-3.204.697-1.035 1.555-1.778 2.573-2.23.996-.448 2.095-.575 3.296-.383 1.188.184 2.412.701 3.672 1.551l8.337 5.623zM62.16 287.747c1.17-1.081 2.494-1.775 3.969-2.083 1.464-.296 2.973-.204 4.526.277 1.54.471 3.036 1.336 4.485 2.595 1.582 1.375 2.707 2.873 3.377 4.494.67 1.621.875 3.251.616 4.892-.271 1.63-1.02 3.152-2.247 4.566-1.227 1.413-2.628 2.368-4.203 2.865-1.588.486-3.23.511-4.927.074-1.697-.437-3.337-1.343-4.919-2.718-1.449-1.259-2.514-2.62-3.195-4.081-.693-1.471-.99-2.96-.892-4.464.088-1.492.585-2.895 1.49-4.206l3.768 3.275c-.383.685-.572 1.379-.568 2.082-.007.715.18 1.428.558 2.139.367.7.919 1.371 1.655 2.011.846.735 1.712 1.213 2.6 1.434a4.22 4.22 0 002.562-.095c.82-.284 1.575-.825 2.267-1.623.692-.797 1.127-1.628 1.305-2.491.166-.851.078-1.702-.265-2.551-.353-.838-.953-1.624-1.798-2.359-.737-.64-1.472-1.099-2.206-1.376-.746-.288-1.472-.379-2.179-.273-.706.107-1.377.404-2.012.891l-3.767-3.275zm-11.637-9.75l2.661-2.317 4.929 5.67-.057.081c.903 1.038 1.52 2.102 1.853 3.192.322 1.077.352 2.112.09 3.103-.272.98-.837 1.842-1.694 2.588-.88.767-1.825 1.218-2.832 1.352-1.03.132-2.06-.03-3.095-.488-1.056-.459-2.036-1.208-2.938-2.246l-7.212-8.296 13.577-11.819 3.275 3.768-12.581 10.952.219-3.15 4.928 5.669c.536.616 1.106.968 1.712 1.055.584.086 1.141-.102 1.672-.564.52-.452.782-.978.79-1.579-.014-.602-.29-1.211-.825-1.827l-4.472-5.144zm3.148 1.206l10.384-.895 3.78 4.348-10.511.749-3.653-4.202zm-28.738-24.486l-1.362-2.673 3.262-1.475-2.669-2.384 2.13-2.11 2.413 2.621 1.456-3.275 2.66 1.363-1.746 3.128 3.556.422-.46 2.956-3.516-.766.703 3.494-2.957.486-.371-3.583-3.099 1.796zm3.961-46.025c.48 2.074.518 3.986.118 5.737-.404 1.736-1.191 3.199-2.361 4.389-1.174 1.175-2.673 1.973-4.497 2.394-1.824.422-3.52.363-5.09-.177-1.574-.556-2.922-1.525-4.046-2.908-1.128-1.398-1.93-3.134-2.41-5.207-.482-2.089-.52-4.001-.117-5.737.404-1.736 1.191-3.198 2.361-4.389 1.17-1.19 2.668-1.996 4.492-2.417 1.823-.422 3.522-.355 5.095.201 1.574.556 2.922 1.525 4.046 2.907 1.124 1.383 1.927 3.118 2.41 5.207zm-4.325 1.001c-.263-1.138-.685-2.076-1.265-2.812-.58-.736-1.28-1.239-2.098-1.51-.821-.286-1.73-.314-2.729-.084-.997.231-1.803.655-2.415 1.273-.617.603-1.024 1.362-1.223 2.278-.199.917-.167 1.944.096 3.082.259 1.122.678 2.052 1.259 2.788.58.736 1.282 1.247 2.103 1.534.821.286 1.731.314 2.729.083.997-.231 1.802-.655 2.415-1.273.613-.618 1.019-1.385 1.218-2.301.199-.917.169-1.936-.09-3.058zm-9.743-13.202l-.83-7.901c-.16-1.511-.059-2.777.3-3.796.36-1.019.936-1.812 1.73-2.378.777-.564 1.722-.905 2.836-1.022 1.114-.118 2.12.042 3.019.478.882.438 1.606 1.126 2.171 2.064.55.94.897 2.102 1.042 3.486l1.225 11.648-9.43-.407-8.472 2.291-1.773-16.875 3.747-.394 1.45 13.796-2.465-1.647 6.923-1.863 8.171.371-2.07 2.124-.842-8.02c-.075-.716-.318-1.262-.727-1.637-.411-.391-.935-.553-1.572-.486-.652.069-1.13.336-1.435.803-.323.452-.447 1.036-.371 1.752l.762 7.256-3.389.357zm9.774-21.013l-5.583-3.338.002-.072-12.236-7.247.094-5.399 17.817 10.657-.094 5.399zm-2.369-3.209l-15.73 8.726.096-5.495 12.36-6.817 3.274 3.586zm-.957-18.886c-.4 2.528-1.363 4.36-2.887 5.496-1.538 1.116-3.555 1.477-6.052 1.081l-4.717-.748.777-4.907 4.314.684c1.248.198 2.242.008 2.982-.572.74-.579 1.217-1.548 1.433-2.907.125-.79.17-1.634.133-2.531a16.677 16.677 0 00-.393-2.735l3.98.34c.324 1.023.523 2.116.599 3.278a15.888 15.888 0 01-.17 3.521zm6.25-4.792l-17.777-2.82.78-4.93 17.778 2.819-.78 4.931z" fill="#12CE75"/><path d="M25.812 138.236l-3.853-1.106 3.42-11.927 3.853 1.106-3.42 11.927zm-11.34-13.219l19.557-2.899-1.462 5.099-17.163 2.213.397-1.385 13.372 11.007-1.462 5.098-15.045-12.835 1.806-6.298zm6.762-12.722l1.95-4.596 14.556 6.188-1.95 4.595-14.556-6.187zm-4.692 5.464l7.314-17.232 4.064 1.727-7.314 17.232-4.064-1.727zm25.225-12.054l-15.583-9.01 2.484-4.302 14.129 8.169-3.049.815 3.504-6.069c.408-.706.544-1.358.408-1.954-.128-.61-.497-1.091-1.106-1.444-.623-.36-1.224-.44-1.803-.238-.57.188-1.059.635-1.467 1.342l-3.72 6.443-3.407-1.97 3.876-6.713c.76-1.317 1.64-2.314 2.641-2.992.995-.7 2.039-1.067 3.13-1.101 1.1-.048 2.19.24 3.27.865 1.08.624 1.881 1.43 2.402 2.414.516.964.719 2.052.61 3.264-.1 1.198-.53 2.456-1.29 3.772l-5.029 8.709zm14.909-35.53c1.159 1.094 1.942 2.367 2.351 3.819.397 1.441.409 2.954.037 4.537-.362 1.571-1.121 3.123-2.277 4.656-1.261 1.674-2.676 2.901-4.246 3.681-1.57.78-3.18 1.098-4.834.952-1.644-.158-3.213-.8-4.708-1.928-1.494-1.128-2.543-2.46-3.147-3.999-.594-1.55-.732-3.189-.415-4.913.318-1.725 1.108-3.424 2.37-5.098 1.155-1.533 2.437-2.69 3.847-3.47 1.419-.794 2.882-1.193 4.389-1.199 1.493-.015 2.926.384 4.296 1.198l-3.004 3.987c-.71-.335-1.415-.476-2.115-.424-.714.043-1.412.278-2.094.705-.673.415-1.303 1.011-1.89 1.791-.675.894-1.091 1.793-1.25 2.695a4.23 4.23 0 00.272 2.55c.34.798.932 1.516 1.775 2.152.843.636 1.7 1.012 2.573 1.13.86.108 1.702-.038 2.526-.44.81-.41 1.552-1.063 2.226-1.957.588-.78.994-1.545 1.22-2.297.235-.764.276-1.496.12-2.194-.154-.698-.497-1.347-1.026-1.947l3.004-3.987zm9.123-12.651l2.536 2.453-5.218 5.403-.086-.05c-.956.99-1.962 1.698-3.018 2.124-1.045.414-2.072.533-3.082.358-.998-.187-1.906-.675-2.723-1.465-.84-.811-1.37-1.714-1.59-2.706-.22-1.015-.148-2.058.218-3.128.366-1.093 1.027-2.134 1.983-3.124l7.636-7.907 12.939 12.513-3.468 3.591-11.99-11.595 3.155-.054-5.219 5.403c-.567.587-.867 1.187-.902 1.799-.035.589.2 1.128.706 1.617.495.479 1.041.696 1.64.652.598-.067 1.181-.394 1.748-.981l4.735-4.903zm-.929 3.242l1.788 10.276-4.002 4.143-1.654-10.414 3.868-4.005zm22.366-29.58l2.572-1.545 1.696 3.153 2.192-2.83 2.252 1.98-2.448 2.59 3.366 1.226-1.177 2.75-3.238-1.526-.177 3.578-2.979-.254.522-3.561-3.435.944-.688-2.919 3.547-.619-2.005-2.967z" fill="#12CE75"/></svg>