<svg width="95" height="44" fill="none" xmlns="http://www.w3.org/2000/svg"><path d="M1.6 14.44c.187-2.65 1.12-5.059 2.8-7.224 1.68-2.165 4.07-3.883 7.169-5.152C14.705.757 18.494.104 22.937.104c3.808 0 7.112.504 9.912 1.512 2.837.97 5.04 2.333 6.608 4.088 1.568 1.717 2.352 3.752 2.352 6.104 0 1.904-.579 3.64-1.736 5.208-1.12 1.53-2.894 2.763-5.32 3.696-2.427.896-5.526 1.325-9.296 1.288v-1.12c3.584-.187 6.664.075 9.24.784 2.576.71 4.554 1.83 5.936 3.36 1.381 1.53 2.072 3.453 2.072 5.768 0 2.539-.803 4.797-2.408 6.776-1.606 1.941-3.958 3.49-7.056 4.648-3.061 1.12-6.795 1.68-11.2 1.68-4.294 0-8.046-.597-11.256-1.792-3.174-1.232-5.656-2.93-7.448-5.096C1.582 34.805.63 32.229.48 29.28h10.528c.298 2.053 1.344 3.64 3.136 4.76 1.83 1.083 4.461 1.624 7.896 1.624 3.248 0 5.712-.485 7.392-1.456 1.717-1.008 2.576-2.408 2.576-4.2 0-1.045-.28-1.904-.84-2.576-.56-.71-1.512-1.25-2.856-1.624-1.344-.373-3.21-.56-5.6-.56h-7.28v-7.224h7.28c3.098 0 5.282-.43 6.552-1.288 1.27-.896 1.904-2.053 1.904-3.472 0-1.568-.747-2.781-2.24-3.64-1.456-.859-3.659-1.288-6.608-1.288-3.062 0-5.45.541-7.168 1.624-1.68 1.045-2.688 2.539-3.024 4.48H1.6zm69.39 29.456c-4.742 0-8.849-.915-12.32-2.744-3.473-1.83-6.16-4.368-8.065-7.616-1.904-3.285-2.856-7.13-2.856-11.536 0-4.368.952-8.195 2.856-11.48s4.592-5.843 8.064-7.672C62.141 1.018 66.248.104 70.99.104c4.704 0 8.792.915 12.264 2.744 3.472 1.83 6.16 4.387 8.064 7.672 1.904 3.248 2.856 7.075 2.856 11.48 0 4.368-.952 8.195-2.856 11.48s-4.592 5.843-8.064 7.672c-3.472 1.83-7.56 2.744-12.264 2.744zm0-8.624c3.994 0 7.093-1.157 9.295-3.472 2.24-2.315 3.36-5.581 3.36-9.8s-1.12-7.485-3.36-9.8c-2.203-2.315-5.301-3.472-9.296-3.472-3.995 0-7.112 1.157-9.352 3.472s-3.36 5.581-3.36 9.8 1.12 7.485 3.36 9.8c2.24 2.315 5.358 3.472 9.352 3.472z" fill="#fff"/></svg>