<svg width="134" height="94" fill="none" xmlns="http://www.w3.org/2000/svg"><path d="M35.325 71.232H23.559l8.905-33.244c1.389-5.18 6.715-9.384 11.896-9.384h11.766l-8.905 33.244c-1.389 5.181-6.715 9.384-11.896 9.384zM76.1 61.848L92.59.297H80.824C75.643.297 70.316 4.5 68.927 9.68L52.433 71.23h11.766c5.181 0 10.508-4.202 11.896-9.383h.006zm28.879 0l13.993-52.23h-11.766c-5.181 0-10.508 4.203-11.897 9.384l-13.992 52.23h11.766c5.18 0 10.507-4.203 11.896-9.384z" fill="url(#paint0_linear_6463_622)"/><path d="M89.177 41.765l-7.902 29.467h11.766c5.181 0 10.513-4.203 11.897-9.384l9.597-35.824c-7.714 6.393-16.38 11.559-25.358 15.74zM57.108 53.66l-4.707 17.571h11.766c5.181 0 10.507-4.203 11.896-9.384l3.974-14.835c-7.755 2.804-15.521 4.973-22.929 6.648zm-30.252 5.103l-3.34 12.468h11.772c5.175 0 10.507-4.203 11.89-9.384l1.561-5.805a248.467 248.467 0 01-21.883 2.726v-.005z" fill="url(#paint1_linear_6463_622)"/><path style="mix-blend-mode:screen" d="M107.201 9.618c-5.181 0-10.507 4.203-11.896 9.379l-13.998 52.23h1.936L96.74 20.833c1.389-5.176 6.715-9.379 11.896-9.379h9.842l.488-1.836H107.2zM80.824.297c-5.181 0-10.513 4.192-11.897 9.378L52.433 71.227h1.925l16.005-59.71c1.389-5.181 6.716-9.384 11.896-9.384h9.842l.489-1.83H80.824V.296zm-36.47 28.302c-5.18 0-10.507 4.203-11.895 9.384l-8.9 33.239h1.924l8.422-31.403c1.383-5.18 6.715-9.384 11.89-9.384h9.847l.49-1.836H44.354z" fill="url(#paint2_linear_6463_622)"/><path opacity=".2" d="M127.399 22.43a6.6 6.6 0 100-13.201 6.6 6.6 0 000 13.201z" fill="url(#paint3_radial_6463_622)"/><path d="M.016 59.122c11.438.692 22.928.063 34.279-1.383A201.715 201.715 0 0051.2 54.82c1.394-.318 2.793-.604 4.182-.952l4.156-1.051c2.752-.77 5.509-1.519 8.224-2.419 5.441-1.732 10.799-3.735 16-6.075l1.961-.859c.645-.296 1.285-.619 1.925-.926 1.28-.629 2.57-1.227 3.839-1.877 2.507-1.353 5.045-2.653 7.47-4.151 9.841-5.732 18.798-12.9 26.684-21.03l1.852 1.825-3.168 2.965-1.587 1.483-1.659 1.399-3.319 2.793-3.453 2.622c-.578.437-1.14.884-1.727 1.305l-1.785 1.228c-1.191.812-2.361 1.654-3.573 2.44-2.455 1.519-4.869 3.095-7.412 4.458-2.487 1.456-5.082 2.72-7.647 4.026-1.295.629-2.616 1.206-3.922 1.81-.655.296-1.306.603-1.966.89l-1.998.821c-1.337.536-2.647 1.124-4 1.613l-4.047 1.498c-1.352.489-2.725.915-4.083 1.373-.681.224-1.363.463-2.05.67l-2.064.62c-2.742.858-5.525 1.566-8.302 2.3l-4.193.987c-1.4.328-2.809.593-4.213.89a203.987 203.987 0 01-17 2.663c-5.695.65-11.422 1.05-17.15 1.233-2.865.099-5.726.135-8.592.093-2.866-.041-5.727-.13-8.583-.364h.016z" fill="url(#paint4_linear_6463_622)"/><path opacity=".5" d="M127.398 21.213a5.384 5.384 0 100-10.767 5.384 5.384 0 000 10.767z" fill="url(#paint5_radial_6463_622)"/><path d="M130.25 18.67a4.02 4.02 0 10-5.686-5.688 4.02 4.02 0 005.686 5.687z" fill="url(#paint6_radial_6463_622)"/><path d="M.782 89.304H2.39c.048.36.196.676.444.948.256.272.592.484 1.008.636.416.144.896.216 1.44.216.808 0 1.448-.124 1.92-.372.472-.256.708-.6.708-1.032 0-.352-.136-.616-.408-.792-.272-.176-.764-.308-1.476-.396l-1.944-.252c-1.088-.144-1.88-.412-2.376-.804-.488-.4-.732-.964-.732-1.692 0-.552.164-1.028.492-1.428.336-.408.808-.72 1.416-.936.608-.224 1.32-.336 2.136-.336.808 0 1.524.12 2.148.36.624.24 1.12.576 1.488 1.008.376.424.58.924.612 1.5H7.658a1.385 1.385 0 00-.408-.828c-.224-.232-.528-.412-.912-.54-.384-.136-.836-.204-1.356-.204-.736 0-1.324.12-1.764.36-.44.24-.66.568-.66.984 0 .32.128.568.384.744.264.168.72.296 1.368.384l1.968.276c.808.112 1.444.264 1.908.456.472.184.808.436 1.008.756.2.312.3.716.3 1.212 0 .576-.176 1.08-.528 1.512-.352.432-.848.768-1.488 1.008-.632.232-1.372.348-2.22.348-.864 0-1.628-.128-2.292-.384-.656-.264-1.176-.628-1.56-1.092a2.694 2.694 0 01-.624-1.62zM15.647 92.4c-1.024 0-1.924-.196-2.7-.588-.776-.392-1.38-.936-1.812-1.632-.432-.704-.648-1.52-.648-2.448 0-.928.216-1.74.648-2.436a4.403 4.403 0 011.812-1.644c.776-.392 1.676-.588 2.7-.588 1.024 0 1.924.196 2.7.588.776.392 1.38.94 1.812 1.644.432.696.648 1.508.648 2.436 0 .928-.216 1.744-.648 2.448-.432.696-1.036 1.24-1.812 1.632-.776.392-1.676.588-2.7.588zm0-1.416c.728 0 1.356-.132 1.884-.396.528-.264.936-.64 1.224-1.128.296-.488.444-1.064.444-1.728 0-.664-.148-1.24-.444-1.728a2.882 2.882 0 00-1.224-1.128c-.528-.264-1.156-.396-1.884-.396-.72 0-1.348.132-1.884.396a2.96 2.96 0 00-1.236 1.128c-.288.488-.432 1.064-.432 1.728 0 .664.144 1.24.432 1.728a2.96 2.96 0 001.236 1.128c.536.264 1.164.396 1.884.396zm16.19-2.316a3.8 3.8 0 01-.78 1.956c-.431.56-1 .996-1.703 1.308-.704.312-1.508.468-2.412.468-1.008 0-1.892-.196-2.652-.588a4.382 4.382 0 01-1.776-1.632c-.424-.704-.636-1.52-.636-2.448 0-.928.212-1.74.636-2.436a4.355 4.355 0 011.776-1.644c.76-.392 1.644-.588 2.652-.588.904 0 1.708.156 2.412.468.704.312 1.272.748 1.704 1.308.44.56.7 1.212.78 1.956h-1.596a2.565 2.565 0 00-.576-1.236 2.77 2.77 0 00-1.128-.792c-.464-.192-1-.288-1.608-.288-.704 0-1.316.132-1.836.396-.512.264-.908.64-1.188 1.128-.28.488-.42 1.064-.42 1.728 0 .664.14 1.24.42 1.728.28.488.676.864 1.188 1.128.52.264 1.132.396 1.836.396.608 0 1.144-.092 1.608-.276a2.77 2.77 0 001.128-.792c.296-.352.488-.768.576-1.248h1.596zm2.244 1.5V88.86h6.288v1.308h-6.288zm4.176-6.936l4.32 9h-1.692l-3.924-8.4h.612l-3.924 8.4h-1.692l4.32-9h1.98zm7.001 0v8.292l-.708-.684h6.78v1.392h-7.656v-9h1.584zm12.5.732h1.584v8.268h-1.584v-8.268zm-3.72-.732h9.024v1.392h-9.024v-1.392zm11.33 4.056h3.66c.528 0 .944-.12 1.248-.36.312-.24.468-.568.468-.984 0-.424-.156-.752-.468-.984-.304-.24-.72-.36-1.248-.36H65.14l.708-.888v8.52h-1.584v-9h4.908c.632 0 1.184.116 1.656.348.48.224.852.54 1.116.948.272.4.408.872.408 1.416 0 .528-.136.996-.408 1.404-.264.4-.636.716-1.116.948-.472.224-1.024.336-1.656.336h-3.804v-1.344zm1.776.732h1.86l3.576 4.212h-1.896l-3.54-4.212zm7.835 2.148V88.86h6.288v1.308H74.98zm4.177-6.936l4.32 9h-1.692l-3.925-8.4h.613l-3.924 8.4h-1.692l4.32-9h1.98zm9.484 0c1.025 0 1.92.188 2.689.564.776.376 1.38.904 1.812 1.584.431.672.647 1.456.647 2.352 0 .896-.215 1.684-.647 2.364-.433.672-1.037 1.196-1.813 1.572-.767.376-1.663.564-2.688.564h-4.067v-9h4.068zm-2.484 8.448l-.876-.84h3.469c.688 0 1.288-.128 1.8-.384.52-.264.92-.628 1.2-1.092.288-.472.431-1.016.431-1.632 0-.624-.144-1.168-.431-1.632a2.815 2.815 0 00-1.2-1.08c-.513-.264-1.113-.396-1.8-.396H85.28l.875-.84v7.896zm16.28-4.608v1.32h-6.288v-1.32h6.288zm-5.244.66l-.636 4.02-.756-.888h6.984v1.368h-7.848l.72-4.5-.72-4.5h7.788V84.6H95.8l.756-.888.636 4.02zm12.004-4.5v8.292l-.708-.684h6.78v1.392h-7.656v-9h1.584zm8.222.732h1.584v8.268h-1.584v-8.268zm-3.72-.732h9.024v1.392h-9.024v-1.392zm14.294 0c1.024 0 1.92.188 2.688.564.776.376 1.38.904 1.812 1.584.432.672.648 1.456.648 2.352 0 .896-.216 1.684-.648 2.364-.432.672-1.036 1.196-1.812 1.572-.768.376-1.664.564-2.688.564h-4.068v-9h4.068zm-2.484 8.448l-.876-.84h3.468c.688 0 1.288-.128 1.8-.384.52-.264.92-.628 1.2-1.092.288-.472.432-1.016.432-1.632 0-.624-.144-1.168-.432-1.632a2.815 2.815 0 00-1.2-1.08c-.512-.264-1.112-.396-1.8-.396h-3.468l.876-.84v7.896z" fill="#fff"/><defs><linearGradient id="paint0_linear_6463_622" x1="56.324" y1="-2.158" x2="87.782" y2="71.232" gradientUnits="userSpaceOnUse"><stop stop-color="#043FB1"/><stop offset=".27" stop-color="#001E57"/><stop offset=".39" stop-color="#001E58"/><stop offset=".6" stop-color="#0057FF"/><stop offset=".71" stop-color="#3278FF"/><stop offset="1" stop-color="#7FAAFF"/></linearGradient><linearGradient id="paint1_linear_6463_622" x1="82.758" y1="97.755" x2="68.006" y2="44.969" gradientUnits="userSpaceOnUse"><stop stop-color="#5497FC"/><stop offset=".29" stop-color="#0057FF"/><stop offset=".41" stop-color="#064CD0"/><stop offset=".64" stop-color="#003BAB"/><stop offset=".78" stop-color="#002C80"/><stop offset="1" stop-color="#001E58"/></linearGradient><linearGradient id="paint2_linear_6463_622" x1="57.635" y1="89.852" x2="75.368" y2="2.07" gradientUnits="userSpaceOnUse"><stop stop-color="#00FF94" stop-opacity=".4"/><stop offset=".415" stop-color="#00FF94" stop-opacity=".85"/><stop offset="1" stop-color="#00FF94"/></linearGradient><linearGradient id="paint4_linear_6463_622" x1=".016" y1="37.489" x2="127.493" y2="37.489" gradientUnits="userSpaceOnUse"><stop stop-color="#00FF94" stop-opacity="0"/><stop offset=".09" stop-color="#00FF94" stop-opacity=".04"/><stop offset=".24" stop-color="#00FF94" stop-opacity=".16"/><stop offset=".44" stop-color="#00FF94" stop-opacity=".35"/><stop offset=".68" stop-color="#00FF94" stop-opacity=".61"/><stop offset=".96" stop-color="#00FF94" stop-opacity=".95"/><stop offset="1" stop-color="#12CE75"/></linearGradient><radialGradient id="paint3_radial_6463_622" cx="0" cy="0" r="1" gradientUnits="userSpaceOnUse" gradientTransform="translate(125.73 11.273) scale(15.064)"><stop offset=".11" stop-color="#00FF94"/><stop offset="1" stop-color="#12CE75"/></radialGradient><radialGradient id="paint5_radial_6463_622" cx="0" cy="0" r="1" gradientUnits="userSpaceOnUse" gradientTransform="translate(126.036 12.11) scale(12.2863)"><stop offset=".11" stop-color="#00FF94"/><stop offset="1" stop-color="#12CE75"/></radialGradient><radialGradient id="paint6_radial_6463_622" cx="0" cy="0" r="1" gradientUnits="userSpaceOnUse" gradientTransform="translate(126.383 13.052) scale(9.18094)"><stop offset=".11" stop-color="#00FF94"/><stop offset="1" stop-color="#12CE75"/></radialGradient></defs></svg>