<svg width="309" height="41" fill="none" xmlns="http://www.w3.org/2000/svg"><path d="M19.92 40.5h-6.635l5.021-18.746c.784-2.922 3.787-5.292 6.709-5.292h6.634L26.628 35.21c-.783 2.92-3.788 5.29-6.708 5.29zm22.993-5.291L52.21.5h-6.635c-2.921 0-5.925 2.37-6.708 5.291l-9.3 34.709h6.635c2.921 0 5.925-2.37 6.708-5.291h.003zm16.285 0l7.89-29.453h-6.635c-2.921 0-5.925 2.37-6.708 5.292L45.855 40.5h6.635c2.921 0 5.925-2.37 6.708-5.291z" fill="url(#paint0_linear_6463_547)"/><path d="M50.286 23.883L45.831 40.5h6.635c2.921 0 5.928-2.37 6.708-5.291l5.412-20.201c-4.35 3.605-9.237 6.517-14.3 8.875zm-18.083 6.709L29.55 40.5h6.635c2.921 0 5.925-2.37 6.708-5.291l2.24-8.366c-4.372 1.581-8.752 2.804-12.929 3.749zm-17.06 2.877L13.262 40.5H19.9c2.918 0 5.925-2.37 6.705-5.291l.88-3.274a140.083 140.083 0 01-12.34 1.537v-.003z" fill="url(#paint1_linear_6463_547)"/><path style="mix-blend-mode:screen" d="M60.45 5.756c-2.921 0-5.925 2.37-6.708 5.289L45.85 40.497h1.091l7.612-28.417c.783-2.918 3.787-5.288 6.708-5.288h5.55l.275-1.036h-6.634zM45.576.5c-2.921 0-5.928 2.364-6.708 5.289l-9.301 34.708h1.085l9.026-33.67c.783-2.922 3.786-5.292 6.708-5.292h5.55L52.21.503h-6.635V.5zM25.012 16.46c-2.922 0-5.925 2.37-6.709 5.291l-5.018 18.743h1.085l4.749-17.708c.78-2.921 3.787-5.291 6.705-5.291h5.553l.275-1.036h-6.64z" fill="url(#paint2_linear_6463_547)"/><path opacity=".2" d="M71.84 12.98a3.722 3.722 0 100-7.444 3.722 3.722 0 000 7.445z" fill="url(#paint3_radial_6463_547)"/><path d="M.009 33.672c6.45.39 12.93.035 19.33-.78 3.2-.414 6.382-.963 9.533-1.646.785-.18 1.575-.34 2.358-.537l2.343-.593c1.552-.434 3.107-.856 4.638-1.363a84.29 84.29 0 009.022-3.426l1.106-.484c.364-.168.725-.35 1.085-.523.722-.354 1.45-.692 2.165-1.058 1.414-.763 2.845-1.496 4.212-2.341 5.55-3.232 10.6-7.274 15.047-11.859l1.045 1.03-1.787 1.671-.894.836-.936.79-1.871 1.575-1.948 1.478c-.326.246-.642.499-.974.736l-1.006.692c-.672.458-1.332.933-2.015 1.376-1.385.857-2.745 1.745-4.18 2.514-1.402.821-2.866 1.534-4.312 2.27-.73.355-1.475.68-2.211 1.02-.37.168-.736.341-1.109.502l-1.126.464c-.754.302-1.493.634-2.256.91l-2.282.844c-.763.276-1.537.516-2.303.774-.384.126-.768.261-1.155.379l-1.165.349c-1.545.484-3.115.883-4.681 1.296l-2.364.557c-.79.185-1.584.335-2.376.502a115.04 115.04 0 01-9.586 1.502 118.53 118.53 0 01-9.67.695 98.98 98.98 0 01-4.846.053c-1.616-.024-3.23-.074-4.84-.206h.009z" fill="url(#paint4_linear_6463_547)"/><path opacity=".5" d="M71.84 12.294a3.036 3.036 0 100-6.071 3.036 3.036 0 000 6.071z" fill="url(#paint5_radial_6463_547)"/><path d="M73.448 10.86a2.267 2.267 0 10-3.207-3.207 2.267 2.267 0 003.207 3.207z" fill="url(#paint6_radial_6463_547)"/><path d="M86.699 23.62h2.68c.08.6.327 1.127.74 1.58.427.453.987.807 1.68 1.06.693.24 1.493.36 2.4.36 1.347 0 2.413-.207 3.2-.62.787-.427 1.18-1 1.18-1.72 0-.587-.227-1.027-.68-1.32-.453-.293-1.273-.513-2.46-.66l-3.24-.42c-1.813-.24-3.133-.687-3.96-1.34-.813-.667-1.22-1.607-1.22-2.82 0-.92.273-1.713.82-2.38.56-.68 1.347-1.2 2.36-1.56 1.013-.373 2.2-.56 3.56-.56 1.347 0 2.54.2 3.58.6 1.04.4 1.867.96 2.48 1.68.627.707.967 1.54 1.02 2.5h-2.68a2.309 2.309 0 00-.68-1.38c-.373-.387-.88-.687-1.52-.9-.64-.227-1.393-.34-2.26-.34-1.227 0-2.207.2-2.94.6-.733.4-1.1.947-1.1 1.64 0 .533.213.947.64 1.24.44.28 1.2.493 2.28.64l3.28.46c1.347.187 2.407.44 3.18.76.787.307 1.347.727 1.68 1.26.333.52.5 1.193.5 2.02 0 .96-.293 1.8-.88 2.52s-1.413 1.28-2.48 1.68c-1.053.387-2.287.58-3.7.58-1.44 0-2.713-.213-3.82-.64-1.093-.44-1.96-1.047-2.6-1.82a4.49 4.49 0 01-1.04-2.7zm24.775 5.16c-1.707 0-3.207-.327-4.5-.98-1.294-.653-2.3-1.56-3.02-2.72-.72-1.173-1.08-2.533-1.08-4.08 0-1.547.36-2.9 1.08-4.06.72-1.173 1.726-2.087 3.02-2.74 1.293-.653 2.793-.98 4.5-.98 1.706 0 3.206.327 4.5.98 1.293.653 2.3 1.567 3.02 2.74.72 1.16 1.08 2.513 1.08 4.06 0 1.547-.36 2.907-1.08 4.08-.72 1.16-1.727 2.067-3.02 2.72-1.294.653-2.794.98-4.5.98zm0-2.36c1.213 0 2.26-.22 3.14-.66a4.804 4.804 0 002.04-1.88c.493-.813.74-1.773.74-2.88s-.247-2.067-.74-2.88a4.804 4.804 0 00-2.04-1.88c-.88-.44-1.927-.66-3.14-.66-1.2 0-2.247.22-3.14.66a4.932 4.932 0 00-2.06 1.88c-.48.813-.72 1.773-.72 2.88s.24 2.067.72 2.88a4.932 4.932 0 002.06 1.88c.893.44 1.94.66 3.14.66zm26.984-3.86a6.326 6.326 0 01-1.3 3.26c-.72.933-1.666 1.66-2.84 2.18-1.173.52-2.513.78-4.02.78-1.68 0-3.153-.327-4.42-.98-1.266-.653-2.253-1.56-2.96-2.72-.706-1.173-1.06-2.533-1.06-4.08 0-1.547.354-2.9 1.06-4.06.707-1.173 1.694-2.087 2.96-2.74 1.267-.653 2.74-.98 4.42-.98 1.507 0 2.847.26 4.02.78 1.174.52 2.12 1.247 2.84 2.18.734.933 1.167 2.02 1.3 3.26h-2.66c-.146-.8-.466-1.487-.96-2.06-.48-.573-1.106-1.013-1.88-1.32-.773-.32-1.666-.48-2.68-.48-1.173 0-2.193.22-3.06.66a4.732 4.732 0 00-1.98 1.88c-.466.813-.7 1.773-.7 2.88s.234 2.067.7 2.88a4.732 4.732 0 001.98 1.88c.867.44 1.887.66 3.06.66 1.014 0 1.907-.153 2.68-.46.774-.307 1.4-.747 1.88-1.32a4.39 4.39 0 00.96-2.08h2.66zm3.739 2.5v-2.18h10.48v2.18h-10.48zm6.96-11.56l7.2 15h-2.82l-6.54-14h1.02l-6.54 14h-2.82l7.2-15h3.3zm11.668 0v13.82l-1.18-1.14h11.3v2.32h-12.76v-15h2.64zm20.833 1.22h2.64V28.5h-2.64V14.72zm-6.2-1.22h15.04v2.32h-15.04V13.5zm18.884 6.76h6.1c.88 0 1.573-.2 2.08-.6.52-.4.78-.947.78-1.64 0-.707-.26-1.253-.78-1.64-.507-.4-1.2-.6-2.08-.6h-6.48l1.18-1.48v14.2h-2.64v-15h8.18c1.053 0 1.973.193 2.76.58.8.373 1.42.9 1.86 1.58.453.667.68 1.453.68 2.36 0 .88-.227 1.66-.68 2.34-.44.667-1.06 1.193-1.86 1.58-.787.373-1.707.56-2.76.56h-6.34v-2.24zm2.96 1.22h3.1l5.96 7.02h-3.16l-5.9-7.02zm13.059 3.58v-2.18h10.48v2.18h-10.48zm6.96-11.56l7.2 15h-2.82l-6.54-14h1.02l-6.54 14h-2.82l7.2-15h3.3zm15.808 0c1.707 0 3.2.313 4.48.94 1.294.627 2.3 1.507 3.02 2.64.72 1.12 1.08 2.427 1.08 3.92 0 1.493-.36 2.807-1.08 3.94-.72 1.12-1.726 1.993-3.02 2.62-1.28.627-2.773.94-4.48.94h-6.78v-15h6.78zm-4.14 14.08l-1.46-1.4h5.78c1.147 0 2.147-.213 3-.64.867-.44 1.534-1.047 2-1.82.48-.787.72-1.693.72-2.72 0-1.04-.24-1.947-.72-2.72-.466-.773-1.133-1.373-2-1.8-.853-.44-1.853-.66-3-.66h-5.78l1.46-1.4v13.16zm27.133-7.68v2.2h-10.48v-2.2h10.48zm-8.74 1.1l-1.06 6.7-1.26-1.48h11.64v2.28h-13.08l1.2-7.5-1.2-7.5h12.98v2.28h-11.54l1.26-1.48 1.06 6.7zm20.006-7.5v13.82l-1.18-1.14h11.3v2.32h-12.76v-15h2.64zm13.704 1.22h2.64V28.5h-2.64V14.72zm-6.2-1.22h15.04v2.32h-15.04V13.5zm23.823 0c1.707 0 3.2.313 4.48.94 1.294.627 2.3 1.507 3.02 2.64.72 1.12 1.08 2.427 1.08 3.92 0 1.493-.36 2.807-1.08 3.94-.72 1.12-1.726 1.993-3.02 2.62-1.28.627-2.773.94-4.48.94h-6.78v-15h6.78zm-4.14 14.08l-1.46-1.4h5.78c1.147 0 2.147-.213 3-.64.867-.44 1.534-1.047 2-1.82.48-.787.72-1.693.72-2.72 0-1.04-.24-1.947-.72-2.72-.466-.773-1.133-1.373-2-1.8-.853-.44-1.853-.66-3-.66h-5.78l1.46-1.4v13.16z" fill="#fff"/><defs><linearGradient id="paint0_linear_6463_547" x1="31.761" y1="-.884" x2="49.5" y2="40.5" gradientUnits="userSpaceOnUse"><stop stop-color="#043FB1"/><stop offset=".27" stop-color="#001E57"/><stop offset=".39" stop-color="#001E58"/><stop offset=".6" stop-color="#0057FF"/><stop offset=".71" stop-color="#3278FF"/><stop offset="1" stop-color="#7FAAFF"/></linearGradient><linearGradient id="paint1_linear_6463_547" x1="46.667" y1="55.456" x2="38.348" y2="25.69" gradientUnits="userSpaceOnUse"><stop stop-color="#5497FC"/><stop offset=".29" stop-color="#0057FF"/><stop offset=".41" stop-color="#064CD0"/><stop offset=".64" stop-color="#003BAB"/><stop offset=".78" stop-color="#002C80"/><stop offset="1" stop-color="#001E58"/></linearGradient><linearGradient id="paint2_linear_6463_547" x1="32.5" y1="51" x2="42.5" y2="1.5" gradientUnits="userSpaceOnUse"><stop stop-color="#00FF94" stop-opacity=".4"/><stop offset=".415" stop-color="#00FF94" stop-opacity=".85"/><stop offset="1" stop-color="#00FF94"/></linearGradient><linearGradient id="paint4_linear_6463_547" x1=".009" y1="21.472" x2="71.893" y2="21.472" gradientUnits="userSpaceOnUse"><stop stop-color="#00FF94" stop-opacity="0"/><stop offset=".09" stop-color="#00FF94" stop-opacity=".04"/><stop offset=".24" stop-color="#00FF94" stop-opacity=".16"/><stop offset=".44" stop-color="#00FF94" stop-opacity=".35"/><stop offset=".68" stop-color="#00FF94" stop-opacity=".61"/><stop offset=".96" stop-color="#00FF94" stop-opacity=".95"/><stop offset="1" stop-color="#12CE75"/></linearGradient><radialGradient id="paint3_radial_6463_547" cx="0" cy="0" r="1" gradientUnits="userSpaceOnUse" gradientTransform="matrix(8.49453 0 0 8.49454 70.898 6.69)"><stop offset=".11" stop-color="#00FF94"/><stop offset="1" stop-color="#12CE75"/></radialGradient><radialGradient id="paint5_radial_6463_547" cx="0" cy="0" r="1" gradientUnits="userSpaceOnUse" gradientTransform="translate(71.071 7.161) scale(6.92821)"><stop offset=".11" stop-color="#00FF94"/><stop offset="1" stop-color="#12CE75"/></radialGradient><radialGradient id="paint6_radial_6463_547" cx="0" cy="0" r="1" gradientUnits="userSpaceOnUse" gradientTransform="translate(71.267 7.692) scale(5.17709)"><stop offset=".11" stop-color="#00FF94"/><stop offset="1" stop-color="#12CE75"/></radialGradient></defs></svg>