<svg width="52" height="52" fill="none" xmlns="http://www.w3.org/2000/svg"><path d="M23.227 31.82L10.194 46.71H4.21l16.354-18.69.27-.308-.25-.325L3.179 4.626H17l10.264 13.569.37.49.405-.463L39.934 4.625h5.98L30.671 22.047l-.268.306.246.325L48.828 46.71H35.371l-11.37-14.866-.371-.485-.403.46zm13.517 11.32l.15.197h5.303l-.607-.802L15.447 7.969l-.15-.199H9.69l.615.804 26.44 34.566z" fill="#fff" stroke="url(#paint0_linear_6355_215)"/><defs><linearGradient id="paint0_linear_6355_215" x1="26" y1="4.125" x2="26" y2="47.211" gradientUnits="userSpaceOnUse"><stop stop-color="#fff" stop-opacity=".38"/><stop offset="1" stop-color="#fff" stop-opacity=".16"/></linearGradient></defs></svg>