<svg width="29" height="35" fill="none" xmlns="http://www.w3.org/2000/svg"><path d="M23.886 18.34a8.298 8.298 0 011.019-3.888 7.973 7.973 0 012.706-2.897 8.101 8.101 0 00-2.751-2.534 7.804 7.804 0 00-3.557-.992c-2.654-.288-5.227 1.642-6.58 1.642-1.378 0-3.46-1.613-5.702-1.565A8.201 8.201 0 004.918 9.37a8.566 8.566 0 00-2.967 3.192c-3.056 5.472-.776 13.513 2.152 17.936 1.465 2.165 3.177 4.585 5.417 4.499 2.192-.094 3.01-1.445 5.657-1.445 2.622 0 3.39 1.445 5.675 1.39 2.353-.04 3.835-2.175 5.248-4.361a18.167 18.167 0 002.4-5.054 7.622 7.622 0 01-3.353-2.876 8.005 8.005 0 01-1.26-4.312z" fill="#000"/><path d="M19.694 5.561A7.741 7.741 0 0021.477 0a7.942 7.942 0 00-5.131 2.644A7.378 7.378 0 0014.516 8a6.58 6.58 0 005.178-2.439z" fill="#000"/></svg>