<svg width="96" height="46" fill="none" xmlns="http://www.w3.org/2000/svg"><path d="M52.952 15.336c.186-2.65 1.12-5.059 2.8-7.224 1.68-2.165 4.069-3.883 7.167-5.152C66.055 1.653 69.846 1 74.287 1c3.808 0 7.112.504 9.912 1.512 2.838.97 5.04 2.333 6.609 4.088 1.567 1.717 2.351 3.752 2.351 6.104 0 1.904-.578 3.64-1.736 5.208-1.12 1.53-2.893 2.763-5.32 3.696-2.426.896-5.525 1.325-9.295 1.288v-1.12c3.583-.187 6.663.075 9.24.784 2.576.71 4.554 1.83 5.936 3.36 1.38 1.53 2.072 3.453 2.072 5.768 0 2.539-.803 4.797-2.409 6.776-1.605 1.941-3.957 3.49-7.056 4.648-3.06 1.12-6.794 1.68-11.2 1.68-4.293 0-8.045-.597-11.256-1.792-3.173-1.232-5.655-2.93-7.447-5.096-1.755-2.203-2.707-4.779-2.857-7.728H62.36c.3 2.053 1.344 3.64 3.137 4.76 1.829 1.083 4.46 1.624 7.895 1.624 3.248 0 5.712-.485 7.392-1.456 1.718-1.008 2.576-2.408 2.576-4.2 0-1.045-.28-1.904-.84-2.576-.56-.71-1.512-1.25-2.856-1.624-1.343-.373-3.21-.56-5.6-.56h-7.28V18.92h7.28c3.1 0 5.283-.43 6.552-1.288 1.27-.896 1.904-2.053 1.904-3.472 0-1.568-.746-2.781-2.24-3.64-1.456-.859-3.658-1.288-6.608-1.288-3.06 0-5.45.541-7.168 1.624-1.68 1.045-2.688 2.539-3.023 4.48H52.952z" fill="#fff" fill-opacity=".1"/><path d="M52.952 15.336c.186-2.65 1.12-5.059 2.8-7.224 1.68-2.165 4.069-3.883 7.167-5.152C66.055 1.653 69.846 1 74.287 1c3.808 0 7.112.504 9.912 1.512 2.838.97 5.04 2.333 6.609 4.088 1.567 1.717 2.351 3.752 2.351 6.104 0 1.904-.578 3.64-1.736 5.208-1.12 1.53-2.893 2.763-5.32 3.696-2.426.896-5.525 1.325-9.295 1.288v-1.12c3.583-.187 6.663.075 9.24.784 2.576.71 4.554 1.83 5.936 3.36 1.38 1.53 2.072 3.453 2.072 5.768 0 2.539-.803 4.797-2.409 6.776-1.605 1.941-3.957 3.49-7.056 4.648-3.06 1.12-6.794 1.68-11.2 1.68-4.293 0-8.045-.597-11.256-1.792-3.173-1.232-5.655-2.93-7.447-5.096-1.755-2.203-2.707-4.779-2.857-7.728H62.36c.3 2.053 1.344 3.64 3.137 4.76 1.829 1.083 4.46 1.624 7.895 1.624 3.248 0 5.712-.485 7.392-1.456 1.718-1.008 2.576-2.408 2.576-4.2 0-1.045-.28-1.904-.84-2.576-.56-.71-1.512-1.25-2.856-1.624-1.343-.373-3.21-.56-5.6-.56h-7.28V18.92h7.28c3.1 0 5.283-.43 6.552-1.288 1.27-.896 1.904-2.053 1.904-3.472 0-1.568-.746-2.781-2.24-3.64-1.456-.859-3.658-1.288-6.608-1.288-3.06 0-5.45.541-7.168 1.624-1.68 1.045-2.688 2.539-3.023 4.48H52.952z" fill="url(#paint0_radial_6386_702)" fill-opacity=".1"/><path d="M52.453 15.3l-.038.536H63.9l.072-.415c.312-1.8 1.236-3.17 2.796-4.14h0l.002-.002c1.607-1.013 3.89-1.547 6.901-1.547 2.918 0 5.013.428 6.355 1.219h0l.004.002c1.357.78 1.99 1.838 1.99 3.207 0 1.238-.54 2.248-1.689 3.06-1.138.768-3.188 1.2-6.267 1.2h-7.78v8.224h7.78c2.37 0 4.186.186 5.466.542 1.293.36 2.13.86 2.597 1.452h0l.008.01c.472.566.724 1.304.724 2.256 0 1.592-.743 2.838-2.327 3.768-1.569.906-3.929 1.388-7.14 1.388-3.392 0-5.918-.536-7.636-1.551-1.667-1.044-2.625-2.502-2.902-4.405l-.062-.428H51.306l.026.525c.154 3.049 1.141 5.726 2.965 8.014h0l.005.008c1.857 2.243 4.416 3.987 7.653 5.243h0l.006.003c3.279 1.22 7.092 1.823 11.43 1.823 4.445 0 8.24-.565 11.372-1.71l.003-.002c3.156-1.178 5.59-2.77 7.267-4.797l.003-.004c1.677-2.067 2.52-4.437 2.52-7.091 0-2.422-.727-4.469-2.201-6.103-1.452-1.609-3.506-2.764-6.121-3.492l.043-.016h0l.006-.002c2.484-.956 4.35-2.235 5.543-3.867 1.22-1.652 1.834-3.49 1.834-5.504 0-2.474-.83-4.629-2.481-6.44-1.638-1.831-3.92-3.233-6.814-4.224C81.5 1.01 78.136.5 74.287.5c-4.488 0-8.346.66-11.558 1.998-3.161 1.295-5.628 3.06-7.373 5.307-1.738 2.241-2.71 4.743-2.903 7.496z" stroke="url(#paint1_linear_6386_702)" stroke-opacity=".6"/><path d="M24.504 44.792c-4.742 0-8.848-.915-12.32-2.744-3.472-1.83-6.16-4.368-8.064-7.616-1.904-3.285-2.856-7.13-2.856-11.536 0-4.368.952-8.195 2.856-11.48s4.592-5.843 8.064-7.672C15.656 1.914 19.762 1 24.504 1c4.704 0 8.792.915 12.264 2.744 3.472 1.83 6.16 4.387 8.064 7.672 1.904 3.248 2.856 7.075 2.856 11.48 0 4.368-.952 8.195-2.856 11.48s-4.592 5.843-8.064 7.672c-3.472 1.83-7.56 2.744-12.264 2.744zm0-8.624c3.994 0 7.093-1.157 9.296-3.472 2.24-2.315 3.36-5.581 3.36-9.8s-1.12-7.485-3.36-9.8c-2.203-2.315-5.302-3.472-9.296-3.472-3.995 0-7.112 1.157-9.352 3.472s-3.36 5.581-3.36 9.8 1.12 7.485 3.36 9.8c2.24 2.315 5.357 3.472 9.352 3.472z" fill="#fff" fill-opacity=".1"/><path d="M24.504 44.792c-4.742 0-8.848-.915-12.32-2.744-3.472-1.83-6.16-4.368-8.064-7.616-1.904-3.285-2.856-7.13-2.856-11.536 0-4.368.952-8.195 2.856-11.48s4.592-5.843 8.064-7.672C15.656 1.914 19.762 1 24.504 1c4.704 0 8.792.915 12.264 2.744 3.472 1.83 6.16 4.387 8.064 7.672 1.904 3.248 2.856 7.075 2.856 11.48 0 4.368-.952 8.195-2.856 11.48s-4.592 5.843-8.064 7.672c-3.472 1.83-7.56 2.744-12.264 2.744zm0-8.624c3.994 0 7.093-1.157 9.296-3.472 2.24-2.315 3.36-5.581 3.36-9.8s-1.12-7.485-3.36-9.8c-2.203-2.315-5.302-3.472-9.296-3.472-3.995 0-7.112 1.157-9.352 3.472s-3.36 5.581-3.36 9.8 1.12 7.485 3.36 9.8c2.24 2.315 5.357 3.472 9.352 3.472z" fill="url(#paint2_radial_6386_702)" fill-opacity=".1"/><path d="M3.687 34.683l.001.002c1.954 3.332 4.712 5.934 8.263 7.805 3.557 1.875 7.747 2.802 12.553 2.802 4.769 0 8.94-.928 12.497-2.802 3.552-1.871 6.31-4.494 8.263-7.863 1.955-3.373 2.924-7.288 2.924-11.731 0-4.479-.969-8.395-2.925-11.732-1.952-3.369-4.71-5.991-8.262-7.862C33.444 1.428 29.273.5 24.504.5c-4.806 0-8.996.927-12.553 2.802-3.553 1.871-6.311 4.494-8.264 7.863C1.733 14.538.764 18.453.764 22.896c0 4.48.968 8.414 2.923 11.787zm29.753-2.335l-.002.003c-2.086 2.192-5.04 3.317-8.934 3.317-3.894 0-6.869-1.125-8.993-3.32-2.124-2.195-3.22-5.322-3.22-9.452s1.095-7.257 3.22-9.452c2.124-2.195 5.099-3.32 8.993-3.32s6.848 1.125 8.933 3.317l.003.003c2.125 2.195 3.22 5.321 3.22 9.452 0 4.13-1.095 7.257-3.22 9.452z" stroke="url(#paint3_linear_6386_702)" stroke-opacity=".6"/><defs><radialGradient id="paint0_radial_6386_702" cx="0" cy="0" r="1" gradientUnits="userSpaceOnUse" gradientTransform="rotate(116.699 21 19.344) scale(75.3893 140.72)"><stop offset=".205" stop-color="#00FF94"/><stop offset=".745" stop-color="#00FF94" stop-opacity="0"/></radialGradient><radialGradient id="paint2_radial_6386_702" cx="0" cy="0" r="1" gradientUnits="userSpaceOnUse" gradientTransform="rotate(116.699 21 19.344) scale(75.3893 140.72)"><stop offset=".205" stop-color="#00FF94"/><stop offset=".745" stop-color="#00FF94" stop-opacity="0"/></radialGradient><linearGradient id="paint1_linear_6386_702" x1="90.26" y1="8.504" x2="50.496" y2="23.863" gradientUnits="userSpaceOnUse"><stop stop-color="#047586"/><stop offset=".759" stop-color="#439596"/></linearGradient><linearGradient id="paint3_linear_6386_702" x1="43.515" y1="8.504" x2=".949" y2="26.58" gradientUnits="userSpaceOnUse"><stop stop-color="#047586"/><stop offset=".759" stop-color="#439596"/></linearGradient></defs></svg>