<svg width="178" height="178" fill="none" xmlns="http://www.w3.org/2000/svg"><mask id="a" fill="#fff"><path d="M178 89c0 49.153-39.847 89-89 89S0 138.153 0 89 39.847 0 89 0s89 39.847 89 89zM31.15 89c0 31.95 25.9 57.85 57.85 57.85 31.95 0 57.85-25.9 57.85-57.85 0-31.95-25.9-57.85-57.85-57.85-31.95 0-57.85 25.9-57.85 57.85z"/></mask><path d="M178 89c0 49.153-39.847 89-89 89S0 138.153 0 89 39.847 0 89 0s89 39.847 89 89zM31.15 89c0 31.95 25.9 57.85 57.85 57.85 31.95 0 57.85-25.9 57.85-57.85 0-31.95-25.9-57.85-57.85-57.85-31.95 0-57.85 25.9-57.85 57.85z" fill="#fff" fill-opacity=".1"/><path d="M178 89c0 49.153-39.847 89-89 89S0 138.153 0 89 39.847 0 89 0s89 39.847 89 89zM31.15 89c0 31.95 25.9 57.85 57.85 57.85 31.95 0 57.85-25.9 57.85-57.85 0-31.95-25.9-57.85-57.85-57.85-31.95 0-57.85 25.9-57.85 57.85z" fill="url(#paint0_radial_6214_10819)" fill-opacity=".1"/><path d="M178 89c0 49.153-39.847 89-89 89S0 138.153 0 89 39.847 0 89 0s89 39.847 89 89zM31.15 89c0 31.95 25.9 57.85 57.85 57.85 31.95 0 57.85-25.9 57.85-57.85 0-31.95-25.9-57.85-57.85-57.85-31.95 0-57.85 25.9-57.85 57.85z" stroke="url(#paint1_linear_6214_10819)" stroke-opacity=".6" stroke-width="2" mask="url(#a)"/><path d="M178 89a88.997 88.997 0 01-64.17 85.466 89.003 89.003 0 01-99.975-37.777A89.001 89.001 0 01126.894 8.47l-13.263 28.186A57.848 57.848 0 0031.328 84.46a57.853 57.853 0 0037.224 58.654 57.845 57.845 0 0066.71-19.381A57.854 57.854 0 00146.85 89H178z" fill="#fff" fill-opacity=".1"/><path d="M178 89a88.997 88.997 0 01-64.17 85.466 89.003 89.003 0 01-99.975-37.777A89.001 89.001 0 01126.894 8.47l-13.263 28.186A57.848 57.848 0 0031.328 84.46a57.853 57.853 0 0037.224 58.654 57.845 57.845 0 0066.71-19.381A57.854 57.854 0 00146.85 89H178z" fill="url(#paint2_radial_6214_10819)" fill-opacity=".3"/><defs><radialGradient id="paint0_radial_6214_10819" cx="0" cy="0" r="1" gradientUnits="userSpaceOnUse" gradientTransform="matrix(-61.52417 214.08073 -264.27118 -75.94829 89 45.703)"><stop offset=".205" stop-color="#00FF94"/><stop offset=".745" stop-color="#00FF94" stop-opacity="0"/></radialGradient><radialGradient id="paint2_radial_6214_10819" cx="0" cy="0" r="1" gradientUnits="userSpaceOnUse" gradientTransform="rotate(-32.824 243.619 24.712) scale(155.889)"><stop offset=".59" stop-color="#00FF94"/><stop offset=".863" stop-color="#00FF94" stop-opacity="0"/></radialGradient><linearGradient id="paint1_linear_6214_10819" x1="162" y1="30.5" x2="-4" y2="97" gradientUnits="userSpaceOnUse"><stop stop-color="#047586"/><stop offset=".759" stop-color="#439596"/></linearGradient></defs></svg>