<svg width="178" height="178" fill="none" xmlns="http://www.w3.org/2000/svg"><mask id="a" fill="#fff"><path d="M178 89c0 49.153-39.847 89-89 89S0 138.153 0 89 39.847 0 89 0s89 39.847 89 89zM31.15 89c0 31.95 25.9 57.85 57.85 57.85 31.95 0 57.85-25.9 57.85-57.85 0-31.95-25.9-57.85-57.85-57.85-31.95 0-57.85 25.9-57.85 57.85z"/></mask><path d="M178 89c0 49.153-39.847 89-89 89S0 138.153 0 89 39.847 0 89 0s89 39.847 89 89zM31.15 89c0 31.95 25.9 57.85 57.85 57.85 31.95 0 57.85-25.9 57.85-57.85 0-31.95-25.9-57.85-57.85-57.85-31.95 0-57.85 25.9-57.85 57.85z" fill="#fff" fill-opacity=".1"/><path d="M178 89c0 49.153-39.847 89-89 89S0 138.153 0 89 39.847 0 89 0s89 39.847 89 89zM31.15 89c0 31.95 25.9 57.85 57.85 57.85 31.95 0 57.85-25.9 57.85-57.85 0-31.95-25.9-57.85-57.85-57.85-31.95 0-57.85 25.9-57.85 57.85z" fill="url(#paint0_radial_6214_10824)" fill-opacity=".1"/><path d="M178 89c0 49.153-39.847 89-89 89S0 138.153 0 89 39.847 0 89 0s89 39.847 89 89zM31.15 89c0 31.95 25.9 57.85 57.85 57.85 31.95 0 57.85-25.9 57.85-57.85 0-31.95-25.9-57.85-57.85-57.85-31.95 0-57.85 25.9-57.85 57.85z" stroke="url(#paint1_linear_6214_10824)" stroke-opacity=".6" stroke-width="2" mask="url(#a)"/><path d="M178 89a89.003 89.003 0 01-77.845 88.298 89 89 0 1166.836-131.174L139.694 61.13a57.849 57.849 0 00-106.726 42.256 57.851 57.851 0 0099.426 23.87A57.85 57.85 0 00146.85 89H178z" fill="#fff" fill-opacity=".1"/><path d="M178 89a89.003 89.003 0 01-77.845 88.298 89 89 0 1166.836-131.174L139.694 61.13a57.849 57.849 0 00-106.726 42.256 57.851 57.851 0 0099.426 23.87A57.85 57.85 0 00146.85 89H178z" fill="url(#paint2_radial_6214_10824)" fill-opacity=".3"/><defs><radialGradient id="paint0_radial_6214_10824" cx="0" cy="0" r="1" gradientUnits="userSpaceOnUse" gradientTransform="matrix(-61.52417 214.08073 -264.27118 -75.94829 89 45.703)"><stop offset=".205" stop-color="#00FF94"/><stop offset=".745" stop-color="#00FF94" stop-opacity="0"/></radialGradient><radialGradient id="paint2_radial_6214_10824" cx="0" cy="0" r="1" gradientUnits="userSpaceOnUse" gradientTransform="rotate(20.232 -214.284 46.907) scale(186.508)"><stop offset=".647" stop-color="#00FF94"/><stop offset=".863" stop-color="#00FF94" stop-opacity="0"/></radialGradient><linearGradient id="paint1_linear_6214_10824" x1="162" y1="30.5" x2="-4" y2="97" gradientUnits="userSpaceOnUse"><stop stop-color="#047586"/><stop offset=".759" stop-color="#439596"/></linearGradient></defs></svg>