<svg width="20" height="20" fill="none" xmlns="http://www.w3.org/2000/svg"><path fill-rule="evenodd" clip-rule="evenodd" d="M6.189 5.816A.644.644 0 006.644 6a.659.659 0 00.455-.184L10.5 2.51l3.401 3.307a.646.646 0 00.456.184.66.66 0 00.455-.184.623.623 0 00.188-.442.61.61 0 00-.188-.442l-3.857-3.748A.644.644 0 0010.5 1a.659.659 0 00-.455.184L6.19 4.932a.624.624 0 00-.19.442.61.61 0 00.189.442z" fill="#B5B5B5"/><path fill-rule="evenodd" clip-rule="evenodd" d="M9.5 15a.45.45 0 00.354-.19.76.76 0 00.146-.46V2.65a.76.76 0 00-.146-.46A.45.45 0 009.5 2a.45.45 0 00-.354.19.76.76 0 00-.146.46v11.7a.76.76 0 00.146.46.45.45 0 00.354.19z" fill="#B5B5B5"/><path fill-rule="evenodd" clip-rule="evenodd" d="M3 18.05c0 .517.201 1.013.56 1.379.357.366.843.571 1.35.571h10.18c.507 0 .993-.205 1.35-.571A1.97 1.97 0 0017 18.05v-9.1a1.97 1.97 0 00-.56-1.379A1.889 1.889 0 0015.09 7h-1.908a.63.63 0 00-.45.19.657.657 0 000 .92.63.63 0 00.45.19h1.909a.63.63 0 01.45.19c.12.122.186.288.186.46v9.1a.657.657 0 01-.186.46.63.63 0 01-.45.19H4.909a.63.63 0 01-.45-.19.657.657 0 01-.186-.46v-9.1a.66.66 0 01.186-.46.63.63 0 01.45-.19h1.91a.63.63 0 00.45-.19.657.657 0 000-.92.63.63 0 00-.45-.19h-1.91c-.506 0-.992.205-1.35.571A1.973 1.973 0 003 8.95v9.1z" fill="#B5B5B5"/></svg>