<svg width="107" height="44" viewBox="0 0 107 44" fill="none" xmlns="http://www.w3.org/2000/svg">
<path d="M23.5541 43.896C18.8128 43.896 14.7061 42.9813 11.2341 41.152C7.7621 39.3227 5.0741 36.784 3.1701 33.536C1.2661 30.2507 0.314098 26.4053 0.314098 22C0.314098 17.632 1.2661 13.8053 3.1701 10.52C5.0741 7.23466 7.7621 4.67733 11.2341 2.848C14.7061 1.01867 18.8128 0.103998 23.5541 0.103998C28.2581 0.103998 32.3461 1.01867 35.8181 2.848C39.2901 4.67733 41.9781 7.23466 43.8821 10.52C45.7861 13.768 46.7381 17.5947 46.7381 22C46.7381 26.368 45.7861 30.1947 43.8821 33.48C41.9781 36.7653 39.2901 39.3227 35.8181 41.152C32.3461 42.9813 28.2581 43.896 23.5541 43.896ZM23.5541 35.272C27.5488 35.272 30.6474 34.1147 32.8501 31.8C35.0901 29.4853 36.2101 26.2187 36.2101 22C36.2101 17.7813 35.0901 14.5147 32.8501 12.2C30.6474 9.88533 27.5488 8.728 23.5541 8.728C19.5594 8.728 16.4421 9.88533 14.2021 12.2C11.9621 14.5147 10.8421 17.7813 10.8421 22C10.8421 26.2187 11.9621 29.4853 14.2021 31.8C16.4421 34.1147 19.5594 35.272 23.5541 35.272ZM55.7357 43.56C54.6157 43.56 53.5891 43.2987 52.6557 42.776C51.7597 42.216 51.0504 41.488 50.5277 40.592C50.0051 39.696 49.7437 38.688 49.7437 37.568C49.7437 36.448 50.0051 35.44 50.5277 34.544C51.0504 33.648 51.7597 32.9387 52.6557 32.416C53.5891 31.856 54.6157 31.576 55.7357 31.576C56.8557 31.576 57.8637 31.856 58.7597 32.416C59.6557 32.9387 60.3651 33.648 60.8877 34.544C61.4477 35.44 61.7277 36.448 61.7277 37.568C61.7277 38.688 61.4477 39.696 60.8877 40.592C60.3651 41.488 59.6557 42.216 58.7597 42.776C57.8637 43.2987 56.8557 43.56 55.7357 43.56ZM70.8019 0.999997H103.17V8.952H73.9939L78.2499 6.936L75.8979 22.728H73.2099C74.0312 21.3467 75.1512 20.0773 76.5699 18.92C78.0259 17.7627 79.7992 16.8293 81.8899 16.12C83.9806 15.4107 86.4072 15.056 89.1699 15.056C92.7539 15.056 95.8339 15.6533 98.4099 16.848C100.986 18.0427 102.965 19.6853 104.346 21.776C105.765 23.8667 106.474 26.2747 106.474 29C106.474 31.8747 105.671 34.432 104.066 36.672C102.461 38.912 100.146 40.6853 97.1219 41.992C94.1352 43.2613 90.5512 43.896 86.3699 43.896C82.2632 43.896 78.6979 43.2987 75.6739 42.104C72.6499 40.9093 70.2792 39.2853 68.5619 37.232C66.8446 35.1413 65.8366 32.8267 65.5379 30.288H76.0659C76.4766 31.9307 77.5592 33.2373 79.3139 34.208C81.1059 35.1787 83.4579 35.664 86.3699 35.664C88.3486 35.664 90.0472 35.4027 91.4659 34.88C92.8846 34.32 93.9859 33.536 94.7699 32.528C95.5539 31.52 95.9459 30.3253 95.9459 28.944C95.9459 27.6373 95.5912 26.48 94.8819 25.472C94.2099 24.464 93.1832 23.68 91.8019 23.12C90.4579 22.56 88.7779 22.28 86.7619 22.28C85.0819 22.28 83.5699 22.4667 82.2259 22.84C80.9192 23.2133 79.7619 23.6987 78.7539 24.296C77.7832 24.8933 76.9806 25.5093 76.3459 26.144H67.2739L70.8019 0.999997Z" fill="white"/>
</svg>
