<svg width="105" height="38" viewBox="0 0 105 38" fill="none" xmlns="http://www.w3.org/2000/svg">
<path d="M20.5174 0.999997V37H11.5414V4.072L15.9094 8.056L0.501441 10.744V3.736L13.8454 0.999997H20.5174ZM30.1576 0.999997H57.9016V7.816H32.8936L36.5416 6.088L34.5256 19.624H32.2216C32.9256 18.44 33.8856 17.352 35.1016 16.36C36.3496 15.368 37.8696 14.568 39.6616 13.96C41.4536 13.352 43.5336 13.048 45.9016 13.048C48.9736 13.048 51.6136 13.56 53.8216 14.584C56.0296 15.608 57.7256 17.016 58.9096 18.808C60.1256 20.6 60.7336 22.664 60.7336 25C60.7336 27.464 60.0456 29.656 58.6696 31.576C57.2936 33.496 55.3096 35.016 52.7176 36.136C50.1576 37.224 47.0856 37.768 43.5016 37.768C39.9816 37.768 36.9256 37.256 34.3336 36.232C31.7416 35.208 29.7096 33.816 28.2376 32.056C26.7656 30.264 25.9016 28.28 25.6456 26.104H34.6696C35.0216 27.512 35.9496 28.632 37.4536 29.464C38.9896 30.296 41.0056 30.712 43.5016 30.712C45.1976 30.712 46.6536 30.488 47.8696 30.04C49.0856 29.56 50.0296 28.888 50.7016 28.024C51.3736 27.16 51.7096 26.136 51.7096 24.952C51.7096 23.832 51.4056 22.84 50.7976 21.976C50.2216 21.112 49.3416 20.44 48.1576 19.96C47.0056 19.48 45.5656 19.24 43.8376 19.24C42.3976 19.24 41.1016 19.4 39.9496 19.72C38.8296 20.04 37.8376 20.456 36.9736 20.968C36.1416 21.48 35.4536 22.008 34.9096 22.552H27.1336L30.1576 0.999997ZM84.5813 37.768C80.5173 37.768 76.9973 36.984 74.0213 35.416C71.0453 33.848 68.7413 31.672 67.1093 28.888C65.4773 26.072 64.6613 22.776 64.6613 19C64.6613 15.256 65.4773 11.976 67.1093 9.16C68.7413 6.344 71.0453 4.152 74.0213 2.584C76.9973 1.016 80.5173 0.231998 84.5813 0.231998C88.6133 0.231998 92.1173 1.016 95.0933 2.584C98.0693 4.152 100.373 6.344 102.005 9.16C103.637 11.944 104.453 15.224 104.453 19C104.453 22.744 103.637 26.024 102.005 28.84C100.373 31.656 98.0693 33.848 95.0933 35.416C92.1173 36.984 88.6133 37.768 84.5813 37.768ZM84.5813 30.376C88.0053 30.376 90.6613 29.384 92.5493 27.4C94.4693 25.416 95.4293 22.616 95.4293 19C95.4293 15.384 94.4693 12.584 92.5493 10.6C90.6613 8.616 88.0053 7.624 84.5813 7.624C81.1573 7.624 78.4853 8.616 76.5653 10.6C74.6453 12.584 73.6853 15.384 73.6853 19C73.6853 22.616 74.6453 25.416 76.5653 27.4C78.4853 29.384 81.1573 30.376 84.5813 30.376Z" fill="white"/>
</svg>
