<svg width="115" height="24" viewBox="0 0 115 24" fill="none" xmlns="http://www.w3.org/2000/svg">
<path d="M21.2553 19.13L19.4253 19.46V0.499998H24.9153V23H17.7753L4.06533 4.04L5.89533 3.71V23H0.405332V0.499998H7.75533L21.2553 19.13ZM48.2221 9.65V13.85H31.9321V9.65H48.2221ZM35.7721 11.75L34.2721 21.05L31.9021 18.35H49.1821V23H28.6021L30.3421 11.75L28.6021 0.499998H49.0321V5.15H31.9021L34.2721 2.45L35.7721 11.75ZM80.6296 20.63L78.7996 20.66L84.7096 0.499998H90.6796L83.6296 23H76.3996L69.5896 3.44H71.9596L65.1796 23H57.9196L50.8696 0.499998H56.8696L62.7796 20.63L60.9796 20.6L67.7896 0.499998H73.7896L80.6296 20.63ZM91.3468 15.65H97.0768C97.1768 16.33 97.4868 16.93 98.0068 17.45C98.5268 17.97 99.2168 18.37 100.077 18.65C100.957 18.93 101.977 19.07 103.137 19.07C104.797 19.07 106.097 18.84 107.037 18.38C107.997 17.92 108.477 17.27 108.477 16.43C108.477 15.79 108.197 15.3 107.637 14.96C107.097 14.6 106.077 14.34 104.577 14.18L100.227 13.73C97.2068 13.43 95.0168 12.73 93.6568 11.63C92.3168 10.53 91.6468 9.03 91.6468 7.13C91.6468 5.63 92.0868 4.35 92.9668 3.29C93.8668 2.23 95.1168 1.42 96.7168 0.859999C98.3368 0.299999 100.227 0.019999 102.387 0.019999C104.527 0.019999 106.417 0.329999 108.057 0.95C109.697 1.57 111.007 2.43 111.987 3.53C112.967 4.63 113.497 5.92 113.577 7.4H107.847C107.767 6.78 107.487 6.26 107.007 5.84C106.547 5.4 105.917 5.06 105.117 4.82C104.337 4.56 103.397 4.43 102.297 4.43C100.777 4.43 99.5668 4.65 98.6668 5.09C97.7868 5.51 97.3468 6.12 97.3468 6.92C97.3468 7.52 97.6068 7.99 98.1268 8.33C98.6668 8.67 99.6168 8.92 100.977 9.08L105.567 9.59C107.667 9.81 109.347 10.16 110.607 10.64C111.867 11.12 112.777 11.78 113.337 12.62C113.897 13.46 114.177 14.52 114.177 15.8C114.177 17.34 113.707 18.69 112.767 19.85C111.847 20.99 110.547 21.88 108.867 22.52C107.207 23.16 105.267 23.48 103.047 23.48C100.747 23.48 98.7268 23.15 96.9868 22.49C95.2668 21.83 93.9068 20.92 92.9068 19.76C91.9268 18.58 91.4068 17.21 91.3468 15.65Z" fill="white"/>
</svg>
