<svg width="84" height="44" viewBox="0 0 84 44" fill="none" xmlns="http://www.w3.org/2000/svg">
<path d="M23.7455 43.896C19.0042 43.896 14.8975 42.9813 11.4255 41.152C7.9535 39.3227 5.2655 36.784 3.3615 33.536C1.4575 30.2507 0.505504 26.4053 0.505504 22C0.505504 17.632 1.4575 13.8053 3.3615 10.52C5.2655 7.23466 7.9535 4.67733 11.4255 2.848C14.8975 1.01867 19.0042 0.103998 23.7455 0.103998C28.4495 0.103998 32.5375 1.01867 36.0095 2.848C39.4815 4.67733 42.1695 7.23466 44.0735 10.52C45.9775 13.768 46.9295 17.5947 46.9295 22C46.9295 26.368 45.9775 30.1947 44.0735 33.48C42.1695 36.7653 39.4815 39.3227 36.0095 41.152C32.5375 42.9813 28.4495 43.896 23.7455 43.896ZM23.7455 35.272C27.7402 35.272 30.8388 34.1147 33.0415 31.8C35.2815 29.4853 36.4015 26.2187 36.4015 22C36.4015 17.7813 35.2815 14.5147 33.0415 12.2C30.8388 9.88533 27.7402 8.728 23.7455 8.728C19.7508 8.728 16.6335 9.88533 14.3935 12.2C12.1535 14.5147 11.0335 17.7813 11.0335 22C11.0335 26.2187 12.1535 29.4853 14.3935 31.8C16.6335 34.1147 19.7508 35.272 23.7455 35.272ZM55.9271 43.56C54.8071 43.56 53.7805 43.2987 52.8471 42.776C51.9511 42.216 51.2418 41.488 50.7191 40.592C50.1965 39.696 49.9351 38.688 49.9351 37.568C49.9351 36.448 50.1965 35.44 50.7191 34.544C51.2418 33.648 51.9511 32.9387 52.8471 32.416C53.7805 31.856 54.8071 31.576 55.9271 31.576C57.0471 31.576 58.0551 31.856 58.9511 32.416C59.8471 32.9387 60.5565 33.648 61.0791 34.544C61.6391 35.44 61.9191 36.448 61.9191 37.568C61.9191 38.688 61.6391 39.696 61.0791 40.592C60.5565 41.488 59.8471 42.216 58.9511 42.776C58.0551 43.2987 57.0471 43.56 55.9271 43.56ZM83.0981 0.999997V43H72.6261V4.584L77.7221 9.232L59.7461 12.368V4.192L75.3141 0.999997H83.0981Z" fill="white"/>
</svg>
