<svg width="21" height="20" viewBox="0 0 21 20" fill="none" xmlns="http://www.w3.org/2000/svg">
<path d="M15.8001 12.499H14.1335V14.1657H15.8001V12.499ZM15.8001 9.16569H14.1335V10.8324H15.8001V9.16569ZM17.4668 15.8324H10.8001V14.1657H12.4668V12.499H10.8001V10.8324H12.4668V9.16569H10.8001V7.49902H17.4668V15.8324ZM9.13346 5.83236H7.4668V4.16569H9.13346V5.83236ZM9.13346 9.16569H7.4668V7.49902H9.13346V9.16569ZM9.13346 12.499H7.4668V10.8324H9.13346V12.499ZM9.13346 15.8324H7.4668V14.1657H9.13346V15.8324ZM5.80013 5.83236H4.13346V4.16569H5.80013V5.83236ZM5.80013 9.16569H4.13346V7.49902H5.80013V9.16569ZM5.80013 12.499H4.13346V10.8324H5.80013V12.499ZM5.80013 15.8324H4.13346V14.1657H5.80013V15.8324ZM10.8001 5.83236V2.49902H2.4668V17.499H19.1335V5.83236H10.8001Z" fill="#D1D1D1"/>
</svg>
