<svg width="21" height="20" viewBox="0 0 21 20" fill="none" xmlns="http://www.w3.org/2000/svg">
<g clip-path="url(#clip0_6217_19184)">
<path d="M8.93294 1.6665V3.54984L10.5996 4.65817V3.33317H18.9329V15.8332H14.7663V17.4998H20.5996V1.6665H8.93294ZM6.84961 4.1665L0.599609 8.33317V17.4998H13.0996V8.33317L6.84961 4.1665ZM12.2663 4.99984V5.77484L13.6079 6.6665H13.9329V4.99984H12.2663ZM15.5996 4.99984V6.6665H17.2663V4.99984H15.5996ZM6.84961 6.24984L11.4329 9.1665V15.8332H8.93294V10.8332H4.76628V15.8332H2.26628V9.1665L6.84961 6.24984ZM15.5996 8.33317V9.99984H17.2663V8.33317H15.5996ZM15.5996 11.6665V13.3332H17.2663V11.6665H15.5996Z" fill="#D1D1D1"/>
</g>
<defs>
<clipPath id="clip0_6217_19184">
<rect width="20" height="20" fill="white" transform="translate(0.599609)"/>
</clipPath>
</defs>
</svg>
