<svg width="21" height="20" viewBox="0 0 21 20" fill="none" xmlns="http://www.w3.org/2000/svg">
<path d="M4.56706 15.8322C4.56706 16.0532 4.65485 16.2652 4.81114 16.4214C4.96742 16.5777 5.17938 16.6655 5.40039 16.6655H15.4004C15.6214 16.6655 15.8334 16.5777 15.9896 16.4214C16.1459 16.2652 16.2337 16.0532 16.2337 15.8322C16.2337 15.6572 16.1754 15.4905 16.0837 15.3572L11.2337 6.95719V3.33219H9.56706V6.95719L4.71706 15.3572C4.62539 15.4905 4.56706 15.6572 4.56706 15.8322ZM5.40039 18.3322C4.73735 18.3322 4.10146 18.0688 3.63262 17.6C3.16378 17.1311 2.90039 16.4952 2.90039 15.8322C2.90039 15.3322 3.05039 14.8655 3.31706 14.4739L7.90039 6.50719V4.99886C7.67938 4.99886 7.46742 4.91106 7.31113 4.75478C7.15485 4.5985 7.06706 4.38654 7.06706 4.16553V3.33219C7.06706 2.89017 7.24265 2.46624 7.55521 2.15368C7.86777 1.84112 8.2917 1.66553 8.73372 1.66553H12.0671C12.5091 1.66553 12.933 1.84112 13.2456 2.15368C13.5581 2.46624 13.7337 2.89017 13.7337 3.33219V4.16553C13.7337 4.38654 13.6459 4.5985 13.4896 4.75478C13.3334 4.91106 13.1214 4.99886 12.9004 4.99886V6.50719L17.4837 14.4739C17.7504 14.8655 17.9004 15.3322 17.9004 15.8322C17.9004 16.4952 17.637 17.1311 17.1682 17.6C16.6993 18.0688 16.0634 18.3322 15.4004 18.3322H5.40039ZM11.2337 13.3322L12.3504 12.2155L13.9587 14.9989H6.84206L9.05872 11.1572L11.2337 13.3322ZM10.8171 9.99886C10.9276 9.99886 11.0335 10.0428 11.1117 10.1209C11.1898 10.199 11.2337 10.305 11.2337 10.4155C11.2337 10.526 11.1898 10.632 11.1117 10.7102C11.0335 10.7883 10.9276 10.8322 10.8171 10.8322C10.7066 10.8322 10.6006 10.7883 10.5224 10.7102C10.4443 10.632 10.4004 10.526 10.4004 10.4155C10.4004 10.305 10.4443 10.199 10.5224 10.1209C10.6006 10.0428 10.7066 9.99886 10.8171 9.99886Z" fill="#D1D1D1"/>
</svg>
