<svg width="20" height="20" viewBox="0 0 20 20" fill="none" xmlns="http://www.w3.org/2000/svg">
<path d="M1.66699 4.16748H18.3337V16.6675H1.66699V4.16748ZM16.667 15.0008V5.83415H3.33366V15.0008H16.667ZM14.167 6.66748C14.167 7.10951 14.3426 7.53343 14.6551 7.84599C14.9677 8.15855 15.3916 8.33415 15.8337 8.33415V12.5008C15.3916 12.5008 14.9677 12.6764 14.6551 12.989C14.3426 13.3015 14.167 13.7255 14.167 14.1675H5.83366C5.83366 13.7255 5.65806 13.3015 5.3455 12.989C5.03294 12.6764 4.60902 12.5008 4.16699 12.5008V8.33415C4.60902 8.33415 5.03294 8.15855 5.3455 7.84599C5.65806 7.53343 5.83366 7.10951 5.83366 6.66748H14.167ZM14.167 10.8341V10.0008C14.167 9.08415 13.6087 8.33415 12.917 8.33415C12.2253 8.33415 11.667 9.08415 11.667 10.0008V10.8341C11.667 11.7508 12.2253 12.5008 12.917 12.5008C13.6087 12.5008 14.167 11.7508 14.167 10.8341ZM12.917 9.16748C13.0275 9.16748 13.1335 9.21138 13.2116 9.28952C13.2898 9.36766 13.3337 9.47364 13.3337 9.58415V11.2508C13.3337 11.3613 13.2898 11.4673 13.2116 11.5454C13.1335 11.6236 13.0275 11.6675 12.917 11.6675C12.8065 11.6675 12.7005 11.6236 12.6224 11.5454C12.5442 11.4673 12.5003 11.3613 12.5003 11.2508V9.58415C12.5003 9.47364 12.5442 9.36766 12.6224 9.28952C12.7005 9.21138 12.8065 9.16748 12.917 9.16748ZM10.8337 10.8341V10.0008C10.8337 9.08415 10.2753 8.33415 9.58366 8.33415C8.89199 8.33415 8.33366 9.08415 8.33366 10.0008V10.8341C8.33366 11.7508 8.89199 12.5008 9.58366 12.5008C10.2753 12.5008 10.8337 11.7508 10.8337 10.8341ZM9.58366 9.16748C9.69417 9.16748 9.80015 9.21138 9.87829 9.28952C9.95643 9.36766 10.0003 9.47364 10.0003 9.58415V11.2508C10.0003 11.3613 9.95643 11.4673 9.87829 11.5454C9.80015 11.6236 9.69417 11.6675 9.58366 11.6675C9.47315 11.6675 9.36717 11.6236 9.28903 11.5454C9.21089 11.4673 9.16699 11.3613 9.16699 11.2508V9.58415C9.16699 9.47364 9.21089 9.36766 9.28903 9.28952C9.36717 9.21138 9.47315 9.16748 9.58366 9.16748ZM6.66699 12.5008H7.50033V8.33415H6.66699L5.83366 8.75081V9.58415L6.66699 9.16748V12.5008Z" fill="#D1D1D1"/>
</svg>
