<svg width="20" height="20" viewBox="0 0 20 20" fill="none" xmlns="http://www.w3.org/2000/svg">
<path d="M3.33366 5.83236V15.8324H15.8337V17.499H3.33366C1.66699 17.499 1.66699 15.8324 1.66699 15.8324V5.83236H3.33366ZM17.5003 4.16569V12.499H6.66699V4.16569H17.5003ZM17.7503 2.49902H6.41699C5.63366 2.49902 5.00033 3.08236 5.00033 3.79069V12.874C5.00033 13.5907 5.63366 14.1657 6.41699 14.1657H17.7503C18.5337 14.1657 19.167 13.5907 19.167 12.874V3.79069C19.167 3.08236 18.5337 2.49902 17.7503 2.49902ZM7.50033 4.99902H10.0003V9.16569H7.50033V4.99902ZM16.667 11.6657H7.50033V9.99902H16.667V11.6657ZM16.667 6.66569H11.667V4.99902H16.667V6.66569ZM16.667 9.16569H11.667V7.49902H16.667V9.16569Z" fill="#D1D1D1"/>
</svg>
