<svg width="354" height="354" viewBox="0 0 354 354" fill="none" xmlns="http://www.w3.org/2000/svg">
<path d="M168.68 24.2969V6.29687H173.576V21.6809L172.208 21.3689L182.408 6.29687H188.912V24.2969H183.992V8.62487L185.384 8.93687L174.992 24.2969H168.68Z" fill="#12CE75"/>
<path d="M190.937 6.45696L195.868 7.0624L193.676 24.9284L188.745 24.323L190.937 6.45696ZM204.991 8.18263L209.946 8.791L207.754 26.657L202.799 26.0487L204.991 8.18263ZM192.89 13.3948L206.23 15.0327L205.692 19.4158L192.353 17.7779L192.89 13.3948Z" fill="#12CE75"/>
<path d="M222.47 22.5622L223.106 21.7637C224.442 22.1549 225.492 22.6596 226.254 23.2779C227.035 23.8849 227.551 24.5864 227.802 25.3824C228.057 26.1629 228.066 26.9936 227.83 27.8746C227.578 28.8174 227.136 29.6017 226.504 30.2277C225.877 30.8381 225.073 31.2438 224.092 31.4446C223.13 31.6342 222.008 31.5571 220.725 31.2134L207.882 27.7721L211.616 19.2068L212.538 10.3846L224.917 13.7017C226.524 14.1323 227.675 14.8464 228.368 15.8439C229.066 16.826 229.237 17.9816 228.881 19.3108C228.687 20.0372 228.33 20.6871 227.812 21.2606C227.294 21.8341 226.595 22.2512 225.713 22.512C224.851 22.7614 223.77 22.7782 222.47 22.5622ZM212.932 27.9327L211.68 25.187L220.327 27.5039C221.022 27.6903 221.609 27.6652 222.086 27.4287C222.563 27.1922 222.883 26.7726 223.044 26.1698C223.206 25.5671 223.125 25.032 222.803 24.5648C222.485 24.082 221.917 23.7309 221.098 23.5114L213.958 21.5982L214.839 18.3062L221.33 20.0455C221.886 20.1945 222.394 20.1565 222.851 19.9313C223.329 19.6948 223.644 19.2907 223.797 18.7188C223.921 18.2551 223.86 17.833 223.614 17.4524C223.373 17.0563 222.95 16.7775 222.348 16.616L214.558 14.5289L216.992 12.7708L216.206 20.4367L212.932 27.9327Z" fill="#12CE75"/>
<path d="M246.88 28.9292L245.532 32.2674L233.315 27.3316L234.663 23.9934L246.88 28.9292ZM237.127 26.9301L233.332 33.1882L232.307 30.3411L245.08 35.5017L243.571 39.2404L228.061 32.974L232.699 25.141L234.8 16.2831L250.198 22.5045L248.689 26.2433L236.027 21.1277L238.741 19.791L237.127 26.9301Z" fill="#12CE75"/>
<path d="M266.541 44.3936C265.597 45.6776 264.43 46.6113 263.04 47.1947C261.659 47.7643 260.16 47.9611 258.543 47.7854C256.941 47.6176 255.308 47.0537 253.645 46.0937C251.83 45.0457 250.44 43.7901 249.473 42.327C248.507 40.864 247.995 39.3026 247.937 37.6431C247.892 35.9915 248.337 34.355 249.273 32.7335C250.208 31.112 251.402 29.9075 252.854 29.1199C254.32 28.3403 255.927 28.003 257.677 28.1079C259.427 28.2128 261.209 28.7893 263.025 29.8373C264.687 30.7973 265.992 31.9294 266.939 33.2336C267.9 34.5458 268.475 35.9496 268.666 37.4451C268.864 38.9266 268.643 40.3974 268.004 41.8574L263.681 39.3614C263.926 38.6162 263.98 37.8989 263.842 37.2096C263.712 36.5064 263.393 35.842 262.886 35.2166C262.392 34.5991 261.723 34.0464 260.878 33.5584C259.908 32.9984 258.965 32.6946 258.051 32.6469C257.144 32.5854 256.312 32.7792 255.554 33.2284C254.804 33.6638 254.165 34.3388 253.638 35.2535C253.11 36.1682 252.841 37.0661 252.832 37.9473C252.83 38.8147 253.078 39.6325 253.577 40.4009C254.084 41.1553 254.822 41.8126 255.792 42.3726C256.638 42.8606 257.447 43.1708 258.22 43.3032C259.007 43.4436 259.738 43.3942 260.411 43.155C261.085 42.9158 261.687 42.4966 262.218 41.8976L266.541 44.3936Z" fill="#12CE75"/>
<path d="M277.923 42.2398L281.91 45.2441L272.396 57.8785L268.409 54.8742L277.923 42.2398ZM273.755 36.3643L288.705 47.6303L286.049 51.158L271.098 39.892L273.755 36.3643Z" fill="#12CE75"/>
<path d="M278.223 62.4612L290.947 49.7289L294.409 53.1909L283.534 64.0728L282.788 62.8848L300.654 59.4361L305.253 64.0351L292.529 76.7674L289.05 73.2885L300.128 62.2029L300.892 63.4078L282.686 66.9245L278.223 62.4612Z" fill="#12CE75"/>
<path d="M313.528 75.2783C314.454 76.4635 315.05 77.6425 315.317 78.8152C315.593 80.0005 315.537 81.1108 315.148 82.1461C314.771 83.1716 314.091 84.0687 313.108 84.8374C312.138 85.5962 311.103 86.0393 310.005 86.1669C308.919 86.2846 307.835 86.0661 306.752 85.5115C305.679 84.9695 304.679 84.1059 303.753 82.9207L298.951 76.7743L302.09 74.3204L306.7 80.221C307.192 80.8514 307.728 81.2249 308.306 81.3414C308.897 81.4481 309.463 81.2895 310.005 80.8658C310.56 80.4322 310.851 79.9206 310.877 79.331C310.917 78.7316 310.69 78.1167 310.197 77.4863L305.853 71.9261L309.043 72.2659L296.186 82.3178L293.127 78.4029L307.307 67.3163L313.528 75.2783Z" fill="#12CE75"/>
<path d="M308.671 101.513C307.607 99.6705 307.01 97.8532 306.881 96.0615C306.76 94.2837 307.085 92.6546 307.856 91.1743C308.635 89.7078 309.835 88.5063 311.456 87.5698C313.077 86.6333 314.717 86.194 316.376 86.2517C318.043 86.3233 319.616 86.8558 321.095 87.8492C322.582 88.8565 323.857 90.2816 324.921 92.1245C325.993 93.9813 326.59 95.7986 326.711 97.5764C326.832 99.3543 326.507 100.983 325.736 102.464C324.965 103.944 323.769 105.152 322.148 106.089C320.527 107.025 318.883 107.458 317.216 107.386C315.549 107.315 313.976 106.782 312.497 105.789C311.018 104.795 309.743 103.37 308.671 101.513ZM312.515 99.2923C313.099 100.304 313.776 101.077 314.547 101.611C315.317 102.145 316.133 102.422 316.994 102.442C317.863 102.476 318.741 102.236 319.628 101.724C320.515 101.212 321.161 100.571 321.566 99.8007C321.979 99.0445 322.147 98.1992 322.069 97.2647C321.992 96.3302 321.661 95.3572 321.077 94.3457C320.501 93.348 319.828 92.582 319.057 92.0478C318.287 91.5135 317.467 91.2295 316.598 91.1959C315.729 91.1622 314.851 91.4015 313.964 91.9138C313.077 92.4261 312.431 93.0672 312.026 93.8372C311.621 94.6073 311.457 95.4595 311.535 96.394C311.612 97.3285 311.939 98.2946 312.515 99.2923Z" fill="#12CE75"/>
<path d="M326.437 118.006L327.458 118.015C327.973 119.309 328.221 120.447 328.203 121.428C328.206 122.417 327.971 123.256 327.498 123.944C327.04 124.625 326.391 125.144 325.551 125.5C324.653 125.882 323.763 126.017 322.881 125.905C322.014 125.786 321.199 125.402 320.437 124.753C319.695 124.111 319.065 123.18 318.546 121.957L313.351 109.718L322.399 107.387L329.918 102.681L334.926 114.478C335.576 116.01 335.722 117.356 335.363 118.517C335.018 119.671 334.213 120.518 332.947 121.056C332.254 121.35 331.523 121.469 330.752 121.414C329.981 121.359 329.222 121.064 328.474 120.53C327.747 120.005 327.068 119.163 326.437 118.006ZM316.334 113.797L317.726 111.119L321.224 119.36C321.505 120.022 321.886 120.469 322.366 120.7C322.847 120.93 323.374 120.923 323.948 120.68C324.523 120.436 324.895 120.043 325.065 119.501C325.249 118.954 325.176 118.289 324.845 117.509L321.956 110.704L325.093 109.372L327.719 115.558C327.944 116.088 328.286 116.464 328.745 116.686C329.226 116.917 329.738 116.916 330.283 116.685C330.725 116.497 331.02 116.189 331.169 115.761C331.332 115.327 331.292 114.822 331.048 114.248L327.897 106.825L330.78 107.66L324.256 111.761L316.334 113.797Z" fill="#12CE75"/>
<path d="M325.682 130.946L329.534 129.841L332.954 141.768L329.102 142.874L325.682 130.946ZM342.301 136.14L327.255 148.971L325.793 143.873L339.173 132.893L339.57 134.277L322.399 132.038L320.938 126.939L340.495 129.842L342.301 136.14Z" fill="#12CE75"/>
<path d="M342.915 151.685L343.609 156.629L327.947 158.831L327.253 153.888L342.915 151.685ZM344.122 144.584L346.727 163.122L342.354 163.737L339.749 145.199L344.122 144.584Z" fill="#12CE75"/>
<path d="M329.033 168.396L347.03 168.081L347.117 173.049L330.799 173.334L332.992 171.063L333.114 178.07C333.129 178.886 333.348 179.514 333.771 179.955C334.195 180.411 334.759 180.634 335.463 180.621C336.183 180.609 336.739 180.367 337.131 179.896C337.523 179.441 337.712 178.806 337.698 177.99L337.568 170.551L341.503 170.482L341.639 178.233C341.665 179.753 341.424 181.061 340.915 182.158C340.422 183.271 339.717 184.124 338.799 184.716C337.882 185.324 336.799 185.639 335.551 185.66C334.303 185.682 333.202 185.405 332.248 184.83C331.31 184.27 330.576 183.443 330.045 182.348C329.514 181.269 329.235 179.97 329.208 178.45L329.033 168.396Z" fill="#12CE75"/>
<path d="M342.402 218.746L341.676 221.657L338.247 220.628L338.697 224.179L335.706 224.372L335.604 220.81L332.357 222.325L331.244 219.549L334.613 218.337L332.208 215.683L334.494 213.755L336.644 216.642L338.405 213.544L340.956 215.12L338.885 218.067L342.402 218.746Z" fill="#12CE75"/>
<path d="M313.198 244.125L328.939 252.856L326.565 257.138L313.112 249.676L314.048 248.631L322.283 264.863L319.13 270.551L303.389 261.82L305.775 257.517L319.479 265.119L318.532 266.185L310.138 249.645L313.198 244.125Z" fill="#12CE75"/>
<path d="M318.198 272.026L315.209 275.994L300.837 265.156L303.826 261.189L318.198 272.026ZM309.677 283.335L306.672 287.322L292.301 276.484L295.305 272.497L309.677 283.335ZM311.215 270.247L303.126 280.981L299.601 278.322L307.689 267.588L311.215 270.247Z" fill="#12CE75"/>
<path d="M289.439 292.719L289.829 293.662C288.839 294.642 287.889 295.314 286.979 295.681C286.069 296.07 285.206 296.181 284.388 296.014C283.582 295.858 282.851 295.464 282.195 294.83C281.494 294.152 281.022 293.385 280.781 292.529C280.552 291.684 280.587 290.783 280.887 289.828C281.188 288.894 281.799 287.95 282.722 286.995L291.958 277.431L297.636 284.853L304.902 289.939L295.999 299.158C294.843 300.355 293.661 301.015 292.453 301.137C291.256 301.271 290.162 300.86 289.173 299.904C288.632 299.381 288.237 298.754 287.987 298.023C287.736 297.292 287.711 296.477 287.91 295.58C288.11 294.705 288.62 293.751 289.439 292.719ZM289.369 281.77L292.377 282.007L286.158 288.446C285.658 288.964 285.395 289.489 285.371 290.022C285.346 290.554 285.558 291.037 286.007 291.471C286.455 291.904 286.962 292.094 287.527 292.039C288.103 291.995 288.686 291.668 289.275 291.058L294.41 285.74L296.86 288.109L292.192 292.943C291.792 293.357 291.579 293.819 291.554 294.329C291.53 294.861 291.73 295.333 292.156 295.744C292.501 296.078 292.899 296.229 293.352 296.199C293.815 296.18 294.264 295.945 294.697 295.497L300.299 289.696L300.656 292.677L294.335 288.271L289.369 281.77Z" fill="#12CE75"/>
<path d="M271.435 309.774L269.171 306.976L279.41 298.684L281.675 301.483L271.435 309.774ZM277.913 302.213L274.282 295.857L277.268 296.342L266.562 305.012L264.026 301.877L277.026 291.35L281.624 299.207L288.349 305.343L275.442 315.794L272.906 312.66L283.519 304.066L283.371 307.088L277.913 302.213Z" fill="#12CE75"/>
<path d="M248.948 320.344C248.284 318.895 248.033 317.422 248.197 315.923C248.37 314.438 248.925 313.031 249.862 311.703C250.786 310.382 252.071 309.227 253.717 308.239C255.514 307.159 257.286 306.552 259.033 306.416C260.781 306.281 262.394 306.59 263.874 307.344C265.339 308.106 266.554 309.289 267.517 310.894C268.481 312.499 268.955 314.128 268.939 315.78C268.909 317.44 268.425 319.01 267.484 320.49C266.544 321.97 265.175 323.249 263.378 324.329C261.733 325.318 260.11 325.91 258.511 326.106C256.897 326.31 255.391 326.132 253.992 325.573C252.6 325.028 251.422 324.121 250.455 322.854L254.734 320.283C255.267 320.859 255.868 321.254 256.537 321.468C257.215 321.695 257.951 321.738 258.743 321.598C259.523 321.466 260.33 321.148 261.167 320.646C262.127 320.069 262.85 319.392 263.335 318.615C263.829 317.852 264.063 317.03 264.038 316.149C264.021 315.282 263.741 314.395 263.197 313.49C262.653 312.585 261.999 311.914 261.233 311.478C260.476 311.056 259.64 310.877 258.727 310.94C257.821 311.018 256.889 311.345 255.929 311.922C255.092 312.424 254.428 312.982 253.937 313.594C253.433 314.215 253.122 314.877 253.004 315.583C252.886 316.288 252.961 317.018 253.227 317.773L248.948 320.344Z" fill="#12CE75"/>
<path d="M244.986 330.797L240.426 332.827L233.996 318.377L238.557 316.347L244.986 330.797ZM252.144 330L235.043 337.615L233.248 333.58L250.349 325.966L252.144 330Z" fill="#12CE75"/>
<path d="M226.774 320.688L231.732 337.992L227.026 339.342L222.788 324.553L224.189 324.476L218.536 341.776L212.284 343.569L207.326 326.265L212.055 324.909L216.372 339.975L214.948 340.058L220.707 322.428L226.774 320.688Z" fill="#12CE75"/>
<path d="M198.423 346.214C196.938 346.449 195.618 346.399 194.463 346.064C193.292 345.731 192.349 345.143 191.632 344.301C190.919 343.474 190.464 342.445 190.269 341.212C190.076 339.995 190.191 338.876 190.612 337.853C191.036 336.846 191.753 336.004 192.763 335.325C193.758 334.65 194.998 334.194 196.483 333.959L204.187 332.738L204.81 336.673L197.414 337.845C196.624 337.97 196.038 338.257 195.655 338.707C195.275 339.172 195.139 339.744 195.247 340.424C195.357 341.119 195.663 341.621 196.166 341.93C196.671 342.255 197.318 342.355 198.108 342.23L205.078 341.126L203.233 343.751L200.682 327.632L205.589 326.855L208.403 344.633L198.423 346.214Z" fill="#12CE75"/>
<path d="M178.009 329.118C180.136 329.081 182.015 329.441 183.644 330.196C185.258 330.952 186.525 332.026 187.445 333.418C188.349 334.811 188.818 336.443 188.851 338.315C188.883 340.186 188.472 341.834 187.617 343.257C186.745 344.68 185.517 345.798 183.93 346.61C182.328 347.422 180.464 347.846 178.336 347.884C176.192 347.921 174.314 347.562 172.7 346.806C171.087 346.05 169.82 344.976 168.899 343.584C167.979 342.192 167.502 340.56 167.47 338.688C167.437 336.816 167.857 335.169 168.728 333.745C169.599 332.322 170.828 331.204 172.414 330.392C174 329.58 175.865 329.156 178.009 329.118ZM178.086 333.558C176.918 333.578 175.914 333.796 175.073 334.21C174.232 334.625 173.594 335.204 173.159 335.948C172.708 336.692 172.491 337.576 172.509 338.6C172.527 339.624 172.774 340.5 173.251 341.227C173.712 341.955 174.37 342.512 175.224 342.897C176.079 343.282 177.091 343.465 178.258 343.444C179.41 343.424 180.407 343.207 181.247 342.792C182.088 342.377 182.734 341.798 183.185 341.054C183.637 340.31 183.853 339.426 183.835 338.402C183.817 337.378 183.57 336.503 183.093 335.775C182.617 335.047 181.951 334.49 181.096 334.105C180.241 333.72 179.238 333.538 178.086 333.558Z" fill="#12CE75"/>
<path d="M154.791 336.738L154.287 337.626C152.906 337.449 151.791 337.114 150.942 336.623C150.075 336.146 149.455 335.534 149.083 334.787C148.71 334.056 148.571 333.237 148.666 332.33C148.768 331.359 149.082 330.515 149.607 329.798C150.132 329.097 150.863 328.571 151.8 328.219C152.721 327.881 153.841 327.782 155.162 327.92L168.385 329.31L166.036 338.354L166.505 347.212L153.759 345.872C152.104 345.698 150.856 345.173 150.015 344.296C149.173 343.435 148.823 342.321 148.967 340.952C149.045 340.204 149.296 339.507 149.718 338.859C150.139 338.212 150.765 337.69 151.595 337.295C152.407 336.914 153.473 336.728 154.791 336.738ZM163.372 329.942L165.038 332.458L156.135 331.522C155.419 331.447 154.844 331.563 154.409 331.871C153.975 332.18 153.725 332.644 153.659 333.265C153.594 333.885 153.757 334.401 154.149 334.812C154.538 335.239 155.154 335.497 155.998 335.586L163.349 336.358L162.993 339.748L156.31 339.045C155.737 338.985 155.242 339.102 154.825 339.396C154.391 339.704 154.143 340.153 154.081 340.742C154.031 341.219 154.157 341.626 154.459 341.964C154.76 342.317 155.221 342.527 155.841 342.592L163.861 343.435L161.732 345.552L161.31 337.857L163.372 329.942Z" fill="#12CE75"/>
<path d="M143.937 329.108L142.968 332.997L130.928 329.996L131.897 326.106L143.937 329.108ZM131.129 340.904L127.54 321.458L132.686 322.741L135.505 339.819L134.108 339.47L144.633 325.72L149.779 327.003L137.486 342.489L131.129 340.904Z" fill="#12CE75"/>
<path d="M117.097 334.033L112.437 332.244L118.101 317.477L122.762 319.266L117.097 334.033ZM122.723 338.531L105.247 331.823L106.828 327.7L124.305 334.408L122.723 338.531Z" fill="#12CE75"/>
<path d="M110.16 313.488L101.438 329.234L97.0929 326.825L105.001 312.549L105.871 315.584L99.7421 312.186C99.0284 311.791 98.3749 311.666 97.7815 311.813C97.1741 311.952 96.6998 312.329 96.3587 312.945C96.0098 313.575 95.9414 314.177 96.1534 314.752C96.3514 315.319 96.8072 315.801 97.5209 316.196L104.028 319.803L102.121 323.246L95.3408 319.488C94.0114 318.751 92.9988 317.888 92.3031 316.899C91.5856 315.915 91.1998 314.878 91.1457 313.787C91.0776 312.689 91.3459 311.593 91.9506 310.502C92.5553 309.41 93.3453 308.595 94.3205 308.056C95.2739 307.523 96.3575 307.301 97.5712 307.388C98.7708 307.468 100.035 307.876 101.365 308.613L110.16 313.488Z" fill="#12CE75"/>
<path d="M59.1802 300.852L56.9861 298.806L59.5469 296.304L56.2235 294.977L57.5036 292.266L60.6681 293.904L60.9161 290.329L63.8834 290.7L63.3113 294.236L66.7971 293.417L67.3755 296.352L63.81 296.834L65.6655 299.877L63.0515 301.344L61.4777 298.104L59.1802 300.852Z" fill="#12CE75"/>
<path d="M51.459 263.148L36.197 272.691L33.6026 268.539L46.6464 260.383L47.1068 261.708L28.9223 261.049L25.4757 255.533L40.7376 245.99L43.3448 250.162L30.0568 258.471L29.5837 257.126L48.1141 257.795L51.459 263.148Z" fill="#12CE75"/>
<path d="M24.7973 253.32L22.7767 248.782L39.2186 241.456L41.2392 245.995L24.7973 253.32ZM19.0379 240.384L17.0075 235.824L33.4494 228.499L35.4799 233.059L19.0379 240.384ZM29.7375 248.071L24.271 235.793L28.3047 233.996L33.7713 246.274L29.7375 248.071Z" fill="#12CE75"/>
<path d="M20.4716 218.587L19.4572 218.47C19.0808 217.13 18.9529 215.972 19.0734 214.999C19.174 214.014 19.4954 213.205 20.0376 212.57C20.5645 211.941 21.264 211.492 22.1361 211.225C23.0694 210.94 23.9688 210.899 24.8341 211.103C25.6842 211.311 26.4545 211.778 27.1448 212.504C27.8152 213.219 28.3445 214.212 28.7328 215.482L32.6202 228.197L23.3775 229.569L15.4077 233.463L11.6607 221.207C11.1742 219.616 11.1701 218.261 11.6485 217.145C12.1115 216.033 13.001 215.275 14.3168 214.873C15.0359 214.653 15.7758 214.61 16.5367 214.746C17.2975 214.881 18.022 215.253 18.7102 215.863C19.3784 216.461 19.9656 217.369 20.4716 218.587ZM30.0801 223.829L28.4153 226.346L25.798 217.785C25.5875 217.097 25.2555 216.613 24.8019 216.333C24.3484 216.054 23.8232 216.005 23.2265 216.188C22.6298 216.37 22.2187 216.722 21.9931 217.243C21.7522 217.768 21.7557 218.436 22.0037 219.247L24.1649 226.316L20.906 227.313L18.9412 220.887C18.7728 220.336 18.4718 219.926 18.0383 219.657C17.5847 219.378 17.0749 219.325 16.5088 219.498C16.0498 219.638 15.7241 219.913 15.5316 220.324C15.3238 220.739 15.3112 221.245 15.4936 221.841L17.8513 229.553L15.0708 228.421L21.9881 225.025L30.0801 223.829Z" fill="#12CE75"/>
<path d="M14.3679 194.377L17.9235 193.813L19.9847 206.827L16.429 207.39L14.3679 194.377ZM17.6775 203.766L24.9964 203.797L23.0836 206.141L20.9285 192.535L24.9108 191.904L27.5276 208.426L18.4246 208.483L9.74957 211.243L7.1515 194.84L11.1338 194.209L13.2701 207.697L10.7265 206.059L17.6775 203.766Z" fill="#12CE75"/>
<path d="M16.6976 170.063C18.2868 170.184 19.6969 170.679 20.928 171.548C22.1431 172.418 23.1044 173.586 23.812 175.05C24.519 176.498 24.9059 178.181 24.9729 180.1C25.0461 182.195 24.7183 184.04 23.9895 185.634C23.2607 187.228 22.2081 188.49 20.8316 189.419C19.4546 190.331 17.8307 190.82 15.9599 190.886C14.089 190.951 12.4349 190.576 10.9976 189.762C9.55978 188.932 8.42173 187.747 7.58349 186.207C6.74524 184.668 6.28954 182.85 6.21639 180.756C6.14939 178.837 6.418 177.13 7.02223 175.636C7.6259 174.126 8.51145 172.895 9.67889 171.941C10.8303 170.989 12.1945 170.397 13.7714 170.165L13.9456 175.154C13.1837 175.341 12.547 175.675 12.0355 176.158C11.508 176.64 11.1135 177.263 10.8519 178.024C10.5898 178.77 10.4757 179.63 10.5098 180.606C10.5489 181.725 10.7905 182.685 11.2347 183.486C11.663 184.288 12.2684 184.891 13.051 185.296C13.8176 185.701 14.7286 185.886 15.784 185.849C16.8393 185.812 17.7432 185.564 18.4957 185.105C19.2321 184.647 19.794 184.003 20.1813 183.173C20.5526 182.344 20.7187 181.37 20.6796 180.25C20.6455 179.275 20.4797 178.424 20.1822 177.698C19.8841 176.956 19.4551 176.363 18.8953 175.918C18.3354 175.473 17.6609 175.185 16.8718 175.052L16.6976 170.063Z" fill="#12CE75"/>
<path d="M8.90426 161.873L9.42606 156.908L25.1553 158.563L24.6335 163.527L8.90426 161.873ZM6.01475 168.471L7.97153 149.853L12.3633 150.315L10.4065 168.933L6.01475 168.471Z" fill="#12CE75"/>
<path d="M26.762 150.062L9.22393 146.011L10.3253 141.24L25.3145 144.703L24.7028 145.966L12.3121 132.634L13.7751 126.297L31.3132 130.349L30.2064 135.143L14.9366 131.615L15.5538 130.329L28.1819 143.912L26.762 150.062Z" fill="#12CE75"/>
<path d="M17.6681 114.277C18.1825 112.864 18.8663 111.733 19.7195 110.886C20.5781 110.024 21.5495 109.484 22.6335 109.266C23.7024 109.042 24.8232 109.144 25.9959 109.571C27.1535 109.992 28.0773 110.635 28.7673 111.5C29.4422 112.359 29.8315 113.394 29.935 114.607C30.0439 115.805 29.8412 117.11 29.3268 118.523L26.659 125.853L22.9156 124.489L25.4767 117.453C25.7503 116.701 25.7833 116.049 25.5757 115.497C25.3531 114.939 24.9186 114.542 24.2721 114.307C23.6106 114.066 23.0228 114.09 22.5088 114.38C21.9797 114.664 21.5784 115.182 21.3048 115.934L18.8915 122.564L17.49 119.678L32.8245 125.263L31.1254 129.932L14.2123 123.772L17.6681 114.277Z" fill="#12CE75"/>
<path d="M42.9574 104.537C41.9583 106.416 40.7334 107.884 39.2826 108.943C37.8394 109.987 36.2859 110.574 34.6222 110.704C32.9661 110.82 31.3117 110.438 29.6591 109.559C28.0065 108.679 26.7652 107.521 25.9354 106.082C25.113 104.63 24.7313 103.013 24.7904 101.232C24.8569 99.4368 25.3897 97.5998 26.3887 95.7209C27.3953 93.8279 28.6202 92.3591 30.0635 91.3147C31.5067 90.2702 33.0602 89.6831 34.7239 89.5534C36.3875 89.4236 38.0456 89.7984 39.6983 90.6777C41.3509 91.557 42.5884 92.7229 43.4107 94.1754C44.2331 95.6279 44.6148 97.2447 44.5557 99.0256C44.4967 100.807 43.9639 102.644 42.9574 104.537ZM39.0377 102.451C39.586 101.42 39.8827 100.436 39.9277 99.4992C39.9727 98.5626 39.7754 97.7237 39.336 96.9824C38.9041 96.227 38.2361 95.6088 37.3321 95.1278C36.4281 94.6468 35.5423 94.4383 34.6748 94.5022C33.8147 94.5521 33.009 94.8574 32.2578 95.4183C31.5066 95.9791 30.8568 96.7752 30.3084 97.8065C29.7676 98.8236 29.4747 99.8005 29.4297 100.737C29.3847 101.674 29.5782 102.52 30.0101 103.275C30.442 104.031 31.11 104.649 32.014 105.13C32.918 105.611 33.8038 105.819 34.6713 105.755C35.5389 105.691 36.3483 105.379 37.0996 104.818C37.8508 104.257 38.4969 103.468 39.0377 102.451Z" fill="#12CE75"/>
<path d="M47.3984 79.6514L46.8658 78.7801C47.6905 77.6582 48.5235 76.845 49.365 76.3406C50.2026 75.8139 51.0382 75.569 51.8717 75.6061C52.6921 75.6339 53.4758 75.9095 54.2227 76.4328C55.022 76.9929 55.6076 77.6768 55.9796 78.4845C56.3385 79.283 56.4445 80.1777 56.2974 81.1688C56.1465 82.1375 55.6901 83.1658 54.9284 84.2537L47.3022 95.1451L40.5333 88.7025L32.5608 84.8159L39.9117 74.3177C40.8662 72.9546 41.9306 72.1179 43.1049 71.8077C44.2662 71.4882 45.4102 71.7233 46.5371 72.5129C47.153 72.9444 47.6417 73.5017 48.0032 74.1849C48.3648 74.868 48.5173 75.6684 48.4607 76.5861C48.4002 77.4815 48.0461 78.5032 47.3984 79.6514ZM49.1807 90.4538L46.1729 90.6907L51.3075 83.3576C51.7205 82.7678 51.8976 82.2081 51.8387 81.6785C51.7799 81.1488 51.495 80.7049 50.9839 80.3469C50.4729 79.9888 49.9428 79.8811 49.3936 80.0238C48.8314 80.1573 48.307 80.5714 47.8206 81.266L43.5808 87.3212L40.7897 85.3655L44.6442 79.8608C44.9745 79.389 45.1123 78.8994 45.0573 78.3921C44.9985 77.8624 44.7267 77.4277 44.2418 77.088C43.8487 76.8126 43.4313 76.7252 42.9897 76.826C42.5349 76.9176 42.1285 77.219 41.7706 77.7301L37.1453 84.3358L36.3262 81.4468L43.259 84.8099L49.1807 90.4538Z" fill="#12CE75"/>
<path d="M59.5556 74.5217L56.6253 71.7872L65.0875 62.7126L68.0178 65.447L59.5556 74.5217ZM55.453 57.5956L74.1946 63.8907L70.5773 67.7698L54.2801 61.9502L55.2621 60.8971L62.1805 76.7742L58.5632 80.6533L50.9846 62.3874L55.453 57.5956Z" fill="#12CE75"/>
<path d="M67.8659 47.8628L71.69 44.654L81.8522 56.7732L78.0281 59.982L67.8659 47.8628ZM61.2045 50.6013L75.5448 38.5684L78.3822 41.9522L64.0419 53.9852L61.2045 50.6013Z" fill="#12CE75"/>
<path d="M89.1364 51.7637L79.6026 36.4959L83.8158 33.8633L92.4597 47.7061L89.3847 46.9957L95.3278 43.282C96.0198 42.8496 96.4456 42.3382 96.6052 41.748C96.7784 41.1492 96.6785 40.5513 96.3056 39.9542C95.9243 39.3434 95.4309 38.9914 94.8256 38.898C94.2338 38.7961 93.5919 38.9614 92.8999 39.3938L86.5904 43.3364L84.5057 39.9978L91.0797 35.8899C92.3688 35.0844 93.6145 34.6173 94.8168 34.4886C96.0242 34.3379 97.1179 34.5035 98.0979 34.9854C99.0915 35.4588 99.9188 36.2248 100.58 37.2834C101.241 38.3419 101.57 39.4284 101.568 40.5429C101.571 41.6352 101.24 42.6911 100.575 43.7104C99.9237 44.7212 98.9534 45.6294 97.6644 46.4349L89.1364 51.7637Z" fill="#12CE75"/>
<path d="M125.355 14.1764L128.224 13.2993L129.108 16.7684L131.92 14.5536L133.626 17.0183L130.625 18.9398L133.595 20.9428L131.789 23.327L129.015 21.0633L127.979 24.4918L125.149 23.525L126.516 20.1959L122.954 20.2812L122.991 17.2832L126.583 17.5402L125.355 14.1764Z" fill="#12CE75"/>
</svg>
