<svg width="350" height="348" viewBox="0 0 350 348" fill="none" xmlns="http://www.w3.org/2000/svg">
<path d="M178.575 24.384C176.447 24.384 174.575 23.992 172.959 23.208C171.359 22.424 170.111 21.328 169.215 19.92C168.335 18.512 167.895 16.872 167.895 15C167.895 13.128 168.335 11.488 169.215 10.08C170.111 8.672 171.359 7.576 172.959 6.792C174.575 6.008 176.447 5.616 178.575 5.616C180.719 5.616 182.591 6.008 184.191 6.792C185.791 7.576 187.039 8.672 187.935 10.08C188.831 11.488 189.279 13.128 189.279 15C189.279 16.872 188.831 18.512 187.935 19.92C187.039 21.328 185.791 22.424 184.191 23.208C182.591 23.992 180.719 24.384 178.575 24.384ZM178.575 19.944C179.743 19.944 180.751 19.744 181.599 19.344C182.447 18.944 183.095 18.376 183.543 17.64C184.007 16.904 184.239 16.024 184.239 15C184.239 13.976 184.007 13.096 183.543 12.36C183.095 11.624 182.447 11.056 181.599 10.656C180.751 10.256 179.743 10.056 178.575 10.056C177.423 10.056 176.423 10.256 175.575 10.656C174.727 11.056 174.071 11.624 173.607 12.36C173.143 13.096 172.911 13.976 172.911 15C172.911 16.024 173.143 16.904 173.607 17.64C174.071 18.376 174.727 18.944 175.575 19.344C176.423 19.744 177.423 19.944 178.575 19.944Z" fill="#12CE75"/>
<path d="M193.056 13.3412L200.941 14.3094C202.45 14.4946 203.66 14.877 204.572 15.4565C205.485 16.036 206.127 16.7758 206.501 17.676C206.876 18.5603 206.995 19.5583 206.859 20.67C206.723 21.7817 206.341 22.7262 205.714 23.5035C205.088 24.265 204.255 24.8156 203.214 25.1552C202.175 25.479 200.965 25.5561 199.583 25.3864L187.958 23.9591L190.476 14.8621L190.149 6.09287L206.99 8.16075L206.532 11.9007L192.763 10.2102L194.922 8.17819L195.18 15.343L192.981 23.2218L191.377 20.7276L199.381 21.7104C200.095 21.7981 200.682 21.6847 201.139 21.3702C201.613 21.0575 201.889 20.5836 201.966 19.9484C202.046 19.2972 201.893 18.7707 201.507 18.3686C201.139 17.9527 200.598 17.7008 199.883 17.6131L192.642 16.7239L193.056 13.3412Z" fill="#12CE75"/>
<path d="M211.431 27.8257L215.938 23.1366L216.007 23.154L225.817 12.8614L231.056 14.1677L216.671 29.1321L211.431 27.8257ZM215.091 26.2399L210.121 8.94803L215.454 10.2776L219.32 23.8563L215.091 26.2399Z" fill="#12CE75"/>
<path d="M234.86 29.844C232.47 28.9265 230.878 27.6041 230.083 25.8767C229.31 24.1401 229.375 22.0915 230.28 19.731L231.989 15.2714L236.627 17.0518L235.064 21.1304C234.612 22.3107 234.592 23.3229 235.005 24.167C235.419 25.0112 236.267 25.6798 237.552 26.1729C238.299 26.4596 239.115 26.6785 239.999 26.8295C240.889 26.9656 241.808 27.027 242.756 27.0137L241.599 30.837C240.531 30.9411 239.421 30.9092 238.269 30.7411C237.116 30.5731 235.98 30.274 234.86 29.844ZM238.251 36.9556L244.694 20.1481L249.354 21.937L242.912 38.7446L238.251 36.9556Z" fill="#12CE75"/>
<path d="M247.431 37.0348L249.372 33.5281L260.224 39.5437L258.283 43.0503L247.431 37.0348ZM262.849 28.9526L261.29 48.6687L256.651 46.0973L258.342 28.869L259.602 29.5671L245.883 40.1283L241.244 37.5569L257.119 25.7761L262.849 28.9526Z" fill="#12CE75"/>
<path d="M273.612 38.8502L277.65 41.7844L268.363 54.5861L264.324 51.6519L273.612 38.8502ZM269.341 33.0479L284.486 44.0512L281.893 47.6256L266.748 36.6222L269.341 33.0479Z" fill="#12CE75"/>
<path d="M274.95 60.0781L287.217 46.905L290.85 50.2931L279.729 62.2368L279.617 59.0811L284.743 63.8605C285.339 64.417 285.943 64.6958 286.555 64.6969C287.177 64.7089 287.729 64.4573 288.208 63.9421C288.699 63.4152 288.911 62.8471 288.844 62.2379C288.789 61.6397 288.463 61.0623 287.867 60.5058L282.425 55.4317L285.108 52.5512L290.777 57.838C291.889 58.8747 292.662 59.9572 293.098 61.0856C293.557 62.2133 293.681 63.3131 293.469 64.385C293.27 65.4679 292.745 66.466 291.894 67.3794C291.044 68.2927 290.081 68.8929 289.004 69.1801C287.951 69.4664 286.846 69.4204 285.689 69.0422C284.545 68.6749 283.417 67.9729 282.305 66.9363L274.95 60.0781Z" fill="#12CE75"/>
<path d="M306.916 83.0406C305.59 83.9248 304.175 84.4036 302.67 84.477C301.177 84.5401 299.702 84.2127 298.243 83.4948C296.795 82.7892 295.453 81.701 294.219 80.2302C292.872 78.6246 291.994 76.969 291.587 75.2635C291.179 73.5579 291.231 71.9152 291.744 70.3353C292.266 68.7676 293.244 67.3816 294.677 66.1773C296.11 64.973 297.644 64.2489 299.277 64.005C300.921 63.7733 302.546 64.0058 304.155 64.7026C305.763 65.3994 307.24 66.5506 308.588 68.1562C309.822 69.627 310.661 71.1373 311.105 72.6869C311.559 74.2488 311.62 75.7651 311.287 77.2357C310.967 78.696 310.257 80.0031 309.158 81.157L305.949 77.3329C306.434 76.7162 306.73 76.0603 306.836 75.3652C306.954 74.6598 306.882 73.9264 306.619 73.1651C306.366 72.416 305.926 71.6676 305.299 70.92C304.579 70.062 303.797 69.4543 302.954 69.0968C302.124 68.7291 301.275 68.6267 300.41 68.7899C299.556 68.9427 298.725 69.3588 297.917 70.0382C297.108 70.7175 296.549 71.4697 296.239 72.2947C295.941 73.1094 295.895 73.9632 296.101 74.8559C296.319 75.7383 296.788 76.6085 297.508 77.4665C298.135 78.2141 298.79 78.7824 299.471 79.1712C300.163 79.5723 300.866 79.7756 301.581 79.781C302.295 79.7865 303.004 79.5983 303.707 79.2165L306.916 83.0406Z" fill="#12CE75"/>
<path d="M316.783 94.0597L313.826 95.9831L309.734 89.683L309.802 89.6106C309.052 88.4566 308.589 87.317 308.411 86.1918C308.243 85.08 308.357 84.0514 308.754 83.106C309.16 82.1741 309.839 81.3984 310.791 80.7791C311.771 80.1423 312.768 79.8276 313.784 79.8349C314.822 79.847 315.821 80.1515 316.781 80.7486C317.763 81.3504 318.629 82.2283 319.379 83.3824L325.365 92.601L310.276 102.414L307.557 98.2277L321.54 89.134L320.884 92.2228L316.793 85.9227C316.349 85.2383 315.832 84.8106 315.244 84.6396C314.678 84.4732 314.1 84.5819 313.51 84.9657C312.934 85.3408 312.599 85.8253 312.508 86.4191C312.439 87.0175 312.627 87.659 313.071 88.3433L316.783 94.0597ZM313.834 92.4274L303.426 91.8673L300.289 87.0365L310.802 87.7577L313.834 92.4274Z" fill="#12CE75"/>
<path d="M338.133 121.286L339.11 124.123L335.674 125.129L337.985 127.861L335.582 129.655L333.558 126.722L331.66 129.763L329.215 128.042L331.379 125.189L327.918 124.275L328.785 121.412L332.159 122.661L331.949 119.103L334.946 119.034L334.815 122.633L338.133 121.286Z" fill="#12CE75"/>
<path d="M328.612 166.305C328.463 164.183 328.724 162.288 329.393 160.621C330.064 158.97 331.07 157.648 332.412 156.656C333.755 155.68 335.361 155.127 337.228 154.996C339.095 154.865 340.762 155.189 342.228 155.969C343.695 156.764 344.875 157.933 345.769 159.474C346.664 161.031 347.186 162.871 347.334 164.994C347.484 167.133 347.223 169.028 346.553 170.679C345.882 172.33 344.876 173.651 343.534 174.643C342.192 175.635 340.587 176.197 338.72 176.328C336.852 176.458 335.185 176.126 333.718 175.331C332.251 174.535 331.07 173.367 330.177 171.826C329.283 170.284 328.761 168.444 328.612 166.305ZM333.041 165.995C333.123 167.16 333.392 168.152 333.851 168.97C334.309 169.788 334.921 170.395 335.686 170.79C336.453 171.202 337.347 171.372 338.368 171.3C339.39 171.228 340.251 170.936 340.953 170.421C341.656 169.923 342.177 169.237 342.517 168.363C342.857 167.489 342.986 166.47 342.905 165.304C342.825 164.155 342.555 163.172 342.097 162.354C341.639 161.536 341.027 160.921 340.26 160.509C339.493 160.098 338.599 159.928 337.578 160C336.556 160.071 335.695 160.364 334.993 160.878C334.291 161.393 333.77 162.087 333.43 162.961C333.09 163.834 332.961 164.846 333.041 165.995Z" fill="#12CE75"/>
<path d="M340.085 181.065L339.669 188.998C339.59 190.516 339.293 191.75 338.778 192.701C338.264 193.651 337.571 194.343 336.699 194.778C335.843 195.214 334.855 195.403 333.737 195.344C332.619 195.285 331.65 194.97 330.83 194.398C330.027 193.827 329.42 193.035 329.008 192.02C328.613 191.005 328.452 189.803 328.525 188.413L329.138 176.717L338.388 178.597L347.113 177.661L346.225 194.605L342.462 194.408L343.188 180.555L345.366 182.568L338.236 183.323L330.223 181.677L332.6 179.903L332.177 187.956C332.14 188.675 332.294 189.252 332.64 189.687C332.984 190.137 333.476 190.379 334.116 190.413C334.771 190.447 335.285 190.258 335.659 189.845C336.049 189.449 336.262 188.891 336.3 188.172L336.682 180.886L340.085 181.065Z" fill="#12CE75"/>
<path d="M327.466 199.197L332.457 203.369L332.445 203.44L343.395 212.514L342.458 217.832L326.528 204.515L327.466 199.197ZM329.303 202.739L346.204 196.584L345.25 201.996L331.975 206.793L329.303 202.739Z" fill="#12CE75"/>
<path d="M327.627 222.328C328.376 219.88 329.584 218.2 331.251 217.288C332.929 216.396 334.977 216.32 337.394 217.06L341.961 218.458L340.508 223.209L336.332 221.931C335.123 221.56 334.112 221.611 333.299 222.081C332.486 222.552 331.878 223.445 331.476 224.761C331.242 225.526 331.081 226.355 330.992 227.248C330.918 228.146 330.921 229.067 331 230.012L327.106 229.121C326.928 228.062 326.883 226.952 326.97 225.791C327.057 224.63 327.276 223.475 327.627 222.328ZM320.771 226.202L337.982 231.472L336.523 236.246L319.311 230.976L320.771 226.202Z" fill="#12CE75"/>
<path d="M319.881 236.305L323.542 237.937L318.495 249.272L314.834 247.64L319.881 236.305ZM329.27 250.976L309.501 251.122L311.658 246.277L328.961 246.476L328.375 247.792L316.666 235.029L318.823 230.184L331.934 244.99L329.27 250.976Z" fill="#12CE75"/>
<path d="M320.663 263.708L318.092 267.987L304.54 259.833L307.111 255.554L320.663 263.708ZM326.069 258.951L316.428 274.997L312.644 272.72L322.286 256.674L326.069 258.951Z" fill="#12CE75"/>
<path d="M300.371 265.424L314.351 276.761L311.225 280.622L298.549 270.343L301.687 270.014L297.277 275.46C296.763 276.094 296.527 276.717 296.568 277.327C296.6 277.949 296.889 278.482 297.435 278.926C297.995 279.379 298.576 279.552 299.178 279.443C299.771 279.347 300.324 278.982 300.837 278.348L305.52 272.566L308.577 275.045L303.698 281.069C302.742 282.25 301.716 283.098 300.621 283.611C299.529 284.146 298.441 284.345 297.358 284.208C296.264 284.084 295.233 283.629 294.264 282.843C293.294 282.057 292.629 281.136 292.269 280.082C291.91 279.049 291.88 277.943 292.177 276.763C292.464 275.595 293.086 274.42 294.042 273.239L300.371 265.424Z" fill="#12CE75"/>
<path d="M279.607 298.985C278.634 297.723 278.059 296.343 277.882 294.846C277.716 293.36 277.941 291.864 278.556 290.358C279.159 288.863 280.151 287.449 281.533 286.115C283.04 284.659 284.63 283.669 286.302 283.144C287.975 282.619 289.616 282.558 291.226 282.96C292.825 283.374 294.274 284.254 295.574 285.602C296.873 286.949 297.701 288.43 298.057 290.043C298.401 291.668 298.281 293.307 297.697 294.961C297.114 296.615 296.068 298.169 294.56 299.625C293.179 300.959 291.731 301.901 290.217 302.451C288.691 303.013 287.184 303.179 285.695 302.948C284.217 302.729 282.865 302.111 281.639 301.093L285.23 297.625C285.878 298.067 286.552 298.317 287.253 298.375C287.964 298.444 288.69 298.321 289.431 298.006C290.16 297.702 290.876 297.211 291.578 296.533C292.384 295.755 292.936 294.933 293.234 294.067C293.543 293.212 293.587 292.358 293.365 291.505C293.153 290.664 292.681 289.863 291.948 289.103C291.215 288.342 290.427 287.836 289.583 287.583C288.75 287.342 287.896 287.355 287.02 287.623C286.155 287.901 285.32 288.43 284.515 289.208C283.813 289.886 283.291 290.578 282.951 291.285C282.598 292.004 282.444 292.72 282.488 293.434C282.532 294.148 282.768 294.842 283.198 295.518L279.607 298.985Z" fill="#12CE75"/>
<path d="M269.282 309.446L267.161 306.627L273.16 302.106L273.237 302.168C274.336 301.34 275.44 300.798 276.55 300.543C277.647 300.298 278.68 300.34 279.65 300.671C280.607 301.012 281.427 301.636 282.11 302.544C282.812 303.477 283.195 304.451 283.258 305.466C283.317 306.503 283.082 307.521 282.553 308.521C282.021 309.543 281.205 310.468 280.106 311.296L271.327 317.912L260.505 303.529L264.491 300.524L274.521 313.853L271.396 313.412L277.395 308.891C278.047 308.4 278.438 307.855 278.568 307.257C278.695 306.68 278.547 306.111 278.123 305.548C277.71 304.998 277.204 304.698 276.605 304.648C276.004 304.621 275.377 304.853 274.726 305.344L269.282 309.446ZM270.707 306.389L270.548 295.96L275.148 292.494L275.153 303.038L270.707 306.389Z" fill="#12CE75"/>
<path d="M243.019 332.922L240.258 334.094L239.017 330.736L236.452 333.232L234.498 330.959L237.282 328.734L234.119 327.053L235.667 324.492L238.662 326.454L239.334 322.936L242.249 323.602L241.237 327.056L244.771 326.599L245.046 329.584L241.447 329.704L243.019 332.922Z" fill="#12CE75"/>
<path d="M197.277 327.286C199.379 326.953 201.289 327.048 203.007 327.569C204.71 328.093 206.114 328.98 207.219 330.231C208.308 331.484 208.999 333.035 209.291 334.884C209.584 336.733 209.405 338.422 208.756 339.95C208.091 341.481 207.03 342.759 205.572 343.784C204.098 344.811 202.311 345.491 200.209 345.824C198.091 346.159 196.181 346.065 194.478 345.541C192.775 345.017 191.372 344.129 190.267 342.879C189.162 341.628 188.463 340.078 188.171 338.229C187.878 336.38 188.064 334.69 188.729 333.159C189.394 331.629 190.456 330.351 191.914 329.326C193.371 328.301 195.159 327.621 197.277 327.286ZM197.97 331.672C196.817 331.854 195.852 332.209 195.077 332.737C194.302 333.265 193.751 333.927 193.423 334.724C193.08 335.524 192.989 336.429 193.148 337.441C193.308 338.452 193.675 339.285 194.248 339.94C194.806 340.596 195.535 341.056 196.435 341.319C197.335 341.581 198.362 341.621 199.515 341.438C200.653 341.258 201.609 340.904 202.384 340.376C203.16 339.848 203.719 339.185 204.062 338.385C204.405 337.586 204.497 336.68 204.337 335.669C204.177 334.657 203.81 333.824 203.237 333.17C202.664 332.516 201.927 332.057 201.027 331.795C200.127 331.532 199.108 331.491 197.97 331.672Z" fill="#12CE75"/>
<path d="M184.64 339.911L176.698 340.05C175.178 340.076 173.926 339.866 172.942 339.419C171.958 338.972 171.219 338.329 170.724 337.489C170.23 336.666 169.973 335.694 169.953 334.574C169.934 333.455 170.181 332.466 170.694 331.609C171.207 330.768 171.956 330.107 172.939 329.626C173.924 329.16 175.111 328.916 176.503 328.891L188.213 328.687L186.984 338.046L188.527 346.684L171.562 346.98L171.496 343.213L185.366 342.971L183.51 345.284L182.259 338.224L183.342 330.116L185.277 332.363L177.214 332.503C176.494 332.516 175.93 332.71 175.52 333.085C175.095 333.461 174.887 333.968 174.899 334.608C174.91 335.264 175.135 335.764 175.573 336.109C175.995 336.469 176.566 336.643 177.286 336.631L184.581 336.503L184.64 339.911Z" fill="#12CE75"/>
<path d="M164.651 328.175L160.84 333.446L160.768 333.438L152.484 344.995L147.114 344.431L159.28 327.611L164.651 328.175ZM161.247 330.255L168.572 346.686L163.106 346.112L157.39 333.204L161.247 330.255Z" fill="#12CE75"/>
<path d="M141.82 330.491C144.314 331.067 146.075 332.155 147.102 333.755C148.109 335.367 148.329 337.405 147.761 339.868L146.688 344.522L141.848 343.404L142.829 339.148C143.113 337.916 142.992 336.911 142.465 336.133C141.939 335.354 141.005 334.81 139.664 334.501C138.885 334.321 138.046 334.218 137.149 334.191C136.249 334.18 135.33 334.247 134.394 334.393L135.008 330.446C136.051 330.194 137.155 330.071 138.32 330.077C139.484 330.083 140.651 330.221 141.82 330.491ZM137.473 323.921L133.429 341.461L128.565 340.338L132.609 322.798L137.473 323.921Z" fill="#12CE75"/>
<path d="M127.785 324.343L126.416 328.109L114.756 323.866L116.125 320.099L127.785 324.343ZM113.818 334.737L112.276 315.02L117.261 316.834L118.284 334.114L116.93 333.622L128.83 321.045L133.814 322.859L119.975 336.977L113.818 334.737Z" fill="#12CE75"/>
<path d="M101.109 326.533L96.6616 324.267L103.834 310.17L108.282 312.437L101.109 326.533ZM106.235 331.596L89.5553 323.097L91.5578 319.161L108.237 327.66L106.235 331.596Z" fill="#12CE75"/>
<path d="M96.2851 305.963L86.2296 320.893L82.1109 318.115L91.2279 304.579L91.8314 307.678L86.0215 303.759C85.3451 303.303 84.7049 303.122 84.1011 303.217C83.484 303.302 82.9789 303.637 82.5856 304.221C82.1834 304.818 82.0629 305.412 82.2241 306.003C82.372 306.586 82.7842 307.105 83.4607 307.561L89.6288 311.722L87.43 314.986L81.0033 310.651C79.7431 309.801 78.8096 308.853 78.2025 307.807C77.5733 306.765 77.2791 305.698 77.32 304.606C77.3476 303.505 77.71 302.437 78.4072 301.402C79.1044 300.367 79.9621 299.624 80.9802 299.172C81.9762 298.724 83.0748 298.597 84.2761 298.789C85.4641 298.973 86.6882 299.49 87.9483 300.34L96.2851 305.963Z" fill="#12CE75"/>
<path d="M62.1596 287.747C63.3308 286.666 64.6538 285.972 66.1288 285.664C67.5932 285.368 69.1019 285.46 70.6549 285.941C72.1959 286.412 73.6909 287.277 75.1399 288.536C76.7218 289.911 77.8475 291.409 78.5169 293.03C79.1864 294.651 79.3917 296.281 79.1329 297.922C78.862 299.552 78.1129 301.074 76.8858 302.488C75.6587 303.901 74.2576 304.856 72.6825 305.353C71.0954 305.839 69.4532 305.864 67.7559 305.427C66.0586 304.99 64.419 304.084 62.8371 302.709C61.3881 301.45 60.3231 300.089 59.6422 298.628C58.9492 297.157 58.6519 295.668 58.7502 294.164C58.838 292.672 59.3347 291.269 60.2402 289.958L64.0077 293.233C63.6251 293.918 63.4357 294.612 63.4398 295.315C63.4334 296.03 63.6196 296.743 63.9983 297.454C64.365 298.154 64.9166 298.825 65.6532 299.465C66.4985 300.2 67.3654 300.678 68.2539 300.899C69.132 301.132 69.9858 301.101 70.8152 300.804C71.6342 300.52 72.3898 299.979 73.0821 299.181C73.7743 298.384 74.2091 297.553 74.3865 296.69C74.5534 295.839 74.4653 294.988 74.1222 294.139C73.7685 293.301 73.1691 292.515 72.3238 291.78C71.5872 291.14 70.852 290.681 70.1183 290.404C69.3724 290.116 68.6461 290.025 67.9393 290.131C67.2325 290.238 66.5618 290.535 65.9271 291.022L62.1596 287.747Z" fill="#12CE75"/>
<path d="M50.5234 277.997L53.1844 275.68L58.1127 281.35L58.0561 281.431C58.9588 282.469 59.5763 283.533 59.9087 284.623C60.2305 285.7 60.2606 286.735 59.9989 287.726C59.7266 288.706 59.1621 289.568 58.3053 290.314C57.4244 291.081 56.4804 291.532 55.4734 291.666C54.4438 291.798 53.4121 291.636 52.3783 291.178C51.3219 290.719 50.3423 289.97 49.4396 288.932L42.2282 280.636L55.8046 268.817L59.0796 272.585L46.4988 283.537L46.718 280.387L51.6463 286.056C52.1816 286.672 52.7524 287.024 53.3585 287.111C53.942 287.197 54.4993 287.009 55.0303 286.547C55.5492 286.095 55.8125 285.569 55.8203 284.968C55.8055 284.366 55.5305 283.757 54.9951 283.141L50.5234 277.997ZM53.6706 279.203L64.0552 278.308L67.8341 282.656L57.3235 283.405L53.6706 279.203Z" fill="#12CE75"/>
<path d="M24.9334 254.717L23.5714 252.044L26.833 250.569L24.1641 248.185L26.294 246.075L28.7072 248.696L30.1628 245.421L32.8239 246.784L31.0774 249.912L34.6326 250.334L34.1725 253.29L30.6575 252.524L31.3605 256.018L28.4025 256.504L28.0315 252.921L24.9334 254.717Z" fill="#12CE75"/>
<path d="M28.8944 208.692C29.3731 210.766 29.4122 212.678 29.0119 214.429C28.608 216.165 27.8209 217.628 26.6506 218.818C25.4768 219.993 23.9779 220.791 22.154 221.212C20.3301 221.634 18.6333 221.575 17.0635 221.035C15.4901 220.479 14.1416 219.51 13.0178 218.127C11.8904 216.729 11.0874 214.993 10.6087 212.92C10.1264 210.831 10.0872 208.919 10.4911 207.183C10.8951 205.447 11.6822 203.985 12.8524 202.794C14.0227 201.604 15.5198 200.798 17.3436 200.377C19.1675 199.955 20.8662 200.022 22.4395 200.578C24.0129 201.134 25.3615 202.103 26.4853 203.485C27.609 204.868 28.4121 206.603 28.8944 208.692ZM24.5685 209.693C24.3057 208.555 23.8841 207.617 23.3036 206.881C22.7232 206.145 22.024 205.642 21.2061 205.371C20.3847 205.085 19.4751 205.057 18.4774 205.287C17.4797 205.518 16.6745 205.942 16.0618 206.56C15.4455 207.163 15.0379 207.922 14.8389 208.838C14.64 209.755 14.6718 210.782 14.9346 211.92C15.1937 213.042 15.6135 213.972 16.194 214.708C16.7745 215.444 17.4755 215.955 18.2969 216.242C19.1184 216.528 20.028 216.556 21.0256 216.325C22.0233 216.094 22.8285 215.67 23.4412 215.052C24.0539 214.434 24.4598 213.667 24.6587 212.751C24.8577 211.834 24.8276 210.815 24.5685 209.693Z" fill="#12CE75"/>
<path d="M14.8261 196.491L13.9957 188.59C13.8368 187.079 13.9371 185.813 14.2965 184.794C14.6559 183.775 15.2322 182.982 16.0254 182.416C16.8027 181.852 17.7482 181.511 18.8621 181.394C19.9759 181.276 20.9821 181.436 21.8806 181.872C22.7633 182.31 23.4871 182.998 24.0523 183.936C24.6015 184.876 24.9489 186.038 25.0944 187.422L26.3186 199.07L16.8884 198.663L8.41749 200.954L6.64385 184.079L10.3912 183.685L11.8412 197.481L9.37551 195.834L16.2987 193.971L24.4702 194.342L22.4009 196.466L21.558 188.446C21.4828 187.73 21.2404 187.184 20.8309 186.809C20.4198 186.418 19.896 186.256 19.2595 186.323C18.6071 186.392 18.1285 186.659 17.8236 187.126C17.5011 187.578 17.3774 188.162 17.4527 188.878L18.2153 196.134L14.8261 196.491Z" fill="#12CE75"/>
<path d="M24.5998 175.478L19.0172 172.14L19.0185 172.068L6.78307 164.821L6.87731 159.422L24.694 170.079L24.5998 175.478ZM22.2314 172.269L6.50076 180.995L6.59668 175.5L18.9575 168.683L22.2314 172.269Z" fill="#12CE75"/>
<path d="M21.2738 153.383C20.8733 155.911 19.9109 157.743 18.3865 158.879C16.8489 159.995 14.8316 160.356 12.3348 159.96L7.6178 159.212L8.39496 154.305L12.709 154.989C13.9574 155.187 14.9515 154.997 15.6912 154.417C16.431 153.838 16.9084 152.869 17.1237 151.51C17.2488 150.72 17.2933 149.876 17.2572 148.979C17.2052 148.08 17.0742 147.168 16.8642 146.244L20.8441 146.584C21.168 147.607 21.3675 148.7 21.4426 149.862C21.5178 151.024 21.4615 152.198 21.2738 153.383ZM27.5244 148.591L9.74656 145.771L10.5275 140.841L28.3053 143.66L27.5244 148.591Z" fill="#12CE75"/>
<path d="M25.8117 138.236L21.9593 137.13L25.3795 125.203L29.2318 126.309L25.8117 138.236ZM14.4721 125.017L34.0288 122.118L32.5668 127.217L15.4039 129.43L15.8008 128.045L29.1731 139.052L27.7111 144.15L12.6661 131.315L14.4721 125.017Z" fill="#12CE75"/>
<path d="M21.2337 112.295L23.1842 107.699L37.7398 113.887L35.7893 118.482L21.2337 112.295ZM16.5418 117.759L23.8563 100.527L27.9203 102.254L20.6059 119.486L16.5418 117.759Z" fill="#12CE75"/>
<path d="M41.7671 105.705L26.1842 96.6953L28.6682 92.3929L42.7967 100.562L39.7484 101.377L43.2524 95.3083C43.6604 94.6016 43.7963 93.9502 43.6602 93.354C43.532 92.7439 43.1632 92.2627 42.5538 91.9103C41.9305 91.5499 41.3297 91.4705 40.7514 91.6722C40.1811 91.8599 39.692 92.3071 39.284 93.0138L35.564 99.4571L32.1565 97.4869L36.0325 90.7735C36.7925 89.4572 37.673 88.46 38.6741 87.782C39.6694 87.0822 40.7127 86.7152 41.8041 86.6808C42.9035 86.6326 43.9934 86.9209 45.0738 87.5455C46.1542 88.1702 46.955 88.9751 47.4763 89.9603C47.9916 90.9237 48.195 92.0115 48.0862 93.2239C47.9854 94.4224 47.5551 95.6798 46.7951 96.9962L41.7671 105.705Z" fill="#12CE75"/>
<path d="M56.6761 70.1747C57.8346 71.2694 58.6183 72.5424 59.0273 73.9936C59.4236 75.4351 59.4358 76.9477 59.0639 78.5312C58.7017 80.102 57.9428 81.654 56.7873 83.1874C55.5259 84.8613 54.1105 86.0883 52.541 86.8683C50.9716 87.6483 49.3601 87.9657 47.7066 87.8203C46.0628 87.6622 44.4937 87.0193 42.9994 85.8917C41.5051 84.7641 40.4561 83.4312 39.8521 81.8931C39.2578 80.3421 39.1196 78.7044 39.4374 76.9799C39.7553 75.2554 40.5449 73.5561 41.8063 71.8822C42.9618 70.3488 44.2443 69.1919 45.6538 68.4115C47.0729 67.6183 48.5359 67.2189 50.0426 67.2134C51.5365 67.1982 52.9686 67.5974 54.3389 68.411L51.3347 72.3978C50.6254 72.063 49.9204 71.9218 49.2196 71.9743C48.5062 72.0172 47.8082 72.2522 47.1258 72.6793C46.4529 73.0936 45.8228 73.6905 45.2355 74.47C44.5614 75.3644 44.1449 76.2628 43.9859 77.1651C43.8141 78.0577 43.9047 78.9078 44.2578 79.7155C44.598 80.5135 45.1896 81.2305 46.0326 81.8666C46.8755 82.5027 47.7335 82.8795 48.6065 82.9972C49.4667 83.1051 50.3084 82.9586 51.1316 82.5575C51.9419 82.1467 52.6841 81.4941 53.3582 80.5996C53.9455 79.8202 54.3521 79.0546 54.5779 78.303C54.8134 77.5386 54.8536 76.8072 54.6986 76.109C54.5436 75.4107 54.2014 74.7616 53.6719 74.1615L56.6761 70.1747Z" fill="#12CE75"/>
<path d="M65.7987 57.5239L68.3348 59.9765L63.1165 65.3802L63.0309 65.3307C62.075 66.3205 61.0691 67.0282 60.0131 67.4537C58.9682 67.8678 57.9409 67.9872 56.9312 67.8121C55.9326 67.6254 55.025 67.1372 54.2084 66.3475C53.3688 65.5355 52.8387 64.6334 52.6182 63.641C52.3972 62.6261 52.4699 61.5834 52.8362 60.5131C53.2021 59.4202 53.8629 58.3789 54.8188 57.389L62.4545 49.4821L75.3936 61.9952L71.9259 65.5861L59.9356 53.9906L63.0906 53.9367L57.8723 59.3404C57.3054 59.9274 57.0046 60.5268 56.9698 61.1386C56.9347 61.7278 57.1701 62.2671 57.6762 62.7565C58.1707 63.2348 58.7174 63.4519 59.3161 63.4077C59.9145 63.3408 60.4971 63.0139 61.0639 62.4269L65.7987 57.5239ZM64.8701 60.7658L66.6576 71.0416L62.6564 75.185L61.0022 64.7711L64.8701 60.7658Z" fill="#12CE75"/>
<path d="M87.2363 31.1857L89.8078 29.6406L91.5036 32.7935L93.6964 29.964L95.9475 31.9433L93.4996 34.5341L96.8657 35.7595L95.6893 38.5103L92.4507 36.9843L92.2744 40.5622L89.2952 40.3083L89.8172 36.7467L86.3815 37.6912L85.6938 34.7724L89.2407 34.1532L87.2363 31.1857Z" fill="#12CE75"/>
</svg>
