<svg width="356" height="351" viewBox="0 0 356 351" fill="none" xmlns="http://www.w3.org/2000/svg">
<path d="M175.871 8.48087H180.863V24.2969H175.871V8.48087ZM169.007 6.29687H187.727V10.7129H169.007V6.29687Z" fill="#12CE75"/>
<path d="M197.873 25.9092C195.76 25.6498 193.95 25.0326 192.442 24.0575C190.949 23.0843 189.844 21.8444 189.126 20.3377C188.424 18.8329 188.187 17.1515 188.415 15.2934C188.643 13.4354 189.279 11.8612 190.324 10.5709C191.385 9.28261 192.757 8.34686 194.441 7.76369C196.14 7.18246 198.046 7.02152 200.158 7.28086C202.286 7.54214 204.097 8.15937 205.589 9.13252C207.082 10.1057 208.187 11.3456 208.905 12.8523C209.623 14.359 209.868 16.0414 209.64 17.8995C209.412 19.7576 208.767 21.3308 207.706 22.6191C206.646 23.9074 205.273 24.8432 203.59 25.4263C201.906 26.0095 200.001 26.1704 197.873 25.9092ZM198.413 21.5022C199.573 21.6446 200.597 21.5689 201.488 21.2752C202.378 20.9815 203.091 20.4967 203.625 19.8208C204.175 19.1468 204.512 18.3017 204.637 17.2853C204.762 16.2689 204.639 15.3672 204.268 14.5801C203.913 13.795 203.339 13.1522 202.546 12.6519C201.753 12.1515 200.777 11.8302 199.617 11.6878C198.474 11.5474 197.457 11.6241 196.567 11.9177C195.676 12.2114 194.956 12.6952 194.406 13.3692C193.856 14.0432 193.518 14.8884 193.394 15.9047C193.269 16.9211 193.392 17.8228 193.763 18.6099C194.134 19.397 194.716 20.0407 195.509 20.5411C196.302 21.0414 197.27 21.3618 198.413 21.5022Z" fill="#12CE75"/>
<path d="M223.121 13.3042C224.574 13.6935 225.759 14.2762 226.678 15.0524C227.612 15.8327 228.235 16.7533 228.547 17.8143C228.863 18.8598 228.86 19.9853 228.537 21.1908C228.219 22.3809 227.659 23.3573 226.859 24.1201C226.062 24.8675 225.065 25.3456 223.866 25.5544C222.682 25.7674 221.364 25.6792 219.912 25.29L212.377 23.2712L213.408 19.4228L220.641 21.3608C221.413 21.5679 222.066 21.5439 222.598 21.2889C223.134 21.0185 223.491 20.551 223.669 19.8864C223.851 19.2063 223.776 18.6229 223.442 18.136C223.113 17.6336 222.562 17.279 221.789 17.0719L214.974 15.2457L217.725 13.5978L213.504 29.3624L208.705 28.0766L213.361 10.6891L223.121 13.3042Z" fill="#12CE75"/>
<path d="M249.216 22.0188L247.554 26.1358L237.407 22.0361L240.321 20.7803L234.399 35.4461L229.793 33.585L236.532 16.8941L249.216 22.0188Z" fill="#12CE75"/>
<path d="M252.74 45.9296C250.898 44.8656 249.472 43.59 248.465 42.1029C247.471 40.6239 246.938 39.0505 246.865 37.383C246.807 35.7234 247.245 34.0829 248.181 32.4614C249.116 30.84 250.317 29.6394 251.783 28.8599C253.262 28.0883 254.891 27.763 256.668 27.8839C258.46 28.0128 260.277 28.6093 262.12 29.6733C263.977 30.7453 265.402 32.0208 266.396 33.4999C267.39 34.979 267.923 36.5523 267.995 38.2199C268.067 39.8874 267.636 41.532 266.7 43.1534C265.765 44.7749 264.557 45.9714 263.077 46.743C261.598 47.5145 259.969 47.8399 258.192 47.7189C256.414 47.598 254.597 47.0016 252.74 45.9296ZM254.959 42.0838C255.971 42.6678 256.944 42.9985 257.878 43.0761C258.812 43.1536 259.657 42.9856 260.413 42.5721C261.183 42.1666 261.824 41.5204 262.335 40.6334C262.847 39.7465 263.086 38.8682 263.052 37.9987C263.032 37.1372 262.754 36.3213 262.22 35.5508C261.685 34.7803 260.912 34.1031 259.901 33.5191C258.903 32.9431 257.937 32.6163 257.003 32.5388C256.069 32.4613 255.217 32.6252 254.447 33.0307C253.677 33.4362 253.037 34.0825 252.525 34.9694C252.013 35.8564 251.774 36.7346 251.808 37.6041C251.842 38.4736 252.127 39.2936 252.661 40.0641C253.196 40.8345 253.962 41.5078 254.959 42.0838Z" fill="#12CE75"/>
<path d="M277.657 50.9539L278.545 50.4517C279.638 51.315 280.422 52.176 280.897 53.0348C281.394 53.8904 281.61 54.7342 281.544 55.5662C281.488 56.3854 281.186 57.1593 280.637 57.8878C280.05 58.6675 279.346 59.2292 278.527 59.5731C277.716 59.9042 276.819 59.9791 275.834 59.7977C274.871 59.6132 273.859 59.1214 272.799 58.3222L262.18 50.3204L268.85 43.777L273.008 35.9415L283.244 43.6544C284.573 44.6558 285.372 45.7489 285.641 46.9337C285.92 48.1057 285.646 49.2413 284.818 50.3404C284.366 50.9412 283.792 51.4104 283.097 51.7481C282.402 52.0859 281.597 52.2106 280.683 52.1222C279.79 52.0307 278.781 51.6412 277.657 50.9539ZM266.803 52.3611L266.67 49.346L273.819 54.7334C274.394 55.1667 274.947 55.3631 275.478 55.3227C276.009 55.2822 276.463 55.0128 276.838 54.5143C277.214 54.0158 277.339 53.4896 277.216 52.9357C277.102 52.3689 276.706 51.8304 276.029 51.32L270.125 46.8714L272.175 44.149L277.542 48.1932C278.002 48.5399 278.487 48.6945 278.996 48.6572C279.527 48.6168 279.97 48.3601 280.327 47.8872C280.615 47.5037 280.717 47.0895 280.631 46.6444C280.556 46.1866 280.268 45.7699 279.77 45.3944L273.33 40.5414L276.245 39.8227L272.645 46.6368L266.803 52.3611Z" fill="#12CE75"/>
<path d="M282.548 63.2329L285.381 60.3979L294.155 69.1717L291.322 72.0067L282.548 63.2329ZM299.6 59.7166L292.663 78.2357L288.913 74.4852L295.29 58.3934L296.308 59.4116L280.207 65.7793L276.456 62.0288L294.967 55.0836L299.6 59.7166Z" fill="#12CE75"/>
<path d="M308.11 72.492L311.184 76.4257L298.724 86.1671L295.65 82.2333L308.11 72.492ZM305.605 65.7379L317.13 80.4895L313.651 83.2094L302.126 68.4578L305.605 65.7379Z" fill="#12CE75"/>
<path d="M304.677 93.8716L320.262 84.8671L322.746 89.1695L308.615 97.3336L309.432 94.2841L312.936 100.353C313.344 101.06 313.84 101.503 314.424 101.683C315.016 101.877 315.617 101.797 316.227 101.445C316.85 101.085 317.219 100.604 317.334 100.002C317.456 99.4141 317.313 98.7667 316.905 98.06L313.185 91.6168L316.593 89.6478L320.469 96.3612C321.229 97.6776 321.653 98.9389 321.739 100.145C321.848 101.358 321.645 102.445 321.129 103.408C320.622 104.385 319.827 105.186 318.747 105.81C317.666 106.434 316.569 106.726 315.456 106.686C314.364 106.651 313.321 106.284 312.326 105.584C311.338 104.898 310.465 103.897 309.705 102.58L304.677 93.8716Z" fill="#12CE75"/>
<path d="M340.396 130.398L341.223 133.281L337.74 134.106L339.905 136.955L337.411 138.62L335.542 135.585L333.488 138.522L331.136 136.675L333.448 133.939L330.038 132.845L331.054 130.032L334.358 131.456L334.335 127.892L337.332 127.981L337.012 131.568L340.396 130.398Z" fill="#12CE75"/>
<path d="M344.654 174.229L344.742 179.221L328.928 179.497L328.841 174.505L344.654 174.229ZM346.718 167.328L347.045 186.045L342.63 186.123L342.303 167.405L346.718 167.328Z" fill="#12CE75"/>
<path d="M327.098 196.084C327.357 193.972 327.974 192.162 328.949 190.654C329.922 189.161 331.162 188.056 332.669 187.339C334.174 186.637 335.855 186.4 337.713 186.628C339.571 186.857 341.145 187.493 342.436 188.538C343.724 189.6 344.66 190.972 345.243 192.656C345.824 194.355 345.985 196.261 345.726 198.373C345.464 200.501 344.847 202.311 343.874 203.804C342.901 205.296 341.661 206.401 340.154 207.119C338.648 207.837 336.965 208.081 335.107 207.853C333.249 207.625 331.676 206.98 330.388 205.919C329.099 204.858 328.164 203.486 327.58 201.802C326.997 200.118 326.836 198.212 327.098 196.084ZM331.505 196.626C331.362 197.785 331.438 198.81 331.732 199.7C332.025 200.591 332.51 201.303 333.186 201.838C333.86 202.388 334.705 202.726 335.721 202.851C336.738 202.975 337.639 202.852 338.426 202.482C339.212 202.127 339.854 201.553 340.355 200.76C340.855 199.967 341.176 198.991 341.319 197.832C341.459 196.688 341.382 195.671 341.089 194.781C340.795 193.89 340.311 193.17 339.637 192.62C338.963 192.069 338.118 191.732 337.102 191.607C336.086 191.482 335.184 191.605 334.397 191.976C333.61 192.347 332.966 192.928 332.466 193.721C331.965 194.514 331.645 195.482 331.505 196.626Z" fill="#12CE75"/>
<path d="M340.916 222.528C340.552 223.988 339.99 225.183 339.23 226.115C338.466 227.062 337.556 227.701 336.501 228.031C335.461 228.366 334.336 228.382 333.125 228.08C331.93 227.781 330.944 227.239 330.167 226.451C329.406 225.668 328.911 224.678 328.681 223.483C328.448 222.304 328.513 220.984 328.877 219.525L330.764 211.956L334.629 212.921L332.818 220.186C332.624 220.963 332.659 221.615 332.924 222.142C333.203 222.674 333.677 223.023 334.344 223.189C335.028 223.36 335.61 223.274 336.09 222.932C336.587 222.595 336.932 222.037 337.126 221.261L338.833 214.415L340.528 217.138L324.693 213.188L325.895 208.367L343.36 212.725L340.916 222.528Z" fill="#12CE75"/>
<path d="M330.989 247.429L326.872 245.765L330.972 235.618L332.227 238.533L317.564 232.605L319.425 227.999L336.113 234.745L330.989 247.429Z" fill="#12CE75"/>
<path d="M308.09 252.455C309.122 250.593 310.372 249.146 311.841 248.113C313.303 247.094 314.866 246.534 316.532 246.433C318.19 246.347 319.837 246.757 321.474 247.665C323.111 248.573 324.332 249.754 325.137 251.206C325.934 252.673 326.287 254.296 326.197 256.076C326.099 257.869 325.534 259.697 324.503 261.558C323.463 263.433 322.213 264.88 320.752 265.9C319.29 266.919 317.727 267.479 316.061 267.579C314.395 267.68 312.744 267.276 311.107 266.368C309.47 265.46 308.253 264.273 307.456 262.806C306.659 261.34 306.306 259.716 306.396 257.937C306.486 256.157 307.051 254.33 308.09 252.455ZM311.973 254.608C311.407 255.63 311.093 256.608 311.032 257.544C310.97 258.48 311.153 259.322 311.579 260.071C311.998 260.834 312.655 261.463 313.55 261.96C314.446 262.457 315.328 262.681 316.197 262.632C317.057 262.597 317.868 262.306 318.629 261.758C319.39 261.211 320.054 260.426 320.62 259.404C321.178 258.397 321.488 257.425 321.55 256.49C321.611 255.554 321.432 254.705 321.014 253.942C320.595 253.179 319.938 252.549 319.042 252.052C318.147 251.556 317.265 251.332 316.396 251.381C315.528 251.429 314.713 251.728 313.952 252.275C313.191 252.823 312.532 253.601 311.973 254.608Z" fill="#12CE75"/>
<path d="M303.099 275.865L303.601 276.754C302.737 277.846 301.876 278.63 301.018 279.105C300.162 279.602 299.319 279.818 298.487 279.751C297.668 279.695 296.895 279.392 296.166 278.843C295.387 278.256 294.826 277.552 294.482 276.731C294.151 275.921 294.077 275.023 294.258 274.038C294.443 273.075 294.935 272.063 295.734 271.002L303.736 260.384L310.276 267.059L318.108 271.221L310.395 281.456C309.393 282.785 308.3 283.584 307.116 283.853C305.944 284.132 304.809 283.857 303.71 283.029C303.11 282.576 302.641 282.002 302.304 281.307C301.966 280.611 301.842 279.806 301.93 278.891C302.022 277.998 302.411 276.99 303.099 275.865ZM301.695 265.007L304.709 264.875L299.321 272.024C298.888 272.599 298.692 273.153 298.732 273.684C298.772 274.215 299.041 274.669 299.54 275.045C300.038 275.42 300.564 275.546 301.118 275.423C301.684 275.309 302.223 274.914 302.733 274.236L307.182 268.333L309.903 270.385L305.859 275.751C305.512 276.211 305.357 276.696 305.394 277.205C305.435 277.736 305.691 278.18 306.164 278.537C306.547 278.826 306.961 278.927 307.406 278.842C307.864 278.767 308.281 278.479 308.656 277.981L313.509 271.541L314.227 274.457L307.416 270.854L301.695 265.007Z" fill="#12CE75"/>
<path d="M291.677 282.114L294.559 284.899L285.94 293.824L283.057 291.039L291.677 282.114ZM295.483 299.109L276.854 292.488L280.539 288.672L296.732 294.775L295.732 295.811L289.092 279.816L292.776 276L300.035 294.396L295.483 299.109Z" fill="#12CE75"/>
<path d="M281.527 307.552L277.647 310.694L267.698 298.399L271.577 295.258L281.527 307.552ZM288.235 304.93L273.687 316.711L270.909 313.279L285.457 301.498L288.235 304.93Z" fill="#12CE75"/>
<path d="M260.881 304.164L270.148 319.595L265.889 322.154L257.488 308.163L260.55 308.927L254.543 312.536C253.844 312.956 253.409 313.46 253.239 314.047C253.055 314.643 253.145 315.243 253.507 315.846C253.878 316.464 254.365 316.824 254.969 316.928C255.559 317.04 256.203 316.886 256.903 316.466L263.28 312.634L265.306 316.008L258.662 320.001C257.359 320.784 256.105 321.229 254.901 321.337C253.691 321.467 252.6 321.282 251.629 320.783C250.643 320.292 249.83 319.512 249.187 318.442C248.545 317.372 248.234 316.28 248.256 315.166C248.272 314.074 248.621 313.024 249.304 312.016C249.973 311.017 250.959 310.126 252.262 309.343L260.881 304.164Z" fill="#12CE75"/>
<path d="M224.692 340.693L221.808 341.52L220.984 338.036L218.135 340.201L216.471 337.707L219.506 335.838L216.57 333.784L218.418 331.431L221.152 333.743L222.247 330.333L225.06 331.349L223.635 334.654L227.199 334.631L227.109 337.628L223.522 337.308L224.692 340.693Z" fill="#12CE75"/>
<path d="M180.858 344.951L175.867 345.038L175.591 329.225L180.582 329.138L180.858 344.951ZM187.759 347.015L169.042 347.342L168.965 342.927L187.682 342.6L187.759 347.015Z" fill="#12CE75"/>
<path d="M158.553 327.547C160.67 327.769 162.49 328.355 164.016 329.303C165.525 330.25 166.652 331.471 167.396 332.965C168.124 334.457 168.39 336.134 168.194 337.996C167.999 339.857 167.39 341.442 166.368 342.751C165.33 344.057 163.974 345.017 162.301 345.629C160.612 346.24 158.709 346.434 156.593 346.212C154.46 345.988 152.64 345.402 151.13 344.455C149.621 343.508 148.494 342.288 147.75 340.794C147.006 339.3 146.732 337.622 146.928 335.76C147.123 333.899 147.74 332.314 148.778 331.008C149.816 329.701 151.172 328.742 152.845 328.129C154.518 327.517 156.421 327.322 158.553 327.547ZM158.089 331.962C156.928 331.84 155.904 331.934 155.019 332.243C154.134 332.552 153.43 333.049 152.908 333.734C152.37 334.418 152.047 335.269 151.94 336.287C151.833 337.306 151.972 338.205 152.356 338.985C152.725 339.764 153.31 340.397 154.112 340.883C154.913 341.37 155.895 341.674 157.057 341.796C158.202 341.917 159.218 341.822 160.103 341.513C160.988 341.204 161.7 340.708 162.238 340.024C162.776 339.341 163.099 338.49 163.206 337.471C163.313 336.453 163.174 335.553 162.79 334.773C162.405 333.992 161.812 333.359 161.01 332.873C160.209 332.386 159.235 332.083 158.089 331.962Z" fill="#12CE75"/>
<path d="M132.557 341.212C131.098 340.848 129.902 340.286 128.97 339.526C128.023 338.762 127.384 337.853 127.053 336.797C126.719 335.757 126.702 334.632 127.004 333.421C127.302 332.226 127.844 331.24 128.632 330.463C129.415 329.702 130.404 329.206 131.599 328.977C132.778 328.743 134.098 328.808 135.557 329.172L143.125 331.059L142.162 334.925L134.897 333.113C134.12 332.92 133.469 332.955 132.941 333.219C132.41 333.499 132.061 333.973 131.894 334.64C131.724 335.324 131.81 335.906 132.152 336.387C132.49 336.883 133.047 337.228 133.823 337.422L140.67 339.129L137.947 340.824L141.893 324.988L146.713 326.19L142.361 343.656L132.557 341.212Z" fill="#12CE75"/>
<path d="M107.46 332.536L109.05 328.391L119.267 332.313L116.376 333.619L122.04 318.852L126.678 320.633L120.231 337.439L107.46 332.536Z" fill="#12CE75"/>
<path d="M102.621 309.421C104.482 310.453 105.929 311.703 106.963 313.172C107.982 314.634 108.543 316.198 108.644 317.864C108.732 319.522 108.322 321.17 107.415 322.808C106.508 324.445 105.328 325.666 103.876 326.471C102.41 327.269 100.788 327.622 99.0083 327.532C97.215 327.435 95.3878 326.87 93.5266 325.838C91.6514 324.799 90.204 323.549 89.1846 322.087C88.1651 320.626 87.6046 319.062 87.5032 317.396C87.4018 315.73 87.8047 314.078 88.7118 312.44C89.6189 310.803 90.8054 309.585 92.2714 308.788C93.7373 307.991 95.3599 307.637 97.1392 307.727C98.9185 307.817 100.746 308.382 102.621 309.421ZM100.469 313.305C99.4479 312.739 98.4693 312.425 97.5338 312.364C96.5983 312.303 95.7564 312.485 95.0079 312.912C94.2454 313.331 93.6161 313.988 93.1199 314.884C92.6237 315.78 92.4002 316.662 92.4494 317.531C92.4846 318.392 92.7761 319.203 93.3239 319.964C93.8718 320.725 94.6565 321.388 95.678 321.955C96.6856 322.513 97.6571 322.823 98.5926 322.884C99.5281 322.945 100.377 322.767 101.14 322.348C101.902 321.929 102.531 321.271 103.028 320.376C103.524 319.48 103.747 318.598 103.698 317.729C103.649 316.86 103.35 316.045 102.803 315.284C102.255 314.523 101.477 313.863 100.469 313.305Z" fill="#12CE75"/>
<path d="M77.8168 304.467L76.9368 304.985C75.8295 304.141 75.0309 303.294 74.541 302.443C74.0288 301.597 73.7983 300.757 73.8495 299.924C73.8912 299.104 74.18 298.325 74.7159 297.587C75.2893 296.797 75.9828 296.223 76.7965 295.865C77.6008 295.519 78.497 295.429 79.485 295.593C80.4508 295.761 81.4709 296.235 82.5452 297.015L93.3019 304.831L86.747 311.49L82.7264 319.396L72.358 311.863C71.0118 310.885 70.1936 309.806 69.9035 308.626C69.6039 307.459 69.8584 306.319 70.6668 305.206C71.1087 304.597 71.6741 304.118 72.3631 303.768C73.0521 303.418 73.8547 303.28 74.771 303.352C75.6649 303.428 76.6802 303.8 77.8168 304.467ZM88.6447 302.871L88.8303 305.883L81.5879 300.621C81.0055 300.198 80.449 300.012 79.9186 300.061C79.3882 300.111 78.9396 300.388 78.573 300.893C78.2064 301.398 78.0897 301.927 78.223 302.478C78.3469 303.043 78.7519 303.574 79.4379 304.073L85.4182 308.418L83.4159 311.176L77.9793 307.226C77.5133 306.887 77.0262 306.741 76.5182 306.787C75.9878 306.837 75.5486 307.101 75.2008 307.58C74.9188 307.969 74.8244 308.385 74.9176 308.828C75.0015 309.285 75.2958 309.696 75.8006 310.063L82.3245 314.803L79.4228 315.572L82.9025 308.696L88.6447 302.871Z" fill="#12CE75"/>
<path d="M72.6409 292.824L69.9084 295.756L60.8338 287.294L63.5663 284.361L72.6409 292.824ZM55.722 296.933L62.0082 278.183L65.8873 281.8L60.0756 298.105L59.0225 297.123L74.8918 290.197L78.7709 293.814L60.5139 301.401L55.722 296.933Z" fill="#12CE75"/>
<path d="M46.4906 283.901L43.3491 280.021L55.6372 270.064L58.7787 273.943L46.4906 283.901ZM49.1134 290.61L37.3326 276.062L40.7635 273.282L52.5444 287.83L49.1134 290.61Z" fill="#12CE75"/>
<path d="M50.6725 261.865L35.4105 271.408L32.7778 267.195L46.6154 258.542L45.9057 261.619L42.192 255.675C41.7596 254.983 41.2483 254.558 40.6582 254.398C40.0596 254.225 39.4618 254.326 38.8649 254.699C38.2544 255.081 37.9026 255.574 37.8093 256.18C37.7075 256.772 37.8729 257.414 38.3053 258.106L42.2479 264.415L38.9106 266.502L34.8026 259.928C33.9972 258.639 33.53 257.393 33.4011 256.191C33.2502 254.983 33.4156 253.889 33.8972 252.908C34.3703 251.914 35.136 251.086 36.1941 250.425C37.2523 249.763 38.3384 249.433 39.4526 249.435C40.5446 249.431 41.6002 249.762 42.6194 250.426C43.6301 251.078 44.5381 252.048 45.3436 253.337L50.6725 261.865Z" fill="#12CE75"/>
<path d="M13.2427 225.959L12.3656 223.09L15.8342 222.204L13.6196 219.393L16.084 217.685L18.0054 220.687L20.008 217.715L22.3921 219.52L20.1287 222.296L23.5569 223.33L22.5903 226.161L19.2615 224.795L19.3469 228.358L16.3492 228.321L16.6061 224.729L13.2427 225.959Z" fill="#12CE75"/>
<path d="M8.96407 183.096L8.78985 178.107L24.5962 177.555L24.7704 182.544L8.96407 183.096ZM7.02095 190.033L6.36763 171.324L10.7809 171.17L11.4343 189.878L7.02095 190.033Z" fill="#12CE75"/>
<path d="M25.4594 160.934C25.237 163.051 24.6515 164.871 23.7029 166.397C22.7559 167.906 21.5355 169.032 20.0415 169.776C18.5493 170.504 16.8723 170.77 15.0106 170.574C13.1488 170.379 11.5638 169.769 10.2555 168.747C8.94889 167.709 7.98936 166.353 7.3769 164.68C6.76612 162.991 6.57195 161.088 6.79438 158.971C7.01849 156.839 7.60402 155.018 8.55096 153.509C9.49791 152 10.7183 150.873 12.2123 150.13C13.7062 149.386 15.3841 149.112 17.2458 149.308C19.1075 149.503 20.6917 150.12 21.9983 151.159C23.3049 152.197 24.2645 153.553 24.8769 155.226C25.4894 156.899 25.6836 158.802 25.4594 160.934ZM21.0438 160.47C21.1659 159.308 21.0723 158.285 20.7632 157.4C20.454 156.515 19.9569 155.811 19.2717 155.288C18.5883 154.75 17.7373 154.427 16.719 154.32C15.7006 154.213 14.8012 154.352 14.0207 154.736C13.2419 155.105 12.6093 155.69 12.1228 156.491C11.6364 157.293 11.3321 158.274 11.21 159.436C11.0896 160.582 11.184 161.597 11.4932 162.482C11.8023 163.367 12.2986 164.079 12.9821 164.618C13.6656 165.156 14.5165 165.479 15.5349 165.586C16.5532 165.693 17.4527 165.554 18.2331 165.17C19.0136 164.785 19.6471 164.192 20.1335 163.391C20.6199 162.589 20.9234 161.616 21.0438 160.47Z" fill="#12CE75"/>
<path d="M11.6179 134.787C11.9563 133.321 12.4972 132.116 13.2408 131.171C13.988 130.211 14.8863 129.556 15.9357 129.207C16.9694 128.855 18.0943 128.819 19.3103 129.1C20.5106 129.377 21.5059 129.903 22.2961 130.677C23.0708 131.447 23.5833 132.427 23.8338 133.618C24.088 134.794 24.0458 136.114 23.7075 137.579L21.9529 145.18L18.0711 144.283L19.7556 136.987C19.9355 136.207 19.8888 135.556 19.6155 135.033C19.3265 134.507 18.8469 134.166 18.1765 134.011C17.4906 133.852 16.9102 133.948 16.4352 134.298C15.9447 134.645 15.6095 135.208 15.4295 135.987L13.8423 142.862L12.0995 140.169L28.0007 143.843L26.8831 148.683L9.34503 144.632L11.6179 134.787Z" fill="#12CE75"/>
<path d="M20.2549 108.607L24.4268 110.127L20.6837 120.411L19.3274 117.541L34.1884 122.954L32.4892 127.622L15.5761 121.462L20.2549 108.607Z" fill="#12CE75"/>
<path d="M42.5639 104.54C41.5649 106.419 40.34 107.888 38.8892 108.946C37.4459 109.991 35.8924 110.578 34.2288 110.707C32.5726 110.823 30.9183 110.441 29.2656 109.562C27.613 108.683 26.3717 107.524 25.5419 106.085C24.7195 104.633 24.3378 103.016 24.3968 101.235C24.4634 99.4402 24.9962 97.6032 25.9952 95.7243C27.0017 93.8312 28.2267 92.3625 29.6699 91.318C31.1132 90.2736 32.6667 89.6864 34.3304 89.5567C35.994 89.4269 37.6522 89.8017 39.3048 90.681C40.9574 91.5603 42.1949 92.7262 43.0173 94.1787C43.8397 95.6311 44.2213 97.2479 44.1623 99.0288C44.1033 100.81 43.5705 102.647 42.5639 104.54ZM38.6442 102.454C39.1926 101.423 39.4892 100.439 39.5342 99.5025C39.5792 98.5658 39.382 97.7269 38.9425 96.9856C38.5106 96.2302 37.8427 95.612 36.9387 95.131C36.0347 94.6501 35.1489 94.4416 34.2813 94.5055C33.4212 94.5554 32.6155 94.8607 31.8643 95.4216C31.1131 95.9824 30.4633 96.7785 29.9149 97.8098C29.3741 98.827 29.0812 99.8038 29.0362 100.74C28.9912 101.677 29.1847 102.523 29.6166 103.279C30.0485 104.034 30.7165 104.652 31.6205 105.133C32.5245 105.614 33.4103 105.823 34.2779 105.759C35.1455 105.695 35.9549 105.382 36.7061 104.821C37.4574 104.26 38.1034 103.471 38.6442 102.454Z" fill="#12CE75"/>
<path d="M47.4498 79.8461L46.9172 78.9748C47.7418 77.8529 48.5749 77.0397 49.4164 76.5353C50.254 76.0086 51.0896 75.7637 51.9231 75.8007C52.7435 75.8285 53.5272 76.1041 54.2741 76.6274C55.0734 77.1875 55.659 77.8714 56.031 78.6791C56.39 79.4776 56.4959 80.3723 56.3489 81.3634C56.1979 82.3321 55.7416 83.3604 54.9799 84.4482L47.3536 95.3397L40.5847 88.8972L32.6121 85.0107L39.9631 74.5124C40.9175 73.1494 41.9819 72.3127 43.1562 72.0024C44.3175 71.6829 45.4616 71.918 46.5885 72.7076C47.2043 73.1391 47.693 73.6964 48.0546 74.3796C48.4162 75.0627 48.5686 75.8631 48.5121 76.7808C48.4516 77.6761 48.0975 78.6979 47.4498 79.8461ZM49.2321 90.6484L46.2243 90.8853L51.359 83.5522C51.7719 82.9625 51.949 82.4027 51.8902 81.8731C51.8313 81.3434 51.5464 80.8996 51.0353 80.5415C50.5243 80.1834 49.9942 80.0757 49.445 80.2184C48.8827 80.352 48.3584 80.766 47.872 81.4607L43.6321 87.5159L40.8411 85.5602L44.6955 80.0555C45.0259 79.5837 45.1636 79.0941 45.1087 78.5867C45.0499 78.0571 44.778 77.6224 44.2932 77.2827C43.9001 77.0073 43.4827 76.9199 43.041 77.0207C42.5862 77.1123 42.1798 77.4137 41.8219 77.9249L37.1966 84.5305L36.3776 81.6415L43.3103 85.0046L49.2321 90.6484Z" fill="#12CE75"/>
<path d="M59.1329 73.9883L56.2026 71.2539L64.6648 62.1792L67.5952 64.9136L59.1329 73.9883ZM55.0302 57.0623L73.772 63.3573L70.1547 67.2364L53.8573 61.4169L54.8393 60.3638L61.7579 76.2408L58.1406 80.1199L50.5618 61.8542L55.0302 57.0623Z" fill="#12CE75"/>
<path d="M68.0901 47.642L71.9142 44.4332L82.0766 56.5523L78.2525 59.7611L68.0901 47.642ZM61.4287 50.3806L75.769 38.3476L78.6065 41.7314L64.2661 53.7644L61.4287 50.3806Z" fill="#12CE75"/>
<path d="M89.0483 50.977L79.5143 35.7092L83.7274 33.0766L92.3716 46.9193L89.2965 46.2089L95.2396 42.4952C95.9316 42.0628 96.3574 41.5515 96.517 40.9612C96.6902 40.3625 96.5903 39.7646 96.2174 39.1674C95.8361 38.5567 95.3427 38.2047 94.7373 38.1113C94.1456 38.0094 93.5037 38.1746 92.8116 38.6071L86.5022 42.5497L84.4174 39.2111L90.9915 35.1032C92.2805 34.2977 93.5262 33.8306 94.7285 33.7019C95.936 33.5512 97.0297 33.7167 98.0097 34.1986C99.0033 34.6721 99.8306 35.4381 100.492 36.4966C101.153 37.5552 101.482 38.6417 101.48 39.7561C101.483 40.8485 101.152 41.9043 100.487 42.9236C99.8356 43.9345 98.8653 44.8426 97.5763 45.6481L89.0483 50.977Z" fill="#12CE75"/>
<path d="M124.965 13.5402L127.834 12.6631L128.718 16.1321L131.53 13.9173L133.237 16.382L130.235 18.3036L133.206 20.3065L131.4 22.6907L128.625 20.427L127.59 23.8556L124.76 22.8887L126.127 19.5596L122.564 19.6449L122.602 16.6469L126.194 16.904L124.965 13.5402Z" fill="#12CE75"/>
</svg>
