<svg width="66" height="47" viewBox="0 0 66 47" fill="none" xmlns="http://www.w3.org/2000/svg">
<path d="M11.9656 21.6552L11.4564 22.2059C10.2231 21.0654 9.24901 19.702 8.59668 18.1963C7.94677 16.6963 7.63047 15.0881 7.66853 13.4689C7.63047 11.8497 7.94677 10.2415 8.59668 8.74153C9.24902 7.23591 10.2231 5.87253 11.4564 4.73207C12.6897 3.59171 14.157 2.69747 15.7682 2.10061C17.3742 1.50562 19.092 1.21771 20.8187 1.25287C22.5455 1.21771 24.2632 1.50562 25.8693 2.1006C27.4806 2.69746 28.9477 3.59169 30.1808 4.73201C31.4145 5.87246 32.3886 7.23584 33.0408 8.74148C33.6908 10.2416 34.007 11.8498 33.969 13.4689C34.007 15.0881 33.6908 16.6963 33.0408 18.1964C32.3886 19.702 31.4145 21.0654 30.1809 22.2059C28.9478 23.3461 27.4807 24.2404 25.8694 24.8371L11.9656 21.6552ZM11.9656 21.6552L11.4564 22.2059C12.6897 23.3461 14.1569 24.2404 15.7681 24.8371C17.3743 25.4322 19.092 25.72 20.8187 25.6849C22.5454 25.72 24.2631 25.4323 25.8693 24.8372L11.9656 21.6552ZM55.6687 13.4689V12.7189H54.9187H48.7188H47.9688V13.4689V21.3183H39.4187H38.6687V22.0683V27.8012V28.5512H39.4187H47.9688V36.4006V37.1506H48.7188H54.9187H55.6687V36.4006V28.5512H64.2188H64.9688V27.8012V22.0683V21.3183H64.2188H55.6687V13.4689ZM26.2698 13.4296L26.2677 13.4689L26.2698 13.5082C26.3038 14.1571 26.1907 14.8069 25.936 15.4166C25.6813 16.0265 25.2896 16.5849 24.7822 17.054C24.2748 17.5232 23.6633 17.8923 22.9855 18.1343C22.3077 18.3764 21.5808 18.4852 20.8523 18.4525L20.8187 18.451L20.7852 18.4525C20.0567 18.4852 19.3298 18.3764 18.652 18.1343L18.3998 18.8406L18.652 18.1343C17.9742 17.8923 17.3627 17.5232 16.8553 17.054C16.3479 16.5849 15.9562 16.0265 15.7015 15.4167C15.4469 14.807 15.3338 14.1572 15.3677 13.5081L15.3698 13.4689L15.3677 13.4298C15.3338 12.7807 15.4469 12.1308 15.7015 11.5212C15.9562 10.9113 16.3479 10.3529 16.8553 9.88384C17.3627 9.41463 17.9742 9.04559 18.652 8.80355L18.3998 8.09723L18.652 8.80355C19.3298 8.56149 20.0567 8.45266 20.7853 8.48523L20.8187 8.48672L20.8522 8.48523C21.5808 8.45266 22.3077 8.56149 22.9855 8.80355L23.2377 8.09723L22.9855 8.80355C23.6633 9.04559 24.2748 9.41463 24.7822 9.88384C25.2896 10.3529 25.6813 10.9113 25.936 11.5212C26.1907 12.1309 26.3038 12.7807 26.2698 13.4296ZM32.4688 45V45.75H33.2188H39.4187H40.1687V45V42.1335C40.1687 40.1444 39.745 38.1762 38.9233 36.3422C38.1017 34.5084 36.8994 32.846 35.388 31.4485C33.8767 30.051 32.0856 28.9453 30.1186 28.1918L30.1185 28.1918C28.1515 27.4386 26.045 27.0512 23.9187 27.0512H17.7188C13.4271 27.0512 9.30057 28.6271 6.24942 31.4485C3.19627 34.2716 1.46875 38.1136 1.46875 42.1335V45V45.75H2.21875H8.41875H9.16875V45V42.1335C9.16875 40.0717 10.0541 38.0809 11.6518 36.6036C13.2516 35.1243 15.433 34.2841 17.7188 34.2841H23.9187C26.2045 34.2841 28.3859 35.1243 29.9856 36.6036C31.5833 38.0809 32.4688 40.0717 32.4688 42.1335V45Z" fill="white" stroke="white" stroke-width="1.5"/>
</svg>
