<svg width="109" height="44" viewBox="0 0 109 44" fill="none" xmlns="http://www.w3.org/2000/svg">
<path d="M24.1767 43.896C19.4353 43.896 15.3287 42.9813 11.8567 41.152C8.38466 39.3227 5.69666 36.784 3.79266 33.536C1.88866 30.2507 0.936656 26.4053 0.936656 22C0.936656 17.632 1.88866 13.8053 3.79266 10.52C5.69666 7.23466 8.38466 4.67733 11.8567 2.848C15.3287 1.01867 19.4353 0.103998 24.1767 0.103998C28.8807 0.103998 32.9687 1.01867 36.4407 2.848C39.9127 4.67733 42.6007 7.23466 44.5047 10.52C46.4087 13.768 47.3607 17.5947 47.3607 22C47.3607 26.368 46.4087 30.1947 44.5047 33.48C42.6007 36.7653 39.9127 39.3227 36.4407 41.152C32.9687 42.9813 28.8807 43.896 24.1767 43.896ZM24.1767 35.272C28.1713 35.272 31.27 34.1147 33.4727 31.8C35.7127 29.4853 36.8327 26.2187 36.8327 22C36.8327 17.7813 35.7127 14.5147 33.4727 12.2C31.27 9.88533 28.1713 8.728 24.1767 8.728C20.182 8.728 17.0647 9.88533 14.8247 12.2C12.5847 14.5147 11.4647 17.7813 11.4647 22C11.4647 26.2187 12.5847 29.4853 14.8247 31.8C17.0647 34.1147 20.182 35.272 24.1767 35.272ZM56.3583 43.56C55.2383 43.56 54.2116 43.2987 53.2783 42.776C52.3823 42.216 51.6729 41.488 51.1503 40.592C50.6276 39.696 50.3663 38.688 50.3663 37.568C50.3663 36.448 50.6276 35.44 51.1503 34.544C51.6729 33.648 52.3823 32.9387 53.2783 32.416C54.2116 31.856 55.2383 31.576 56.3583 31.576C57.4783 31.576 58.4863 31.856 59.3823 32.416C60.2783 32.9387 60.9876 33.648 61.5103 34.544C62.0703 35.44 62.3503 36.448 62.3503 37.568C62.3503 38.688 62.0703 39.696 61.5103 40.592C60.9876 41.488 60.2783 42.216 59.3823 42.776C58.4863 43.2987 57.4783 43.56 56.3583 43.56ZM88.3614 0.103998C91.9454 0.103998 95.1001 0.645331 97.8254 1.728C100.588 2.81067 102.828 4.28533 104.545 6.152C106.263 7.98133 107.308 10.072 107.681 12.424H97.8254C97.2654 11.1547 96.2761 10.1093 94.8574 9.288C93.4387 8.42933 91.3667 8 88.6414 8C85.7294 8 83.3214 8.54133 81.4174 9.624C79.5507 10.7067 78.1694 12.256 77.2734 14.272C76.3774 16.2507 75.9294 18.696 75.9294 21.608C75.9294 24.7067 76.4147 27.32 77.3854 29.448C78.3934 31.576 79.8681 33.2 81.8094 34.32C83.7507 35.4027 86.1214 35.944 88.9214 35.944C90.9001 35.944 92.5614 35.6827 93.9054 35.16C95.2867 34.6 96.3134 33.8347 96.9854 32.864C97.6947 31.8933 98.0494 30.8107 98.0494 29.616C98.0494 28.4213 97.7134 27.376 97.0414 26.48C96.4067 25.584 95.4547 24.8933 94.1854 24.408C92.9161 23.8853 91.2921 23.624 89.3134 23.624C86.7374 23.624 84.2734 24.2213 81.9214 25.416C79.6067 26.5733 77.5534 28.216 75.7614 30.344L72.0094 27.768C73.2041 25.4533 74.7347 23.4 76.6014 21.608C78.4681 19.7787 80.6707 18.3413 83.2094 17.296C85.7481 16.2133 88.6227 15.672 91.8334 15.672C95.2681 15.672 98.2361 16.2507 100.737 17.408C103.276 18.528 105.217 20.1147 106.561 22.168C107.943 24.2213 108.633 26.592 108.633 29.28C108.633 32.1173 107.849 34.6373 106.281 36.84C104.713 39.0427 102.455 40.7787 99.5054 42.048C96.5561 43.28 92.9907 43.896 88.8094 43.896C83.7321 43.896 79.4947 42.9627 76.0974 41.096C72.7001 39.2293 70.1614 36.6533 68.4814 33.368C66.8014 30.0453 65.9614 26.256 65.9614 22C65.9614 17.744 66.8014 13.9733 68.4814 10.688C70.1614 7.40267 72.6627 4.82667 75.9854 2.96C79.3454 1.056 83.4707 0.103998 88.3614 0.103998Z" fill="white"/>
</svg>
