<svg width="92" height="23" viewBox="0 0 92 23" fill="none" xmlns="http://www.w3.org/2000/svg">
<path d="M3.01738 9.86H19.3074V14.69H3.01738V9.86ZM19.8474 0.499998V5.33H3.13738L5.92738 2.54V23H0.257383V0.499998H19.8474ZM27.0682 10.4H35.4982C36.5582 10.4 37.3982 10.16 38.0182 9.68C38.6382 9.18 38.9482 8.49 38.9482 7.61C38.9482 6.73 38.6382 6.05 38.0182 5.57C37.3982 5.07 36.5582 4.82 35.4982 4.82H26.2582L28.8082 2.03V23H23.1382V0.499998H36.2482C37.9282 0.499998 39.3982 0.799999 40.6582 1.4C41.9182 2 42.8982 2.83 43.5982 3.89C44.2982 4.95 44.6482 6.19 44.6482 7.61C44.6482 9.01 44.2982 10.24 43.5982 11.3C42.8982 12.36 41.9182 13.19 40.6582 13.79C39.3982 14.39 37.9282 14.69 36.2482 14.69H27.0682V10.4ZM30.6982 12.47H37.0882L45.3682 23H38.7982L30.6982 12.47ZM67.2636 9.65V13.85H50.9736V9.65H67.2636ZM54.8136 11.75L53.3136 21.05L50.9436 18.35H68.2236V23H47.6436L49.3836 11.75L47.6436 0.499998H68.0736V5.15H50.9436L53.3136 2.45L54.8136 11.75ZM90.8768 9.65V13.85H74.5868V9.65H90.8768ZM78.4268 11.75L76.9268 21.05L74.5568 18.35H91.8368V23H71.2568L72.9968 11.75L71.2568 0.499998H91.6868V5.15H74.5568L76.9268 2.45L78.4268 11.75Z" fill="white"/>
</svg>
