<svg width="88" height="44" viewBox="0 0 88 44" fill="none" xmlns="http://www.w3.org/2000/svg">
<path d="M22.5098 0.103998C26.0938 0.103998 29.2485 0.645331 31.9738 1.728C34.7365 2.81067 36.9765 4.28533 38.6938 6.152C40.4112 7.98133 41.4565 10.072 41.8298 12.424H31.9738C31.4138 11.1547 30.4245 10.1093 29.0058 9.288C27.5872 8.42933 25.5152 8 22.7898 8C19.8778 8 17.4698 8.54133 15.5658 9.624C13.6992 10.7067 12.3178 12.256 11.4218 14.272C10.5258 16.2507 10.0778 18.696 10.0778 21.608C10.0778 24.7067 10.5632 27.32 11.5338 29.448C12.5418 31.576 14.0165 33.2 15.9578 34.32C17.8992 35.4027 20.2698 35.944 23.0698 35.944C25.0485 35.944 26.7098 35.6827 28.0538 35.16C29.4352 34.6 30.4618 33.8347 31.1338 32.864C31.8432 31.8933 32.1978 30.8107 32.1978 29.616C32.1978 28.4213 31.8618 27.376 31.1898 26.48C30.5552 25.584 29.6032 24.8933 28.3338 24.408C27.0645 23.8853 25.4405 23.624 23.4618 23.624C20.8858 23.624 18.4218 24.2213 16.0698 25.416C13.7552 26.5733 11.7018 28.216 9.90984 30.344L6.15784 27.768C7.35251 25.4533 8.88318 23.4 10.7498 21.608C12.6165 19.7787 14.8192 18.3413 17.3578 17.296C19.8965 16.2133 22.7712 15.672 25.9818 15.672C29.4165 15.672 32.3845 16.2507 34.8858 17.408C37.4245 18.528 39.3658 20.1147 40.7098 22.168C42.0912 24.2213 42.7818 26.592 42.7818 29.28C42.7818 32.1173 41.9978 34.6373 40.4298 36.84C38.8618 39.0427 36.6032 40.7787 33.6538 42.048C30.7045 43.28 27.1392 43.896 22.9578 43.896C17.8805 43.896 13.6432 42.9627 10.2458 41.096C6.84851 39.2293 4.30984 36.6533 2.62984 33.368C0.949844 30.0453 0.109844 26.256 0.109844 22C0.109844 17.744 0.949844 13.9733 2.62984 10.688C4.30984 7.40267 6.81118 4.82667 10.1338 2.96C13.4938 1.056 17.6192 0.103998 22.5098 0.103998ZM52.0573 0.999997H84.4253V8.952H55.2493L59.5053 6.936L57.1533 22.728H54.4653C55.2866 21.3467 56.4066 20.0773 57.8253 18.92C59.2813 17.7627 61.0546 16.8293 63.1453 16.12C65.2359 15.4107 67.6626 15.056 70.4253 15.056C74.0093 15.056 77.0893 15.6533 79.6653 16.848C82.2413 18.0427 84.22 19.6853 85.6013 21.776C87.02 23.8667 87.7293 26.2747 87.7293 29C87.7293 31.8747 86.9266 34.432 85.3213 36.672C83.7159 38.912 81.4013 40.6853 78.3773 41.992C75.3906 43.2613 71.8066 43.896 67.6253 43.896C63.5186 43.896 59.9533 43.2987 56.9293 42.104C53.9053 40.9093 51.5346 39.2853 49.8173 37.232C48.0999 35.1413 47.0919 32.8267 46.7933 30.288H57.3213C57.7319 31.9307 58.8146 33.2373 60.5693 34.208C62.3613 35.1787 64.7133 35.664 67.6253 35.664C69.6039 35.664 71.3026 35.4027 72.7213 34.88C74.1399 34.32 75.2413 33.536 76.0253 32.528C76.8093 31.52 77.2013 30.3253 77.2013 28.944C77.2013 27.6373 76.8466 26.48 76.1373 25.472C75.4653 24.464 74.4386 23.68 73.0573 23.12C71.7133 22.56 70.0333 22.28 68.0173 22.28C66.3373 22.28 64.8253 22.4667 63.4813 22.84C62.1746 23.2133 61.0173 23.6987 60.0093 24.296C59.0386 24.8933 58.2359 25.5093 57.6013 26.144H48.5293L52.0573 0.999997Z" fill="white"/>
</svg>
