<svg width="95" height="44" viewBox="0 0 95 44" fill="none" xmlns="http://www.w3.org/2000/svg">
<path d="M1.60078 14.44C1.78745 11.7893 2.72078 9.38133 4.40078 7.216C6.08078 5.05066 8.47012 3.33333 11.5688 2.064C14.7048 0.757332 18.4941 0.103998 22.9368 0.103998C26.7448 0.103998 30.0488 0.607998 32.8488 1.616C35.6861 2.58666 37.8888 3.94933 39.4568 5.704C41.0248 7.42133 41.8088 9.456 41.8088 11.808C41.8088 13.712 41.2301 15.448 40.0728 17.016C38.9528 18.5467 37.1794 19.7787 34.7528 20.712C32.3261 21.608 29.2274 22.0373 25.4568 22V20.88C29.0408 20.6933 32.1208 20.9547 34.6968 21.664C37.2728 22.3733 39.2515 23.4933 40.6328 25.024C42.0141 26.5547 42.7048 28.4773 42.7048 30.792C42.7048 33.3307 41.9021 35.5893 40.2968 37.568C38.6914 39.5093 36.3394 41.0587 33.2408 42.216C30.1795 43.336 26.4461 43.896 22.0408 43.896C17.7474 43.896 13.9954 43.2987 10.7848 42.104C7.61145 40.872 5.12878 39.1733 3.33678 37.008C1.58211 34.8053 0.630115 32.2293 0.480781 29.28H11.0088C11.3074 31.3333 12.3528 32.92 14.1448 34.04C15.9741 35.1227 18.6061 35.664 22.0408 35.664C25.2888 35.664 27.7528 35.1787 29.4328 34.208C31.1501 33.2 32.0088 31.8 32.0088 30.008C32.0088 28.9627 31.7288 28.104 31.1688 27.432C30.6088 26.7227 29.6568 26.1813 28.3128 25.808C26.9688 25.4347 25.1021 25.248 22.7128 25.248H15.4328V18.024H22.7128C25.8115 18.024 27.9955 17.5947 29.2648 16.736C30.5341 15.84 31.1688 14.6827 31.1688 13.264C31.1688 11.696 30.4221 10.4827 28.9288 9.624C27.4728 8.76533 25.2701 8.336 22.3208 8.336C19.2594 8.336 16.8701 8.87733 15.1528 9.96C13.4728 11.0053 12.4648 12.4987 12.1288 14.44H1.60078ZM70.9892 43.896C66.2478 43.896 62.1412 42.9813 58.6692 41.152C55.1972 39.3227 52.5092 36.784 50.6052 33.536C48.7012 30.2507 47.7492 26.4053 47.7492 22C47.7492 17.632 48.7012 13.8053 50.6052 10.52C52.5092 7.23466 55.1972 4.67733 58.6692 2.848C62.1412 1.01867 66.2478 0.103998 70.9892 0.103998C75.6932 0.103998 79.7812 1.01867 83.2532 2.848C86.7252 4.67733 89.4132 7.23466 91.3172 10.52C93.2212 13.768 94.1732 17.5947 94.1732 22C94.1732 26.368 93.2212 30.1947 91.3172 33.48C89.4132 36.7653 86.7252 39.3227 83.2532 41.152C79.7812 42.9813 75.6932 43.896 70.9892 43.896ZM70.9892 35.272C74.9838 35.272 78.0825 34.1147 80.2852 31.8C82.5252 29.4853 83.6452 26.2187 83.6452 22C83.6452 17.7813 82.5252 14.5147 80.2852 12.2C78.0825 9.88533 74.9838 8.728 70.9892 8.728C66.9945 8.728 63.8772 9.88533 61.6372 12.2C59.3972 14.5147 58.2772 17.7813 58.2772 22C58.2772 26.2187 59.3972 29.4853 61.6372 31.8C63.8772 34.1147 66.9945 35.272 70.9892 35.272Z" fill="white"/>
</svg>
