<svg width="51" height="50" viewBox="0 0 51 50" fill="none" xmlns="http://www.w3.org/2000/svg">
<circle cx="25.6667" cy="25" r="25" fill="white" fill-opacity="0.1"/>
<circle cx="25.6667" cy="25" r="24.5" stroke="url(#paint0_linear_6217_20722)" stroke-opacity="0.6"/>
<path d="M21.0004 28.35C20.7704 28.35 20.6154 28.3725 20.5354 28.395V29.8675C20.6304 29.89 20.7491 29.8963 20.9129 29.8963C21.5116 29.8963 21.8804 29.5938 21.8804 29.0825C21.8804 28.625 21.5629 28.35 21.0004 28.35ZM25.3591 28.365C25.1091 28.365 24.9467 28.3875 24.8504 28.41V31.6725C24.9467 31.695 25.1017 31.695 25.2417 31.695C26.2629 31.7025 26.9279 31.14 26.9279 29.95C26.9354 28.9125 26.3292 28.365 25.3591 28.365Z" fill="white" fill-opacity="0.1"/>
<path d="M21.0004 28.35C20.7704 28.35 20.6154 28.3725 20.5354 28.395V29.8675C20.6304 29.89 20.7491 29.8963 20.9129 29.8963C21.5116 29.8963 21.8804 29.5938 21.8804 29.0825C21.8804 28.625 21.5629 28.35 21.0004 28.35ZM25.3591 28.365C25.1091 28.365 24.9467 28.3875 24.8504 28.41V31.6725C24.9467 31.695 25.1017 31.695 25.2417 31.695C26.2629 31.7025 26.9279 31.14 26.9279 29.95C26.9354 28.9125 26.3292 28.365 25.3591 28.365Z" fill="url(#paint1_radial_6217_20722)" fill-opacity="0.5"/>
<path d="M28.1667 12.5H18.1667C17.5036 12.5 16.8677 12.7634 16.3989 13.2322C15.93 13.7011 15.6667 14.337 15.6667 15V35C15.6667 35.663 15.93 36.2989 16.3989 36.7678C16.8677 37.2366 17.5036 37.5 18.1667 37.5H33.1667C33.8297 37.5 34.4656 37.2366 34.9344 36.7678C35.4033 36.2989 35.6667 35.663 35.6667 35V20L28.1667 12.5ZM22.5392 30.2375C22.1529 30.6 21.5829 30.7625 20.9192 30.7625C20.7905 30.7639 20.6618 30.7564 20.5342 30.74V32.5225H19.4167V27.6025C19.921 27.5273 20.4306 27.493 20.9404 27.5C21.6367 27.5 22.1317 27.6325 22.4654 27.8988C22.7829 28.1512 22.9979 28.565 22.9979 29.0525C22.9967 29.5425 22.8342 29.9563 22.5392 30.2375ZM27.2979 31.9312C26.7729 32.3675 25.9742 32.575 24.9979 32.575C24.4129 32.575 23.9992 32.5375 23.7179 32.5V27.6038C24.2224 27.5301 24.7318 27.4954 25.2417 27.5C26.1879 27.5 26.8029 27.67 27.2829 28.0325C27.8017 28.4175 28.1267 29.0312 28.1267 29.9125C28.1267 30.8663 27.7779 31.525 27.2979 31.9312ZM31.9167 28.4625H30.0017V29.6012H31.7917V30.5188H30.0017V32.5237H28.8692V27.5375H31.9167V28.4625ZM28.1667 21.25H26.9167V15L33.1667 21.25H28.1667Z" fill="white" fill-opacity="0.1"/>
<path d="M28.1667 12.5H18.1667C17.5036 12.5 16.8677 12.7634 16.3989 13.2322C15.93 13.7011 15.6667 14.337 15.6667 15V35C15.6667 35.663 15.93 36.2989 16.3989 36.7678C16.8677 37.2366 17.5036 37.5 18.1667 37.5H33.1667C33.8297 37.5 34.4656 37.2366 34.9344 36.7678C35.4033 36.2989 35.6667 35.663 35.6667 35V20L28.1667 12.5ZM22.5392 30.2375C22.1529 30.6 21.5829 30.7625 20.9192 30.7625C20.7905 30.7639 20.6618 30.7564 20.5342 30.74V32.5225H19.4167V27.6025C19.921 27.5273 20.4306 27.493 20.9404 27.5C21.6367 27.5 22.1317 27.6325 22.4654 27.8988C22.7829 28.1512 22.9979 28.565 22.9979 29.0525C22.9967 29.5425 22.8342 29.9563 22.5392 30.2375ZM27.2979 31.9312C26.7729 32.3675 25.9742 32.575 24.9979 32.575C24.4129 32.575 23.9992 32.5375 23.7179 32.5V27.6038C24.2224 27.5301 24.7318 27.4954 25.2417 27.5C26.1879 27.5 26.8029 27.67 27.2829 28.0325C27.8017 28.4175 28.1267 29.0312 28.1267 29.9125C28.1267 30.8663 27.7779 31.525 27.2979 31.9312ZM31.9167 28.4625H30.0017V29.6012H31.7917V30.5188H30.0017V32.5237H28.8692V27.5375H31.9167V28.4625ZM28.1667 21.25H26.9167V15L33.1667 21.25H28.1667Z" fill="url(#paint2_radial_6217_20722)" fill-opacity="0.5"/>
<defs>
<linearGradient id="paint0_linear_6217_20722" x1="46.1723" y1="8.56742" x2="-0.456939" y2="27.2472" gradientUnits="userSpaceOnUse">
<stop stop-color="#047586"/>
<stop offset="0.758532" stop-color="#439596"/>
</linearGradient>
<radialGradient id="paint1_radial_6217_20722" cx="0" cy="0" r="1" gradientUnits="userSpaceOnUse" gradientTransform="translate(23.7317 29.2089) rotate(118.776) scale(4.58994 9.0059)">
<stop offset="0.205" stop-color="#00FF94"/>
<stop offset="0.745" stop-color="#00FF94" stop-opacity="0"/>
</radialGradient>
<radialGradient id="paint2_radial_6217_20722" cx="0" cy="0" r="1" gradientUnits="userSpaceOnUse" gradientTransform="translate(25.6667 18.9189) rotate(102.948) scale(30.852 31.3285)">
<stop offset="0.205" stop-color="#00FF94"/>
<stop offset="0.745" stop-color="#00FF94" stop-opacity="0"/>
</radialGradient>
</defs>
</svg>
