<svg width="134" height="94" viewBox="0 0 134 94" fill="none" xmlns="http://www.w3.org/2000/svg">
<path d="M35.3248 71.2319H23.5586L32.4638 37.9881C33.8527 32.8073 39.1792 28.6043 44.36 28.6043H56.1262L47.221 61.8481C45.8321 67.029 40.5056 71.2319 35.3248 71.2319ZM76.1006 61.8481L92.5899 0.296875H80.8237C75.6428 0.296875 70.3163 4.49982 68.9275 9.68067L52.433 71.2319H64.1992C69.38 71.2319 74.7065 67.029 76.0954 61.8481H76.1006ZM104.98 61.8481L118.973 9.61825H107.207C102.026 9.61825 96.6992 13.8212 95.3103 19.0021L81.3179 71.2319H93.084C98.2649 71.2319 103.591 67.029 104.98 61.8481Z" fill="url(#paint0_linear_6463_622)"/>
<path d="M89.1767 41.7646L81.2754 71.2321H93.0415C98.2224 71.2321 103.554 67.0291 104.938 61.8483L114.535 26.0244C106.821 32.4173 98.1548 37.5825 89.1767 41.7646ZM57.1084 53.6608L52.4009 71.2321H64.1671C69.348 71.2321 74.6745 67.0291 76.0633 61.8483L80.0374 47.0131C72.2817 49.8168 64.5156 51.9859 57.1084 53.6608ZM26.8556 58.7637L23.5161 71.2321H35.2875C40.4631 71.2321 45.7948 67.0291 47.1785 61.8483L48.739 56.0432C40.3799 57.4685 32.8583 58.2903 26.8556 58.7689V58.7637Z" fill="url(#paint1_linear_6463_622)"/>
<path style="mix-blend-mode:screen" d="M107.201 9.61825C102.02 9.61825 96.694 13.8212 95.3051 18.9969L81.3074 71.2267H83.2425L96.7408 20.833C98.1296 15.6574 103.456 11.4544 108.637 11.4544H118.479L118.967 9.61825H107.201ZM80.8237 0.296875C75.6428 0.296875 70.3111 4.48941 68.9275 9.67547L52.433 71.2267H54.3576L70.3631 11.5169C71.752 6.336 77.0785 2.13306 82.2593 2.13306H92.1009L92.5899 0.302077H80.8237V0.296875ZM44.3548 28.5991C39.174 28.5991 33.8475 32.8021 32.4586 37.9829L23.5586 71.2215H25.4832L33.9047 39.8191C35.2883 34.6383 40.62 30.4353 45.7957 30.4353H55.6424L56.1314 28.5991H44.36H44.3548Z" fill="url(#paint2_linear_6463_622)"/>
<path opacity="0.2" d="M127.399 22.4303C131.045 22.4303 134 19.475 134 15.8294C134 12.1838 131.045 9.22852 127.399 9.22852C123.754 9.22852 120.798 12.1838 120.798 15.8294C120.798 19.475 123.754 22.4303 127.399 22.4303Z" fill="url(#paint3_radial_6463_622)"/>
<path d="M0.015605 59.1224C11.4541 59.8142 22.9445 59.1848 34.2946 57.7388C39.9696 57.0053 45.6134 56.0326 51.2 54.8206C52.594 54.5033 53.9932 54.2172 55.3821 53.8687L59.5382 52.818C62.2899 52.0481 65.0468 51.2991 67.762 50.3992C73.203 48.6671 78.5607 46.6644 83.7624 44.3237L85.7234 43.4654C86.3684 43.1689 87.0082 42.8464 87.648 42.5395C88.9276 41.9101 90.2176 41.3119 91.4868 40.6617C93.994 39.3093 96.5324 38.0089 98.9564 36.5108C108.798 30.7786 117.755 23.6107 125.641 15.4805L127.493 17.3063L124.325 20.2712L122.738 21.7537L121.079 23.1529L117.76 25.9462L114.307 28.5678C113.729 29.0048 113.167 29.4521 112.58 29.8735L110.795 31.1011C109.604 31.9125 108.434 32.7552 107.222 33.5406C104.767 35.0595 102.353 36.6356 99.8095 37.9985C97.3231 39.4549 94.7275 40.7189 92.163 42.0245C90.8678 42.6539 89.5466 43.2313 88.241 43.8347C87.5856 44.1312 86.9354 44.4381 86.2748 44.7242L84.2773 45.5461C82.9405 46.0818 81.6297 46.6696 80.2772 47.1586L76.2304 48.6567C74.8779 49.1456 73.5047 49.5722 72.147 50.0299C71.4656 50.2536 70.7842 50.4929 70.0976 50.7009L68.0325 51.3199C65.2913 52.1782 62.5084 52.8856 59.7307 53.6191L55.5381 54.6074C54.1389 54.9351 52.7292 55.2004 51.3248 55.4969C45.6966 56.6256 40.0268 57.5099 34.3258 58.1601C28.6299 58.8103 22.9029 59.2108 17.1759 59.3929C14.3098 59.4917 11.4489 59.5281 8.58274 59.4865C5.71663 59.4449 2.85571 59.3565 0 59.1224H0.015605Z" fill="url(#paint4_linear_6463_622)"/>
<path opacity="0.5" d="M127.398 21.2128C130.372 21.2128 132.782 18.8024 132.782 15.829C132.782 12.8557 130.372 10.4453 127.398 10.4453C124.425 10.4453 122.015 12.8557 122.015 15.829C122.015 18.8024 124.425 21.2128 127.398 21.2128Z" fill="url(#paint5_radial_6463_622)"/>
<path d="M130.25 18.6694C131.821 17.0991 131.821 14.5532 130.25 12.983C128.68 11.4127 126.134 11.4127 124.564 12.983C122.994 14.5532 122.994 17.0991 124.564 18.6694C126.134 20.2396 128.68 20.2396 130.25 18.6694Z" fill="url(#paint6_radial_6463_622)"/>
<path d="M0.782172 89.3044H2.39017C2.43817 89.6644 2.58617 89.9804 2.83417 90.2524C3.09017 90.5244 3.42617 90.7364 3.84217 90.8884C4.25817 91.0324 4.73817 91.1044 5.28217 91.1044C6.09017 91.1044 6.73017 90.9804 7.20217 90.7324C7.67417 90.4764 7.91017 90.1324 7.91017 89.7004C7.91017 89.3484 7.77417 89.0844 7.50217 88.9084C7.23017 88.7324 6.73817 88.6004 6.02617 88.5124L4.08217 88.2604C2.99417 88.1164 2.20217 87.8484 1.70617 87.4564C1.21817 87.0564 0.974172 86.4924 0.974172 85.7644C0.974172 85.2124 1.13817 84.7364 1.46617 84.3364C1.80217 83.9284 2.27417 83.6164 2.88217 83.4004C3.49017 83.1764 4.20217 83.0644 5.01817 83.0644C5.82617 83.0644 6.54217 83.1844 7.16617 83.4244C7.79017 83.6644 8.28617 84.0004 8.65417 84.4324C9.03017 84.8564 9.23417 85.3564 9.26617 85.9324H7.65817C7.61817 85.6124 7.48217 85.3364 7.25017 85.1044C7.02617 84.8724 6.72217 84.6924 6.33817 84.5644C5.95417 84.4284 5.50217 84.3604 4.98217 84.3604C4.24617 84.3604 3.65817 84.4804 3.21817 84.7204C2.77817 84.9604 2.55817 85.2884 2.55817 85.7044C2.55817 86.0244 2.68617 86.2724 2.94217 86.4484C3.20617 86.6164 3.66217 86.7444 4.31017 86.8324L6.27817 87.1084C7.08617 87.2204 7.72217 87.3724 8.18617 87.5644C8.65817 87.7484 8.99417 88.0004 9.19417 88.3204C9.39417 88.6324 9.49417 89.0364 9.49417 89.5324C9.49417 90.1084 9.31817 90.6124 8.96617 91.0444C8.61417 91.4764 8.11817 91.8124 7.47817 92.0524C6.84617 92.2844 6.10617 92.4004 5.25817 92.4004C4.39417 92.4004 3.63017 92.2724 2.96617 92.0164C2.31017 91.7524 1.79017 91.3884 1.40617 90.9244C1.02217 90.4604 0.814172 89.9204 0.782172 89.3044ZM15.647 92.4004C14.623 92.4004 13.723 92.2044 12.947 91.8124C12.171 91.4204 11.567 90.8764 11.135 90.1804C10.703 89.4764 10.487 88.6604 10.487 87.7324C10.487 86.8044 10.703 85.9924 11.135 85.2964C11.567 84.5924 12.171 84.0444 12.947 83.6524C13.723 83.2604 14.623 83.0644 15.647 83.0644C16.671 83.0644 17.571 83.2604 18.347 83.6524C19.123 84.0444 19.727 84.5924 20.159 85.2964C20.591 85.9924 20.807 86.8044 20.807 87.7324C20.807 88.6604 20.591 89.4764 20.159 90.1804C19.727 90.8764 19.123 91.4204 18.347 91.8124C17.571 92.2044 16.671 92.4004 15.647 92.4004ZM15.647 90.9844C16.375 90.9844 17.003 90.8524 17.531 90.5884C18.059 90.3244 18.467 89.9484 18.755 89.4604C19.051 88.9724 19.199 88.3964 19.199 87.7324C19.199 87.0684 19.051 86.4924 18.755 86.0044C18.467 85.5164 18.059 85.1404 17.531 84.8764C17.003 84.6124 16.375 84.4804 15.647 84.4804C14.927 84.4804 14.299 84.6124 13.763 84.8764C13.235 85.1404 12.823 85.5164 12.527 86.0044C12.239 86.4924 12.095 87.0684 12.095 87.7324C12.095 88.3964 12.239 88.9724 12.527 89.4604C12.823 89.9484 13.235 90.3244 13.763 90.5884C14.299 90.8524 14.927 90.9844 15.647 90.9844ZM31.8379 88.6684C31.7579 89.4044 31.4979 90.0564 31.0579 90.6244C30.6259 91.1844 30.0579 91.6204 29.3539 91.9324C28.6499 92.2444 27.8459 92.4004 26.9419 92.4004C25.9339 92.4004 25.0499 92.2044 24.2899 91.8124C23.5299 91.4204 22.9379 90.8764 22.5139 90.1804C22.0899 89.4764 21.8779 88.6604 21.8779 87.7324C21.8779 86.8044 22.0899 85.9924 22.5139 85.2964C22.9379 84.5924 23.5299 84.0444 24.2899 83.6524C25.0499 83.2604 25.9339 83.0644 26.9419 83.0644C27.8459 83.0644 28.6499 83.2204 29.3539 83.5324C30.0579 83.8444 30.6259 84.2804 31.0579 84.8404C31.4979 85.4004 31.7579 86.0524 31.8379 86.7964H30.2419C30.1539 86.3164 29.9619 85.9044 29.6659 85.5604C29.3779 85.2164 29.0019 84.9524 28.5379 84.7684C28.0739 84.5764 27.5379 84.4804 26.9299 84.4804C26.2259 84.4804 25.6139 84.6124 25.0939 84.8764C24.5819 85.1404 24.1859 85.5164 23.9059 86.0044C23.6259 86.4924 23.4859 87.0684 23.4859 87.7324C23.4859 88.3964 23.6259 88.9724 23.9059 89.4604C24.1859 89.9484 24.5819 90.3244 25.0939 90.5884C25.6139 90.8524 26.2259 90.9844 26.9299 90.9844C27.5379 90.9844 28.0739 90.8924 28.5379 90.7084C29.0019 90.5244 29.3779 90.2604 29.6659 89.9164C29.9619 89.5644 30.1539 89.1484 30.2419 88.6684H31.8379ZM34.081 90.1684V88.8604H40.369V90.1684H34.081ZM38.257 83.2324L42.577 92.2324H40.885L36.961 83.8324H37.573L33.649 92.2324H31.957L36.277 83.2324H38.257ZM45.258 83.2324V91.5244L44.55 90.8404H51.33V92.2324H43.674V83.2324H45.258ZM57.7577 83.9644H59.3417V92.2324H57.7577V83.9644ZM54.0377 83.2324H63.0617V84.6244H54.0377V83.2324ZM65.3679 87.2884H69.0279C69.5559 87.2884 69.9719 87.1684 70.2759 86.9284C70.5879 86.6884 70.7439 86.3604 70.7439 85.9444C70.7439 85.5204 70.5879 85.1924 70.2759 84.9604C69.9719 84.7204 69.5559 84.6004 69.0279 84.6004H65.1399L65.8479 83.7124V92.2324H64.2639V83.2324H69.1719C69.8039 83.2324 70.3559 83.3484 70.8279 83.5804C71.3079 83.8044 71.6799 84.1204 71.9439 84.5284C72.2159 84.9284 72.3519 85.4004 72.3519 85.9444C72.3519 86.4724 72.2159 86.9404 71.9439 87.3484C71.6799 87.7484 71.3079 88.0644 70.8279 88.2964C70.3559 88.5204 69.8039 88.6324 69.1719 88.6324H65.3679V87.2884ZM67.1439 88.0204H69.0039L72.5799 92.2324H70.6839L67.1439 88.0204ZM74.9795 90.1684V88.8604H81.2675V90.1684H74.9795ZM79.1555 83.2324L83.4755 92.2324H81.7835L77.8595 83.8324H78.4715L74.5475 92.2324H72.8555L77.1755 83.2324H79.1555ZM88.6405 83.2324C89.6645 83.2324 90.5605 83.4204 91.3285 83.7964C92.1045 84.1724 92.7085 84.7004 93.1405 85.3804C93.5725 86.0524 93.7885 86.8364 93.7885 87.7324C93.7885 88.6284 93.5725 89.4164 93.1405 90.0964C92.7085 90.7684 92.1045 91.2924 91.3285 91.6684C90.5605 92.0444 89.6645 92.2324 88.6405 92.2324H84.5725V83.2324H88.6405ZM86.1565 91.6804L85.2805 90.8404H88.7485C89.4365 90.8404 90.0365 90.7124 90.5485 90.4564C91.0685 90.1924 91.4685 89.8284 91.7485 89.3644C92.0365 88.8924 92.1805 88.3484 92.1805 87.7324C92.1805 87.1084 92.0365 86.5644 91.7485 86.1004C91.4685 85.6364 91.0685 85.2764 90.5485 85.0204C90.0365 84.7564 89.4365 84.6244 88.7485 84.6244H85.2805L86.1565 83.7844V91.6804ZM102.436 87.0724V88.3924H96.1482V87.0724H102.436ZM97.1922 87.7324L96.5562 91.7524L95.8002 90.8644H102.784V92.2324H94.9362L95.6562 87.7324L94.9362 83.2324H102.724V84.6004H95.8002L96.5562 83.7124L97.1922 87.7324ZM109.196 83.2324V91.5244L108.488 90.8404H115.268V92.2324H107.612V83.2324H109.196ZM117.418 83.9644H119.002V92.2324H117.418V83.9644ZM113.698 83.2324H122.722V84.6244H113.698V83.2324ZM127.992 83.2324C129.016 83.2324 129.912 83.4204 130.68 83.7964C131.456 84.1724 132.06 84.7004 132.492 85.3804C132.924 86.0524 133.14 86.8364 133.14 87.7324C133.14 88.6284 132.924 89.4164 132.492 90.0964C132.06 90.7684 131.456 91.2924 130.68 91.6684C129.912 92.0444 129.016 92.2324 127.992 92.2324H123.924V83.2324H127.992ZM125.508 91.6804L124.632 90.8404H128.1C128.788 90.8404 129.388 90.7124 129.9 90.4564C130.42 90.1924 130.82 89.8284 131.1 89.3644C131.388 88.8924 131.532 88.3484 131.532 87.7324C131.532 87.1084 131.388 86.5644 131.1 86.1004C130.82 85.6364 130.42 85.2764 129.9 85.0204C129.388 84.7564 128.788 84.6244 128.1 84.6244H124.632L125.508 83.7844V91.6804Z" fill="white"/>
<defs>
<linearGradient id="paint0_linear_6463_622" x1="56.3239" y1="-2.15831" x2="87.782" y2="71.2319" gradientUnits="userSpaceOnUse">
<stop stop-color="#043FB1"/>
<stop offset="0.27" stop-color="#001E57"/>
<stop offset="0.39" stop-color="#001E58"/>
<stop offset="0.6" stop-color="#0057FF"/>
<stop offset="0.71" stop-color="#3278FF"/>
<stop offset="1" stop-color="#7FAAFF"/>
</linearGradient>
<linearGradient id="paint1_linear_6463_622" x1="82.7578" y1="97.7553" x2="68.0059" y2="44.9689" gradientUnits="userSpaceOnUse">
<stop stop-color="#5497FC"/>
<stop offset="0.29" stop-color="#0057FF"/>
<stop offset="0.41" stop-color="#064CD0"/>
<stop offset="0.64" stop-color="#003BAB"/>
<stop offset="0.78" stop-color="#002C80"/>
<stop offset="1" stop-color="#001E58"/>
</linearGradient>
<linearGradient id="paint2_linear_6463_622" x1="57.6346" y1="89.8524" x2="75.3684" y2="2.07025" gradientUnits="userSpaceOnUse">
<stop stop-color="#00FF94" stop-opacity="0.4"/>
<stop offset="0.415" stop-color="#00FF94" stop-opacity="0.85"/>
<stop offset="1" stop-color="#00FF94"/>
</linearGradient>
<radialGradient id="paint3_radial_6463_622" cx="0" cy="0" r="1" gradientUnits="userSpaceOnUse" gradientTransform="translate(125.73 11.2728) scale(15.064 15.064)">
<stop offset="0.11" stop-color="#00FF94"/>
<stop offset="1" stop-color="#12CE75"/>
</radialGradient>
<linearGradient id="paint4_linear_6463_622" x1="0.015605" y1="37.4887" x2="127.493" y2="37.4887" gradientUnits="userSpaceOnUse">
<stop stop-color="#00FF94" stop-opacity="0"/>
<stop offset="0.09" stop-color="#00FF94" stop-opacity="0.04"/>
<stop offset="0.24" stop-color="#00FF94" stop-opacity="0.16"/>
<stop offset="0.44" stop-color="#00FF94" stop-opacity="0.35"/>
<stop offset="0.68" stop-color="#00FF94" stop-opacity="0.61"/>
<stop offset="0.96" stop-color="#00FF94" stop-opacity="0.95"/>
<stop offset="1" stop-color="#12CE75"/>
</linearGradient>
<radialGradient id="paint5_radial_6463_622" cx="0" cy="0" r="1" gradientUnits="userSpaceOnUse" gradientTransform="translate(126.036 12.1098) scale(12.2863 12.2863)">
<stop offset="0.11" stop-color="#00FF94"/>
<stop offset="1" stop-color="#12CE75"/>
</radialGradient>
<radialGradient id="paint6_radial_6463_622" cx="0" cy="0" r="1" gradientUnits="userSpaceOnUse" gradientTransform="translate(126.383 13.0516) scale(9.18094)">
<stop offset="0.11" stop-color="#00FF94"/>
<stop offset="1" stop-color="#12CE75"/>
</radialGradient>
</defs>
</svg>
