<svg width="10" height="7" viewBox="0 0 10 7" fill="none" xmlns="http://www.w3.org/2000/svg">
<path d="M0.544 1.11225C0.544 1.02692 0.570667 0.95225 0.624 0.88825C0.677333 0.82425 0.757333 0.79225 0.864 0.79225H1.136C1.24267 0.79225 1.328 0.813583 1.392 0.85625C1.46667 0.909583 1.54667 1.00025 1.632 1.12825L4.832 5.75225L8.032 1.12825C8.11733 1.00025 8.192 0.909583 8.256 0.85625C8.33067 0.813583 8.42133 0.79225 8.528 0.79225H8.8C8.90667 0.79225 8.98667 0.82425 9.04 0.88825C9.09333 0.95225 9.12 1.02692 9.12 1.11225C9.12 1.18692 9.09333 1.26692 9.04 1.35225C8.99733 1.43758 8.96 1.50158 8.928 1.54425L5.664 6.26425C5.54667 6.43492 5.42933 6.55225 5.312 6.61625C5.20533 6.69092 5.07733 6.72825 4.928 6.72825H4.736C4.59733 6.72825 4.46933 6.69092 4.352 6.61625C4.23467 6.55225 4.11733 6.43492 4 6.26425L0.736 1.54425C0.704 1.50158 0.661333 1.43758 0.608 1.35225C0.565333 1.26692 0.544 1.18692 0.544 1.11225Z" fill="white"/>
</svg>
