<svg width="309" height="41" viewBox="0 0 309 41" fill="none" xmlns="http://www.w3.org/2000/svg">
<path d="M19.9196 40.5H13.2847L18.3063 21.7539C19.0895 18.8325 22.0931 16.4625 25.0145 16.4625H31.6494L26.6278 35.2085C25.8446 38.13 22.841 40.5 19.9196 40.5ZM42.9129 35.2085L52.2111 0.5H45.5762C42.6548 0.5 39.6512 2.87002 38.868 5.79149L29.5668 40.5H36.2017C39.1232 40.5 42.1268 38.13 42.91 35.2085H42.9129ZM59.198 35.2085L67.0883 5.75629H60.4534C57.5319 5.75629 54.5284 8.12631 53.7452 11.0478L45.8549 40.5H52.4898C55.4112 40.5 58.4148 38.13 59.198 35.2085Z" fill="url(#paint0_linear_6463_547)"/>
<path d="M50.2865 23.8834L45.831 40.5H52.4659C55.3873 40.5 58.3938 38.13 59.1741 35.2085L64.5858 15.0076C60.2359 18.6125 55.3492 21.5251 50.2865 23.8834ZM32.2033 30.5916L29.5488 40.5H36.1837C39.1051 40.5 42.1087 38.13 42.8919 35.2085L45.1329 26.843C40.7595 28.424 36.3802 29.6472 32.2033 30.5916ZM15.1439 33.4691L13.2607 40.5H19.8986C22.8171 40.5 25.8236 38.13 26.6039 35.2085L27.4838 31.935C22.7702 32.7387 18.5288 33.2022 15.1439 33.472V33.4691Z" fill="url(#paint1_linear_6463_547)"/>
<path style="mix-blend-mode:screen" d="M60.4505 5.75629C57.529 5.75629 54.5254 8.12631 53.7422 11.0448L45.849 40.4971H46.9402L54.5518 12.0803C55.335 9.16173 58.3386 6.79171 61.26 6.79171H66.8096L67.0854 5.75629H60.4505ZM45.5762 0.5C42.6548 0.5 39.6482 2.86416 38.868 5.78855L29.5668 40.4971H30.6521L39.6776 6.82691C40.4607 3.90544 43.4643 1.53542 46.3858 1.53542H51.9354L52.2111 0.502933H45.5762V0.5ZM25.0116 16.4595C22.0901 16.4595 19.0865 18.8295 18.3034 21.751L13.2847 40.4941H14.37L19.1188 22.7864C19.899 19.865 22.9056 17.4949 25.8241 17.4949H31.3766L31.6523 16.4595H25.0145H25.0116Z" fill="url(#paint2_linear_6463_547)"/>
<path opacity="0.2" d="M71.8399 12.9808C73.8956 12.9808 75.5621 11.3143 75.5621 9.25854C75.5621 7.20281 73.8956 5.53632 71.8399 5.53632C69.7842 5.53632 68.1177 7.20281 68.1177 9.25854C68.1177 11.3143 69.7842 12.9808 71.8399 12.9808Z" fill="url(#paint3_radial_6463_547)"/>
<path d="M0.00879959 33.6715C6.4589 34.0616 12.9383 33.7067 19.3386 32.8913C22.5387 32.4777 25.7212 31.9292 28.8715 31.2458C29.6575 31.0669 30.4466 30.9055 31.2297 30.709L33.5734 30.1165C35.125 29.6824 36.6796 29.26 38.2108 28.7526C41.2789 27.7758 44.3001 26.6465 47.2333 25.3266L48.3391 24.8426C48.7028 24.6754 49.0636 24.4936 49.4244 24.3205C50.1459 23.9656 50.8734 23.6283 51.5891 23.2616C53.0029 22.499 54.4343 21.7657 55.8011 20.9209C61.3507 17.6885 66.4017 13.6466 70.8484 9.06201L71.8926 10.0916L70.1063 11.7635L69.2117 12.5994L68.276 13.3885L66.4046 14.9636L64.457 16.4419C64.1314 16.6883 63.8146 16.9406 63.4832 17.1782L62.4771 17.8704C61.8054 18.328 61.1454 18.8032 60.462 19.2461C59.0775 20.1026 57.7165 20.9913 56.2822 21.7598C54.8801 22.5811 53.4164 23.2939 51.9704 24.0301C51.24 24.385 50.495 24.7106 49.7587 25.0509C49.3892 25.2181 49.0225 25.3911 48.65 25.5524L47.5237 26.0159C46.7698 26.318 46.0307 26.6495 45.268 26.9252L42.986 27.7699C42.2234 28.0457 41.449 28.2862 40.6834 28.5443C40.2992 28.6704 39.9149 28.8054 39.5278 28.9227L38.3633 29.2717C36.8175 29.7557 35.2482 30.1546 33.6819 30.5682L31.3177 31.1255C30.5287 31.3103 29.7338 31.4599 28.9418 31.6271C25.7681 32.2636 22.5709 32.7622 19.3562 33.1289C16.1443 33.4955 12.9149 33.7214 9.68541 33.8241C8.06922 33.8798 6.45597 33.9003 4.83977 33.8769C3.22358 33.8534 1.61032 33.8035 0 33.6715H0.00879959Z" fill="url(#paint4_linear_6463_547)"/>
<path opacity="0.5" d="M71.8396 12.2944C73.5162 12.2944 74.8754 10.9352 74.8754 9.25851C74.8754 7.58186 73.5162 6.22266 71.8396 6.22266C70.1629 6.22266 68.8037 7.58186 68.8037 9.25851C68.8037 10.9352 70.1629 12.2944 71.8396 12.2944Z" fill="url(#paint5_radial_6463_547)"/>
<path d="M73.4475 10.86C74.333 9.97452 74.333 8.53891 73.4475 7.65345C72.562 6.76799 71.1264 6.76799 70.241 7.65345C69.3555 8.53891 69.3555 9.97452 70.241 10.86C71.1264 11.7454 72.562 11.7454 73.4475 10.86Z" fill="url(#paint6_radial_6463_547)"/>
<path d="M86.699 23.62H89.379C89.459 24.22 89.7056 24.7467 90.119 25.2C90.5456 25.6533 91.1056 26.0067 91.799 26.26C92.4923 26.5 93.2923 26.62 94.199 26.62C95.5456 26.62 96.6123 26.4133 97.399 26C98.1856 25.5733 98.579 25 98.579 24.28C98.579 23.6933 98.3523 23.2533 97.899 22.96C97.4456 22.6667 96.6256 22.4467 95.439 22.3L92.199 21.88C90.3856 21.64 89.0656 21.1933 88.239 20.54C87.4256 19.8733 87.019 18.9333 87.019 17.72C87.019 16.8 87.2923 16.0067 87.839 15.34C88.399 14.66 89.1856 14.14 90.199 13.78C91.2123 13.4067 92.399 13.22 93.759 13.22C95.1056 13.22 96.299 13.42 97.339 13.82C98.379 14.22 99.2056 14.78 99.819 15.5C100.446 16.2067 100.786 17.04 100.839 18H98.159C98.0923 17.4667 97.8656 17.0067 97.479 16.62C97.1056 16.2333 96.599 15.9333 95.959 15.72C95.319 15.4933 94.5656 15.38 93.699 15.38C92.4723 15.38 91.4923 15.58 90.759 15.98C90.0256 16.38 89.659 16.9267 89.659 17.62C89.659 18.1533 89.8723 18.5667 90.299 18.86C90.739 19.14 91.499 19.3533 92.579 19.5L95.859 19.96C97.2056 20.1467 98.2656 20.4 99.039 20.72C99.8256 21.0267 100.386 21.4467 100.719 21.98C101.052 22.5 101.219 23.1733 101.219 24C101.219 24.96 100.926 25.8 100.339 26.52C99.7523 27.24 98.9256 27.8 97.859 28.2C96.8056 28.5867 95.5723 28.78 94.159 28.78C92.719 28.78 91.4456 28.5667 90.339 28.14C89.2456 27.7 88.379 27.0933 87.739 26.32C87.099 25.5467 86.7523 24.6467 86.699 23.62ZM111.474 28.78C109.767 28.78 108.267 28.4533 106.974 27.8C105.68 27.1467 104.674 26.24 103.954 25.08C103.234 23.9067 102.874 22.5467 102.874 21C102.874 19.4533 103.234 18.1 103.954 16.94C104.674 15.7667 105.68 14.8533 106.974 14.2C108.267 13.5467 109.767 13.22 111.474 13.22C113.18 13.22 114.68 13.5467 115.974 14.2C117.267 14.8533 118.274 15.7667 118.994 16.94C119.714 18.1 120.074 19.4533 120.074 21C120.074 22.5467 119.714 23.9067 118.994 25.08C118.274 26.24 117.267 27.1467 115.974 27.8C114.68 28.4533 113.18 28.78 111.474 28.78ZM111.474 26.42C112.687 26.42 113.734 26.2 114.614 25.76C115.494 25.32 116.174 24.6933 116.654 23.88C117.147 23.0667 117.394 22.1067 117.394 21C117.394 19.8933 117.147 18.9333 116.654 18.12C116.174 17.3067 115.494 16.68 114.614 16.24C113.734 15.8 112.687 15.58 111.474 15.58C110.274 15.58 109.227 15.8 108.334 16.24C107.454 16.68 106.767 17.3067 106.274 18.12C105.794 18.9333 105.554 19.8933 105.554 21C105.554 22.1067 105.794 23.0667 106.274 23.88C106.767 24.6933 107.454 25.32 108.334 25.76C109.227 26.2 110.274 26.42 111.474 26.42ZM138.458 22.56C138.325 23.7867 137.892 24.8733 137.158 25.82C136.438 26.7533 135.492 27.48 134.318 28C133.145 28.52 131.805 28.78 130.298 28.78C128.618 28.78 127.145 28.4533 125.878 27.8C124.612 27.1467 123.625 26.24 122.918 25.08C122.212 23.9067 121.858 22.5467 121.858 21C121.858 19.4533 122.212 18.1 122.918 16.94C123.625 15.7667 124.612 14.8533 125.878 14.2C127.145 13.5467 128.618 13.22 130.298 13.22C131.805 13.22 133.145 13.48 134.318 14C135.492 14.52 136.438 15.2467 137.158 16.18C137.892 17.1133 138.325 18.2 138.458 19.44H135.798C135.652 18.64 135.332 17.9533 134.838 17.38C134.358 16.8067 133.732 16.3667 132.958 16.06C132.185 15.74 131.292 15.58 130.278 15.58C129.105 15.58 128.085 15.8 127.218 16.24C126.365 16.68 125.705 17.3067 125.238 18.12C124.772 18.9333 124.538 19.8933 124.538 21C124.538 22.1067 124.772 23.0667 125.238 23.88C125.705 24.6933 126.365 25.32 127.218 25.76C128.085 26.2 129.105 26.42 130.278 26.42C131.292 26.42 132.185 26.2667 132.958 25.96C133.732 25.6533 134.358 25.2133 134.838 24.64C135.332 24.0533 135.652 23.36 135.798 22.56H138.458ZM142.197 25.06V22.88H152.677V25.06H142.197ZM149.157 13.5L156.357 28.5H153.537L146.997 14.5H148.017L141.477 28.5H138.657L145.857 13.5H149.157ZM160.825 13.5V27.32L159.645 26.18H170.945V28.5H158.185V13.5H160.825ZM181.658 14.72H184.298V28.5H181.658V14.72ZM175.458 13.5H190.498V15.82H175.458V13.5ZM194.342 20.26H200.442C201.322 20.26 202.015 20.06 202.522 19.66C203.042 19.26 203.302 18.7133 203.302 18.02C203.302 17.3133 203.042 16.7667 202.522 16.38C202.015 15.98 201.322 15.78 200.442 15.78H193.962L195.142 14.3V28.5H192.502V13.5H200.682C201.735 13.5 202.655 13.6933 203.442 14.08C204.242 14.4533 204.862 14.98 205.302 15.66C205.755 16.3267 205.982 17.1133 205.982 18.02C205.982 18.9 205.755 19.68 205.302 20.36C204.862 21.0267 204.242 21.5533 203.442 21.94C202.655 22.3133 201.735 22.5 200.682 22.5H194.342V20.26ZM197.302 21.48H200.402L206.362 28.5H203.202L197.302 21.48ZM210.361 25.06V22.88H220.841V25.06H210.361ZM217.321 13.5L224.521 28.5H221.701L215.161 14.5H216.181L209.641 28.5H206.821L214.021 13.5H217.321ZM233.129 13.5C234.836 13.5 236.329 13.8133 237.609 14.44C238.903 15.0667 239.909 15.9467 240.629 17.08C241.349 18.2 241.709 19.5067 241.709 21C241.709 22.4933 241.349 23.8067 240.629 24.94C239.909 26.06 238.903 26.9333 237.609 27.56C236.329 28.1867 234.836 28.5 233.129 28.5H226.349V13.5H233.129ZM228.989 27.58L227.529 26.18H233.309C234.456 26.18 235.456 25.9667 236.309 25.54C237.176 25.1 237.843 24.4933 238.309 23.72C238.789 22.9333 239.029 22.0267 239.029 21C239.029 19.96 238.789 19.0533 238.309 18.28C237.843 17.5067 237.176 16.9067 236.309 16.48C235.456 16.04 234.456 15.82 233.309 15.82H227.529L228.989 14.42V27.58ZM256.122 19.9V22.1H245.642V19.9H256.122ZM247.382 21L246.322 27.7L245.062 26.22H256.702V28.5H243.622L244.822 21L243.622 13.5H256.602V15.78H245.062L246.322 14.3L247.382 21ZM267.388 13.5V27.32L266.208 26.18H277.508V28.5H264.748V13.5H267.388ZM281.092 14.72H283.732V28.5H281.092V14.72ZM274.892 13.5H289.932V15.82H274.892V13.5ZM298.715 13.5C300.422 13.5 301.915 13.8133 303.195 14.44C304.489 15.0667 305.495 15.9467 306.215 17.08C306.935 18.2 307.295 19.5067 307.295 21C307.295 22.4933 306.935 23.8067 306.215 24.94C305.495 26.06 304.489 26.9333 303.195 27.56C301.915 28.1867 300.422 28.5 298.715 28.5H291.935V13.5H298.715ZM294.575 27.58L293.115 26.18H298.895C300.042 26.18 301.042 25.9667 301.895 25.54C302.762 25.1 303.429 24.4933 303.895 23.72C304.375 22.9333 304.615 22.0267 304.615 21C304.615 19.96 304.375 19.0533 303.895 18.28C303.429 17.5067 302.762 16.9067 301.895 16.48C301.042 16.04 300.042 15.82 298.895 15.82H293.115L294.575 14.42V27.58Z" fill="white"/>
<defs>
<linearGradient id="paint0_linear_6463_547" x1="31.7609" y1="-0.884469" x2="49.5" y2="40.5" gradientUnits="userSpaceOnUse">
<stop stop-color="#043FB1"/>
<stop offset="0.27" stop-color="#001E57"/>
<stop offset="0.39" stop-color="#001E58"/>
<stop offset="0.6" stop-color="#0057FF"/>
<stop offset="0.71" stop-color="#3278FF"/>
<stop offset="1" stop-color="#7FAAFF"/>
</linearGradient>
<linearGradient id="paint1_linear_6463_547" x1="46.6669" y1="55.4563" x2="38.3484" y2="25.6903" gradientUnits="userSpaceOnUse">
<stop stop-color="#5497FC"/>
<stop offset="0.29" stop-color="#0057FF"/>
<stop offset="0.41" stop-color="#064CD0"/>
<stop offset="0.64" stop-color="#003BAB"/>
<stop offset="0.78" stop-color="#002C80"/>
<stop offset="1" stop-color="#001E58"/>
</linearGradient>
<linearGradient id="paint2_linear_6463_547" x1="32.5" y1="51" x2="42.5" y2="1.5" gradientUnits="userSpaceOnUse">
<stop stop-color="#00FF94" stop-opacity="0.4"/>
<stop offset="0.415" stop-color="#00FF94" stop-opacity="0.85"/>
<stop offset="1" stop-color="#00FF94"/>
</linearGradient>
<radialGradient id="paint3_radial_6463_547" cx="0" cy="0" r="1" gradientUnits="userSpaceOnUse" gradientTransform="translate(70.8983 6.68906) scale(8.49453 8.49454)">
<stop offset="0.11" stop-color="#00FF94"/>
<stop offset="1" stop-color="#12CE75"/>
</radialGradient>
<linearGradient id="paint4_linear_6463_547" x1="0.00879959" y1="21.4724" x2="71.8926" y2="21.4724" gradientUnits="userSpaceOnUse">
<stop stop-color="#00FF94" stop-opacity="0"/>
<stop offset="0.09" stop-color="#00FF94" stop-opacity="0.04"/>
<stop offset="0.24" stop-color="#00FF94" stop-opacity="0.16"/>
<stop offset="0.44" stop-color="#00FF94" stop-opacity="0.35"/>
<stop offset="0.68" stop-color="#00FF94" stop-opacity="0.61"/>
<stop offset="0.96" stop-color="#00FF94" stop-opacity="0.95"/>
<stop offset="1" stop-color="#12CE75"/>
</linearGradient>
<radialGradient id="paint5_radial_6463_547" cx="0" cy="0" r="1" gradientUnits="userSpaceOnUse" gradientTransform="translate(71.0711 7.16128) scale(6.92821 6.92821)">
<stop offset="0.11" stop-color="#00FF94"/>
<stop offset="1" stop-color="#12CE75"/>
</radialGradient>
<radialGradient id="paint6_radial_6463_547" cx="0" cy="0" r="1" gradientUnits="userSpaceOnUse" gradientTransform="translate(71.2666 7.69213) scale(5.17709)">
<stop offset="0.11" stop-color="#00FF94"/>
<stop offset="1" stop-color="#12CE75"/>
</radialGradient>
</defs>
</svg>
