<svg width="59" height="58" viewBox="0 0 59 58" fill="none" xmlns="http://www.w3.org/2000/svg">
<g clip-path="url(#clip0_6387_341)">
<path d="M49.6364 50.5196L50.0458 50.8067L49.6364 50.5196C48.0011 52.8512 46.6872 54.4273 45.701 55.2839L45.6956 55.2886L45.6904 55.2934C44.1606 56.7003 42.5559 57.3937 40.8605 57.4348C39.6294 57.4337 38.1057 57.0814 36.2877 56.3339L36.2864 56.3333C34.3816 55.5563 32.6069 55.1614 30.9637 55.1614C29.2471 55.1614 27.4247 55.5549 25.4973 56.3326L25.4968 56.3328C23.6334 57.0871 22.1795 57.4595 21.1056 57.4959L21.1013 57.4961C19.5122 57.5638 17.8774 56.87 16.1838 55.2952L16.178 55.2898L16.172 55.2846C15.0976 54.3475 13.7236 52.7117 12.0502 50.3461L12.0496 50.3452C10.2791 47.8541 8.81853 44.9586 7.6717 41.6466C6.44486 38.0729 5.8335 34.6231 5.8335 31.2921C5.8335 27.4783 6.65699 24.2184 8.28467 21.5003L8.28469 21.5003L8.2871 21.4961C9.56749 19.3108 11.2665 17.5925 13.3934 16.33C15.5178 15.0689 17.8098 14.4266 20.2839 14.3848C21.5958 14.3856 23.366 14.7947 25.6285 15.6387C26.7724 16.0681 27.7198 16.3948 28.4667 16.6148C29.1968 16.83 29.7848 16.9589 30.185 16.9589C30.3691 16.9589 30.6107 16.9139 30.8761 16.85C31.1539 16.783 31.4996 16.6845 31.9101 16.5563C32.7315 16.2998 33.8345 15.9174 35.2139 15.4112C37.782 14.4872 39.9032 14.1225 41.6045 14.267L41.6066 14.2671C46.1574 14.6344 49.5743 16.3559 51.9093 19.4133C47.7147 22.1221 45.6075 25.885 45.6506 30.6554L45.6506 30.6562C45.6914 34.4889 47.088 37.7 49.829 40.2412C50.9503 41.3051 52.1927 42.1522 53.5632 42.783C53.2901 43.5506 53.0045 44.2902 52.7042 45.0039C51.8401 46.9998 50.8185 48.8344 49.6364 50.5196ZM33.4972 4.73775L33.4995 4.73512C34.5252 3.5577 35.8364 2.5705 37.442 1.77772C38.8659 1.08388 40.2035 0.673598 41.4552 0.538585C41.4671 0.745701 41.4726 0.953278 41.4726 1.1609V1.16094C41.4726 3.9276 40.4656 6.52423 38.4195 8.95309C36.0429 11.731 33.253 13.3182 30.2805 13.2317C30.2656 13.0298 30.2575 12.822 30.2575 12.6081C30.2575 9.96376 31.4121 7.09779 33.4972 4.73775Z" fill="white" stroke="url(#paint0_linear_6387_341)"/>
</g>
<defs>
<linearGradient id="paint0_linear_6387_341" x1="29.7607" y1="0.000610352" x2="29.7607" y2="58.0006" gradientUnits="userSpaceOnUse">
<stop stop-color="white" stop-opacity="0.38"/>
<stop offset="1" stop-color="white" stop-opacity="0.16"/>
</linearGradient>
<clipPath id="clip0_6387_341">
<rect width="58" height="58" fill="white" transform="translate(0.5)"/>
</clipPath>
</defs>
</svg>
