<svg width="56" height="56" viewBox="0 0 56 56" fill="none" xmlns="http://www.w3.org/2000/svg">
<path d="M32.9385 14.9146C31.6318 15.0285 30.1224 15.1423 28.6131 15.3649C26.3017 15.6912 23.9903 16.1364 22.0815 17.1272C18.3629 18.7908 15.8488 22.3239 15.8488 27.5188C15.8488 34.0427 19.6695 37.3515 24.492 37.3515C26.1035 37.3515 27.4086 37.1356 28.6131 36.8025C30.5265 36.1398 32.135 34.923 34.0438 32.7172C35.1522 34.3741 35.4511 35.149 37.363 36.9163C37.8646 37.1389 38.3662 37.1389 38.7687 36.8059C39.9747 35.7029 42.0832 33.713 43.1917 32.6084C43.6917 32.1615 43.5926 31.5038 43.2923 30.9481C42.1839 29.4017 41.0816 28.0728 41.0816 25.0937V15.1473C41.0816 10.9414 41.3789 7.07699 38.5705 4.20669C36.2561 1.87866 32.6381 1 29.8267 1C29.4242 1 29.0232 1 28.6192 1C23.4933 1.32971 18.0671 3.75649 16.8581 10.7255C16.6599 11.6042 17.2652 11.9406 17.6661 12.0527L23.2936 12.8293C23.8973 12.7121 24.1977 12.1632 24.2968 11.6075C24.8045 9.18243 26.6112 7.96569 28.6207 7.7431C28.7228 7.7431 28.8235 7.7431 29.0247 7.7431C30.2292 7.7431 31.5343 8.29874 32.2402 9.39498C33.0376 10.7255 32.943 12.4962 32.943 14.0393L32.9385 14.9146ZM31.8331 28.0661C31.1302 29.6142 29.9227 30.6084 28.6161 30.9414C28.4164 30.9414 28.1175 31.0552 27.8141 31.0552C25.6034 31.0552 24.2922 29.1757 24.2922 26.4109C24.2922 22.8795 26.2041 21.2159 28.6161 20.4444C29.9227 20.1146 31.4321 20.0008 32.94 20.0008V21.328C32.9385 23.872 33.033 25.8586 31.8331 28.0661ZM55 43.4117V43.7715C54.9466 45.9322 53.9084 50.0778 51.4506 52.359C50.9597 52.7774 50.4672 52.5381 50.6837 51.9339C51.3988 50.0176 53.0332 45.569 52.2694 44.5498C51.7281 43.7715 49.4854 43.8301 47.575 44.0109C46.7029 44.1314 45.936 44.1866 45.3353 44.3172C44.791 44.3724 44.6782 43.8368 45.2271 43.4184C45.9375 42.8778 46.7044 42.4594 47.5765 42.1531C50.6853 41.1356 54.2941 41.7347 54.7865 42.3975C54.8933 42.5682 55 42.928 55 43.4117ZM49.8132 47.6126C49.1027 48.21 48.3419 48.754 47.575 49.241C41.8408 53.0251 34.4158 55 27.9742 55C17.596 55 8.314 50.7958 1.27168 43.7715C0.667926 43.2293 1.16038 42.451 1.87087 42.8695C9.46053 47.7331 18.8523 50.6787 28.5719 50.6787C34.6903 50.6787 41.2904 49.4167 47.5735 46.7105C48.008 46.5364 48.5005 46.2887 48.938 46.1146C49.9214 45.6276 50.7966 46.8377 49.8132 47.6126Z" fill="white" stroke="white" stroke-opacity="0.6"/>
</svg>
