<svg width="52" height="52" viewBox="0 0 52 52" fill="none" xmlns="http://www.w3.org/2000/svg">
<path d="M12.9266 35.9093L12.9263 35.9094C11.7877 36.1688 10.6529 35.4556 10.3935 34.3165C10.1333 33.1783 10.8434 32.0432 11.9849 31.7835C21.9506 29.5058 30.5613 30.4749 37.5327 34.7353L37.5335 34.7358C38.5281 35.3463 38.8462 36.6463 38.2343 37.6446L12.9266 35.9093ZM12.9266 35.9093C21.8613 33.868 29.38 34.7155 35.3244 38.3465M12.9266 35.9093L35.3244 38.3465M35.3244 38.3465C36.3215 38.9578 37.6253 38.6419 38.2335 37.6459L35.3244 38.3465ZM0.5 25.9201C0.5 11.9657 11.7447 0.637272 25.6669 0.501238H25.9201C39.961 0.501238 51.3412 11.8821 51.3412 25.9201C51.3412 39.9598 39.961 51.34 25.9205 51.34C11.8814 51.34 0.5 39.9598 0.5 25.9201ZM12.5159 28.4491L12.5166 28.4489C20.6291 25.9863 31.1005 27.2145 37.9386 31.4186C39.1257 32.1492 40.6774 31.7729 41.406 30.5874C42.1367 29.4014 41.7601 27.8504 40.5767 27.1218L40.5763 27.1216C32.4468 22.126 20.5949 20.7295 11.0518 23.6251L11.0513 23.6252C9.72063 24.0306 8.9693 25.4358 9.3706 26.7682L9.37098 26.7694C9.77581 28.101 11.1839 28.8514 12.5159 28.4491ZM40.9971 23.4062L41.1151 23.4763H41.1228C42.4899 24.2031 44.207 23.7321 45.0046 22.384C45.8297 20.9963 45.3743 19.2013 43.982 18.3764C39.0869 15.4705 32.7962 13.8953 26.5965 13.3909C20.3956 12.8864 14.2365 13.449 9.5865 14.8606L9.5864 14.8607C8.04034 15.3303 7.16911 16.9631 7.63718 18.5084L7.6372 18.5084C8.10557 20.054 9.73956 20.9258 11.2843 20.4573L11.2844 20.4573C15.1994 19.269 20.5744 18.7794 26.0148 19.2075C31.4571 19.6357 36.9086 20.9778 40.9971 23.4062Z" fill="white"/>
<path d="M12.9266 35.9093L12.9263 35.9094C11.7877 36.1688 10.6529 35.4556 10.3935 34.3165C10.1333 33.1783 10.8434 32.0432 11.9849 31.7835C21.9506 29.5058 30.5613 30.4749 37.5327 34.7353L37.5335 34.7358C38.5281 35.3463 38.8462 36.6463 38.2343 37.6446L12.9266 35.9093ZM12.9266 35.9093C21.8613 33.868 29.38 34.7155 35.3244 38.3465M12.9266 35.9093L35.3244 38.3465M35.3244 38.3465C36.3215 38.9578 37.6253 38.6419 38.2335 37.6459L35.3244 38.3465ZM0.5 25.9201C0.5 11.9657 11.7447 0.637272 25.6669 0.501238H25.9201C39.961 0.501238 51.3412 11.8821 51.3412 25.9201C51.3412 39.9598 39.961 51.34 25.9205 51.34C11.8814 51.34 0.5 39.9598 0.5 25.9201ZM12.5159 28.4491L12.5166 28.4489C20.6291 25.9863 31.1005 27.2145 37.9386 31.4186C39.1257 32.1492 40.6774 31.7729 41.406 30.5874C42.1367 29.4014 41.7601 27.8504 40.5767 27.1218L40.5763 27.1216C32.4468 22.126 20.5949 20.7295 11.0518 23.6251L11.0513 23.6252C9.72063 24.0306 8.9693 25.4358 9.3706 26.7682L9.37098 26.7694C9.77581 28.101 11.1839 28.8514 12.5159 28.4491ZM40.9971 23.4062L41.1151 23.4763H41.1228C42.4899 24.2031 44.207 23.7321 45.0046 22.384C45.8297 20.9963 45.3743 19.2013 43.982 18.3764C39.0869 15.4705 32.7962 13.8953 26.5965 13.3909C20.3956 12.8864 14.2365 13.449 9.5865 14.8606L9.5864 14.8607C8.04034 15.3303 7.16911 16.9631 7.63718 18.5084L7.6372 18.5084C8.10557 20.054 9.73956 20.9258 11.2843 20.4573L11.2844 20.4573C15.1994 19.269 20.5744 18.7794 26.0148 19.2075C31.4571 19.6357 36.9086 20.9778 40.9971 23.4062Z" stroke="white" stroke-opacity="0.6"/>
<path d="M12.9266 35.9093L12.9263 35.9094C11.7877 36.1688 10.6529 35.4556 10.3935 34.3165C10.1333 33.1783 10.8434 32.0432 11.9849 31.7835C21.9506 29.5058 30.5613 30.4749 37.5327 34.7353L37.5335 34.7358C38.5281 35.3463 38.8462 36.6463 38.2343 37.6446L12.9266 35.9093ZM12.9266 35.9093C21.8613 33.868 29.38 34.7155 35.3244 38.3465M12.9266 35.9093L35.3244 38.3465M35.3244 38.3465C36.3215 38.9578 37.6253 38.6419 38.2335 37.6459L35.3244 38.3465ZM0.5 25.9201C0.5 11.9657 11.7447 0.637272 25.6669 0.501238H25.9201C39.961 0.501238 51.3412 11.8821 51.3412 25.9201C51.3412 39.9598 39.961 51.34 25.9205 51.34C11.8814 51.34 0.5 39.9598 0.5 25.9201ZM12.5159 28.4491L12.5166 28.4489C20.6291 25.9863 31.1005 27.2145 37.9386 31.4186C39.1257 32.1492 40.6774 31.7729 41.406 30.5874C42.1367 29.4014 41.7601 27.8504 40.5767 27.1218L40.5763 27.1216C32.4468 22.126 20.5949 20.7295 11.0518 23.6251L11.0513 23.6252C9.72063 24.0306 8.9693 25.4358 9.3706 26.7682L9.37098 26.7694C9.77581 28.101 11.1839 28.8514 12.5159 28.4491ZM40.9971 23.4062L41.1151 23.4763H41.1228C42.4899 24.2031 44.207 23.7321 45.0046 22.384C45.8297 20.9963 45.3743 19.2013 43.982 18.3764C39.0869 15.4705 32.7962 13.8953 26.5965 13.3909C20.3956 12.8864 14.2365 13.449 9.5865 14.8606L9.5864 14.8607C8.04034 15.3303 7.16911 16.9631 7.63718 18.5084L7.6372 18.5084C8.10557 20.054 9.73956 20.9258 11.2843 20.4573L11.2844 20.4573C15.1994 19.269 20.5744 18.7794 26.0148 19.2075C31.4571 19.6357 36.9086 20.9778 40.9971 23.4062Z" stroke="url(#paint0_linear_6355_399)"/>
<defs>
<linearGradient id="paint0_linear_6355_399" x1="25.9206" y1="0" x2="25.9206" y2="51.84" gradientUnits="userSpaceOnUse">
<stop stop-color="white" stop-opacity="0.38"/>
<stop offset="1" stop-color="white" stop-opacity="0.16"/>
</linearGradient>
</defs>
</svg>
