<svg width="52" height="52" viewBox="0 0 52 52" fill="none" xmlns="http://www.w3.org/2000/svg">
<path d="M23.2273 31.8196L10.1945 46.7114H4.2096L20.5639 28.0192L20.8333 27.7113L20.5848 27.3863L3.17833 4.62512H17.0002L27.2638 18.1945L27.6343 18.6844L28.0388 18.2221L39.9337 4.62512H45.9142L30.6713 22.0468L30.4033 22.3531L30.6488 22.6777L48.828 46.7114H35.3712L24.0007 31.8451L23.6296 31.3599L23.2273 31.8196ZM36.7444 43.1402L36.8944 43.3365H37.1415H41.1916H42.1967L41.5904 42.5349L15.447 7.96863L15.2969 7.77024H15.0482H10.702H9.69006L10.3049 8.57401L36.7444 43.1402Z" fill="white" stroke="url(#paint0_linear_6355_215)"/>
<defs>
<linearGradient id="paint0_linear_6355_215" x1="25.9998" y1="4.12512" x2="25.9998" y2="47.2114" gradientUnits="userSpaceOnUse">
<stop stop-color="white" stop-opacity="0.38"/>
<stop offset="1" stop-color="white" stop-opacity="0.16"/>
</linearGradient>
</defs>
</svg>
