<svg width="48" height="48" viewBox="0 0 48 48" fill="none" xmlns="http://www.w3.org/2000/svg">
<path d="M24 11.2796L28.7466 5.47781C28.7466 5.47781 36.8771 5.65031 44.9789 9.41656C42.9046 12.5532 38.7876 14.0884 38.7876 14.0884C38.5101 11.3327 36.5796 10.66 30.44 10.66L24.0014 47.0014L17.5183 10.6528C11.4233 10.6528 9.49275 11.327 9.21531 14.0812C9.21531 14.0812 5.09687 12.5618 3.024 9.42375C11.1243 5.6575 19.2562 5.485 19.2562 5.485L24.0029 11.2796H23.9957H24ZM24 3.80744C30.5435 3.74706 38.0386 4.818 45.712 8.17169C46.7384 6.31444 47 5.49937 47 5.49937C38.6151 2.17444 30.7606 1.03019 24 1C17.2394 1.03019 9.38494 2.16869 1 5.49937C1 5.49937 1.37375 6.50994 2.288 8.18031C9.96281 4.81081 17.4565 3.7485 24 3.80025V3.80744Z" fill="white" stroke="url(#paint0_linear_6355_208)"/>
<defs>
<linearGradient id="paint0_linear_6355_208" x1="24" y1="1" x2="24" y2="47.0014" gradientUnits="userSpaceOnUse">
<stop stop-color="white" stop-opacity="0.38"/>
<stop offset="1" stop-color="white" stop-opacity="0.16"/>
</linearGradient>
</defs>
</svg>
