<svg width="29" height="35" viewBox="0 0 29 35" fill="none" xmlns="http://www.w3.org/2000/svg">
<path d="M23.8863 18.3398C23.9033 16.9759 24.2537 15.6386 24.9049 14.4524C25.5561 13.2661 26.4869 12.2695 27.6107 11.5551C26.8968 10.5009 25.9549 9.63326 24.8599 9.02122C23.765 8.40918 22.547 8.06955 21.3029 8.0293C18.649 7.74128 16.0761 9.67126 14.7237 9.67126C13.3451 9.67126 11.2629 8.0579 9.02066 8.1056C7.57033 8.15405 6.15687 8.5901 4.91799 9.37128C3.67912 10.1525 2.65708 11.2521 1.95147 12.5631C-1.10511 18.0346 1.17482 26.0759 4.10277 30.4987C5.56768 32.6644 7.27974 35.0836 9.51994 34.9978C11.7121 34.9038 12.5308 33.5525 15.177 33.5525C17.7986 33.5525 18.5667 34.9978 20.8523 34.9432C23.2046 34.9038 24.6867 32.7679 26.1002 30.5817C27.1528 29.0385 27.9627 27.333 28.5 25.5283C27.1334 24.9307 25.9671 23.9304 25.1467 22.6521C24.3263 21.3737 23.8879 19.874 23.8863 18.3398Z" fill="black"/>
<path d="M19.6941 5.56139C20.9925 4.00925 21.6321 2.01422 21.4772 0C19.4936 0.207472 17.6614 1.15156 16.3455 2.64416C15.7021 3.37333 15.2093 4.22162 14.8954 5.14056C14.5814 6.05949 14.4524 7.03103 14.5157 7.99965C15.5078 8.00983 16.4893 7.79567 17.3863 7.37333C18.2833 6.95098 19.0724 6.33145 19.6941 5.56139Z" fill="black"/>
</svg>
