<svg width="94" height="44" viewBox="0 0 94 44" fill="none" xmlns="http://www.w3.org/2000/svg">
<mask id="path-1-outside-1_6214_10921" maskUnits="userSpaceOnUse" x="-1.3335" y="-2" width="96" height="48" fill="black">
<rect fill="white" x="-1.3335" y="-2" width="96" height="48"/>
<path d="M23.9773 43.896C19.236 43.896 15.1293 42.9813 11.6573 41.152C8.18529 39.3227 5.49729 36.784 3.59329 33.536C1.68929 30.2507 0.737285 26.4053 0.737285 22C0.737285 17.632 1.68929 13.8053 3.59329 10.52C5.49729 7.23466 8.18529 4.67733 11.6573 2.848C15.1293 1.01867 19.236 0.103998 23.9773 0.103998C28.6813 0.103998 32.7693 1.01867 36.2413 2.848C39.7133 4.67733 42.4013 7.23466 44.3053 10.52C46.2093 13.768 47.1613 17.5947 47.1613 22C47.1613 26.368 46.2093 30.1947 44.3053 33.48C42.4013 36.7653 39.7133 39.3227 36.2413 41.152C32.7693 42.9813 28.6813 43.896 23.9773 43.896ZM23.9773 35.272C27.972 35.272 31.0706 34.1147 33.2733 31.8C35.5133 29.4853 36.6333 26.2187 36.6333 22C36.6333 17.7813 35.5133 14.5147 33.2733 12.2C31.0706 9.88533 27.972 8.728 23.9773 8.728C19.9826 8.728 16.8653 9.88533 14.6253 12.2C12.3853 14.5147 11.2653 17.7813 11.2653 22C11.2653 26.2187 12.3853 29.4853 14.6253 31.8C16.8653 34.1147 19.9826 35.272 23.9773 35.272ZM51.6408 15.952C51.8648 12.704 52.9288 9.904 54.8328 7.552C56.7368 5.16267 59.2568 3.33333 62.3928 2.064C65.5662 0.757332 69.1502 0.103998 73.1448 0.103998C76.9528 0.103998 80.2755 0.682665 83.1129 1.84C85.9875 2.99733 88.2088 4.62133 89.7768 6.712C91.3822 8.80267 92.1849 11.2107 92.1849 13.936C92.1849 16.064 91.6248 18.0427 90.5048 19.872C89.3848 21.664 87.6115 23.456 85.1849 25.248C82.7582 27.04 79.5662 28.944 75.6088 30.96L63.5128 37.344L62.8968 34.544H93.3608V43H52.3688V35.608L70.4008 25.248C73.2755 23.6053 75.5155 22.2053 77.1208 21.048C78.7635 19.8533 79.9208 18.752 80.5928 17.744C81.2648 16.736 81.6008 15.6533 81.6008 14.496C81.6008 13.3013 81.2648 12.2373 80.5928 11.304C79.9582 10.3707 78.9875 9.64267 77.6809 9.12C76.3742 8.59733 74.7315 8.336 72.7528 8.336C70.4008 8.336 68.4595 8.69067 66.9288 9.4C65.3982 10.072 64.2595 10.9867 63.5128 12.144C62.7662 13.3013 62.3182 14.5707 62.1688 15.952H51.6408Z"/>
</mask>
<path d="M23.9773 43.896C19.236 43.896 15.1293 42.9813 11.6573 41.152C8.18529 39.3227 5.49729 36.784 3.59329 33.536C1.68929 30.2507 0.737285 26.4053 0.737285 22C0.737285 17.632 1.68929 13.8053 3.59329 10.52C5.49729 7.23466 8.18529 4.67733 11.6573 2.848C15.1293 1.01867 19.236 0.103998 23.9773 0.103998C28.6813 0.103998 32.7693 1.01867 36.2413 2.848C39.7133 4.67733 42.4013 7.23466 44.3053 10.52C46.2093 13.768 47.1613 17.5947 47.1613 22C47.1613 26.368 46.2093 30.1947 44.3053 33.48C42.4013 36.7653 39.7133 39.3227 36.2413 41.152C32.7693 42.9813 28.6813 43.896 23.9773 43.896ZM23.9773 35.272C27.972 35.272 31.0706 34.1147 33.2733 31.8C35.5133 29.4853 36.6333 26.2187 36.6333 22C36.6333 17.7813 35.5133 14.5147 33.2733 12.2C31.0706 9.88533 27.972 8.728 23.9773 8.728C19.9826 8.728 16.8653 9.88533 14.6253 12.2C12.3853 14.5147 11.2653 17.7813 11.2653 22C11.2653 26.2187 12.3853 29.4853 14.6253 31.8C16.8653 34.1147 19.9826 35.272 23.9773 35.272ZM51.6408 15.952C51.8648 12.704 52.9288 9.904 54.8328 7.552C56.7368 5.16267 59.2568 3.33333 62.3928 2.064C65.5662 0.757332 69.1502 0.103998 73.1448 0.103998C76.9528 0.103998 80.2755 0.682665 83.1129 1.84C85.9875 2.99733 88.2088 4.62133 89.7768 6.712C91.3822 8.80267 92.1849 11.2107 92.1849 13.936C92.1849 16.064 91.6248 18.0427 90.5048 19.872C89.3848 21.664 87.6115 23.456 85.1849 25.248C82.7582 27.04 79.5662 28.944 75.6088 30.96L63.5128 37.344L62.8968 34.544H93.3608V43H52.3688V35.608L70.4008 25.248C73.2755 23.6053 75.5155 22.2053 77.1208 21.048C78.7635 19.8533 79.9208 18.752 80.5928 17.744C81.2648 16.736 81.6008 15.6533 81.6008 14.496C81.6008 13.3013 81.2648 12.2373 80.5928 11.304C79.9582 10.3707 78.9875 9.64267 77.6809 9.12C76.3742 8.59733 74.7315 8.336 72.7528 8.336C70.4008 8.336 68.4595 8.69067 66.9288 9.4C65.3982 10.072 64.2595 10.9867 63.5128 12.144C62.7662 13.3013 62.3182 14.5707 62.1688 15.952H51.6408Z" fill="white" fill-opacity="0.1"/>
<path d="M23.9773 43.896C19.236 43.896 15.1293 42.9813 11.6573 41.152C8.18529 39.3227 5.49729 36.784 3.59329 33.536C1.68929 30.2507 0.737285 26.4053 0.737285 22C0.737285 17.632 1.68929 13.8053 3.59329 10.52C5.49729 7.23466 8.18529 4.67733 11.6573 2.848C15.1293 1.01867 19.236 0.103998 23.9773 0.103998C28.6813 0.103998 32.7693 1.01867 36.2413 2.848C39.7133 4.67733 42.4013 7.23466 44.3053 10.52C46.2093 13.768 47.1613 17.5947 47.1613 22C47.1613 26.368 46.2093 30.1947 44.3053 33.48C42.4013 36.7653 39.7133 39.3227 36.2413 41.152C32.7693 42.9813 28.6813 43.896 23.9773 43.896ZM23.9773 35.272C27.972 35.272 31.0706 34.1147 33.2733 31.8C35.5133 29.4853 36.6333 26.2187 36.6333 22C36.6333 17.7813 35.5133 14.5147 33.2733 12.2C31.0706 9.88533 27.972 8.728 23.9773 8.728C19.9826 8.728 16.8653 9.88533 14.6253 12.2C12.3853 14.5147 11.2653 17.7813 11.2653 22C11.2653 26.2187 12.3853 29.4853 14.6253 31.8C16.8653 34.1147 19.9826 35.272 23.9773 35.272ZM51.6408 15.952C51.8648 12.704 52.9288 9.904 54.8328 7.552C56.7368 5.16267 59.2568 3.33333 62.3928 2.064C65.5662 0.757332 69.1502 0.103998 73.1448 0.103998C76.9528 0.103998 80.2755 0.682665 83.1129 1.84C85.9875 2.99733 88.2088 4.62133 89.7768 6.712C91.3822 8.80267 92.1849 11.2107 92.1849 13.936C92.1849 16.064 91.6248 18.0427 90.5048 19.872C89.3848 21.664 87.6115 23.456 85.1849 25.248C82.7582 27.04 79.5662 28.944 75.6088 30.96L63.5128 37.344L62.8968 34.544H93.3608V43H52.3688V35.608L70.4008 25.248C73.2755 23.6053 75.5155 22.2053 77.1208 21.048C78.7635 19.8533 79.9208 18.752 80.5928 17.744C81.2648 16.736 81.6008 15.6533 81.6008 14.496C81.6008 13.3013 81.2648 12.2373 80.5928 11.304C79.9582 10.3707 78.9875 9.64267 77.6809 9.12C76.3742 8.59733 74.7315 8.336 72.7528 8.336C70.4008 8.336 68.4595 8.69067 66.9288 9.4C65.3982 10.072 64.2595 10.9867 63.5128 12.144C62.7662 13.3013 62.3182 14.5707 62.1688 15.952H51.6408Z" fill="url(#paint0_radial_6214_10921)" fill-opacity="0.1"/>
<path d="M11.6573 41.152L11.1387 42.1362L11.6573 41.152ZM3.59328 33.536L2.63073 34.0938L2.63352 34.0986L3.59328 33.536ZM3.59328 10.52L2.63074 9.96216L3.59328 10.52ZM11.6573 2.848L12.1759 3.83225L11.6573 2.848ZM36.2413 2.848L35.7227 3.83225L36.2413 2.848ZM44.3053 10.52L43.3427 11.0778L43.3455 11.0826L44.3053 10.52ZM44.3053 33.48L45.2678 34.0378L44.3053 33.48ZM36.2413 41.152L36.7599 42.1362L36.2413 41.152ZM33.2733 31.8L32.4738 31.0263L32.4674 31.0331L33.2733 31.8ZM33.2733 12.2L32.4673 12.9669L32.4738 12.9737L33.2733 12.2ZM14.6253 12.2L15.4247 12.9737V12.9737L14.6253 12.2ZM14.6253 31.8L13.8258 32.5737L14.6253 31.8ZM23.9773 42.7835C19.3794 42.7835 15.458 41.897 12.1759 40.1678L11.1387 42.1362C14.8006 44.0656 19.0925 45.0085 23.9773 45.0085V42.7835ZM12.1759 40.1678C8.8792 38.4308 6.3476 36.0347 4.55305 32.9734L2.63352 34.0986C4.64698 37.5333 7.49138 40.2145 11.1387 42.1362L12.1759 40.1678ZM4.55583 32.9782C2.76484 29.8878 1.84979 26.2412 1.84979 22H-0.375221C-0.375221 26.5695 0.613731 30.6135 2.63074 34.0938L4.55583 32.9782ZM1.84979 22C1.84979 17.798 2.76403 14.1696 4.55583 11.0778L2.63074 9.96216C0.61454 13.4411 -0.375221 17.466 -0.375221 22H1.84979ZM4.55583 11.0778C6.35125 7.97985 8.88248 5.56747 12.1759 3.83225L11.1387 1.86375C7.48809 3.78719 4.64332 6.48948 2.63074 9.96216L4.55583 11.0778ZM12.1759 3.83225C15.458 2.10297 19.3794 1.21651 23.9773 1.21651V-1.00851C19.0925 -1.00851 14.8006 -0.0656414 11.1387 1.86375L12.1759 3.83225ZM23.9773 1.21651C28.5363 1.21651 32.4394 2.10235 35.7227 3.83225L36.7599 1.86375C33.0992 -0.0650153 28.8263 -1.00851 23.9773 -1.00851V1.21651ZM35.7227 3.83225C39.0161 5.56747 41.5473 7.97985 43.3427 11.0778L45.2678 9.96216C43.2552 6.48948 40.4105 3.78719 36.7599 1.86375L35.7227 3.83225ZM43.3455 11.0826C45.1336 14.1329 46.0488 17.7585 46.0488 22H48.2738C48.2738 17.4309 47.285 13.4031 45.265 9.95738L43.3455 11.0826ZM46.0488 22C46.0488 26.202 45.1345 29.8304 43.3427 32.9222L45.2678 34.0378C47.284 30.5589 48.2738 26.534 48.2738 22H46.0488ZM43.3427 32.9222C41.5473 36.0201 39.0161 38.4325 35.7227 40.1678L36.7599 42.1362C40.4105 40.2128 43.2552 37.5105 45.2678 34.0378L43.3427 32.9222ZM35.7227 40.1678C32.4394 41.8977 28.5363 42.7835 23.9773 42.7835V45.0085C28.8263 45.0085 33.0992 44.065 36.7599 42.1362L35.7227 40.1678ZM23.9773 36.3845C28.1954 36.3845 31.6165 35.1549 34.0792 32.5669L32.4674 31.0331C30.5247 33.0745 27.7485 34.1595 23.9773 34.1595V36.3845ZM34.0727 32.5737C36.5698 29.9934 37.7458 26.4149 37.7458 22H35.5208C35.5208 26.0224 34.4568 28.9773 32.4738 31.0263L34.0727 32.5737ZM37.7458 22C37.7458 17.5851 36.5698 14.0066 34.0727 11.4263L32.4738 12.9737C34.4568 15.0227 35.5208 17.9776 35.5208 22H37.7458ZM34.0792 11.4331C31.6165 8.84514 28.1954 7.61549 23.9773 7.61549V9.84051C27.7485 9.84051 30.5247 10.9255 32.4674 12.9669L34.0792 11.4331ZM23.9773 7.61549C19.7583 7.61549 16.3235 8.84536 13.8258 11.4263L15.4247 12.9737C17.407 10.9253 20.207 9.84051 23.9773 9.84051V7.61549ZM13.8258 11.4263C11.3288 14.0066 10.1528 17.5851 10.1528 22H12.3778C12.3778 17.9776 13.4418 15.0227 15.4247 12.9737L13.8258 11.4263ZM10.1528 22C10.1528 26.4149 11.3288 29.9934 13.8258 32.5737L15.4247 31.0263C13.4418 28.9773 12.3778 26.0224 12.3778 22H10.1528ZM13.8258 32.5737C16.3235 35.1546 19.7583 36.3845 23.9773 36.3845V34.1595C20.207 34.1595 17.407 33.0747 15.4247 31.0263L13.8258 32.5737ZM51.6409 15.952L50.531 15.8755L50.449 17.0645H51.6409V15.952ZM54.8328 7.552L55.6976 8.25201L55.7029 8.24532L54.8328 7.552ZM62.3929 2.064L62.8103 3.09525L62.8164 3.09271L62.3929 2.064ZM83.1129 1.84L82.6927 2.87012L82.6974 2.87201L83.1129 1.84ZM89.7769 6.712L88.8868 7.37955L88.8945 7.38955L89.7769 6.712ZM90.5049 19.872L91.4483 20.4617L91.4537 20.4529L90.5049 19.872ZM85.1848 25.248L85.8457 26.1429L85.1848 25.248ZM75.6088 30.96L75.1039 29.9687L75.0967 29.9724L75.0896 29.9761L75.6088 30.96ZM63.5128 37.344L62.4263 37.583L62.7402 39.0097L64.0321 38.3279L63.5128 37.344ZM62.8969 34.544V33.4315H61.513L61.8103 34.783L62.8969 34.544ZM93.3609 34.544H94.4734V33.4315H93.3609V34.544ZM93.3609 43V44.1125H94.4734V43H93.3609ZM52.3689 43H51.2563V44.1125H52.3689V43ZM52.3689 35.608L51.8146 34.6434L51.2563 34.9641V35.608H52.3689ZM70.4008 25.248L69.8489 24.2821L69.8466 24.2834L70.4008 25.248ZM77.1208 21.048L77.7715 21.9504L77.7752 21.9477L77.1208 21.048ZM80.5928 17.744L79.6672 17.1269L80.5928 17.744ZM80.5928 11.304L79.6729 11.9296L79.6813 11.9419L79.69 11.954L80.5928 11.304ZM77.6808 9.12L78.094 8.08706L77.6808 9.12ZM66.9288 9.4L67.3761 10.4187L67.3864 10.4141L67.3966 10.4094L66.9288 9.4ZM63.5128 12.144L64.4477 12.7471L63.5128 12.144ZM62.1689 15.952V17.0645H63.1676L63.2749 16.0716L62.1689 15.952ZM52.7507 16.0285C52.9603 12.9904 53.9485 10.4126 55.6975 8.25199L53.9682 6.85201C51.9092 9.3954 50.7694 12.4176 50.531 15.8755L52.7507 16.0285ZM55.7029 8.24532C57.4751 6.02132 59.8322 4.30064 62.8103 3.09524L61.9754 1.03276C58.6815 2.36603 55.9986 4.30401 53.9628 6.85868L55.7029 8.24532ZM62.8164 3.09271C65.8352 1.84968 69.272 1.21651 73.1449 1.21651V-1.00851C69.0284 -1.00851 65.2971 -0.335013 61.9693 1.03529L62.8164 3.09271ZM73.1449 1.21651C76.8426 1.21651 80.0168 1.77865 82.6927 2.87011L83.533 0.809888C80.5342 -0.413318 77.0631 -1.00851 73.1449 -1.00851V1.21651ZM82.6974 2.87201C85.4189 3.96768 87.4617 5.47938 88.8868 7.37951L90.6669 6.04449C88.9559 3.76328 86.5562 2.02698 83.5283 0.807987L82.6974 2.87201ZM88.8945 7.38955C90.3452 9.27889 91.0723 11.4467 91.0723 13.936H93.2974C93.2974 10.9746 92.4192 8.32644 90.6592 6.03445L88.8945 7.38955ZM91.0723 13.936C91.0723 15.8573 90.5699 17.6351 89.556 19.2911L91.4537 20.4529C92.6798 18.4502 93.2974 16.2707 93.2974 13.936H91.0723ZM89.5614 19.2824C88.54 20.9166 86.8824 22.6115 84.524 24.3531L85.8457 26.1429C88.3407 24.3005 90.2297 22.4114 91.4483 20.4616L89.5614 19.2824ZM84.524 24.3531C82.1636 26.0961 79.0296 27.9688 75.1039 29.9687L76.1138 31.9513C80.1028 29.9192 83.3528 27.9839 85.8457 26.1429L84.524 24.3531ZM75.0896 29.9761L62.9936 36.3601L64.0321 38.3279L76.1281 31.9439L75.0896 29.9761ZM64.5994 37.105L63.9834 34.305L61.8103 34.783L62.4263 37.583L64.5994 37.105ZM62.8969 35.6565H93.3609V33.4315H62.8969V35.6565ZM92.2483 34.544V43H94.4734V34.544H92.2483ZM93.3609 41.8875H52.3689V44.1125H93.3609V41.8875ZM53.4814 43V35.608H51.2563V43H53.4814ZM52.9231 36.5726L70.9551 26.2126L69.8466 24.2834L51.8146 34.6434L52.9231 36.5726ZM70.9528 26.2139C73.8421 24.5629 76.1204 23.1407 77.7714 21.9504L76.4702 20.1456C74.9107 21.2699 72.7089 22.6478 69.8489 24.2821L70.9528 26.2139ZM77.7752 21.9477C79.4623 20.7207 80.7405 19.5281 81.5185 18.3611L79.6672 17.1269C79.1012 17.9759 78.0647 18.9859 76.4665 20.1483L77.7752 21.9477ZM81.5185 18.3611C82.3063 17.1794 82.7134 15.8836 82.7134 14.496H80.4883C80.4883 15.4231 80.2234 16.2926 79.6672 17.1269L81.5185 18.3611ZM82.7134 14.496C82.7134 13.0777 82.3095 11.7843 81.4957 10.654L79.69 11.954C80.2202 12.6904 80.4883 13.525 80.4883 14.496H82.7134ZM81.5128 10.6784C80.7259 9.52119 79.5554 8.67163 78.094 8.08706L77.2677 10.1529C78.4196 10.6137 79.1905 11.2201 79.6729 11.9296L81.5128 10.6784ZM78.094 8.08706C76.6142 7.49514 74.8199 7.22349 72.7529 7.22349V9.44851C74.6432 9.44851 76.1341 9.69952 77.2677 10.1529L78.094 8.08706ZM72.7529 7.22349C70.2989 7.22349 68.1842 7.59209 66.4611 8.39061L67.3966 10.4094C68.7348 9.78924 70.5028 9.44851 72.7529 9.44851V7.22349ZM66.4816 8.38134C64.7943 9.1221 63.4661 10.1643 62.578 11.5409L64.4477 12.7471C65.0529 11.8091 66.002 11.0219 67.3761 10.4187L66.4816 8.38134ZM62.578 11.5409C61.7365 12.8452 61.2306 14.2803 61.0628 15.8324L63.2749 16.0716C63.4058 14.861 63.7958 13.7575 64.4477 12.7471L62.578 11.5409ZM62.1689 14.8395H51.6409V17.0645H62.1689V14.8395Z" fill="url(#paint1_linear_6214_10921)" fill-opacity="0.6" mask="url(#path-1-outside-1_6214_10921)"/>
<defs>
<radialGradient id="paint0_radial_6214_10921" cx="0" cy="0" r="1" gradientUnits="userSpaceOnUse" gradientTransform="translate(46.9999 8.37838) rotate(149.183) scale(131.47 268.978)">
<stop offset="0.205" stop-color="#00FF94"/>
<stop offset="0.745" stop-color="#00FF94" stop-opacity="0"/>
</radialGradient>
<linearGradient id="paint1_linear_6214_10921" x1="180.97" y1="3.59551" x2="126.25" y2="131.466" gradientUnits="userSpaceOnUse">
<stop stop-color="#047586"/>
<stop offset="0.758532" stop-color="#439596"/>
</linearGradient>
</defs>
</svg>
