<svg width="75" height="46" viewBox="0 0 75 46" fill="none" xmlns="http://www.w3.org/2000/svg">
<path d="M73.6396 1.896V43.896H63.1676V5.48L68.2636 10.128L50.2876 13.264V5.088L65.8556 1.896H73.6396Z" fill="white" fill-opacity="0.1"/>
<path d="M73.6396 1.896V43.896H63.1676V5.48L68.2636 10.128L50.2876 13.264V5.088L65.8556 1.896H73.6396Z" fill="url(#paint0_radial_6386_695)" fill-opacity="0.1"/>
<path d="M74.1396 1.896V1.396H73.6396H65.8556H65.8049L65.7552 1.40619L50.1872 4.59819L49.7876 4.68012V5.088V13.264V13.8588L50.3735 13.7566L62.6676 11.6118V43.896V44.396H63.1676H73.6396H74.1396V43.896V1.896Z" stroke="url(#paint1_linear_6386_695)" stroke-opacity="0.6"/>
<path d="M24.24 44.792C19.4987 44.792 15.392 43.8773 11.92 42.048C8.448 40.2187 5.76 37.68 3.856 34.432C1.952 31.1467 1 27.3013 1 22.896C1 18.528 1.952 14.7013 3.856 11.416C5.76 8.13067 8.448 5.57333 11.92 3.744C15.392 1.91467 19.4987 1 24.24 1C28.944 1 33.032 1.91467 36.504 3.744C39.976 5.57333 42.664 8.13067 44.568 11.416C46.472 14.664 47.424 18.4907 47.424 22.896C47.424 27.264 46.472 31.0907 44.568 34.376C42.664 37.6613 39.976 40.2187 36.504 42.048C33.032 43.8773 28.944 44.792 24.24 44.792ZM24.24 36.168C28.2347 36.168 31.3333 35.0107 33.536 32.696C35.776 30.3813 36.896 27.1147 36.896 22.896C36.896 18.6773 35.776 15.4107 33.536 13.096C31.3333 10.7813 28.2347 9.624 24.24 9.624C20.2453 9.624 17.128 10.7813 14.888 13.096C12.648 15.4107 11.528 18.6773 11.528 22.896C11.528 27.1147 12.648 30.3813 14.888 32.696C17.128 35.0107 20.2453 36.168 24.24 36.168Z" fill="white" fill-opacity="0.1"/>
<path d="M24.24 44.792C19.4987 44.792 15.392 43.8773 11.92 42.048C8.448 40.2187 5.76 37.68 3.856 34.432C1.952 31.1467 1 27.3013 1 22.896C1 18.528 1.952 14.7013 3.856 11.416C5.76 8.13067 8.448 5.57333 11.92 3.744C15.392 1.91467 19.4987 1 24.24 1C28.944 1 33.032 1.91467 36.504 3.744C39.976 5.57333 42.664 8.13067 44.568 11.416C46.472 14.664 47.424 18.4907 47.424 22.896C47.424 27.264 46.472 31.0907 44.568 34.376C42.664 37.6613 39.976 40.2187 36.504 42.048C33.032 43.8773 28.944 44.792 24.24 44.792ZM24.24 36.168C28.2347 36.168 31.3333 35.0107 33.536 32.696C35.776 30.3813 36.896 27.1147 36.896 22.896C36.896 18.6773 35.776 15.4107 33.536 13.096C31.3333 10.7813 28.2347 9.624 24.24 9.624C20.2453 9.624 17.128 10.7813 14.888 13.096C12.648 15.4107 11.528 18.6773 11.528 22.896C11.528 27.1147 12.648 30.3813 14.888 32.696C17.128 35.0107 20.2453 36.168 24.24 36.168Z" fill="url(#paint2_radial_6386_695)" fill-opacity="0.1"/>
<path d="M3.42339 34.6827L3.42465 34.6849C5.37784 38.0168 8.13613 40.6195 11.6869 42.4904C15.2443 44.3647 19.4342 45.292 24.24 45.292C29.0092 45.292 33.1803 44.3644 36.7371 42.4904C40.2893 40.6187 43.0478 37.9962 45.0006 34.6267C46.955 31.2544 47.924 27.3386 47.924 22.896C47.924 18.4174 46.9556 14.5007 44.9999 11.164C43.0471 7.7951 40.2889 5.17304 36.7371 3.30165C33.1803 1.42762 29.0092 0.5 24.24 0.5C19.4342 0.5 15.2443 1.42734 11.6869 3.30165C8.13465 5.17327 5.3762 7.79575 3.4234 11.1653C1.46897 14.5376 0.5 18.4534 0.5 22.896C0.5 27.3751 1.46861 31.3097 3.42339 34.6827ZM33.1767 32.3483L33.1738 32.3513C31.088 34.5432 28.1342 35.668 24.24 35.668C20.3462 35.668 17.3715 34.5433 15.2473 32.3483C13.1228 30.153 12.028 27.0265 12.028 22.896C12.028 18.7655 13.1228 15.639 15.2473 13.4437C17.3715 11.2487 20.3462 10.124 24.24 10.124C28.1342 10.124 31.088 11.2488 33.1738 13.4407L33.1767 13.4437C35.3012 15.639 36.396 18.7655 36.396 22.896C36.396 27.0265 35.3012 30.153 33.1767 32.3483Z" stroke="url(#paint3_linear_6386_695)" stroke-opacity="0.6"/>
<defs>
<radialGradient id="paint0_radial_6386_695" cx="0" cy="0" r="1" gradientUnits="userSpaceOnUse" gradientTransform="translate(38.2393 9.76086) rotate(113.062) scale(70.5872 118.307)">
<stop offset="0.205" stop-color="#00FF94"/>
<stop offset="0.745" stop-color="#00FF94" stop-opacity="0"/>
</radialGradient>
<linearGradient id="paint1_linear_6386_695" x1="71.5405" y1="9.09263" x2="47.4624" y2="14.4557" gradientUnits="userSpaceOnUse">
<stop stop-color="#047586"/>
<stop offset="0.758532" stop-color="#439596"/>
</linearGradient>
<radialGradient id="paint2_radial_6386_695" cx="0" cy="0" r="1" gradientUnits="userSpaceOnUse" gradientTransform="translate(38.2393 9.76086) rotate(113.062) scale(70.5872 118.307)">
<stop offset="0.205" stop-color="#00FF94"/>
<stop offset="0.745" stop-color="#00FF94" stop-opacity="0"/>
</radialGradient>
<linearGradient id="paint3_linear_6386_695" x1="43.2511" y1="8.50369" x2="0.685594" y2="26.5804" gradientUnits="userSpaceOnUse">
<stop stop-color="#047586"/>
<stop offset="0.758532" stop-color="#439596"/>
</linearGradient>
</defs>
</svg>
