<svg width="96" height="46" viewBox="0 0 96 46" fill="none" xmlns="http://www.w3.org/2000/svg">
<path d="M52.9515 15.336C53.1382 12.6853 54.0715 10.2773 55.7515 8.112C57.4315 5.94667 59.8209 4.22933 62.9195 2.96C66.0555 1.65333 69.8449 1 74.2875 1C78.0955 1 81.3995 1.504 84.1995 2.512C87.0369 3.48267 89.2395 4.84533 90.8075 6.6C92.3755 8.31733 93.1595 10.352 93.1595 12.704C93.1595 14.608 92.5809 16.344 91.4235 17.912C90.3035 19.4427 88.5302 20.6747 86.1035 21.608C83.6769 22.504 80.5782 22.9333 76.8075 22.896V21.776C80.3915 21.5893 83.4715 21.8507 86.0475 22.56C88.6235 23.2693 90.6022 24.3893 91.9835 25.92C93.3649 27.4507 94.0555 29.3733 94.0555 31.688C94.0555 34.2267 93.2529 36.4853 91.6475 38.464C90.0422 40.4053 87.6902 41.9547 84.5915 43.112C81.5302 44.232 77.7969 44.792 73.3915 44.792C69.0982 44.792 65.3462 44.1947 62.1355 43C58.9622 41.768 56.4795 40.0693 54.6875 37.904C52.9329 35.7013 51.9809 33.1253 51.8315 30.176H62.3595C62.6582 32.2293 63.7035 33.816 65.4955 34.936C67.3249 36.0187 69.9569 36.56 73.3915 36.56C76.6395 36.56 79.1035 36.0747 80.7835 35.104C82.5009 34.096 83.3595 32.696 83.3595 30.904C83.3595 29.8587 83.0795 29 82.5195 28.328C81.9595 27.6187 81.0075 27.0773 79.6635 26.704C78.3195 26.3307 76.4529 26.144 74.0635 26.144H66.7835V18.92H74.0635C77.1622 18.92 79.3462 18.4907 80.6155 17.632C81.8849 16.736 82.5195 15.5787 82.5195 14.16C82.5195 12.592 81.7729 11.3787 80.2795 10.52C78.8235 9.66133 76.6209 9.232 73.6715 9.232C70.6102 9.232 68.2209 9.77333 66.5035 10.856C64.8235 11.9013 63.8155 13.3947 63.4795 15.336H52.9515Z" fill="white" fill-opacity="0.1"/>
<path d="M52.9515 15.336C53.1382 12.6853 54.0715 10.2773 55.7515 8.112C57.4315 5.94667 59.8209 4.22933 62.9195 2.96C66.0555 1.65333 69.8449 1 74.2875 1C78.0955 1 81.3995 1.504 84.1995 2.512C87.0369 3.48267 89.2395 4.84533 90.8075 6.6C92.3755 8.31733 93.1595 10.352 93.1595 12.704C93.1595 14.608 92.5809 16.344 91.4235 17.912C90.3035 19.4427 88.5302 20.6747 86.1035 21.608C83.6769 22.504 80.5782 22.9333 76.8075 22.896V21.776C80.3915 21.5893 83.4715 21.8507 86.0475 22.56C88.6235 23.2693 90.6022 24.3893 91.9835 25.92C93.3649 27.4507 94.0555 29.3733 94.0555 31.688C94.0555 34.2267 93.2529 36.4853 91.6475 38.464C90.0422 40.4053 87.6902 41.9547 84.5915 43.112C81.5302 44.232 77.7969 44.792 73.3915 44.792C69.0982 44.792 65.3462 44.1947 62.1355 43C58.9622 41.768 56.4795 40.0693 54.6875 37.904C52.9329 35.7013 51.9809 33.1253 51.8315 30.176H62.3595C62.6582 32.2293 63.7035 33.816 65.4955 34.936C67.3249 36.0187 69.9569 36.56 73.3915 36.56C76.6395 36.56 79.1035 36.0747 80.7835 35.104C82.5009 34.096 83.3595 32.696 83.3595 30.904C83.3595 29.8587 83.0795 29 82.5195 28.328C81.9595 27.6187 81.0075 27.0773 79.6635 26.704C78.3195 26.3307 76.4529 26.144 74.0635 26.144H66.7835V18.92H74.0635C77.1622 18.92 79.3462 18.4907 80.6155 17.632C81.8849 16.736 82.5195 15.5787 82.5195 14.16C82.5195 12.592 81.7729 11.3787 80.2795 10.52C78.8235 9.66133 76.6209 9.232 73.6715 9.232C70.6102 9.232 68.2209 9.77333 66.5035 10.856C64.8235 11.9013 63.8155 13.3947 63.4795 15.336H52.9515Z" fill="url(#paint0_radial_6386_702)" fill-opacity="0.1"/>
<path d="M52.4528 15.3009L52.4151 15.836H52.9515H63.4795H63.9004L63.9722 15.4213C64.2838 13.6211 65.2082 12.2509 66.7677 11.2805L66.7677 11.2805L66.7702 11.279C68.3769 10.2661 70.66 9.732 73.6715 9.732C76.5895 9.732 78.6845 10.1598 80.0256 10.9507L80.0255 10.9507L80.0303 10.9535C81.3871 11.7336 82.0195 12.7914 82.0195 14.16C82.0195 15.3975 81.4799 16.4084 80.3313 17.2206C79.1934 17.9881 77.1427 18.42 74.0635 18.42H66.7835H66.2835V18.92V26.144V26.644H66.7835H74.0635C76.4349 26.644 78.2495 26.8301 79.5297 27.1858C80.8235 27.5452 81.6599 28.046 82.1271 28.6378L82.127 28.6379L82.1354 28.6481C82.6066 29.2135 82.8595 29.9518 82.8595 30.904C82.8595 32.4956 82.1158 33.7417 80.532 34.6719C78.9632 35.5777 76.6031 36.06 73.3915 36.06C70.0003 36.06 67.4738 35.5239 65.7555 34.5088C64.0886 33.4653 63.1311 32.007 62.8543 30.104L62.7921 29.676H62.3595H51.8315H51.3056L51.3322 30.2013C51.4865 33.2496 52.4734 35.927 54.2965 38.2155L54.2964 38.2156L54.3023 38.2228C56.1591 40.4664 58.7184 42.2097 61.9546 43.4661L61.9546 43.4662L61.9612 43.4686C65.2398 44.6885 69.0532 45.292 73.3915 45.292C77.8362 45.292 81.6314 44.7274 84.7633 43.5816L84.7665 43.5804C87.9222 42.4017 90.3569 40.8094 92.0329 38.7826L92.0358 38.779C93.7131 36.7116 94.5555 34.3418 94.5555 31.688C94.5555 29.2659 93.8293 27.219 92.3547 25.585C90.9031 23.9764 88.8494 22.8209 86.2339 22.0928C86.2482 22.0876 86.2625 22.0823 86.2767 22.077L86.2767 22.0771L86.283 22.0747C88.7668 21.1194 90.6324 19.8395 91.8265 18.208C93.0453 16.5564 93.6595 14.7172 93.6595 12.704C93.6595 10.2297 92.8306 8.07506 91.1786 6.26485C89.5407 4.43276 87.259 3.03077 84.3652 2.04023C81.4989 1.00896 78.1363 0.5 74.2875 0.5C69.7988 0.5 65.9409 1.15971 62.7286 2.49788C59.5675 3.79302 57.1006 5.55753 55.3565 7.8055C53.6178 10.0464 52.6466 12.5482 52.4528 15.3009Z" stroke="url(#paint1_linear_6386_702)" stroke-opacity="0.6"/>
<path d="M24.5037 44.792C19.7623 44.792 15.6557 43.8773 12.1837 42.048C8.71167 40.2187 6.02367 37.68 4.11967 34.432C2.21567 31.1467 1.26367 27.3013 1.26367 22.896C1.26367 18.528 2.21567 14.7013 4.11967 11.416C6.02367 8.13066 8.71167 5.57333 12.1837 3.744C15.6557 1.91467 19.7623 1 24.5037 1C29.2077 1 33.2957 1.91467 36.7677 3.744C40.2397 5.57333 42.9277 8.13066 44.8317 11.416C46.7357 14.664 47.6877 18.4907 47.6877 22.896C47.6877 27.264 46.7357 31.0907 44.8317 34.376C42.9277 37.6613 40.2397 40.2187 36.7677 42.048C33.2957 43.8773 29.2077 44.792 24.5037 44.792ZM24.5037 36.168C28.4983 36.168 31.597 35.0107 33.7997 32.696C36.0397 30.3813 37.1597 27.1147 37.1597 22.896C37.1597 18.6773 36.0397 15.4107 33.7997 13.096C31.597 10.7813 28.4983 9.624 24.5037 9.624C20.509 9.624 17.3917 10.7813 15.1517 13.096C12.9117 15.4107 11.7917 18.6773 11.7917 22.896C11.7917 27.1147 12.9117 30.3813 15.1517 32.696C17.3917 35.0107 20.509 36.168 24.5037 36.168Z" fill="white" fill-opacity="0.1"/>
<path d="M24.5037 44.792C19.7623 44.792 15.6557 43.8773 12.1837 42.048C8.71167 40.2187 6.02367 37.68 4.11967 34.432C2.21567 31.1467 1.26367 27.3013 1.26367 22.896C1.26367 18.528 2.21567 14.7013 4.11967 11.416C6.02367 8.13066 8.71167 5.57333 12.1837 3.744C15.6557 1.91467 19.7623 1 24.5037 1C29.2077 1 33.2957 1.91467 36.7677 3.744C40.2397 5.57333 42.9277 8.13066 44.8317 11.416C46.7357 14.664 47.6877 18.4907 47.6877 22.896C47.6877 27.264 46.7357 31.0907 44.8317 34.376C42.9277 37.6613 40.2397 40.2187 36.7677 42.048C33.2957 43.8773 29.2077 44.792 24.5037 44.792ZM24.5037 36.168C28.4983 36.168 31.597 35.0107 33.7997 32.696C36.0397 30.3813 37.1597 27.1147 37.1597 22.896C37.1597 18.6773 36.0397 15.4107 33.7997 13.096C31.597 10.7813 28.4983 9.624 24.5037 9.624C20.509 9.624 17.3917 10.7813 15.1517 13.096C12.9117 15.4107 11.7917 18.6773 11.7917 22.896C11.7917 27.1147 12.9117 30.3813 15.1517 32.696C17.3917 35.0107 20.509 36.168 24.5037 36.168Z" fill="url(#paint2_radial_6386_702)" fill-opacity="0.1"/>
<path d="M3.68707 34.6827L3.68832 34.6849C5.64151 38.0168 8.3998 40.6195 11.9506 42.4904C15.508 44.3647 19.6979 45.292 24.5037 45.292C29.2729 45.292 33.4439 44.3644 37.0007 42.4904C40.553 40.6187 43.3115 37.9962 45.2643 34.6267C47.2187 31.2544 48.1877 27.3386 48.1877 22.896C48.1877 18.4174 47.2193 14.5007 45.2635 11.164C43.3108 7.7951 40.5526 5.17304 37.0007 3.30165C33.4439 1.42762 29.2729 0.5 24.5037 0.5C19.6979 0.5 15.508 1.42734 11.9506 3.30165C8.39833 5.17327 5.63987 7.79575 3.68707 11.1653C1.73265 14.5376 0.763672 18.4534 0.763672 22.896C0.763672 27.3751 1.73228 31.3097 3.68707 34.6827ZM33.4404 32.3483L33.4375 32.3513C31.3517 34.5432 28.3979 35.668 24.5037 35.668C20.6098 35.668 17.6351 34.5433 15.511 32.3483C13.3865 30.153 12.2917 27.0265 12.2917 22.896C12.2917 18.7655 13.3865 15.639 15.511 13.4437C17.6351 11.2487 20.6098 10.124 24.5037 10.124C28.3979 10.124 31.3517 11.2488 33.4375 13.4407L33.4404 13.4437C35.5648 15.639 36.6597 18.7655 36.6597 22.896C36.6597 27.0265 35.5648 30.153 33.4404 32.3483Z" stroke="url(#paint3_linear_6386_702)" stroke-opacity="0.6"/>
<defs>
<radialGradient id="paint0_radial_6386_702" cx="0" cy="0" r="1" gradientUnits="userSpaceOnUse" gradientTransform="translate(47.7178 9.27437) rotate(116.699) scale(75.3893 140.72)">
<stop offset="0.205" stop-color="#00FF94"/>
<stop offset="0.745" stop-color="#00FF94" stop-opacity="0"/>
</radialGradient>
<linearGradient id="paint1_linear_6386_702" x1="90.2601" y1="8.50369" x2="50.496" y2="23.8629" gradientUnits="userSpaceOnUse">
<stop stop-color="#047586"/>
<stop offset="0.758532" stop-color="#439596"/>
</linearGradient>
<radialGradient id="paint2_radial_6386_702" cx="0" cy="0" r="1" gradientUnits="userSpaceOnUse" gradientTransform="translate(47.7178 9.27438) rotate(116.699) scale(75.3893 140.72)">
<stop offset="0.205" stop-color="#00FF94"/>
<stop offset="0.745" stop-color="#00FF94" stop-opacity="0"/>
</radialGradient>
<linearGradient id="paint3_linear_6386_702" x1="43.5147" y1="8.50369" x2="0.949266" y2="26.5804" gradientUnits="userSpaceOnUse">
<stop stop-color="#047586"/>
<stop offset="0.758532" stop-color="#439596"/>
</linearGradient>
</defs>
</svg>
