<svg width="93" height="44" viewBox="0 0 93 44" fill="none" xmlns="http://www.w3.org/2000/svg">
<mask id="path-1-outside-1_6214_10926" maskUnits="userSpaceOnUse" x="-1.6665" y="-1" width="96" height="46" fill="black">
<rect fill="white" x="-1.6665" y="-1" width="96" height="46"/>
<path d="M23.4529 43.896C18.7115 43.896 14.6049 42.9813 11.1329 41.152C7.66087 39.3227 4.97287 36.784 3.06887 33.536C1.16487 30.2507 0.212871 26.4053 0.212871 22C0.212871 17.632 1.16487 13.8053 3.06887 10.52C4.97287 7.23466 7.66087 4.67733 11.1329 2.848C14.6049 1.01867 18.7115 0.103998 23.4529 0.103998C28.1569 0.103998 32.2449 1.01867 35.7169 2.848C39.1889 4.67733 41.8769 7.23466 43.7809 10.52C45.6849 13.768 46.6369 17.5947 46.6369 22C46.6369 26.368 45.6849 30.1947 43.7809 33.48C41.8769 36.7653 39.1889 39.3227 35.7169 41.152C32.2449 42.9813 28.1569 43.896 23.4529 43.896ZM23.4529 35.272C27.4475 35.272 30.5462 34.1147 32.7489 31.8C34.9889 29.4853 36.1089 26.2187 36.1089 22C36.1089 17.7813 34.9889 14.5147 32.7489 12.2C30.5462 9.88533 27.4475 8.728 23.4529 8.728C19.4582 8.728 16.3409 9.88533 14.1009 12.2C11.8609 14.5147 10.7409 17.7813 10.7409 22C10.7409 26.2187 11.8609 29.4853 14.1009 31.8C16.3409 34.1147 19.4582 35.272 23.4529 35.272ZM51.9004 14.44C52.0871 11.7893 53.0204 9.38133 54.7004 7.216C56.3804 5.05066 58.7698 3.33333 61.8684 2.064C65.0044 0.757332 68.7938 0.103998 73.2364 0.103998C77.0444 0.103998 80.3484 0.607998 83.1484 1.616C85.9858 2.58666 88.1884 3.94933 89.7564 5.704C91.3244 7.42133 92.1084 9.456 92.1084 11.808C92.1084 13.712 91.5298 15.448 90.3724 17.016C89.2524 18.5467 87.4791 19.7787 85.0524 20.712C82.6258 21.608 79.5271 22.0373 75.7564 22V20.88C79.3404 20.6933 82.4204 20.9547 84.9964 21.664C87.5724 22.3733 89.5511 23.4933 90.9324 25.024C92.3138 26.5547 93.0044 28.4773 93.0044 30.792C93.0044 33.3307 92.2018 35.5893 90.5964 37.568C88.9911 39.5093 86.6391 41.0587 83.5404 42.216C80.4791 43.336 76.7458 43.896 72.3404 43.896C68.0471 43.896 64.2951 43.2987 61.0844 42.104C57.9111 40.872 55.4284 39.1733 53.6364 37.008C51.8818 34.8053 50.9298 32.2293 50.7804 29.28H61.3084C61.6071 31.3333 62.6524 32.92 64.4444 34.04C66.2738 35.1227 68.9058 35.664 72.3404 35.664C75.5884 35.664 78.0524 35.1787 79.7324 34.208C81.4498 33.2 82.3084 31.8 82.3084 30.008C82.3084 28.9627 82.0284 28.104 81.4684 27.432C80.9084 26.7227 79.9564 26.1813 78.6124 25.808C77.2684 25.4347 75.4018 25.248 73.0124 25.248H65.7324V18.024H73.0124C76.1111 18.024 78.2951 17.5947 79.5644 16.736C80.8338 15.84 81.4684 14.6827 81.4684 13.264C81.4684 11.696 80.7218 10.4827 79.2284 9.624C77.7724 8.76533 75.5698 8.336 72.6204 8.336C69.5591 8.336 67.1698 8.87733 65.4524 9.96C63.7724 11.0053 62.7644 12.4987 62.4284 14.44H51.9004Z"/>
</mask>
<path d="M23.4529 43.896C18.7115 43.896 14.6049 42.9813 11.1329 41.152C7.66087 39.3227 4.97287 36.784 3.06887 33.536C1.16487 30.2507 0.212871 26.4053 0.212871 22C0.212871 17.632 1.16487 13.8053 3.06887 10.52C4.97287 7.23466 7.66087 4.67733 11.1329 2.848C14.6049 1.01867 18.7115 0.103998 23.4529 0.103998C28.1569 0.103998 32.2449 1.01867 35.7169 2.848C39.1889 4.67733 41.8769 7.23466 43.7809 10.52C45.6849 13.768 46.6369 17.5947 46.6369 22C46.6369 26.368 45.6849 30.1947 43.7809 33.48C41.8769 36.7653 39.1889 39.3227 35.7169 41.152C32.2449 42.9813 28.1569 43.896 23.4529 43.896ZM23.4529 35.272C27.4475 35.272 30.5462 34.1147 32.7489 31.8C34.9889 29.4853 36.1089 26.2187 36.1089 22C36.1089 17.7813 34.9889 14.5147 32.7489 12.2C30.5462 9.88533 27.4475 8.728 23.4529 8.728C19.4582 8.728 16.3409 9.88533 14.1009 12.2C11.8609 14.5147 10.7409 17.7813 10.7409 22C10.7409 26.2187 11.8609 29.4853 14.1009 31.8C16.3409 34.1147 19.4582 35.272 23.4529 35.272ZM51.9004 14.44C52.0871 11.7893 53.0204 9.38133 54.7004 7.216C56.3804 5.05066 58.7698 3.33333 61.8684 2.064C65.0044 0.757332 68.7938 0.103998 73.2364 0.103998C77.0444 0.103998 80.3484 0.607998 83.1484 1.616C85.9858 2.58666 88.1884 3.94933 89.7564 5.704C91.3244 7.42133 92.1084 9.456 92.1084 11.808C92.1084 13.712 91.5298 15.448 90.3724 17.016C89.2524 18.5467 87.4791 19.7787 85.0524 20.712C82.6258 21.608 79.5271 22.0373 75.7564 22V20.88C79.3404 20.6933 82.4204 20.9547 84.9964 21.664C87.5724 22.3733 89.5511 23.4933 90.9324 25.024C92.3138 26.5547 93.0044 28.4773 93.0044 30.792C93.0044 33.3307 92.2018 35.5893 90.5964 37.568C88.9911 39.5093 86.6391 41.0587 83.5404 42.216C80.4791 43.336 76.7458 43.896 72.3404 43.896C68.0471 43.896 64.2951 43.2987 61.0844 42.104C57.9111 40.872 55.4284 39.1733 53.6364 37.008C51.8818 34.8053 50.9298 32.2293 50.7804 29.28H61.3084C61.6071 31.3333 62.6524 32.92 64.4444 34.04C66.2738 35.1227 68.9058 35.664 72.3404 35.664C75.5884 35.664 78.0524 35.1787 79.7324 34.208C81.4498 33.2 82.3084 31.8 82.3084 30.008C82.3084 28.9627 82.0284 28.104 81.4684 27.432C80.9084 26.7227 79.9564 26.1813 78.6124 25.808C77.2684 25.4347 75.4018 25.248 73.0124 25.248H65.7324V18.024H73.0124C76.1111 18.024 78.2951 17.5947 79.5644 16.736C80.8338 15.84 81.4684 14.6827 81.4684 13.264C81.4684 11.696 80.7218 10.4827 79.2284 9.624C77.7724 8.76533 75.5698 8.336 72.6204 8.336C69.5591 8.336 67.1698 8.87733 65.4524 9.96C63.7724 11.0053 62.7644 12.4987 62.4284 14.44H51.9004Z" fill="white" fill-opacity="0.1"/>
<path d="M23.4529 43.896C18.7115 43.896 14.6049 42.9813 11.1329 41.152C7.66087 39.3227 4.97287 36.784 3.06887 33.536C1.16487 30.2507 0.212871 26.4053 0.212871 22C0.212871 17.632 1.16487 13.8053 3.06887 10.52C4.97287 7.23466 7.66087 4.67733 11.1329 2.848C14.6049 1.01867 18.7115 0.103998 23.4529 0.103998C28.1569 0.103998 32.2449 1.01867 35.7169 2.848C39.1889 4.67733 41.8769 7.23466 43.7809 10.52C45.6849 13.768 46.6369 17.5947 46.6369 22C46.6369 26.368 45.6849 30.1947 43.7809 33.48C41.8769 36.7653 39.1889 39.3227 35.7169 41.152C32.2449 42.9813 28.1569 43.896 23.4529 43.896ZM23.4529 35.272C27.4475 35.272 30.5462 34.1147 32.7489 31.8C34.9889 29.4853 36.1089 26.2187 36.1089 22C36.1089 17.7813 34.9889 14.5147 32.7489 12.2C30.5462 9.88533 27.4475 8.728 23.4529 8.728C19.4582 8.728 16.3409 9.88533 14.1009 12.2C11.8609 14.5147 10.7409 17.7813 10.7409 22C10.7409 26.2187 11.8609 29.4853 14.1009 31.8C16.3409 34.1147 19.4582 35.272 23.4529 35.272ZM51.9004 14.44C52.0871 11.7893 53.0204 9.38133 54.7004 7.216C56.3804 5.05066 58.7698 3.33333 61.8684 2.064C65.0044 0.757332 68.7938 0.103998 73.2364 0.103998C77.0444 0.103998 80.3484 0.607998 83.1484 1.616C85.9858 2.58666 88.1884 3.94933 89.7564 5.704C91.3244 7.42133 92.1084 9.456 92.1084 11.808C92.1084 13.712 91.5298 15.448 90.3724 17.016C89.2524 18.5467 87.4791 19.7787 85.0524 20.712C82.6258 21.608 79.5271 22.0373 75.7564 22V20.88C79.3404 20.6933 82.4204 20.9547 84.9964 21.664C87.5724 22.3733 89.5511 23.4933 90.9324 25.024C92.3138 26.5547 93.0044 28.4773 93.0044 30.792C93.0044 33.3307 92.2018 35.5893 90.5964 37.568C88.9911 39.5093 86.6391 41.0587 83.5404 42.216C80.4791 43.336 76.7458 43.896 72.3404 43.896C68.0471 43.896 64.2951 43.2987 61.0844 42.104C57.9111 40.872 55.4284 39.1733 53.6364 37.008C51.8818 34.8053 50.9298 32.2293 50.7804 29.28H61.3084C61.6071 31.3333 62.6524 32.92 64.4444 34.04C66.2738 35.1227 68.9058 35.664 72.3404 35.664C75.5884 35.664 78.0524 35.1787 79.7324 34.208C81.4498 33.2 82.3084 31.8 82.3084 30.008C82.3084 28.9627 82.0284 28.104 81.4684 27.432C80.9084 26.7227 79.9564 26.1813 78.6124 25.808C77.2684 25.4347 75.4018 25.248 73.0124 25.248H65.7324V18.024H73.0124C76.1111 18.024 78.2951 17.5947 79.5644 16.736C80.8338 15.84 81.4684 14.6827 81.4684 13.264C81.4684 11.696 80.7218 10.4827 79.2284 9.624C77.7724 8.76533 75.5698 8.336 72.6204 8.336C69.5591 8.336 67.1698 8.87733 65.4524 9.96C63.7724 11.0053 62.7644 12.4987 62.4284 14.44H51.9004Z" fill="url(#paint0_radial_6214_10926)" fill-opacity="0.1"/>
<path d="M11.1329 41.152L10.648 42.0722L11.1329 41.152ZM3.06887 33.536L2.16893 34.0576L2.17155 34.062L3.06887 33.536ZM3.06887 10.52L2.16895 9.99845V9.99845L3.06887 10.52ZM11.1329 2.848L11.6177 3.76822L11.1329 2.848ZM35.7169 2.848L35.232 3.76822L35.7169 2.848ZM43.7809 10.52L42.8809 11.0416L42.8835 11.046L43.7809 10.52ZM43.7809 33.48L44.6808 34.0015L43.7809 33.48ZM35.7169 41.152L36.2017 42.0722L35.7169 41.152ZM32.7489 31.8L32.0014 31.0766L31.9954 31.083L32.7489 31.8ZM32.7489 12.2L31.9953 12.9171L32.0014 12.9233L32.7489 12.2ZM14.1009 12.2L14.8483 12.9233L14.1009 12.2ZM14.1009 31.8L13.3534 32.5233L14.1009 31.8ZM23.4529 42.8559C18.8456 42.8559 14.9122 41.9676 11.6177 40.2318L10.648 42.0722C14.2976 43.9951 18.5775 44.9361 23.4529 44.9361V42.8559ZM11.6177 40.2318C8.30964 38.4888 5.76786 36.0834 3.96619 33.01L2.17155 34.062C4.17788 37.4846 7.0121 40.1565 10.648 42.0722L11.6177 40.2318ZM3.9688 33.0145C2.17046 29.9114 1.25301 26.2519 1.25301 22H-0.827263C-0.827263 26.5588 0.159286 30.5899 2.16895 34.0575L3.9688 33.0145ZM1.25301 22C1.25301 17.7872 2.1697 14.1459 3.9688 11.0415L2.16895 9.99845C0.160042 13.4648 -0.827263 17.4768 -0.827263 22H1.25301ZM3.9688 11.0415C5.77129 7.93137 8.31271 5.50957 11.6177 3.76822L10.648 1.92778C7.00903 3.8451 4.17446 6.53795 2.16895 9.99845L3.9688 11.0415ZM11.6177 3.76822C14.9122 2.03243 18.8456 1.14413 23.4529 1.14413V-0.936138C18.5775 -0.936138 14.2976 0.00489759 10.648 1.92778L11.6177 3.76822ZM23.4529 1.14413C28.0213 1.14413 31.9365 2.03185 35.232 3.76822L36.2017 1.92778C32.5533 0.00548315 28.2925 -0.936138 23.4529 -0.936138V1.14413ZM35.232 3.76822C38.537 5.50957 41.0785 7.93137 42.881 11.0415L44.6808 9.99845C42.6753 6.53795 39.8407 3.8451 36.2017 1.92778L35.232 3.76822ZM42.8835 11.046C44.6792 14.1091 45.5967 17.7478 45.5967 22H47.677C47.677 17.4415 46.6906 13.4269 44.6782 9.99398L42.8835 11.046ZM45.5967 22C45.5967 26.2128 44.68 29.8541 42.881 32.9585L44.6808 34.0015C46.6897 30.5352 47.677 26.5232 47.677 22H45.5967ZM42.881 32.9585C41.0785 36.0686 38.537 38.4904 35.232 40.2318L36.2017 42.0722C39.8407 40.1549 42.6753 37.462 44.6808 34.0015L42.881 32.9585ZM35.232 40.2318C31.9365 41.9682 28.0213 42.8559 23.4529 42.8559V44.9361C28.2925 44.9361 32.5533 43.9945 36.2017 42.0722L35.232 40.2318ZM23.4529 36.3121C27.6565 36.3121 31.0566 35.0872 33.5024 32.517L31.9954 31.083C30.0358 33.1421 27.2386 34.2319 23.4529 34.2319V36.3121ZM33.4963 32.5233C35.9766 29.9603 37.149 26.4021 37.149 22H35.0687C35.0687 26.0352 34.0011 29.0103 32.0014 31.0767L33.4963 32.5233ZM37.149 22C37.149 17.5979 35.9766 14.0397 33.4963 11.4767L32.0014 12.9233C34.0011 14.9897 35.0687 17.9648 35.0687 22H37.149ZM33.5024 11.483C31.0566 8.91281 27.6565 7.68786 23.4529 7.68786V9.76813C27.2386 9.76813 30.0358 10.8578 31.9954 12.917L33.5024 11.483ZM23.4529 7.68786C19.2485 7.68786 15.8344 8.91301 13.3534 11.4767L14.8483 12.9233C16.8474 10.8577 19.6679 9.76813 23.4529 9.76813V7.68786ZM13.3534 11.4767C10.8731 14.0397 9.70074 17.5979 9.70074 22H11.781C11.781 17.9648 12.8486 14.9897 14.8483 12.9233L13.3534 11.4767ZM9.70074 22C9.70074 26.4021 10.8731 29.9603 13.3534 32.5233L14.8483 31.0767C12.8486 29.0103 11.781 26.0352 11.781 22H9.70074ZM13.3534 32.5233C15.8344 35.087 19.2485 36.3121 23.4529 36.3121V34.2319C19.6679 34.2319 16.8474 33.1423 14.8483 31.0767L13.3534 32.5233ZM51.9004 14.44L50.8629 14.3669L50.7845 15.4801H51.9004V14.44ZM54.7004 7.216L53.8786 6.5784V6.5784L54.7004 7.216ZM61.8684 2.064L62.2627 3.02653L62.2685 3.02413L61.8684 2.064ZM83.1484 1.616L82.7961 2.59465L82.8039 2.59746L82.8118 2.60014L83.1484 1.616ZM89.7564 5.704L88.9808 6.39711L88.9883 6.40533L89.7564 5.704ZM90.3724 17.016L89.5356 16.3983L89.533 16.4018L90.3724 17.016ZM85.0524 20.712L85.4128 21.6878L85.4258 21.6828L85.0524 20.712ZM75.7564 22H74.7163V23.0299L75.7461 23.0401L75.7564 22ZM75.7564 20.88L75.7023 19.8413L74.7163 19.8926V20.88H75.7564ZM90.5964 37.568L91.398 38.2309L91.4042 38.2233L90.5964 37.568ZM83.5404 42.216L83.8978 43.1928L83.9044 43.1904L83.5404 42.216ZM61.0844 42.104L60.708 43.0736L60.7148 43.0763L60.7217 43.0788L61.0844 42.104ZM53.6364 37.008L52.8229 37.6561L52.8289 37.6637L52.8351 37.6712L53.6364 37.008ZM50.7804 29.28V28.2399H49.6863L49.7416 29.3326L50.7804 29.28ZM61.3084 29.28L62.3377 29.1303L62.2082 28.2399H61.3084V29.28ZM64.4444 34.04L63.8932 34.922L63.9038 34.9287L63.9147 34.9351L64.4444 34.04ZM79.7324 34.208L80.2528 35.1086L80.259 35.105L79.7324 34.208ZM81.4684 27.432L80.6521 28.0765L80.6606 28.0873L80.6694 28.0979L81.4684 27.432ZM78.6124 25.808L78.334 26.8102L78.6124 25.808ZM65.7324 25.248H64.6923V26.2881H65.7324V25.248ZM65.7324 18.024V16.9839H64.6923V18.024H65.7324ZM79.5644 16.736L80.1472 17.5975L80.1558 17.5917L80.1643 17.5858L79.5644 16.736ZM79.2284 9.624L78.7 10.52L78.71 10.5257L79.2284 9.624ZM65.4524 9.96L66.002 10.8431L66.0071 10.8399L65.4524 9.96ZM62.4284 14.44V15.4801H63.304L63.4533 14.6174L62.4284 14.44ZM52.938 14.5131C53.1097 12.0745 53.9642 9.86167 55.5222 7.8536L53.8786 6.5784C52.0766 8.90099 51.0645 11.5041 50.8629 14.3669L52.938 14.5131ZM55.5222 7.8536C57.0683 5.86085 59.2953 4.24206 62.2627 3.02651L61.4742 1.10149C58.2442 2.42461 55.6925 4.24048 53.8786 6.5784L55.5222 7.8536ZM62.2685 3.02413C65.2452 1.78381 68.8909 1.14413 73.2364 1.14413V-0.936138C68.6967 -0.936138 64.7636 -0.269145 61.4684 1.10387L62.2685 3.02413ZM73.2364 1.14413C76.9563 1.14413 80.1357 1.63691 82.7961 2.59465L83.5007 0.637348C80.5611 -0.420914 77.1326 -0.936138 73.2364 -0.936138V1.14413ZM82.8118 2.60014C85.5256 3.52856 87.5601 4.80716 88.9809 6.39707L90.532 5.01093C88.8168 3.0915 86.4459 1.64477 83.4851 0.63186L82.8118 2.60014ZM88.9883 6.40533C90.3791 7.9286 91.0683 9.71224 91.0683 11.808H93.1486C93.1486 9.19975 92.2697 6.91407 90.5246 5.00267L88.9883 6.40533ZM91.0683 11.808C91.0683 13.4841 90.5642 15.0047 89.5356 16.3983L91.2093 17.6337C92.4953 15.8913 93.1486 13.9399 93.1486 11.808H91.0683ZM89.533 16.4018C88.5671 17.7219 86.9862 18.8538 84.679 19.7412L85.4258 21.6828C87.972 20.7035 89.9378 19.3714 91.2119 17.6302L89.533 16.4018ZM84.6922 19.7362C82.4251 20.5733 79.4637 20.9965 75.7667 20.9599L75.7461 23.0401C79.5905 23.0781 82.8264 22.6427 85.4127 21.6877L84.6922 19.7362ZM76.7966 22V20.88H74.7163V22H76.7966ZM75.8105 21.9187C79.3189 21.736 82.2815 21.9953 84.7203 22.6668L85.2726 20.6612C82.5594 19.9141 79.362 19.6507 75.7023 19.8413L75.8105 21.9187ZM84.7203 22.6668C87.1609 23.3389 88.9458 24.3751 90.1602 25.7209L91.7046 24.3271C90.1564 22.6116 87.984 21.4078 85.2726 20.6612L84.7203 22.6668ZM90.1602 25.7209C91.3476 27.0366 91.9643 28.7008 91.9643 30.792H94.0446C94.0446 28.2538 93.2799 26.0727 91.7046 24.3271L90.1602 25.7209ZM91.9643 30.792C91.9643 33.0911 91.2443 35.1186 89.7887 36.9127L91.4042 38.2233C93.1592 36.0601 94.0446 33.5703 94.0446 30.792H91.9643ZM89.7949 36.9052C88.3364 38.6688 86.1564 40.1286 83.1765 41.2416L83.9044 43.1904C87.1218 41.9887 89.6458 40.3498 91.398 38.2308L89.7949 36.9052ZM83.1831 41.2392C80.2686 42.3054 76.6639 42.8559 72.3404 42.8559V44.9361C76.8276 44.9361 80.6896 44.3666 83.8978 43.1928L83.1831 41.2392ZM72.3404 42.8559C68.1408 42.8559 64.5166 42.2713 61.4472 41.1292L60.7217 43.0788C64.0736 44.3261 67.9534 44.9361 72.3404 44.9361V42.8559ZM61.4609 41.1344C58.4182 39.9531 56.095 38.3473 54.4377 36.3448L52.8351 37.6712C54.7619 39.9993 57.404 41.7909 60.708 43.0736L61.4609 41.1344ZM54.45 36.3599C52.8376 34.3359 51.9581 31.9708 51.8192 29.2274L49.7416 29.3326C49.9014 32.4879 50.9259 35.2748 52.8229 37.6561L54.45 36.3599ZM50.7804 30.3201H61.3084V28.2399H50.7804V30.3201ZM60.2791 29.4297C60.6227 31.7919 61.8475 33.6435 63.8932 34.922L64.9957 33.158C63.4574 32.1965 62.5915 30.8748 62.3377 29.1303L60.2791 29.4297ZM63.9147 34.9351C65.9746 36.1543 68.8227 36.7041 72.3404 36.7041V34.6239C68.9888 34.6239 66.5729 34.0911 64.9742 33.1449L63.9147 34.9351ZM72.3404 36.7041C75.6621 36.7041 78.3413 36.213 80.2528 35.1086L79.2121 33.3074C77.7635 34.1443 75.5147 34.6239 72.3404 34.6239V36.7041ZM80.259 35.105C82.2518 33.9353 83.3486 32.2159 83.3486 30.008H81.2683C81.2683 31.3841 80.6477 32.4647 79.2059 33.311L80.259 35.105ZM83.3486 30.008C83.3486 28.7689 83.0123 27.6599 82.2675 26.7661L80.6694 28.0979C81.0446 28.5481 81.2683 29.1565 81.2683 30.008H83.3486ZM82.2848 26.7875C81.5318 25.8336 80.3392 25.2081 78.8908 24.8058L78.334 26.8102C79.5736 27.1545 80.2851 27.6117 80.6521 28.0765L82.2848 26.7875ZM78.8908 24.8058C77.4142 24.3956 75.4392 24.2079 73.0124 24.2079V26.2881C75.3644 26.2881 77.1226 26.4737 78.334 26.8102L78.8908 24.8058ZM73.0124 24.2079H65.7324V26.2881H73.0124V24.2079ZM66.7726 25.248V18.024H64.6923V25.248H66.7726ZM65.7324 19.0641H73.0124V16.9839H65.7324V19.0641ZM73.0124 19.0641C76.1441 19.0641 78.6029 18.6423 80.1472 17.5975L78.9816 15.8745C77.9874 16.5471 76.0781 16.9839 73.0124 16.9839V19.0641ZM80.1643 17.5858C81.679 16.5165 82.5086 15.0566 82.5086 13.264H80.4283C80.4283 14.3088 79.9885 15.1635 78.9646 15.8862L80.1643 17.5858ZM82.5086 13.264C82.5086 11.2812 81.5243 9.74432 79.7469 8.7223L78.71 10.5257C79.9192 11.221 80.4283 12.1108 80.4283 13.264H82.5086ZM79.7568 8.72806C78.0617 7.72836 75.6351 7.29586 72.6204 7.29586V9.37613C75.5045 9.37613 77.4832 9.8023 78.7001 10.5199L79.7568 8.72806ZM72.6204 7.29586C69.4556 7.29586 66.8452 7.85234 64.8977 9.08012L66.0071 10.8399C67.4943 9.90233 69.6626 9.37613 72.6204 9.37613V7.29586ZM64.9029 9.07686C62.9723 10.2781 61.7904 12.0276 61.4035 14.2626L63.4533 14.6174C63.7385 12.9698 64.5725 11.7325 66.0019 10.8431L64.9029 9.07686ZM62.4284 13.3999H51.9004V15.4801H62.4284V13.3999Z" fill="url(#paint1_linear_6214_10926)" fill-opacity="0.6" mask="url(#path-1-outside-1_6214_10926)"/>
<defs>
<radialGradient id="paint0_radial_6214_10926" cx="0" cy="0" r="1" gradientUnits="userSpaceOnUse" gradientTransform="translate(46.6669 8.37838) rotate(149.183) scale(131.47 268.978)">
<stop offset="0.205" stop-color="#00FF94"/>
<stop offset="0.745" stop-color="#00FF94" stop-opacity="0"/>
</radialGradient>
<linearGradient id="paint1_linear_6214_10926" x1="180.637" y1="3.59551" x2="125.917" y2="131.466" gradientUnits="userSpaceOnUse">
<stop stop-color="#047586"/>
<stop offset="0.758532" stop-color="#439596"/>
</linearGradient>
</defs>
</svg>
