<svg width="74" height="44" viewBox="0 0 74 44" fill="none" xmlns="http://www.w3.org/2000/svg">
<mask id="path-1-outside-1_6214_10916" maskUnits="userSpaceOnUse" x="-1" y="-1" width="76" height="46" fill="black">
<rect fill="white" x="-1" y="-1" width="76" height="46"/>
<path d="M24.0009 43.896C19.2595 43.896 15.1529 42.9813 11.6809 41.152C8.20888 39.3227 5.52088 36.784 3.61688 33.536C1.71288 30.2507 0.760875 26.4053 0.760875 22C0.760875 17.632 1.71288 13.8053 3.61688 10.52C5.52088 7.23466 8.20888 4.67733 11.6809 2.848C15.1529 1.01867 19.2595 0.103998 24.0009 0.103998C28.7049 0.103998 32.7929 1.01867 36.2649 2.848C39.7369 4.67733 42.4249 7.23466 44.3289 10.52C46.2329 13.768 47.1849 17.5947 47.1849 22C47.1849 26.368 46.2329 30.1947 44.3289 33.48C42.4249 36.7653 39.7369 39.3227 36.2649 41.152C32.7929 42.9813 28.7049 43.896 24.0009 43.896ZM24.0009 35.272C27.9955 35.272 31.0942 34.1147 33.2969 31.8C35.5369 29.4853 36.6569 26.2187 36.6569 22C36.6569 17.7813 35.5369 14.5147 33.2969 12.2C31.0942 9.88533 27.9955 8.728 24.0009 8.728C20.0062 8.728 16.8889 9.88533 14.6489 12.2C12.4089 14.5147 11.2889 17.7813 11.2889 22C11.2889 26.2187 12.4089 29.4853 14.6489 31.8C16.8889 34.1147 20.0062 35.272 24.0009 35.272ZM73.4003 0.999997V43H62.9283V4.584L68.0243 9.232L50.0483 12.368V4.192L65.6163 0.999997H73.4003Z"/>
</mask>
<path d="M24.0009 43.896C19.2595 43.896 15.1529 42.9813 11.6809 41.152C8.20888 39.3227 5.52088 36.784 3.61688 33.536C1.71288 30.2507 0.760875 26.4053 0.760875 22C0.760875 17.632 1.71288 13.8053 3.61688 10.52C5.52088 7.23466 8.20888 4.67733 11.6809 2.848C15.1529 1.01867 19.2595 0.103998 24.0009 0.103998C28.7049 0.103998 32.7929 1.01867 36.2649 2.848C39.7369 4.67733 42.4249 7.23466 44.3289 10.52C46.2329 13.768 47.1849 17.5947 47.1849 22C47.1849 26.368 46.2329 30.1947 44.3289 33.48C42.4249 36.7653 39.7369 39.3227 36.2649 41.152C32.7929 42.9813 28.7049 43.896 24.0009 43.896ZM24.0009 35.272C27.9955 35.272 31.0942 34.1147 33.2969 31.8C35.5369 29.4853 36.6569 26.2187 36.6569 22C36.6569 17.7813 35.5369 14.5147 33.2969 12.2C31.0942 9.88533 27.9955 8.728 24.0009 8.728C20.0062 8.728 16.8889 9.88533 14.6489 12.2C12.4089 14.5147 11.2889 17.7813 11.2889 22C11.2889 26.2187 12.4089 29.4853 14.6489 31.8C16.8889 34.1147 20.0062 35.272 24.0009 35.272ZM73.4003 0.999997V43H62.9283V4.584L68.0243 9.232L50.0483 12.368V4.192L65.6163 0.999997H73.4003Z" fill="white" fill-opacity="0.1"/>
<path d="M24.0009 43.896C19.2595 43.896 15.1529 42.9813 11.6809 41.152C8.20888 39.3227 5.52088 36.784 3.61688 33.536C1.71288 30.2507 0.760875 26.4053 0.760875 22C0.760875 17.632 1.71288 13.8053 3.61688 10.52C5.52088 7.23466 8.20888 4.67733 11.6809 2.848C15.1529 1.01867 19.2595 0.103998 24.0009 0.103998C28.7049 0.103998 32.7929 1.01867 36.2649 2.848C39.7369 4.67733 42.4249 7.23466 44.3289 10.52C46.2329 13.768 47.1849 17.5947 47.1849 22C47.1849 26.368 46.2329 30.1947 44.3289 33.48C42.4249 36.7653 39.7369 39.3227 36.2649 41.152C32.7929 42.9813 28.7049 43.896 24.0009 43.896ZM24.0009 35.272C27.9955 35.272 31.0942 34.1147 33.2969 31.8C35.5369 29.4853 36.6569 26.2187 36.6569 22C36.6569 17.7813 35.5369 14.5147 33.2969 12.2C31.0942 9.88533 27.9955 8.728 24.0009 8.728C20.0062 8.728 16.8889 9.88533 14.6489 12.2C12.4089 14.5147 11.2889 17.7813 11.2889 22C11.2889 26.2187 12.4089 29.4853 14.6489 31.8C16.8889 34.1147 20.0062 35.272 24.0009 35.272ZM73.4003 0.999997V43H62.9283V4.584L68.0243 9.232L50.0483 12.368V4.192L65.6163 0.999997H73.4003Z" fill="url(#paint0_radial_6214_10916)" fill-opacity="0.1"/>
<path d="M11.6809 41.152L11.196 42.0722L11.6809 41.152ZM3.61687 33.536L2.71693 34.0576L2.71955 34.062L3.61687 33.536ZM3.61687 10.52L2.71695 9.99845V9.99845L3.61687 10.52ZM11.6809 2.848L12.1657 3.76822L11.6809 2.848ZM36.2649 2.848L35.78 3.76822L36.2649 2.848ZM44.3289 10.52L43.4289 11.0416L43.4315 11.046L44.3289 10.52ZM44.3289 33.48L45.2288 34.0015L44.3289 33.48ZM36.2649 41.152L36.7497 42.0722L36.2649 41.152ZM33.2969 31.8L32.5494 31.0766L32.5434 31.083L33.2969 31.8ZM33.2969 12.2L32.5434 12.9171L32.5494 12.9233L33.2969 12.2ZM14.6489 12.2L15.3963 12.9233H15.3963L14.6489 12.2ZM14.6489 31.8L13.9014 32.5233L14.6489 31.8ZM24.0009 42.8559C19.3936 42.8559 15.4602 41.9676 12.1657 40.2318L11.196 42.0722C14.8456 43.9951 19.1255 44.9361 24.0009 44.9361V42.8559ZM12.1657 40.2318C8.85764 38.4888 6.31586 36.0834 4.5142 33.01L2.71955 34.062C4.72588 37.4846 7.5601 40.1565 11.196 42.0722L12.1657 40.2318ZM4.5168 33.0145C2.71846 29.9114 1.80101 26.2519 1.80101 22H-0.279259C-0.279259 26.5588 0.707291 30.5899 2.71695 34.0575L4.5168 33.0145ZM1.80101 22C1.80101 17.7872 2.7177 14.1459 4.5168 11.0415L2.71695 9.99845C0.708046 13.4648 -0.279259 17.4768 -0.279259 22H1.80101ZM4.5168 11.0415C6.31929 7.93137 8.86072 5.50957 12.1657 3.76822L11.196 1.92778C7.55703 3.8451 4.72247 6.53795 2.71695 9.99845L4.5168 11.0415ZM12.1657 3.76822C15.4602 2.03243 19.3936 1.14413 24.0009 1.14413V-0.936138C19.1255 -0.936138 14.8456 0.00489759 11.196 1.92778L12.1657 3.76822ZM24.0009 1.14413C28.5693 1.14413 32.4845 2.03185 35.78 3.76822L36.7497 1.92778C33.1013 0.00548315 28.8405 -0.936138 24.0009 -0.936138V1.14413ZM35.78 3.76822C39.085 5.50957 41.6265 7.93137 43.429 11.0415L45.2288 9.99845C43.2233 6.53795 40.3887 3.8451 36.7497 1.92778L35.78 3.76822ZM43.4315 11.046C45.2272 14.1091 46.1447 17.7478 46.1447 22H48.225C48.225 17.4415 47.2386 13.4269 45.2262 9.99398L43.4315 11.046ZM46.1447 22C46.1447 26.2128 45.228 29.8541 43.429 32.9585L45.2288 34.0015C47.2377 30.5352 48.225 26.5232 48.225 22H46.1447ZM43.429 32.9585C41.6265 36.0686 39.085 38.4904 35.78 40.2318L36.7497 42.0722C40.3887 40.1549 43.2233 37.462 45.2288 34.0015L43.429 32.9585ZM35.78 40.2318C32.4845 41.9682 28.5693 42.8559 24.0009 42.8559V44.9361C28.8405 44.9361 33.1013 43.9945 36.7497 42.0722L35.78 40.2318ZM24.0009 36.3121C28.2045 36.3121 31.6046 35.0872 34.0504 32.517L32.5434 31.083C30.5838 33.1421 27.7866 34.2319 24.0009 34.2319V36.3121ZM34.0443 32.5233C36.5246 29.9603 37.697 26.4021 37.697 22H35.6167C35.6167 26.0352 34.5491 29.0103 32.5494 31.0767L34.0443 32.5233ZM37.697 22C37.697 17.5979 36.5246 14.0397 34.0443 11.4767L32.5494 12.9233C34.5491 14.9897 35.6167 17.9648 35.6167 22H37.697ZM34.0504 11.483C31.6046 8.91281 28.2045 7.68786 24.0009 7.68786V9.76813C27.7866 9.76813 30.5838 10.8578 32.5434 12.917L34.0504 11.483ZM24.0009 7.68786C19.7965 7.68786 16.3824 8.91301 13.9014 11.4767L15.3963 12.9233C17.3954 10.8577 20.2159 9.76813 24.0009 9.76813V7.68786ZM13.9014 11.4767C11.4211 14.0397 10.2487 17.5979 10.2487 22H12.329C12.329 17.9648 13.3966 14.9897 15.3963 12.9233L13.9014 11.4767ZM10.2487 22C10.2487 26.4021 11.4211 29.9603 13.9014 32.5233L15.3963 31.0767C13.3966 29.0103 12.329 26.0352 12.329 22H10.2487ZM13.9014 32.5233C16.3824 35.087 19.7965 36.3121 24.0009 36.3121V34.2319C20.2159 34.2319 17.3954 33.1423 15.3963 31.0767L13.9014 32.5233ZM73.4003 0.999997H74.4404V-0.0401392H73.4003V0.999997ZM73.4003 43V44.0401H74.4404V43H73.4003ZM62.9283 43H61.8882V44.0401H62.9283V43ZM62.9283 4.584L63.6292 3.81551L61.8882 2.2275V4.584H62.9283ZM68.0243 9.232L68.2031 10.2567L70.2917 9.89228L68.7253 8.46351L68.0243 9.232ZM50.0483 12.368H49.0082V13.6053L50.2271 13.3927L50.0483 12.368ZM50.0483 4.192L49.8394 3.17306L49.0082 3.34349V4.192H50.0483ZM65.6163 0.999997V-0.0401392H65.5108L65.4074 -0.0189414L65.6163 0.999997ZM72.3602 0.999997V43H74.4404V0.999997H72.3602ZM73.4003 41.9599H62.9283V44.0401H73.4003V41.9599ZM63.9684 43V4.584H61.8882V43H63.9684ZM62.2274 5.35249L67.3234 10.0005L68.7253 8.46351L63.6292 3.81551L62.2274 5.35249ZM67.8456 8.20734L49.8696 11.3433L50.2271 13.3927L68.2031 10.2567L67.8456 8.20734ZM51.0885 12.368V4.192H49.0082V12.368H51.0885ZM50.2572 5.21094L65.8252 2.01894L65.4074 -0.0189414L49.8394 3.17306L50.2572 5.21094ZM65.6163 2.04013H73.4003V-0.0401392H65.6163V2.04013Z" fill="url(#paint1_linear_6214_10916)" fill-opacity="0.6" mask="url(#path-1-outside-1_6214_10916)"/>
<defs>
<radialGradient id="paint0_radial_6214_10916" cx="0" cy="0" r="1" gradientUnits="userSpaceOnUse" gradientTransform="translate(38 8.37838) rotate(146.819) scale(123.066 262.132)">
<stop offset="0.205" stop-color="#00FF94"/>
<stop offset="0.745" stop-color="#00FF94" stop-opacity="0"/>
</radialGradient>
<linearGradient id="paint1_linear_6214_10916" x1="160.213" y1="3.59551" x2="102.046" y2="127.596" gradientUnits="userSpaceOnUse">
<stop stop-color="#047586"/>
<stop offset="0.758532" stop-color="#439596"/>
</linearGradient>
</defs>
</svg>
