<svg width="96" height="46" viewBox="0 0 96 46" fill="none" xmlns="http://www.w3.org/2000/svg">
<path d="M52.5435 16.848C52.7675 13.6 53.8315 10.8 55.7355 8.448C57.6395 6.05867 60.1595 4.22933 63.2955 2.96C66.4688 1.65333 70.0528 1 74.0475 1C77.8555 1 81.1781 1.57867 84.0155 2.736C86.8901 3.89333 89.1115 5.51733 90.6795 7.608C92.2848 9.69867 93.0875 12.1067 93.0875 14.832C93.0875 16.96 92.5275 18.9387 91.4075 20.768C90.2875 22.56 88.5141 24.352 86.0875 26.144C83.6608 27.936 80.4688 29.84 76.5115 31.856L64.4155 38.24L63.7995 35.44H94.2635V43.896H53.2715V36.504L71.3035 26.144C74.1781 24.5013 76.4181 23.1013 78.0235 21.944C79.6661 20.7493 80.8235 19.648 81.4955 18.64C82.1675 17.632 82.5035 16.5493 82.5035 15.392C82.5035 14.1973 82.1675 13.1333 81.4955 12.2C80.8608 11.2667 79.8901 10.5387 78.5835 10.016C77.2768 9.49333 75.6341 9.232 73.6555 9.232C71.3035 9.232 69.3621 9.58667 67.8315 10.296C66.3008 10.968 65.1621 11.8827 64.4155 13.04C63.6688 14.1973 63.2208 15.4667 63.0715 16.848H52.5435Z" fill="white" fill-opacity="0.1"/>
<path d="M52.5435 16.848C52.7675 13.6 53.8315 10.8 55.7355 8.448C57.6395 6.05867 60.1595 4.22933 63.2955 2.96C66.4688 1.65333 70.0528 1 74.0475 1C77.8555 1 81.1781 1.57867 84.0155 2.736C86.8901 3.89333 89.1115 5.51733 90.6795 7.608C92.2848 9.69867 93.0875 12.1067 93.0875 14.832C93.0875 16.96 92.5275 18.9387 91.4075 20.768C90.2875 22.56 88.5141 24.352 86.0875 26.144C83.6608 27.936 80.4688 29.84 76.5115 31.856L64.4155 38.24L63.7995 35.44H94.2635V43.896H53.2715V36.504L71.3035 26.144C74.1781 24.5013 76.4181 23.1013 78.0235 21.944C79.6661 20.7493 80.8235 19.648 81.4955 18.64C82.1675 17.632 82.5035 16.5493 82.5035 15.392C82.5035 14.1973 82.1675 13.1333 81.4955 12.2C80.8608 11.2667 79.8901 10.5387 78.5835 10.016C77.2768 9.49333 75.6341 9.232 73.6555 9.232C71.3035 9.232 69.3621 9.58667 67.8315 10.296C66.3008 10.968 65.1621 11.8827 64.4155 13.04C63.6688 14.1973 63.2208 15.4667 63.0715 16.848H52.5435Z" fill="url(#paint0_radial_6386_694)" fill-opacity="0.1"/>
<path d="M52.0446 16.8136L52.0078 17.348H52.5435H63.0715H63.5203L63.5686 16.9017C63.7096 15.5971 64.1316 14.4023 64.8356 13.3111C65.5187 12.2523 66.5722 11.3949 68.0325 10.7538L68.0325 10.7539L68.0417 10.7497C69.4859 10.0804 71.3493 9.732 73.6555 9.732C75.5944 9.732 77.1689 9.9887 78.3978 10.4802C79.6349 10.9751 80.5158 11.6485 81.082 12.4812L81.0818 12.4813L81.0897 12.4922C81.6979 13.3369 82.0035 14.2979 82.0035 15.392C82.0035 16.4459 81.6994 17.4327 81.0794 18.3626C80.4552 19.299 79.3524 20.3591 77.7302 21.539C76.1455 22.6814 73.9229 24.0713 71.0554 25.7099L71.0544 25.7105L53.0224 36.0705L52.7715 36.2146V36.504V43.896V44.396H53.2715H94.2635H94.7635V43.896V35.44V34.94H94.2635H71.7393L76.7384 32.3015C76.7395 32.301 76.7405 32.3004 76.7416 32.2999C80.7117 30.2773 83.9287 28.3597 86.3845 26.5462C88.8418 24.7316 90.6672 22.8959 91.8315 21.033L91.8339 21.0291C93.0016 19.1218 93.5875 17.0529 93.5875 14.832C93.5875 12.0015 92.7514 9.48637 91.0778 7.30575C89.4458 5.13081 87.1453 3.45724 84.2033 2.27263C81.2936 1.08596 77.9046 0.5 74.0475 0.5C69.9986 0.5 66.3489 1.16221 63.1064 2.4971C59.9008 3.79488 57.3084 5.67236 55.3456 8.13491C53.3728 10.5726 52.2751 13.472 52.0446 16.8136Z" stroke="url(#paint1_linear_6386_694)" stroke-opacity="0.6"/>
<path d="M24.8796 44.792C20.1383 44.792 16.0316 43.8773 12.5596 42.048C9.08765 40.2187 6.39965 37.68 4.49565 34.432C2.59165 31.1467 1.63965 27.3013 1.63965 22.896C1.63965 18.528 2.59165 14.7013 4.49565 11.416C6.39965 8.13066 9.08765 5.57333 12.5596 3.744C16.0316 1.91467 20.1383 1 24.8796 1C29.5836 1 33.6716 1.91467 37.1437 3.744C40.6157 5.57333 43.3036 8.13066 45.2076 11.416C47.1116 14.664 48.0636 18.4907 48.0636 22.896C48.0636 27.264 47.1116 31.0907 45.2076 34.376C43.3036 37.6613 40.6157 40.2187 37.1437 42.048C33.6716 43.8773 29.5836 44.792 24.8796 44.792ZM24.8796 36.168C28.8743 36.168 31.973 35.0107 34.1756 32.696C36.4156 30.3813 37.5357 27.1147 37.5357 22.896C37.5357 18.6773 36.4156 15.4107 34.1756 13.096C31.973 10.7813 28.8743 9.624 24.8796 9.624C20.885 9.624 17.7676 10.7813 15.5276 13.096C13.2876 15.4107 12.1676 18.6773 12.1676 22.896C12.1676 27.1147 13.2876 30.3813 15.5276 32.696C17.7676 35.0107 20.885 36.168 24.8796 36.168Z" fill="white" fill-opacity="0.1"/>
<path d="M24.8796 44.792C20.1383 44.792 16.0316 43.8773 12.5596 42.048C9.08765 40.2187 6.39965 37.68 4.49565 34.432C2.59165 31.1467 1.63965 27.3013 1.63965 22.896C1.63965 18.528 2.59165 14.7013 4.49565 11.416C6.39965 8.13066 9.08765 5.57333 12.5596 3.744C16.0316 1.91467 20.1383 1 24.8796 1C29.5836 1 33.6716 1.91467 37.1437 3.744C40.6157 5.57333 43.3036 8.13066 45.2076 11.416C47.1116 14.664 48.0636 18.4907 48.0636 22.896C48.0636 27.264 47.1116 31.0907 45.2076 34.376C43.3036 37.6613 40.6157 40.2187 37.1437 42.048C33.6716 43.8773 29.5836 44.792 24.8796 44.792ZM24.8796 36.168C28.8743 36.168 31.973 35.0107 34.1756 32.696C36.4156 30.3813 37.5357 27.1147 37.5357 22.896C37.5357 18.6773 36.4156 15.4107 34.1756 13.096C31.973 10.7813 28.8743 9.624 24.8796 9.624C20.885 9.624 17.7676 10.7813 15.5276 13.096C13.2876 15.4107 12.1676 18.6773 12.1676 22.896C12.1676 27.1147 13.2876 30.3813 15.5276 32.696C17.7676 35.0107 20.885 36.168 24.8796 36.168Z" fill="url(#paint2_radial_6386_694)" fill-opacity="0.1"/>
<path d="M4.06304 34.6827L4.0643 34.6849C6.01749 38.0168 8.77578 40.6195 12.3266 42.4904C15.8839 44.3647 20.0739 45.292 24.8796 45.292C29.6488 45.292 33.8199 44.3644 37.3767 42.4904C40.929 40.6187 43.6875 37.9962 45.6403 34.6267C47.5947 31.2544 48.5636 27.3386 48.5636 22.896C48.5636 18.4174 47.5953 14.5007 45.6395 11.164C43.6868 7.7951 40.9286 5.17304 37.3767 3.30165C33.8199 1.42762 29.6488 0.5 24.8796 0.5C20.0739 0.5 15.8839 1.42734 12.3266 3.30165C8.7743 5.17327 6.01585 7.79575 4.06305 11.1653C2.10862 14.5376 1.13965 18.4534 1.13965 22.896C1.13965 27.3751 2.10826 31.3097 4.06304 34.6827ZM33.8163 32.3483L33.8134 32.3513C31.7276 34.5432 28.7739 35.668 24.8796 35.668C20.9858 35.668 18.0111 34.5433 15.8869 32.3483C13.7625 30.153 12.6676 27.0265 12.6676 22.896C12.6676 18.7655 13.7625 15.639 15.8869 13.4437C18.0111 11.2487 20.9858 10.124 24.8796 10.124C28.7739 10.124 31.7276 11.2488 33.8134 13.4407L33.8163 13.4437C35.9408 15.639 37.0357 18.7655 37.0357 22.896C37.0357 27.0265 35.9408 30.153 33.8163 32.3483Z" stroke="url(#paint3_linear_6386_694)" stroke-opacity="0.6"/>
<defs>
<radialGradient id="paint0_radial_6386_694" cx="0" cy="0" r="1" gradientUnits="userSpaceOnUse" gradientTransform="translate(47.9024 9.27437) rotate(116.699) scale(75.3893 140.72)">
<stop offset="0.205" stop-color="#00FF94"/>
<stop offset="0.745" stop-color="#00FF94" stop-opacity="0"/>
</radialGradient>
<linearGradient id="paint1_linear_6386_694" x1="90.5133" y1="8.35016" x2="51.3128" y2="23.6235" gradientUnits="userSpaceOnUse">
<stop stop-color="#047586"/>
<stop offset="0.758532" stop-color="#439596"/>
</linearGradient>
<radialGradient id="paint2_radial_6386_694" cx="0" cy="0" r="1" gradientUnits="userSpaceOnUse" gradientTransform="translate(47.9024 9.27437) rotate(116.699) scale(75.3893 140.72)">
<stop offset="0.205" stop-color="#00FF94"/>
<stop offset="0.745" stop-color="#00FF94" stop-opacity="0"/>
</radialGradient>
<linearGradient id="paint3_linear_6386_694" x1="43.8907" y1="8.50369" x2="1.32524" y2="26.5804" gradientUnits="userSpaceOnUse">
<stop stop-color="#047586"/>
<stop offset="0.758532" stop-color="#439596"/>
</linearGradient>
</defs>
</svg>
