<svg width="178" height="178" viewBox="0 0 178 178" fill="none" xmlns="http://www.w3.org/2000/svg">
<mask id="path-1-inside-1_6214_10819" fill="white">
<path d="M178 89C178 138.153 138.153 178 89 178C39.8467 178 0 138.153 0 89C0 39.8467 39.8467 0 89 0C138.153 0 178 39.8467 178 89ZM31.15 89C31.15 120.95 57.0503 146.85 89 146.85C120.95 146.85 146.85 120.95 146.85 89C146.85 57.0503 120.95 31.15 89 31.15C57.0503 31.15 31.15 57.0503 31.15 89Z"/>
</mask>
<path d="M178 89C178 138.153 138.153 178 89 178C39.8467 178 0 138.153 0 89C0 39.8467 39.8467 0 89 0C138.153 0 178 39.8467 178 89ZM31.15 89C31.15 120.95 57.0503 146.85 89 146.85C120.95 146.85 146.85 120.95 146.85 89C146.85 57.0503 120.95 31.15 89 31.15C57.0503 31.15 31.15 57.0503 31.15 89Z" fill="white" fill-opacity="0.1"/>
<path d="M178 89C178 138.153 138.153 178 89 178C39.8467 178 0 138.153 0 89C0 39.8467 39.8467 0 89 0C138.153 0 178 39.8467 178 89ZM31.15 89C31.15 120.95 57.0503 146.85 89 146.85C120.95 146.85 146.85 120.95 146.85 89C146.85 57.0503 120.95 31.15 89 31.15C57.0503 31.15 31.15 57.0503 31.15 89Z" fill="url(#paint0_radial_6214_10819)" fill-opacity="0.1"/>
<path d="M178 89C178 138.153 138.153 178 89 178C39.8467 178 0 138.153 0 89C0 39.8467 39.8467 0 89 0C138.153 0 178 39.8467 178 89ZM31.15 89C31.15 120.95 57.0503 146.85 89 146.85C120.95 146.85 146.85 120.95 146.85 89C146.85 57.0503 120.95 31.15 89 31.15C57.0503 31.15 31.15 57.0503 31.15 89Z" stroke="url(#paint1_linear_6214_10819)" stroke-opacity="0.6" stroke-width="2" mask="url(#path-1-inside-1_6214_10819)"/>
<path d="M178 89C178 108.273 171.744 127.025 160.172 142.437C148.6 157.85 132.338 169.089 113.83 174.466C95.3225 179.843 75.5695 179.067 57.5407 172.255C39.512 165.442 24.1818 152.961 13.8548 136.689C3.52785 120.416 -1.23778 101.231 0.274358 82.0171C1.7865 62.8036 9.49469 44.6001 22.2401 30.1432C34.9856 15.6864 52.0794 5.75747 70.9519 1.84917C89.8245 -2.05914 109.456 0.264375 126.894 8.4704L113.631 36.6558C102.296 31.3218 89.5359 29.8116 77.2688 32.352C65.0016 34.8924 53.8906 41.3462 45.6061 50.7431C37.3216 60.1401 32.3112 71.9723 31.3283 84.4611C30.3454 96.9499 33.4431 109.42 40.1556 119.998C46.8682 130.575 56.8328 138.687 68.5515 143.115C80.2702 147.544 93.1096 148.048 105.14 144.553C117.17 141.058 127.74 133.752 135.262 123.734C142.783 113.716 146.85 101.527 146.85 89H178Z" fill="white" fill-opacity="0.1"/>
<path d="M178 89C178 108.273 171.744 127.025 160.172 142.437C148.6 157.85 132.338 169.089 113.83 174.466C95.3225 179.843 75.5695 179.067 57.5407 172.255C39.512 165.442 24.1818 152.961 13.8548 136.689C3.52785 120.416 -1.23778 101.231 0.274358 82.0171C1.7865 62.8036 9.49469 44.6001 22.2401 30.1432C34.9856 15.6864 52.0794 5.75747 70.9519 1.84917C89.8245 -2.05914 109.456 0.264375 126.894 8.4704L113.631 36.6558C102.296 31.3218 89.5359 29.8116 77.2688 32.352C65.0016 34.8924 53.8906 41.3462 45.6061 50.7431C37.3216 60.1401 32.3112 71.9723 31.3283 84.4611C30.3454 96.9499 33.4431 109.42 40.1556 119.998C46.8682 130.575 56.8328 138.687 68.5515 143.115C80.2702 147.544 93.1096 148.048 105.14 144.553C117.17 141.058 127.74 133.752 135.262 123.734C142.783 113.716 146.85 101.527 146.85 89H178Z" fill="url(#paint2_radial_6214_10819)" fill-opacity="0.3"/>
<defs>
<radialGradient id="paint0_radial_6214_10819" cx="0" cy="0" r="1" gradientUnits="userSpaceOnUse" gradientTransform="translate(89 45.7027) rotate(106.034) scale(222.746 274.968)">
<stop offset="0.205" stop-color="#00FF94"/>
<stop offset="0.745" stop-color="#00FF94" stop-opacity="0"/>
</radialGradient>
<linearGradient id="paint1_linear_6214_10819" x1="162" y1="30.5" x2="-4" y2="97" gradientUnits="userSpaceOnUse">
<stop stop-color="#047586"/>
<stop offset="0.758532" stop-color="#439596"/>
</linearGradient>
<radialGradient id="paint2_radial_6214_10819" cx="0" cy="0" r="1" gradientUnits="userSpaceOnUse" gradientTransform="translate(25.5 136) rotate(-32.8236) scale(155.889)">
<stop offset="0.589879" stop-color="#00FF94"/>
<stop offset="0.862715" stop-color="#00FF94" stop-opacity="0"/>
</radialGradient>
</defs>
</svg>
