<svg width="145" height="20" viewBox="0 0 145 20" fill="none" xmlns="http://www.w3.org/2000/svg">
<path d="M4.01532 19.827C4.40169 20.1286 4.89171 20.0249 5.47597 19.6009L10.461 15.9352L15.4555 19.6009C16.0397 20.0249 16.5203 20.1286 16.9161 19.827C17.3025 19.535 17.3873 19.0543 17.1517 18.3664L15.1822 12.505L20.2143 8.88639C20.7986 8.47178 21.0342 8.03826 20.8834 7.56709C20.7327 7.11476 20.2897 6.8886 19.5642 6.89801L13.3917 6.93571L11.5164 1.04601C11.2903 0.34867 10.951 0 10.461 0C9.98042 0 9.64116 0.34867 9.41504 1.04601L7.53972 6.93571L1.36732 6.89801C0.641705 6.8886 0.1988 7.11476 0.0480234 7.56709C-0.112177 8.03826 0.132835 8.47178 0.717093 8.88639L5.74925 12.505L3.77974 18.3664C3.54415 19.0543 3.62896 19.535 4.01532 19.827Z" fill="white" fill-opacity="0.1"/>
<path d="M4.01532 19.827C4.40169 20.1286 4.89171 20.0249 5.47597 19.6009L10.461 15.9352L15.4555 19.6009C16.0397 20.0249 16.5203 20.1286 16.9161 19.827C17.3025 19.535 17.3873 19.0543 17.1517 18.3664L15.1822 12.505L20.2143 8.88639C20.7986 8.47178 21.0342 8.03826 20.8834 7.56709C20.7327 7.11476 20.2897 6.8886 19.5642 6.89801L13.3917 6.93571L11.5164 1.04601C11.2903 0.34867 10.951 0 10.461 0C9.98042 0 9.64116 0.34867 9.41504 1.04601L7.53972 6.93571L1.36732 6.89801C0.641705 6.8886 0.1988 7.11476 0.0480234 7.56709C-0.112177 8.03826 0.132835 8.47178 0.717093 8.88639L5.74925 12.505L3.77974 18.3664C3.54415 19.0543 3.62896 19.535 4.01532 19.827Z" fill="url(#paint0_radial_6214_10836)" fill-opacity="0.8"/>
<path d="M4.32296 19.4329L4.32299 19.4328L4.31684 19.4282C4.22566 19.3593 4.17674 19.2796 4.15763 19.1638C4.1358 19.0315 4.15036 18.8275 4.25278 18.5284L4.2537 18.5257L6.22321 12.6643L6.34074 12.3145L6.04116 12.0991L1.00901 8.48045L1.00901 8.48044L1.00646 8.47863C0.747642 8.29497 0.610008 8.1381 0.546724 8.01675C0.49301 7.91375 0.487073 7.82903 0.521418 7.72804L0.522365 7.7252C0.554485 7.62884 0.6107 7.55997 0.718571 7.50517C0.841241 7.44285 1.04446 7.39386 1.36083 7.39798L1.36427 7.398L7.53667 7.4357L7.90454 7.43795L8.01616 7.08741L9.89065 1.20024C9.89078 1.19984 9.89091 1.19944 9.89104 1.19904C9.99139 0.88999 10.1011 0.710793 10.1974 0.61385C10.2798 0.530829 10.3583 0.5 10.461 0.5C10.571 0.5 10.6519 0.532807 10.7341 0.615059C10.8306 0.711504 10.94 0.889875 11.0404 1.19898C11.0405 1.1994 11.0407 1.19982 11.0408 1.20024L12.9153 7.08741L13.0269 7.43795L13.3948 7.4357L19.5672 7.39801L19.5707 7.39797C19.887 7.39386 20.0902 7.44285 20.2129 7.50517C20.3197 7.55944 20.3759 7.6275 20.4081 7.72239C20.441 7.82704 20.4335 7.91539 20.3802 8.01862C20.3177 8.13979 20.1822 8.29609 19.925 8.47862L19.9224 8.48045L14.8903 12.0991L14.5907 12.3145L14.7082 12.6643L16.6778 18.5257L16.6787 18.5284C16.7811 18.8274 16.7957 19.0315 16.7738 19.1638C16.7547 19.2796 16.7058 19.3593 16.6146 19.4282L16.6131 19.4293C16.5302 19.4925 16.4524 19.5122 16.3402 19.4931C16.2053 19.4702 16.0123 19.3871 15.7501 19.1969C15.7498 19.1967 15.7495 19.1965 15.7492 19.1963L10.7568 15.5321L10.4607 15.3147L10.1648 15.5324L5.18229 19.1963C5.1819 19.1965 5.18151 19.1968 5.18112 19.1971C4.92036 19.3862 4.72486 19.4699 4.58809 19.4931C4.47265 19.5126 4.39769 19.4912 4.32296 19.4329ZM1.36732 6.89801C0.641705 6.8886 0.1988 7.11476 0.0480234 7.56709L1.36732 6.89801Z" stroke="url(#paint1_linear_6214_10836)" stroke-opacity="0.6"/>
<path d="M34.9431 19.827C35.3294 20.1286 35.8194 20.0249 36.4037 19.6009L41.3887 15.9352L46.3832 19.6009C46.9674 20.0249 47.4481 20.1286 47.8439 19.827C48.2303 19.535 48.315 19.0543 48.0795 18.3664L46.1099 12.505L51.142 8.88639C51.7263 8.47178 51.962 8.03826 51.8112 7.56709C51.6604 7.11476 51.2175 6.8886 50.4919 6.89801L44.3195 6.93571L42.4441 1.04601C42.218 0.34867 41.8788 0 41.3887 0C40.9082 0 40.5689 0.34867 40.3428 1.04601L38.4675 6.93571L32.2951 6.89801C31.5694 6.8886 31.1265 7.11476 30.9758 7.56709C30.8156 8.03826 31.0606 8.47178 31.6448 8.88639L36.677 12.505L34.7075 18.3664C34.4719 19.0543 34.5567 19.535 34.9431 19.827Z" fill="white" fill-opacity="0.1"/>
<path d="M34.9431 19.827C35.3294 20.1286 35.8194 20.0249 36.4037 19.6009L41.3887 15.9352L46.3832 19.6009C46.9674 20.0249 47.4481 20.1286 47.8439 19.827C48.2303 19.535 48.315 19.0543 48.0795 18.3664L46.1099 12.505L51.142 8.88639C51.7263 8.47178 51.962 8.03826 51.8112 7.56709C51.6604 7.11476 51.2175 6.8886 50.4919 6.89801L44.3195 6.93571L42.4441 1.04601C42.218 0.34867 41.8788 0 41.3887 0C40.9082 0 40.5689 0.34867 40.3428 1.04601L38.4675 6.93571L32.2951 6.89801C31.5694 6.8886 31.1265 7.11476 30.9758 7.56709C30.8156 8.03826 31.0606 8.47178 31.6448 8.88639L36.677 12.505L34.7075 18.3664C34.4719 19.0543 34.5567 19.535 34.9431 19.827Z" fill="url(#paint2_radial_6214_10836)" fill-opacity="0.8"/>
<path d="M35.2507 19.4329L35.2507 19.4328L35.2446 19.4282C35.1534 19.3593 35.1045 19.2796 35.0854 19.1638C35.0635 19.0315 35.0781 18.8275 35.1805 18.5284L35.1814 18.5257L37.1509 12.6643L37.2685 12.3145L36.9689 12.0991L31.9367 8.48045L31.9367 8.48044L31.9342 8.47863C31.6754 8.29497 31.5377 8.1381 31.4745 8.01675C31.4207 7.91375 31.4148 7.82903 31.4492 7.72804L31.4501 7.7252C31.4822 7.62884 31.5384 7.55997 31.6463 7.50517C31.769 7.44285 31.9722 7.39386 32.2886 7.39798L32.292 7.398L38.4644 7.4357L38.8323 7.43795L38.9439 7.08741L40.8184 1.20024C40.8185 1.19984 40.8186 1.19944 40.8188 1.19904C40.9191 0.88999 41.0288 0.710793 41.1251 0.61385C41.2075 0.530829 41.2861 0.5 41.3887 0.5C41.4988 0.5 41.5796 0.532807 41.6618 0.615059C41.7583 0.711504 41.8677 0.889875 41.9681 1.19898C41.9683 1.1994 41.9684 1.19982 41.9685 1.20024L43.8431 7.08741L43.9547 7.43795L44.3225 7.4357L50.495 7.39801L50.4984 7.39797C50.8147 7.39386 51.018 7.44285 51.1406 7.50517C51.2474 7.55944 51.3036 7.6275 51.3359 7.72239C51.3687 7.82704 51.3612 7.91539 51.308 8.01862C51.2454 8.13979 51.1099 8.29609 50.8527 8.47862L50.8501 8.48045L45.818 12.0991L45.5184 12.3145L45.6359 12.6643L47.6055 18.5257L47.6064 18.5284C47.7088 18.8274 47.7234 19.0315 47.7016 19.1638C47.6825 19.2796 47.6335 19.3593 47.5424 19.4282L47.5409 19.4293C47.458 19.4925 47.3802 19.5122 47.2679 19.4931C47.1331 19.4702 46.94 19.3871 46.6779 19.1969C46.6775 19.1967 46.6772 19.1965 46.6769 19.1963L41.6846 15.5321L41.3884 15.3147L41.0925 15.5324L36.11 19.1963C36.1096 19.1965 36.1092 19.1968 36.1089 19.1971C35.8481 19.3862 35.6526 19.4699 35.5158 19.4931C35.4004 19.5126 35.3254 19.4912 35.2507 19.4329ZM32.2951 6.89801C31.5694 6.8886 31.1265 7.11476 30.9758 7.56709L32.2951 6.89801Z" stroke="url(#paint3_linear_6214_10836)" stroke-opacity="0.6"/>
<path d="M65.8708 19.827C66.2572 20.1286 66.7472 20.0249 67.3314 19.6009L72.3164 15.9352L77.311 19.6009C77.8952 20.0249 78.3758 20.1286 78.7716 19.827C79.158 19.535 79.2427 19.0543 79.0072 18.3664L77.0376 12.505L82.0698 8.88639C82.6541 8.47178 82.8897 8.03826 82.7389 7.56709C82.5881 7.11476 82.1452 6.8886 81.4196 6.89801L75.2472 6.93571L73.3719 1.04601C73.1458 0.34867 72.8065 0 72.3164 0C71.8359 0 71.4966 0.34867 71.2705 1.04601L69.3952 6.93571L63.2228 6.89801C62.4972 6.8886 62.0543 7.11476 61.9035 7.56709C61.7433 8.03826 61.9883 8.47178 62.5726 8.88639L67.6047 12.505L65.6352 18.3664C65.3996 19.0543 65.4844 19.535 65.8708 19.827Z" fill="white" fill-opacity="0.1"/>
<path d="M65.8708 19.827C66.2572 20.1286 66.7472 20.0249 67.3314 19.6009L72.3164 15.9352L77.311 19.6009C77.8952 20.0249 78.3758 20.1286 78.7716 19.827C79.158 19.535 79.2427 19.0543 79.0072 18.3664L77.0376 12.505L82.0698 8.88639C82.6541 8.47178 82.8897 8.03826 82.7389 7.56709C82.5881 7.11476 82.1452 6.8886 81.4196 6.89801L75.2472 6.93571L73.3719 1.04601C73.1458 0.34867 72.8065 0 72.3164 0C71.8359 0 71.4966 0.34867 71.2705 1.04601L69.3952 6.93571L63.2228 6.89801C62.4972 6.8886 62.0543 7.11476 61.9035 7.56709C61.7433 8.03826 61.9883 8.47178 62.5726 8.88639L67.6047 12.505L65.6352 18.3664C65.3996 19.0543 65.4844 19.535 65.8708 19.827Z" fill="url(#paint4_radial_6214_10836)" fill-opacity="0.8"/>
<path d="M66.1784 19.4329L66.1785 19.4328L66.1723 19.4282C66.0811 19.3593 66.0322 19.2796 66.0131 19.1638C65.9913 19.0315 66.0058 18.8275 66.1082 18.5284L66.1092 18.5257L68.0787 12.6643L68.1962 12.3145L67.8966 12.0991L62.8645 8.48045L62.8645 8.48044L62.8619 8.47863C62.6031 8.29497 62.4655 8.1381 62.4022 8.01675C62.3485 7.91375 62.3425 7.82903 62.3769 7.72804L62.3778 7.7252C62.41 7.62884 62.4662 7.55997 62.574 7.50517C62.6967 7.44285 62.8999 7.39386 63.2163 7.39798L63.2197 7.398L69.3921 7.4357L69.76 7.43795L69.8716 7.08741L71.7461 1.20024C71.7463 1.19984 71.7464 1.19944 71.7465 1.19904C71.8469 0.88999 71.9565 0.710793 72.0528 0.61385C72.1353 0.530829 72.2138 0.5 72.3164 0.5C72.4265 0.5 72.5073 0.532807 72.5896 0.615059C72.686 0.711504 72.7955 0.889875 72.8959 1.19898C72.896 1.1994 72.8961 1.19982 72.8963 1.20024L74.7708 7.08741L74.8824 7.43795L75.2503 7.4357L81.4227 7.39801L81.4261 7.39797C81.7425 7.39386 81.9457 7.44285 82.0684 7.50517C82.1752 7.55944 82.2313 7.6275 82.2636 7.72239C82.2965 7.82704 82.289 7.91539 82.2357 8.01862C82.1731 8.13979 82.0377 8.29609 81.7804 8.47862L81.7779 8.48045L76.7457 12.0991L76.4461 12.3145L76.5637 12.6643L78.5333 18.5257L78.5342 18.5284C78.6366 18.8274 78.6511 19.0315 78.6293 19.1638C78.6102 19.2796 78.5613 19.3593 78.4701 19.4282L78.4686 19.4293C78.3857 19.4925 78.3079 19.5122 78.1957 19.4931C78.0608 19.4702 77.8677 19.3871 77.6056 19.1969C77.6053 19.1967 77.605 19.1965 77.6047 19.1963L72.6123 15.5321L72.3162 15.3147L72.0202 15.5324L67.0378 19.1963C67.0374 19.1965 67.037 19.1968 67.0366 19.1971C66.7758 19.3862 66.5803 19.4699 66.4436 19.4931C66.3281 19.5126 66.2532 19.4912 66.1784 19.4329ZM63.2228 6.89801C62.4972 6.8886 62.0543 7.11476 61.9035 7.56709L63.2228 6.89801Z" stroke="url(#paint5_linear_6214_10836)" stroke-opacity="0.6"/>
<path d="M96.799 19.827C97.1854 20.1286 97.6754 20.0249 98.2597 19.6009L103.245 15.9352L108.239 19.6009C108.823 20.0249 109.304 20.1286 109.7 19.827C110.086 19.535 110.171 19.0543 109.935 18.3664L107.966 12.505L112.998 8.88639C113.582 8.47178 113.818 8.03826 113.667 7.56709C113.516 7.11476 113.073 6.8886 112.348 6.89801L106.175 6.93571L104.3 1.04601C104.074 0.34867 103.735 0 103.245 0C102.764 0 102.425 0.34867 102.199 1.04601L100.323 6.93571L94.151 6.89801C93.4254 6.8886 92.9825 7.11476 92.8317 7.56709C92.6715 8.03826 92.9165 8.47178 93.5008 8.88639L98.5329 12.505L96.5634 18.3664C96.3278 19.0543 96.4127 19.535 96.799 19.827Z" fill="white" fill-opacity="0.1"/>
<path d="M96.799 19.827C97.1854 20.1286 97.6754 20.0249 98.2597 19.6009L103.245 15.9352L108.239 19.6009C108.823 20.0249 109.304 20.1286 109.7 19.827C110.086 19.535 110.171 19.0543 109.935 18.3664L107.966 12.505L112.998 8.88639C113.582 8.47178 113.818 8.03826 113.667 7.56709C113.516 7.11476 113.073 6.8886 112.348 6.89801L106.175 6.93571L104.3 1.04601C104.074 0.34867 103.735 0 103.245 0C102.764 0 102.425 0.34867 102.199 1.04601L100.323 6.93571L94.151 6.89801C93.4254 6.8886 92.9825 7.11476 92.8317 7.56709C92.6715 8.03826 92.9165 8.47178 93.5008 8.88639L98.5329 12.505L96.5634 18.3664C96.3278 19.0543 96.4127 19.535 96.799 19.827Z" fill="url(#paint6_radial_6214_10836)" fill-opacity="0.8"/>
<path d="M97.1066 19.4329L97.1067 19.4328L97.1005 19.4282C97.0093 19.3593 96.9604 19.2796 96.9413 19.1638C96.9195 19.0315 96.934 18.8275 97.0365 18.5284L97.0374 18.5257L99.0069 12.6643L99.1244 12.3145L98.8249 12.0991L93.7927 8.48045L93.7927 8.48044L93.7901 8.47863C93.5313 8.29497 93.3937 8.1381 93.3304 8.01675C93.2767 7.91375 93.2708 7.82903 93.3051 7.72804L93.3061 7.7252C93.3382 7.62884 93.3944 7.55997 93.5023 7.50517C93.6249 7.44285 93.8282 7.39386 94.1445 7.39798L94.148 7.398L100.32 7.4357L100.688 7.43795L100.8 7.08741L102.674 1.20024C102.674 1.19984 102.675 1.19944 102.675 1.19904C102.775 0.88999 102.885 0.710793 102.981 0.61385C103.063 0.530829 103.142 0.5 103.245 0.5C103.355 0.5 103.436 0.532807 103.518 0.615059C103.614 0.711504 103.724 0.889875 103.824 1.19898C103.824 1.1994 103.824 1.19982 103.824 1.20024L105.699 7.08741L105.811 7.43795L106.178 7.4357L112.351 7.39801L112.354 7.39797C112.671 7.39386 112.874 7.44285 112.997 7.50517C113.103 7.55944 113.16 7.6275 113.192 7.72239C113.225 7.82704 113.217 7.91539 113.164 8.01862C113.101 8.13979 112.966 8.29609 112.709 8.47862L112.706 8.48045L107.674 12.0991L107.374 12.3145L107.492 12.6643L109.461 18.5257L109.462 18.5284C109.565 18.8274 109.579 19.0315 109.558 19.1638C109.538 19.2796 109.49 19.3593 109.398 19.4282L109.397 19.4293C109.314 19.4925 109.236 19.5122 109.124 19.4931C108.989 19.4702 108.796 19.3871 108.534 19.1969C108.533 19.1967 108.533 19.1965 108.533 19.1963L103.541 15.5321L103.244 15.3147L102.948 15.5324L97.966 19.1963C97.9656 19.1965 97.9652 19.1968 97.9648 19.1971C97.7041 19.3862 97.5086 19.4699 97.3718 19.4931C97.2563 19.5126 97.1814 19.4912 97.1066 19.4329ZM94.151 6.89801C93.4254 6.8886 92.9825 7.11476 92.8317 7.56709L94.151 6.89801Z" stroke="url(#paint7_linear_6214_10836)" stroke-opacity="0.6"/>
<path d="M127.727 19.827C128.113 20.1286 128.603 20.0249 129.187 19.6009L134.172 15.9352L139.167 19.6009C139.751 20.0249 140.232 20.1286 140.628 19.827C141.014 19.535 141.099 19.0543 140.863 18.3664L138.894 12.505L143.926 8.88639C144.51 8.47178 144.746 8.03826 144.595 7.56709C144.444 7.11476 144.001 6.8886 143.276 6.89801L137.103 6.93571L135.228 1.04601C135.002 0.34867 134.662 0 134.172 0C133.692 0 133.353 0.34867 133.126 1.04601L131.251 6.93571L125.079 6.89801C124.353 6.8886 123.91 7.11476 123.759 7.56709C123.599 8.03826 123.844 8.47178 124.429 8.88639L129.461 12.505L127.491 18.3664C127.256 19.0543 127.34 19.535 127.727 19.827Z" fill="white" fill-opacity="0.1"/>
<path d="M127.727 19.827C128.113 20.1286 128.603 20.0249 129.187 19.6009L134.172 15.9352L139.167 19.6009C139.751 20.0249 140.232 20.1286 140.628 19.827C141.014 19.535 141.099 19.0543 140.863 18.3664L138.894 12.505L143.926 8.88639C144.51 8.47178 144.746 8.03826 144.595 7.56709C144.444 7.11476 144.001 6.8886 143.276 6.89801L137.103 6.93571L135.228 1.04601C135.002 0.34867 134.662 0 134.172 0C133.692 0 133.353 0.34867 133.126 1.04601L131.251 6.93571L125.079 6.89801C124.353 6.8886 123.91 7.11476 123.759 7.56709C123.599 8.03826 123.844 8.47178 124.429 8.88639L129.461 12.505L127.491 18.3664C127.256 19.0543 127.34 19.535 127.727 19.827Z" fill="url(#paint8_radial_6214_10836)" fill-opacity="0.8"/>
<path d="M128.034 19.4329L128.034 19.4328L128.028 19.4282C127.937 19.3593 127.888 19.2796 127.869 19.1638C127.847 19.0315 127.862 18.8275 127.964 18.5284L127.965 18.5257L129.935 12.6643L130.052 12.3145L129.753 12.0991L124.72 8.48045L124.72 8.48044L124.718 8.47863C124.459 8.29497 124.321 8.1381 124.258 8.01675C124.204 7.91375 124.198 7.82903 124.233 7.72804L124.234 7.7252C124.266 7.62884 124.322 7.55997 124.43 7.50517C124.553 7.44285 124.756 7.39386 125.072 7.39798L125.076 7.398L131.248 7.4357L131.616 7.43795L131.728 7.08741L133.602 1.20024C133.602 1.19984 133.602 1.19944 133.602 1.19904C133.703 0.88999 133.812 0.710793 133.909 0.61385C133.991 0.530829 134.07 0.5 134.172 0.5C134.282 0.5 134.363 0.532807 134.446 0.615059C134.542 0.711504 134.651 0.889875 134.752 1.19898C134.752 1.1994 134.752 1.19982 134.752 1.20024L136.627 7.08741L136.738 7.43795L137.106 7.4357L143.279 7.39801L143.282 7.39797C143.598 7.39386 143.802 7.44285 143.924 7.50517C144.031 7.55944 144.087 7.6275 144.12 7.72239C144.152 7.82704 144.145 7.91539 144.092 8.01862C144.029 8.13979 143.894 8.29609 143.636 8.47862L143.634 8.48045L138.602 12.0991L138.302 12.3145L138.42 12.6643L140.389 18.5257L140.39 18.5284C140.493 18.8274 140.507 19.0315 140.485 19.1638C140.466 19.2796 140.417 19.3593 140.326 19.4282L140.325 19.4293C140.242 19.4925 140.164 19.5122 140.052 19.4931C139.917 19.4702 139.724 19.3871 139.462 19.1969C139.461 19.1967 139.461 19.1965 139.461 19.1963L134.468 15.5321L134.172 15.3147L133.876 15.5324L128.894 19.1963C128.893 19.1965 128.893 19.1968 128.893 19.1971C128.632 19.3862 128.436 19.4699 128.3 19.4931C128.184 19.5126 128.109 19.4912 128.034 19.4329ZM125.079 6.89801C124.353 6.8886 123.91 7.11476 123.759 7.56709L125.079 6.89801Z" stroke="url(#paint9_linear_6214_10836)" stroke-opacity="0.6"/>
<defs>
<radialGradient id="paint0_radial_6214_10836" cx="0" cy="0" r="1" gradientUnits="userSpaceOnUse" gradientTransform="translate(10.4639 5.13513) rotate(106.737) scale(25.1181 32.2122)">
<stop offset="0.205" stop-color="#00FF94"/>
<stop offset="0.745" stop-color="#00FF94" stop-opacity="0"/>
</radialGradient>
<linearGradient id="paint1_linear_6214_10836" x1="19.0467" y1="3.42697" x2="-0.217374" y2="11.5022" gradientUnits="userSpaceOnUse">
<stop stop-color="#047586"/>
<stop offset="0.758532" stop-color="#439596"/>
</linearGradient>
<radialGradient id="paint2_radial_6214_10836" cx="0" cy="0" r="1" gradientUnits="userSpaceOnUse" gradientTransform="translate(41.3917 5.13513) rotate(106.737) scale(25.1181 32.2122)">
<stop offset="0.205" stop-color="#00FF94"/>
<stop offset="0.745" stop-color="#00FF94" stop-opacity="0"/>
</radialGradient>
<linearGradient id="paint3_linear_6214_10836" x1="49.9744" y1="3.42697" x2="30.7104" y2="11.5022" gradientUnits="userSpaceOnUse">
<stop stop-color="#047586"/>
<stop offset="0.758532" stop-color="#439596"/>
</linearGradient>
<radialGradient id="paint4_radial_6214_10836" cx="0" cy="0" r="1" gradientUnits="userSpaceOnUse" gradientTransform="translate(72.3194 5.13513) rotate(106.737) scale(25.1181 32.2122)">
<stop offset="0.205" stop-color="#00FF94"/>
<stop offset="0.745" stop-color="#00FF94" stop-opacity="0"/>
</radialGradient>
<linearGradient id="paint5_linear_6214_10836" x1="80.9022" y1="3.42697" x2="61.6381" y2="11.5022" gradientUnits="userSpaceOnUse">
<stop stop-color="#047586"/>
<stop offset="0.758532" stop-color="#439596"/>
</linearGradient>
<radialGradient id="paint6_radial_6214_10836" cx="0" cy="0" r="1" gradientUnits="userSpaceOnUse" gradientTransform="translate(103.248 5.13513) rotate(106.737) scale(25.1181 32.2122)">
<stop offset="0.205" stop-color="#00FF94"/>
<stop offset="0.745" stop-color="#00FF94" stop-opacity="0"/>
</radialGradient>
<linearGradient id="paint7_linear_6214_10836" x1="111.83" y1="3.42697" x2="92.5663" y2="11.5022" gradientUnits="userSpaceOnUse">
<stop stop-color="#047586"/>
<stop offset="0.758532" stop-color="#439596"/>
</linearGradient>
<radialGradient id="paint8_radial_6214_10836" cx="0" cy="0" r="1" gradientUnits="userSpaceOnUse" gradientTransform="translate(134.175 5.13513) rotate(106.737) scale(25.1181 32.2122)">
<stop offset="0.205" stop-color="#00FF94"/>
<stop offset="0.745" stop-color="#00FF94" stop-opacity="0"/>
</radialGradient>
<linearGradient id="paint9_linear_6214_10836" x1="142.758" y1="3.42697" x2="123.494" y2="11.5022" gradientUnits="userSpaceOnUse">
<stop stop-color="#047586"/>
<stop offset="0.758532" stop-color="#439596"/>
</linearGradient>
</defs>
</svg>
