<svg width="178" height="178" viewBox="0 0 178 178" fill="none" xmlns="http://www.w3.org/2000/svg">
<mask id="path-1-inside-1_6214_10824" fill="white">
<path d="M178 89C178 138.153 138.153 178 89 178C39.8467 178 0 138.153 0 89C0 39.8467 39.8467 0 89 0C138.153 0 178 39.8467 178 89ZM31.15 89C31.15 120.95 57.0503 146.85 89 146.85C120.95 146.85 146.85 120.95 146.85 89C146.85 57.0503 120.95 31.15 89 31.15C57.0503 31.15 31.15 57.0503 31.15 89Z"/>
</mask>
<path d="M178 89C178 138.153 138.153 178 89 178C39.8467 178 0 138.153 0 89C0 39.8467 39.8467 0 89 0C138.153 0 178 39.8467 178 89ZM31.15 89C31.15 120.95 57.0503 146.85 89 146.85C120.95 146.85 146.85 120.95 146.85 89C146.85 57.0503 120.95 31.15 89 31.15C57.0503 31.15 31.15 57.0503 31.15 89Z" fill="white" fill-opacity="0.1"/>
<path d="M178 89C178 138.153 138.153 178 89 178C39.8467 178 0 138.153 0 89C0 39.8467 39.8467 0 89 0C138.153 0 178 39.8467 178 89ZM31.15 89C31.15 120.95 57.0503 146.85 89 146.85C120.95 146.85 146.85 120.95 146.85 89C146.85 57.0503 120.95 31.15 89 31.15C57.0503 31.15 31.15 57.0503 31.15 89Z" fill="url(#paint0_radial_6214_10824)" fill-opacity="0.1"/>
<path d="M178 89C178 138.153 138.153 178 89 178C39.8467 178 0 138.153 0 89C0 39.8467 39.8467 0 89 0C138.153 0 178 39.8467 178 89ZM31.15 89C31.15 120.95 57.0503 146.85 89 146.85C120.95 146.85 146.85 120.95 146.85 89C146.85 57.0503 120.95 31.15 89 31.15C57.0503 31.15 31.15 57.0503 31.15 89Z" stroke="url(#paint1_linear_6214_10824)" stroke-opacity="0.6" stroke-width="2" mask="url(#path-1-inside-1_6214_10824)"/>
<path d="M178 89C178 110.672 170.092 131.6 155.76 147.857C141.428 164.113 121.656 174.582 100.155 177.298C78.6532 180.014 56.8994 174.792 38.9746 162.61C21.0498 150.428 8.1858 132.125 2.7961 111.133C-2.5936 90.1419 -0.138636 67.9051 9.70042 48.5948C19.5395 29.2846 36.0864 14.228 56.2369 6.24989C76.3874 -1.72824 98.7565 -2.07965 119.148 5.26161C139.539 12.6029 156.551 27.1323 166.991 46.1239L139.694 61.1306C132.908 48.786 121.85 39.3419 108.596 34.57C95.3418 29.7982 80.8018 30.0266 67.704 35.2124C54.6062 40.3982 43.8507 50.185 37.4553 62.7367C31.0599 75.2883 29.4642 89.7422 32.9675 103.387C36.4708 117.031 44.8324 128.929 56.4835 136.847C68.1346 144.765 82.2746 148.159 96.2505 146.394C110.226 144.628 123.078 137.824 132.394 127.257C141.71 116.69 146.85 103.087 146.85 89H178Z" fill="white" fill-opacity="0.1"/>
<path d="M178 89C178 110.672 170.092 131.6 155.76 147.857C141.428 164.113 121.656 174.582 100.155 177.298C78.6532 180.014 56.8994 174.792 38.9746 162.61C21.0498 150.428 8.1858 132.125 2.7961 111.133C-2.5936 90.1419 -0.138636 67.9051 9.70042 48.5948C19.5395 29.2846 36.0864 14.228 56.2369 6.24989C76.3874 -1.72824 98.7565 -2.07965 119.148 5.26161C139.539 12.6029 156.551 27.1323 166.991 46.1239L139.694 61.1306C132.908 48.786 121.85 39.3419 108.596 34.57C95.3418 29.7982 80.8018 30.0266 67.704 35.2124C54.6062 40.3982 43.8507 50.185 37.4553 62.7367C31.0599 75.2883 29.4642 89.7422 32.9675 103.387C36.4708 117.031 44.8324 128.929 56.4835 136.847C68.1346 144.765 82.2746 148.159 96.2505 146.394C110.226 144.628 123.078 137.824 132.394 127.257C141.71 116.69 146.85 103.087 146.85 89H178Z" fill="url(#paint2_radial_6214_10824)" fill-opacity="0.3"/>
<defs>
<radialGradient id="paint0_radial_6214_10824" cx="0" cy="0" r="1" gradientUnits="userSpaceOnUse" gradientTransform="translate(89 45.7027) rotate(106.034) scale(222.746 274.968)">
<stop offset="0.205" stop-color="#00FF94"/>
<stop offset="0.745" stop-color="#00FF94" stop-opacity="0"/>
</radialGradient>
<linearGradient id="paint1_linear_6214_10824" x1="162" y1="30.5" x2="-4" y2="97" gradientUnits="userSpaceOnUse">
<stop stop-color="#047586"/>
<stop offset="0.758532" stop-color="#439596"/>
</linearGradient>
<radialGradient id="paint2_radial_6214_10824" cx="0" cy="0" r="1" gradientUnits="userSpaceOnUse" gradientTransform="translate(3.00001 77) rotate(20.2324) scale(186.508)">
<stop offset="0.647284" stop-color="#00FF94"/>
<stop offset="0.862715" stop-color="#00FF94" stop-opacity="0"/>
</radialGradient>
</defs>
</svg>
