<svg width="178" height="178" viewBox="0 0 178 178" fill="none" xmlns="http://www.w3.org/2000/svg">
<mask id="path-1-inside-1_6214_10829" fill="white">
<path d="M178 89C178 138.153 138.153 178 89 178C39.8467 178 0 138.153 0 89C0 39.8467 39.8467 0 89 0C138.153 0 178 39.8467 178 89ZM31.15 89C31.15 120.95 57.0503 146.85 89 146.85C120.95 146.85 146.85 120.95 146.85 89C146.85 57.0503 120.95 31.15 89 31.15C57.0503 31.15 31.15 57.0503 31.15 89Z"/>
</mask>
<path d="M178 89C178 138.153 138.153 178 89 178C39.8467 178 0 138.153 0 89C0 39.8467 39.8467 0 89 0C138.153 0 178 39.8467 178 89ZM31.15 89C31.15 120.95 57.0503 146.85 89 146.85C120.95 146.85 146.85 120.95 146.85 89C146.85 57.0503 120.95 31.15 89 31.15C57.0503 31.15 31.15 57.0503 31.15 89Z" fill="white" fill-opacity="0.1"/>
<path d="M178 89C178 138.153 138.153 178 89 178C39.8467 178 0 138.153 0 89C0 39.8467 39.8467 0 89 0C138.153 0 178 39.8467 178 89ZM31.15 89C31.15 120.95 57.0503 146.85 89 146.85C120.95 146.85 146.85 120.95 146.85 89C146.85 57.0503 120.95 31.15 89 31.15C57.0503 31.15 31.15 57.0503 31.15 89Z" fill="url(#paint0_radial_6214_10829)" fill-opacity="0.1"/>
<path d="M178 89C178 138.153 138.153 178 89 178C39.8467 178 0 138.153 0 89C0 39.8467 39.8467 0 89 0C138.153 0 178 39.8467 178 89ZM31.15 89C31.15 120.95 57.0503 146.85 89 146.85C120.95 146.85 146.85 120.95 146.85 89C146.85 57.0503 120.95 31.15 89 31.15C57.0503 31.15 31.15 57.0503 31.15 89Z" stroke="url(#paint1_linear_6214_10829)" stroke-opacity="0.6" stroke-width="2" mask="url(#path-1-inside-1_6214_10829)"/>
<path d="M178 89C178 109.471 170.943 129.316 158.019 145.19C145.095 161.065 127.093 172 107.048 176.151C87.0028 180.302 66.1392 177.416 47.9733 167.98C29.8074 158.543 15.4497 143.133 7.31984 124.346C-0.810028 105.559 -2.21507 84.5439 3.34148 64.8418C8.89804 45.1397 21.0765 27.9554 37.8245 16.1847C54.5726 4.41396 74.8663 -1.22353 95.2858 0.22225C115.705 1.66803 135.002 10.1087 149.925 24.1218L128.601 46.8292C118.901 37.7206 106.358 32.2342 93.0858 31.2945C79.8131 30.3547 66.6222 34.0191 55.7359 41.67C44.8497 49.321 36.9337 60.4908 33.322 73.2972C29.7102 86.1035 30.6235 99.7635 35.9079 111.975C41.1923 124.187 50.5248 134.203 62.3326 140.337C74.1405 146.471 87.7018 148.346 100.731 145.648C113.761 142.95 125.462 135.842 133.862 125.524C142.263 115.205 146.85 102.306 146.85 89H178Z" fill="white" fill-opacity="0.1"/>
<path d="M178 89C178 109.471 170.943 129.316 158.019 145.19C145.095 161.065 127.093 172 107.048 176.151C87.0028 180.302 66.1392 177.416 47.9733 167.98C29.8074 158.543 15.4497 143.133 7.31984 124.346C-0.810028 105.559 -2.21507 84.5439 3.34148 64.8418C8.89804 45.1397 21.0765 27.9554 37.8245 16.1847C54.5726 4.41396 74.8663 -1.22353 95.2858 0.22225C115.705 1.66803 135.002 10.1087 149.925 24.1218L128.601 46.8292C118.901 37.7206 106.358 32.2342 93.0858 31.2945C79.8131 30.3547 66.6222 34.0191 55.7359 41.67C44.8497 49.321 36.9337 60.4908 33.322 73.2972C29.7102 86.1035 30.6235 99.7635 35.9079 111.975C41.1923 124.187 50.5248 134.203 62.3326 140.337C74.1405 146.471 87.7018 148.346 100.731 145.648C113.761 142.95 125.462 135.842 133.862 125.524C142.263 115.205 146.85 102.306 146.85 89H178Z" fill="url(#paint2_radial_6214_10829)" fill-opacity="0.3"/>
<defs>
<radialGradient id="paint0_radial_6214_10829" cx="0" cy="0" r="1" gradientUnits="userSpaceOnUse" gradientTransform="translate(89 45.7027) rotate(106.034) scale(222.746 274.968)">
<stop offset="0.205" stop-color="#00FF94"/>
<stop offset="0.745" stop-color="#00FF94" stop-opacity="0"/>
</radialGradient>
<linearGradient id="paint1_linear_6214_10829" x1="162" y1="30.5" x2="-4" y2="97" gradientUnits="userSpaceOnUse">
<stop stop-color="#047586"/>
<stop offset="0.758532" stop-color="#439596"/>
</linearGradient>
<radialGradient id="paint2_radial_6214_10829" cx="0" cy="0" r="1" gradientUnits="userSpaceOnUse" gradientTransform="translate(3.00001 77) rotate(20.2324) scale(186.508)">
<stop offset="0.647284" stop-color="#00FF94"/>
<stop offset="0.862715" stop-color="#00FF94" stop-opacity="0"/>
</radialGradient>
</defs>
</svg>
