<svg width="16" height="16" viewBox="0 0 16 16" fill="none" xmlns="http://www.w3.org/2000/svg">
<path fill-rule="evenodd" clip-rule="evenodd" d="M3.17007 6.70756C3.36284 5.98772 3.71408 5.32007 4.19809 4.75344C4.68211 4.18681 5.28666 3.73554 5.96753 3.43263C6.6484 3.12973 7.38837 2.98284 8.13331 3.00273C8.87825 3.02261 9.60933 3.20876 10.2731 3.54756C10.3316 3.57737 10.3955 3.59535 10.461 3.60048C10.5265 3.60561 10.5924 3.59778 10.6549 3.57745C10.7174 3.55711 10.7753 3.52466 10.8253 3.48196C10.8752 3.43926 10.9163 3.38713 10.9461 3.32856C10.9759 3.26999 10.9939 3.20613 10.999 3.14061C11.0041 3.07509 10.9963 3.0092 10.976 2.94671C10.9556 2.88421 10.9232 2.82634 10.8805 2.77638C10.8378 2.72643 10.7856 2.68537 10.7271 2.65556C9.464 2.01106 8.01348 1.83474 6.63279 2.15786C5.25209 2.48098 4.03045 3.28266 3.18455 4.42072C2.33864 5.55877 1.92313 6.95965 2.01173 8.37488C2.10032 9.79011 2.68729 11.1282 3.66852 12.1519C4.64975 13.1756 5.96183 13.8187 7.37205 13.9671C8.78226 14.1155 10.1995 13.7596 11.3723 12.9626C12.5451 12.1656 13.3978 10.979 13.7791 9.61325C14.1603 8.24746 14.0455 6.79078 13.4551 5.50156C13.3998 5.38089 13.2988 5.28713 13.1744 5.2409C13.0499 5.19467 12.9122 5.19977 12.7916 5.25506C12.6709 5.31036 12.5771 5.41133 12.5309 5.53576C12.4847 5.66019 12.4898 5.79789 12.5451 5.91856C12.8794 6.64802 13.0332 7.44722 12.9936 8.24865C12.954 9.05008 12.722 9.8302 12.3174 10.5231C11.9127 11.216 11.3473 11.8014 10.6688 12.2297C9.99024 12.6581 9.21859 12.9168 8.41901 12.9841C7.61942 13.0514 6.81539 12.9253 6.07482 12.6163C5.33425 12.3074 4.67891 11.8248 4.16415 11.2093C3.64939 10.5938 3.29033 9.86337 3.11731 9.07984C2.94429 8.2963 2.96239 7.48263 3.17007 6.70756Z" fill="#B5B5B5"/>
<path fill-rule="evenodd" clip-rule="evenodd" d="M8.16784 0.146377C8.27498 0.0526518 8.42026 0 8.57175 0C8.72324 0 8.86852 0.0526518 8.97566 0.146377L11.8322 2.6461C11.8854 2.69254 11.9276 2.74771 11.9564 2.80845C11.9852 2.86918 12 2.9343 12 3.00006C12 3.06582 11.9852 3.13093 11.9564 3.19167C11.9276 3.25241 11.8854 3.30758 11.8322 3.35402L8.97566 5.85374C8.92254 5.90016 8.8595 5.93696 8.79013 5.96206C8.72075 5.98715 8.64641 6.00005 8.57135 6C8.49628 5.99995 8.42196 5.98697 8.35263 5.96179C8.2833 5.93661 8.22031 5.89972 8.16727 5.85324C8.06015 5.75936 8.00003 5.63209 8.00013 5.49942C8.00019 5.43373 8.01502 5.3687 8.0438 5.30802C8.07257 5.24735 8.11472 5.19223 8.16784 5.14582L10.6199 3.00006L8.16784 0.854298C8.11464 0.807857 8.07243 0.752688 8.04363 0.691949C8.01483 0.631211 8 0.566097 8 0.500337C8 0.434577 8.01483 0.369463 8.04363 0.308725C8.07243 0.247987 8.11464 0.192817 8.16784 0.146377Z" fill="#B5B5B5"/>
</svg>
