<svg width="20" height="20" viewBox="0 0 20 20" fill="none" xmlns="http://www.w3.org/2000/svg">
<path fill-rule="evenodd" clip-rule="evenodd" d="M14.8112 2.18077C14.871 2.23793 14.9185 2.30583 14.9509 2.38058C14.9833 2.45534 15 2.53548 15 2.61641C15 2.69735 14.9833 2.77749 14.9509 2.85224C14.9185 2.927 14.871 2.9949 14.8112 3.05205L7.55261 10.0002L14.8112 16.9483C14.9319 17.0638 14.9997 17.2205 14.9997 17.3839C14.9997 17.5473 14.9319 17.704 14.8112 17.8196C14.6905 17.9351 14.5268 18 14.3562 18C14.1855 18 14.0218 17.9351 13.9011 17.8196L6.18881 10.4358C6.12896 10.3786 6.08148 10.3107 6.04908 10.236C6.01668 10.1612 6 10.0811 6 10.0002C6 9.91923 6.01668 9.83909 6.04908 9.76433C6.08148 9.68958 6.12896 9.62168 6.18881 9.56452L13.9011 2.18077C13.9608 2.12347 14.0318 2.07801 14.1098 2.04699C14.1879 2.01597 14.2716 2 14.3562 2C14.4407 2 14.5244 2.01597 14.6025 2.04699C14.6806 2.07801 14.7515 2.12347 14.8112 2.18077Z" fill="#B5B5B5"/>
</svg>
