<svg width="20" height="20" viewBox="0 0 20 20" fill="none" xmlns="http://www.w3.org/2000/svg">
<path fill-rule="evenodd" clip-rule="evenodd" d="M6.18882 5.81647C6.24852 5.87464 6.31945 5.9208 6.39753 5.9523C6.47562 5.98379 6.55933 6 6.64387 6C6.72841 6 6.81211 5.98379 6.8902 5.9523C6.96828 5.9208 7.03921 5.87464 7.09891 5.81647L10.5002 2.50919L13.9014 5.81647C13.9612 5.87455 14.0321 5.92062 14.1102 5.95206C14.1883 5.98349 14.272 5.99967 14.3565 5.99967C14.441 5.99967 14.5247 5.98349 14.6027 5.95206C14.6808 5.92062 14.7518 5.87455 14.8115 5.81647C14.8713 5.75838 14.9187 5.68943 14.951 5.61354C14.9834 5.53765 15 5.45631 15 5.37416C15 5.29202 14.9834 5.21068 14.951 5.13479C14.9187 5.0589 14.8713 4.98994 14.8115 4.93186L10.9552 1.18354C10.8955 1.12536 10.8246 1.0792 10.7465 1.04771C10.6684 1.01621 10.5847 1 10.5002 1C10.4156 1 10.3319 1.01621 10.2538 1.04771C10.1758 1.0792 10.1048 1.12536 10.0451 1.18354L6.18882 4.93186C6.12897 4.98989 6.08148 5.05883 6.04908 5.13473C6.01668 5.21063 6 5.29199 6 5.37416C6 5.45634 6.01668 5.5377 6.04908 5.6136C6.08148 5.6895 6.12897 5.75843 6.18882 5.81647Z" fill="#B5B5B5"/>
<path fill-rule="evenodd" clip-rule="evenodd" d="M9.5 15C9.63261 15 9.75979 14.9315 9.85355 14.8096C9.94732 14.6877 10 14.5224 10 14.35V2.65C10 2.47761 9.94732 2.31228 9.85355 2.19038C9.75979 2.06848 9.63261 2 9.5 2C9.36739 2 9.24021 2.06848 9.14645 2.19038C9.05268 2.31228 9 2.47761 9 2.65V14.35C9 14.5224 9.05268 14.6877 9.14645 14.8096C9.24021 14.9315 9.36739 15 9.5 15Z" fill="#B5B5B5"/>
<path fill-rule="evenodd" clip-rule="evenodd" d="M3 18.05C3 18.5672 3.20114 19.0632 3.55916 19.4289C3.91718 19.7946 4.40277 20 4.90909 20H15.0909C15.5972 20 16.0828 19.7946 16.4408 19.4289C16.7989 19.0632 17 18.5672 17 18.05V8.95C17 8.43283 16.7989 7.93684 16.4408 7.57114C16.0828 7.20545 15.5972 7 15.0909 7H13.1818C13.013 7 12.8512 7.06848 12.7318 7.19038C12.6125 7.31228 12.5455 7.47761 12.5455 7.65C12.5455 7.82239 12.6125 7.98772 12.7318 8.10962C12.8512 8.23152 13.013 8.3 13.1818 8.3H15.0909C15.2597 8.3 15.4215 8.36848 15.5409 8.49038C15.6602 8.61228 15.7273 8.77761 15.7273 8.95V18.05C15.7273 18.2224 15.6602 18.3877 15.5409 18.5096C15.4215 18.6315 15.2597 18.7 15.0909 18.7H4.90909C4.74032 18.7 4.57846 18.6315 4.45911 18.5096C4.33977 18.3877 4.27273 18.2224 4.27273 18.05V8.95C4.27273 8.77761 4.33977 8.61228 4.45911 8.49038C4.57846 8.36848 4.74032 8.3 4.90909 8.3H6.81818C6.98696 8.3 7.14882 8.23152 7.26816 8.10962C7.3875 7.98772 7.45455 7.82239 7.45455 7.65C7.45455 7.47761 7.3875 7.31228 7.26816 7.19038C7.14882 7.06848 6.98696 7 6.81818 7H4.90909C4.40277 7 3.91718 7.20545 3.55916 7.57114C3.20114 7.93684 3 8.43283 3 8.95V18.05Z" fill="#B5B5B5"/>
</svg>
