<svg width="20" height="20" viewBox="0 0 20 20" fill="none" xmlns="http://www.w3.org/2000/svg">
<path fill-rule="evenodd" clip-rule="evenodd" d="M6.18881 2.18077C6.24852 2.12347 6.31944 2.07801 6.39752 2.04699C6.4756 2.01597 6.55931 2 6.64384 2C6.72838 2 6.81208 2.01597 6.89016 2.04699C6.96825 2.07801 7.03917 2.12347 7.09887 2.18077L14.8112 9.56452C14.871 9.62168 14.9185 9.68958 14.9509 9.76433C14.9833 9.83909 15 9.91923 15 10.0002C15 10.0811 14.9833 10.1612 14.9509 10.236C14.9185 10.3107 14.871 10.3786 14.8112 10.4358L7.09887 17.8196C6.97819 17.9351 6.81451 18 6.64384 18C6.47317 18 6.3095 17.9351 6.18881 17.8196C6.06813 17.704 6.00034 17.5473 6.00034 17.3839C6.00034 17.2205 6.06813 17.0638 6.18881 16.9483L13.4474 10.0002L6.18881 3.05205C6.12896 2.9949 6.08148 2.927 6.04908 2.85224C6.01668 2.77749 6 2.69735 6 2.61641C6 2.53548 6.01668 2.45534 6.04908 2.38058C6.08148 2.30583 6.12896 2.23793 6.18881 2.18077Z" fill="#E0E0E0"/>
</svg>
