<svg width="20" height="20" viewBox="0 0 20 20" fill="none" xmlns="http://www.w3.org/2000/svg">
<path fill-rule="evenodd" clip-rule="evenodd" d="M10.7657 3.23431C10.6157 3.08429 10.4122 3 10.2 3C9.98783 3 9.78434 3.08429 9.63432 3.23431C9.48429 3.38434 9.4 3.58783 9.4 3.8V9.10718C9.33996 9.14184 9.28418 9.18444 9.23431 9.23431C9.18444 9.28418 9.14184 9.33996 9.10718 9.4H3.8C3.58783 9.4 3.38434 9.48429 3.23431 9.63432C3.08429 9.78434 3 9.98783 3 10.2C3 10.4122 3.08429 10.6157 3.23431 10.7657C3.38434 10.9157 3.58783 11 3.8 11H9V16.2C9 16.4122 9.08429 16.6157 9.23431 16.7657C9.38434 16.9157 9.58783 17 9.8 17C10.0122 17 10.2157 16.9157 10.3657 16.7657C10.5157 16.6157 10.6 16.4122 10.6 16.2V10.8928C10.66 10.8582 10.7158 10.8156 10.7657 10.7657C10.8156 10.7158 10.8582 10.66 10.8928 10.6H16.2C16.4122 10.6 16.6157 10.5157 16.7657 10.3657C16.9157 10.2157 17 10.0122 17 9.8C17 9.58783 16.9157 9.38434 16.7657 9.23431C16.6157 9.08429 16.4122 9 16.2 9H11V3.8C11 3.58783 10.9157 3.38434 10.7657 3.23431Z" fill="#B5B5B5"/>
</svg>
