<svg width="107" height="44" fill="none" xmlns="http://www.w3.org/2000/svg"><path d="M23.554 43.896c-4.741 0-8.848-.915-12.32-2.744-3.472-1.83-6.16-4.368-8.064-7.616C1.266 30.251.314 26.406.314 22c0-4.368.952-8.195 2.856-11.48s4.592-5.843 8.064-7.672c3.472-1.83 7.579-2.744 12.32-2.744 4.704 0 8.792.915 12.264 2.744 3.472 1.83 6.16 4.387 8.064 7.672 1.904 3.248 2.856 7.075 2.856 11.48 0 4.368-.952 8.195-2.856 11.48s-4.592 5.843-8.064 7.672c-3.472 1.83-7.56 2.744-12.264 2.744zm0-8.624c3.995 0 7.093-1.157 9.296-3.472 2.24-2.315 3.36-5.581 3.36-9.8s-1.12-7.485-3.36-9.8c-2.203-2.315-5.301-3.472-9.296-3.472-3.995 0-7.112 1.157-9.352 3.472s-3.36 5.581-3.36 9.8 1.12 7.485 3.36 9.8c2.24 2.315 5.357 3.472 9.352 3.472zm32.182 8.288c-1.12 0-2.147-.261-3.08-.784a6.27 6.27 0 01-2.128-2.184c-.523-.896-.784-1.904-.784-3.024s.261-2.128.784-3.024a5.817 5.817 0 012.128-2.128c.933-.56 1.96-.84 3.08-.84s2.128.28 3.024.84a5.817 5.817 0 012.128 2.128c.56.896.84 1.904.84 3.024s-.28 2.128-.84 3.024a6.269 6.269 0 01-2.128 2.184c-.896.523-1.904.784-3.024.784zM70.802 1h32.368v7.952H73.994l4.256-2.016-2.352 15.792H73.21c.821-1.381 1.941-2.65 3.36-3.808 1.456-1.157 3.23-2.09 5.32-2.8 2.09-.71 4.517-1.064 7.28-1.064 3.584 0 6.664.597 9.24 1.792 2.576 1.195 4.555 2.837 5.936 4.928 1.419 2.09 2.128 4.499 2.128 7.224 0 2.875-.803 5.432-2.408 7.672-1.605 2.24-3.92 4.013-6.944 5.32-2.987 1.27-6.57 1.904-10.752 1.904-4.107 0-7.672-.597-10.696-1.792s-5.395-2.819-7.112-4.872c-1.717-2.09-2.725-4.405-3.024-6.944h10.528c.41 1.643 1.493 2.95 3.248 3.92 1.792.97 4.144 1.456 7.056 1.456 1.979 0 3.677-.261 5.096-.784 1.419-.56 2.52-1.344 3.304-2.352.784-1.008 1.176-2.203 1.176-3.584 0-1.307-.355-2.464-1.064-3.472-.672-1.008-1.699-1.792-3.08-2.352-1.344-.56-3.024-.84-5.04-.84-1.68 0-3.192.187-4.536.56-1.307.373-2.464.859-3.472 1.456-.97.597-1.773 1.213-2.408 1.848h-9.072L70.802 1z" fill="#fff"/></svg>