<svg width="115" height="24" fill="none" xmlns="http://www.w3.org/2000/svg"><path d="M21.255 19.13l-1.83.33V.5h5.49V23h-7.14L4.065 4.04l1.83-.33V23H.405V.5h7.35l13.5 18.63zm26.967-9.48v4.2h-16.29v-4.2h16.29zm-12.45 2.1l-1.5 9.3-2.37-2.7h17.28V23h-20.58l1.74-11.25L28.602.5h20.43v4.65h-17.13l2.37-2.7 1.5 9.3zm44.858 8.88l-1.83.03L84.71.5h5.97L83.63 23H76.4L69.59 3.44h2.37L65.18 23h-7.26L50.87.5h6l5.91 20.13-1.8-.03L67.79.5h6l6.84 20.13zm10.717-4.98h5.73c.1.68.41 1.28.93 1.8s1.21.92 2.07 1.2c.88.28 1.9.42 3.06.42 1.66 0 2.96-.23 3.9-.69.96-.46 1.44-1.11 1.44-1.95 0-.64-.28-1.13-.84-1.47-.54-.36-1.56-.62-3.06-.78l-4.35-.45c-3.02-.3-5.21-1-6.57-2.1-1.34-1.1-2.01-2.6-2.01-4.5 0-1.5.44-2.78 1.32-3.84.9-1.06 2.15-1.87 3.75-2.43 1.62-.56 3.51-.84 5.67-.84 2.14 0 4.03.31 5.67.93 1.64.62 2.95 1.48 3.93 2.58s1.51 2.39 1.59 3.87h-5.73c-.08-.62-.36-1.14-.84-1.56-.46-.44-1.09-.78-1.89-1.02-.78-.26-1.72-.39-2.82-.39-1.52 0-2.73.22-3.63.66-.88.42-1.32 1.03-1.32 1.83 0 .6.26 1.07.78 1.41.54.34 1.49.59 2.85.75l4.59.51c2.1.22 3.78.57 5.04 1.05 1.26.48 2.17 1.14 2.73 1.98.56.84.84 1.9.84 3.18 0 1.54-.47 2.89-1.41 4.05-.92 1.14-2.22 2.03-3.9 2.67-1.66.64-3.6.96-5.82.96-2.3 0-4.32-.33-6.06-.99-1.72-.66-3.08-1.57-4.08-2.73-.98-1.18-1.5-2.55-1.56-4.11z" fill="#fff"/></svg>