<svg width="36" height="39" fill="none" xmlns="http://www.w3.org/2000/svg"><path d="M7.926 5.916h0c-.406-.238-.905-.242-1.326-.08L16.65 15.86s0 0 0 0a.887.887 0 001.25 0L7.926 5.916zm0 0l.006.004 9.89 5.666h0l2.772 1.588M7.926 5.916l12.668 7.258m0 0l-2.692 2.686 2.692-2.686zm-7.021 7.003h0l-.004.003-7.726 7.834.01-16.781 7.72 7.701c.344.344.343.9 0 1.242zm4.329 3.074l2.643 2.638L7.89 33.105h0l-.004.003a1.473 1.473 0 01-.738.195c-.168 0-.332-.032-.485-.09l9.99-9.962a.887.887 0 011.25 0zm11.459-2.484l-.012.006-.012.007-4.876 2.868-3.48-3.471h0a.877.877 0 010-1.243h0l3.523-3.514 4.852 2.84.01.006.01.006.033.018h.001c.462.25.741.721.741 1.225 0 .5-.276.977-.79 1.252zM1.352 31.956v.022c.02.564.167 1.295.197 1.41h0l.002.005c.676 2.512 2.98 4.257 5.596 4.257a5.83 5.83 0 002.918-.779h.002l21.535-12.28a5.743 5.743 0 003.048-5.062 5.735 5.735 0 00-3-5.032L10.122 2.16a5.863 5.863 0 00-2.974-.811c-2.675 0-5.054 1.81-5.614 4.322-.058.23-.194.833-.182 1.433l.001 24.85z" fill="#000" stroke="#000" stroke-width="1.3"/></svg>