<svg width="21" height="20" fill="none" xmlns="http://www.w3.org/2000/svg"><path d="M4.567 15.832a.833.833 0 00.833.834h10a.833.833 0 00.684-1.309l-4.85-8.4V3.332H9.567v3.625l-4.85 8.4a.846.846 0 00-.15.475zm.833 2.5a2.5 2.5 0 01-2.5-2.5c0-.5.15-.966.417-1.358L7.9 6.507V5a.833.833 0 01-.833-.833v-.834a1.667 1.667 0 011.667-1.666h3.333a1.667 1.667 0 011.667 1.666v.834A.833.833 0 0112.9 5v1.508l4.584 7.967a2.4 2.4 0 01.416 1.358 2.5 2.5 0 01-2.5 2.5h-10zm5.834-5l1.116-1.117L13.96 15H6.842l2.217-3.842 2.175 2.175zM10.817 10a.417.417 0 110 .834.417.417 0 010-.834z" fill="#D1D1D1"/></svg>