<svg width="21" height="20" fill="none" xmlns="http://www.w3.org/2000/svg"><path d="M15.8 12.499h-1.667v1.667H15.8v-1.667zm0-3.333h-1.667v1.666H15.8V9.166zm1.667 6.666H10.8v-1.666h1.667v-1.667H10.8v-1.667h1.667V9.166H10.8V7.499h6.667v8.333zm-8.334-10H7.467V4.166h1.666v1.666zm0 3.334H7.467V7.499h1.666v1.667zm0 3.333H7.467v-1.667h1.666V12.5zm0 3.333H7.467v-1.666h1.666v1.666zm-3.333-10H4.133V4.166H5.8v1.666zm0 3.334H4.133V7.499H5.8v1.667zm0 3.333H4.133v-1.667H5.8V12.5zm0 3.333H4.133v-1.666H5.8v1.666zm5-10V2.5H2.467v15h16.667V5.832H10.8z" fill="#D1D1D1"/></svg>