<svg width="356" height="351" fill="none" xmlns="http://www.w3.org/2000/svg"><path d="M175.871 8.48h4.992v15.817h-4.992V8.48zm-6.864-2.183h18.72v4.416h-18.72V6.297zm28.866 19.613c-2.113-.26-3.923-.877-5.431-1.852-1.493-.974-2.598-2.214-3.316-3.72-.702-1.505-.939-3.187-.711-5.045.228-1.858.864-3.432 1.909-4.722 1.061-1.288 2.433-2.224 4.117-2.807 1.699-.582 3.605-.742 5.717-.483 2.128.261 3.939.878 5.431 1.852 1.493.973 2.598 2.213 3.316 3.72.718 1.506.963 3.188.735 5.046-.228 1.859-.873 3.432-1.934 4.72-1.06 1.288-2.433 2.224-4.116 2.807-1.684.584-3.589.744-5.717.483zm.54-4.408c1.16.143 2.184.067 3.075-.227.89-.293 1.603-.778 2.137-1.454.55-.674.887-1.52 1.012-2.536s.002-1.918-.369-2.705c-.355-.785-.929-1.428-1.722-1.928-.793-.5-1.769-.822-2.929-.964-1.143-.14-2.16-.064-3.05.23-.891.293-1.611.777-2.161 1.451s-.888 1.52-1.012 2.536c-.125 1.016-.002 1.918.369 2.705.371.787.953 1.43 1.746 1.931.793.5 1.761.82 2.904.961zm24.708-8.198c1.453.39 2.638.972 3.557 1.748.934.78 1.557 1.701 1.869 2.762.316 1.046.313 2.171-.01 3.377-.318 1.19-.878 2.166-1.678 2.93-.797.747-1.794 1.225-2.993 1.433-1.184.213-2.502.125-3.954-.264l-7.535-2.019 1.031-3.848 7.233 1.938c.772.207 1.425.183 1.957-.072.536-.27.893-.738 1.071-1.403.182-.68.107-1.263-.227-1.75-.329-.502-.88-.857-1.653-1.064l-6.815-1.826 2.751-1.648-4.221 15.764-4.799-1.285 4.656-17.388 9.76 2.615zm26.095 8.715l-1.662 4.117-10.147-4.1 2.914-1.256-5.922 14.666-4.606-1.861 6.739-16.69 12.684 5.124zm3.524 23.911c-1.842-1.064-3.268-2.34-4.275-3.827-.994-1.48-1.527-3.053-1.6-4.72-.058-1.66.38-3.3 1.316-4.922.935-1.621 2.136-2.822 3.602-3.601 1.479-.772 3.108-1.097 4.885-.976 1.792.129 3.609.725 5.452 1.79 1.857 1.071 3.282 2.347 4.276 3.826.994 1.479 1.527 3.052 1.599 4.72.072 1.667-.359 3.312-1.295 4.933-.935 1.622-2.143 2.818-3.623 3.59-1.479.771-3.108 1.097-4.885.976-1.778-.121-3.595-.717-5.452-1.79zm2.219-3.846c1.012.584 1.985.914 2.919.992.934.078 1.779-.09 2.535-.504.77-.405 1.411-1.052 1.922-1.939.512-.887.751-1.765.717-2.634-.02-.862-.298-1.678-.832-2.448-.535-.77-1.308-1.448-2.319-2.032-.998-.576-1.964-.903-2.898-.98-.934-.078-1.786.086-2.556.492-.77.405-1.41 1.052-1.922 1.938-.512.887-.751 1.766-.717 2.635.034.87.319 1.69.853 2.46.535.77 1.301 1.444 2.298 2.02zm22.698 8.87l.888-.502c1.093.863 1.877 1.724 2.352 2.583.497.855.713 1.7.647 2.531-.056.82-.358 1.593-.907 2.322-.587.78-1.291 1.341-2.11 1.685-.811.331-1.708.406-2.693.225-.963-.185-1.975-.677-3.035-1.476L262.18 50.32l6.67-6.543 4.158-7.836 10.236 7.713c1.329 1.002 2.128 2.095 2.397 3.28.279 1.172.005 2.307-.823 3.406a4.676 4.676 0 01-1.721 1.408c-.695.338-1.5.463-2.414.374-.893-.091-1.902-.48-3.026-1.168zm-10.854 1.407l-.133-3.015 7.149 5.387c.575.434 1.128.63 1.659.59.531-.04.985-.31 1.36-.809.376-.498.501-1.024.378-1.578-.114-.567-.51-1.106-1.187-1.616l-5.904-4.449 2.05-2.722 5.367 4.044c.46.347.945.502 1.454.464.531-.04.974-.297 1.331-.77.288-.383.39-.797.304-1.243-.075-.457-.363-.874-.861-1.25l-6.44-4.853 2.915-.718-3.6 6.814-5.842 5.724zm15.745 10.872l2.833-2.835 8.774 8.774-2.833 2.835-8.774-8.774zm17.052-3.516l-6.937 18.519-3.75-3.75 6.377-16.093 1.018 1.019-16.101 6.367-3.751-3.75 18.511-6.945 4.633 4.633zm8.51 12.775l3.074 3.934-12.46 9.741-3.074-3.934 12.46-9.741zm-2.505-6.754L317.13 80.49l-3.479 2.72-11.525-14.752 3.479-2.72zm-.928 28.134l15.585-9.005 2.484 4.302-14.131 8.165.817-3.05 3.504 6.069c.408.707.904 1.15 1.488 1.33.592.194 1.193.114 1.803-.238.623-.36.992-.841 1.107-1.443.122-.588-.021-1.235-.429-1.942l-3.72-6.443 3.408-1.97 3.876 6.714c.76 1.317 1.184 2.578 1.27 3.784.109 1.213-.094 2.3-.61 3.263-.507.977-1.302 1.778-2.382 2.402-1.081.624-2.178.916-3.291.876-1.092-.035-2.135-.402-3.13-1.102-.988-.686-1.861-1.687-2.621-3.004l-5.028-8.708zm35.719 36.526l.827 2.883-3.483.825 2.165 2.849-2.494 1.665-1.869-3.035-2.054 2.937-2.352-1.847 2.312-2.736-3.41-1.094 1.016-2.813 3.304 1.424-.023-3.564 2.997.089-.32 3.587 3.384-1.17zm4.258 43.831l.088 4.992-15.814.276-.087-4.992 15.813-.276zm2.064-6.901l.327 18.717-4.415.078-.327-18.718 4.415-.077zm-19.62 28.756c.259-2.112.876-3.922 1.851-5.43.973-1.493 2.213-2.598 3.72-3.315 1.505-.702 3.186-.939 5.044-.711 1.858.229 3.432.865 4.723 1.91 1.288 1.062 2.224 2.434 2.807 4.118.581 1.699.742 3.605.483 5.717-.262 2.128-.879 3.938-1.852 5.431-.973 1.492-2.213 2.597-3.72 3.315-1.506.718-3.189.962-5.047.734-1.858-.228-3.431-.873-4.719-1.934-1.289-1.061-2.224-2.433-2.808-4.117-.583-1.684-.744-3.59-.482-5.718zm4.407.542c-.143 1.159-.067 2.184.227 3.074.293.891.778 1.603 1.454 2.138.674.55 1.519.888 2.535 1.013 1.017.124 1.918.001 2.705-.369.786-.355 1.428-.929 1.929-1.722.5-.793.821-1.769.964-2.928.14-1.144.063-2.161-.23-3.051-.294-.891-.778-1.611-1.452-2.161-.674-.551-1.519-.888-2.535-1.013-1.016-.125-1.918-.002-2.705.369-.787.371-1.431.952-1.931 1.745-.501.793-.821 1.761-.961 2.905zm9.411 25.902c-.364 1.46-.926 2.655-1.686 3.587-.764.947-1.674 1.586-2.729 1.916-1.04.335-2.165.351-3.376.049-1.195-.299-2.181-.841-2.958-1.629-.761-.783-1.256-1.773-1.486-2.968-.233-1.179-.168-2.499.196-3.958l1.887-7.569 3.865.965-1.811 7.265c-.194.777-.159 1.429.106 1.956.279.532.753.881 1.42 1.047.684.171 1.266.085 1.746-.257.497-.337.842-.895 1.036-1.671l1.707-6.846 1.695 2.723-15.835-3.95 1.202-4.821 17.465 4.358-2.444 9.803zm-9.927 24.901l-4.117-1.664 4.1-10.147 1.255 2.915-14.663-5.928 1.861-4.606 16.688 6.746-5.124 12.684zm-22.899 5.026c1.032-1.862 2.282-3.309 3.751-4.342 1.462-1.019 3.025-1.579 4.691-1.68 1.658-.086 3.305.324 4.942 1.232 1.637.908 2.858 2.089 3.663 3.541.797 1.467 1.15 3.09 1.06 4.87-.098 1.793-.663 3.621-1.694 5.482-1.04 1.875-2.29 3.322-3.751 4.342-1.462 1.019-3.025 1.579-4.691 1.679-1.666.101-3.317-.303-4.954-1.211-1.637-.908-2.854-2.095-3.651-3.562-.797-1.466-1.15-3.09-1.06-4.869.09-1.78.655-3.607 1.694-5.482zm3.883 2.153c-.566 1.022-.88 2-.941 2.936-.062.936.121 1.778.547 2.527.419.763 1.076 1.392 1.971 1.889.896.497 1.778.721 2.647.672.86-.035 1.671-.326 2.432-.874.761-.547 1.425-1.332 1.991-2.354.558-1.007.868-1.979.93-2.914.061-.936-.118-1.785-.536-2.548-.419-.763-1.076-1.393-1.972-1.89-.895-.496-1.777-.72-2.646-.671-.868.048-1.683.347-2.444.894-.761.548-1.42 1.326-1.979 2.333z" fill="#12CE75"/><path d="M303.099 275.865l.502.889c-.864 1.092-1.725 1.876-2.583 2.351-.856.497-1.699.713-2.531.646-.819-.056-1.592-.359-2.321-.908-.779-.587-1.34-1.291-1.684-2.112-.331-.81-.405-1.708-.224-2.693.185-.963.677-1.975 1.476-3.036l8.002-10.618 6.54 6.675 7.832 4.162-7.713 10.235c-1.002 1.329-2.095 2.128-3.279 2.397-1.172.279-2.307.004-3.406-.824a4.684 4.684 0 01-1.406-1.722c-.338-.696-.462-1.501-.374-2.416.092-.893.481-1.901 1.169-3.026zm-1.404-10.858l3.014-.132-5.388 7.149c-.433.575-.629 1.129-.589 1.66.04.531.309.985.808 1.361.498.375 1.024.501 1.578.378.566-.114 1.105-.509 1.615-1.187l4.449-5.903 2.721 2.052-4.044 5.366c-.347.46-.502.945-.465 1.454.041.531.297.975.77 1.332.383.289.797.39 1.242.305.458-.075.875-.363 1.25-.861l4.853-6.44.718 2.916-6.811-3.603-5.721-5.847zm-10.018 17.107l2.882 2.785-8.619 8.925-2.883-2.785 8.62-8.925zm3.806 16.995l-18.629-6.621 3.685-3.816 16.193 6.103-1 1.036-6.64-15.995 3.684-3.816 7.259 18.396-4.552 4.713zm-13.956 8.443l-3.88 3.142-9.949-12.295 3.879-3.141 9.95 12.294zm6.708-2.622l-14.548 11.781-2.778-3.432 14.548-11.781 2.778 3.432zm-27.354-.766l9.267 15.431-4.259 2.559-8.401-13.991 3.062.764-6.007 3.609c-.699.42-1.134.924-1.304 1.511-.184.596-.094 1.196.268 1.799.371.618.858.978 1.462 1.082.59.112 1.234-.042 1.934-.462l6.377-3.832 2.026 3.374-6.644 3.993c-1.303.783-2.557 1.228-3.761 1.336-1.21.13-2.301-.055-3.272-.554-.986-.491-1.799-1.271-2.442-2.341-.642-1.07-.953-2.162-.931-3.276.016-1.092.365-2.142 1.048-3.15.669-.999 1.655-1.89 2.958-2.673l8.619-5.179zm-36.189 36.529l-2.884.827-.824-3.484-2.849 2.165-1.664-2.494 3.035-1.869-2.936-2.054 1.848-2.353 2.734 2.312 1.095-3.41 2.813 1.016-1.425 3.305 3.564-.023-.09 2.997-3.587-.32 1.17 3.385zm-43.834 4.258l-4.991.087-.276-15.813 4.991-.087.276 15.813zm6.901 2.064l-18.717.327-.077-4.415 18.717-.327.077 4.415zm-29.206-19.468c2.117.222 3.937.808 5.463 1.756 1.509.947 2.636 2.168 3.38 3.662.728 1.492.994 3.169.798 5.031-.195 1.861-.804 3.446-1.826 4.755-1.038 1.306-2.394 2.266-4.067 2.878-1.689.611-3.592.805-5.708.583-2.133-.224-3.953-.81-5.463-1.757-1.509-.947-2.636-2.167-3.38-3.661-.744-1.494-1.018-3.172-.822-5.034.195-1.861.812-3.446 1.85-4.752 1.038-1.307 2.394-2.266 4.067-2.879 1.673-.612 3.576-.807 5.708-.582zm-.464 4.415c-1.161-.122-2.185-.028-3.07.281-.885.309-1.589.806-2.111 1.491-.538.684-.861 1.535-.968 2.553-.107 1.019.032 1.918.416 2.698.369.779.954 1.412 1.756 1.898.801.487 1.783.791 2.945.913 1.145.121 2.161.026 3.046-.283.885-.309 1.597-.805 2.135-1.489.538-.683.861-1.534.968-2.553.107-1.018-.032-1.918-.416-2.698-.385-.781-.978-1.414-1.78-1.9-.801-.487-1.775-.79-2.921-.911zm-25.532 9.25c-1.459-.364-2.655-.926-3.587-1.686-.947-.764-1.586-1.673-1.917-2.729-.334-1.04-.351-2.165-.049-3.376.298-1.195.84-2.181 1.628-2.958.783-.761 1.772-1.257 2.967-1.486 1.179-.234 2.499-.169 3.958.195l7.568 1.887-.963 3.866-7.265-1.812c-.777-.193-1.428-.158-1.956.106-.531.28-.88.754-1.047 1.421-.17.684-.084 1.266.258 1.747.338.496.895.841 1.671 1.035l6.847 1.707-2.723 1.695 3.946-15.836 4.82 1.202-4.352 17.466-9.804-2.444zm-25.097-8.676l1.59-4.145 10.217 3.922-2.891 1.306 5.664-14.767 4.638 1.781-6.447 16.806-12.771-4.903zm-4.839-23.115c1.861 1.032 3.308 2.282 4.342 3.751 1.019 1.462 1.58 3.026 1.681 4.692.088 1.658-.322 3.306-1.229 4.944-.907 1.637-2.087 2.858-3.539 3.663-1.466.798-3.088 1.151-4.868 1.061-1.793-.097-3.62-.662-5.481-1.694-1.876-1.039-3.323-2.289-4.342-3.751-1.02-1.461-1.58-3.025-1.682-4.691-.101-1.666.302-3.318 1.209-4.956.907-1.637 2.093-2.855 3.56-3.652 1.465-.797 3.088-1.151 4.867-1.061 1.78.09 3.607.655 5.482 1.694zm-2.152 3.884c-1.021-.566-2-.88-2.935-.941-.936-.061-1.778.121-2.526.548-.763.419-1.392 1.076-1.888 1.972-.496.896-.72 1.778-.67 2.647.035.861.326 1.672.874 2.433.548.761 1.332 1.424 2.354 1.991 1.008.558 1.98.868 2.915.929.935.061 1.784-.117 2.547-.536.762-.419 1.391-1.077 1.888-1.972.496-.896.719-1.778.67-2.647-.049-.869-.348-1.684-.895-2.445-.548-.761-1.326-1.421-2.334-1.979zm-22.652-8.838l-.88.518c-1.108-.844-1.906-1.691-2.396-2.542-.512-.846-.743-1.686-.691-2.519.041-.82.33-1.599.866-2.337.573-.79 1.267-1.364 2.08-1.722.805-.346 1.701-.436 2.689-.272.966.168 1.986.642 3.06 1.422l10.757 7.816-6.555 6.659-4.02 7.906-10.369-7.533c-1.346-.978-2.164-2.057-2.455-3.237-.3-1.167-.045-2.307.764-3.42a4.68 4.68 0 011.696-1.438c.69-.35 1.492-.488 2.408-.416.894.076 1.91.448 3.046 1.115zm10.828-1.596l.185 3.012-7.242-5.262c-.582-.423-1.139-.609-1.67-.56-.53.05-.978.327-1.345.832-.367.505-.483 1.034-.35 1.585.124.565.529 1.096 1.215 1.595l5.98 4.345-2.002 2.758-5.437-3.95c-.466-.339-.953-.485-1.46-.439-.531.05-.97.314-1.318.793-.282.389-.377.805-.283 1.248.083.457.378.868.883 1.235l6.523 4.74-2.901.769 3.48-6.876 5.742-5.825zM72.64 292.824l-2.732 2.932-9.074-8.462 2.732-2.933 9.075 8.463zm-16.918 4.109l6.286-18.75 3.88 3.617-5.812 16.305-1.053-.982 15.869-6.926 3.879 3.617-18.257 7.587-4.792-4.468zm-9.232-13.032l-3.14-3.88 12.287-9.957 3.142 3.879-12.288 9.958zm2.623 6.709l-11.78-14.548 3.43-2.78 11.781 14.548-3.43 2.78zm1.559-28.745l-15.261 9.543-2.633-4.213 13.837-8.653-.71 3.077-3.713-5.944c-.432-.692-.944-1.117-1.534-1.277-.598-.173-1.196-.072-1.793.301-.61.382-.962.875-1.056 1.481-.101.592.064 1.234.496 1.926l3.943 6.309-3.337 2.087-4.108-6.574c-.806-1.289-1.273-2.535-1.402-3.737-.15-1.208.015-2.302.496-3.283.473-.994 1.239-1.822 2.297-2.483 1.058-.662 2.144-.992 3.259-.99 1.092-.004 2.147.327 3.166.991 1.011.652 1.92 1.622 2.725 2.911l5.328 8.528zm-37.429-35.906l-.877-2.869 3.468-.886-2.214-2.811 2.464-1.708 1.921 3.002 2.003-2.972 2.384 1.805-2.263 2.776 3.428 1.034-.967 2.831-3.328-1.366.085 3.563-2.998-.037.257-3.592-3.363 1.23zm-4.279-42.863l-.174-4.989 15.806-.552.174 4.989-15.806.552zm-1.943 6.937l-.653-18.709 4.413-.154.653 18.708-4.413.155zm18.439-29.099c-.223 2.117-.809 3.937-1.757 5.463-.947 1.509-2.168 2.635-3.662 3.379-1.492.728-3.169.994-5.03.798-1.862-.195-3.447-.805-4.755-1.827-1.307-1.038-2.267-2.394-2.88-4.067-.61-1.689-.804-3.592-.582-5.709.224-2.132.81-3.953 1.757-5.462.947-1.509 2.167-2.636 3.661-3.379 1.494-.744 3.172-1.018 5.034-.822 1.862.195 3.446.812 4.752 1.851 1.307 1.038 2.267 2.394 2.879 4.067.612 1.673.807 3.576.582 5.708zm-4.416-.464c.122-1.162.028-2.185-.28-3.07-.31-.885-.807-1.589-1.492-2.112-.684-.538-1.535-.861-2.553-.968-1.018-.107-1.918.032-2.698.416-.78.369-1.412.954-1.898 1.755-.487.802-.79 1.783-.913 2.945-.12 1.146-.026 2.161.283 3.046.31.885.806 1.597 1.49 2.136.683.538 1.534.861 2.552.968 1.018.107 1.918-.032 2.698-.416.78-.385 1.414-.978 1.9-1.779.487-.802.79-1.775.91-2.921zm-9.426-25.683c.338-1.466.88-2.671 1.623-3.616.747-.96 1.645-1.615 2.695-1.964 1.033-.352 2.158-.388 3.374-.107 1.2.277 2.196.803 2.986 1.577.775.77 1.287 1.75 1.538 2.941.254 1.176.212 2.496-.127 3.961l-1.754 7.601-3.882-.897 1.685-7.296c.18-.78.133-1.431-.14-1.954-.29-.526-.77-.867-1.44-1.022-.685-.159-1.266-.063-1.74.287-.491.347-.826.91-1.006 1.689l-1.588 6.875-1.742-2.693 15.9 3.674-1.117 4.84-17.538-4.051 2.273-9.845zm8.637-26.18l4.172 1.52-3.743 10.284-1.357-2.87 14.861 5.413-1.699 4.668-16.913-6.16 4.679-12.855zm22.309-4.067c-1 1.879-2.224 3.348-3.675 4.406-1.443 1.045-2.997 1.632-4.66 1.761-1.656.116-3.31-.266-4.963-1.145s-2.894-2.038-3.724-3.477c-.823-1.452-1.204-3.069-1.145-4.85.066-1.795.6-3.632 1.598-5.51 1.007-1.894 2.232-3.362 3.675-4.407 1.443-1.044 2.997-1.632 4.66-1.761 1.664-.13 3.322.245 4.975 1.124 1.652.88 2.89 2.045 3.712 3.498.823 1.452 1.204 3.069 1.145 4.85-.059 1.781-.591 3.618-1.598 5.511zm-3.92-2.086c.549-1.031.845-2.015.89-2.951.045-.937-.152-1.776-.591-2.517-.432-.756-1.1-1.374-2.004-1.855-.904-.48-1.79-.69-2.658-.626-.86.05-1.666.356-2.417.917-.75.56-1.4 1.356-1.95 2.388-.54 1.017-.833 1.994-.878 2.93-.045.937.149 1.783.58 2.539.433.755 1.1 1.373 2.005 1.854.904.481 1.79.69 2.657.626.867-.064 1.677-.377 2.428-.938.751-.561 1.397-1.35 1.938-2.367zm8.806-22.608l-.533-.871c.825-1.122 1.658-1.935 2.5-2.44.837-.526 1.673-.771 2.506-.734.82.028 1.604.303 2.351.826.8.56 1.385 1.244 1.757 2.052.359.799.465 1.693.318 2.684-.151.97-.607 1.997-1.37 3.085L47.355 95.34l-6.77-6.443-7.972-3.886 7.351-10.499c.954-1.363 2.019-2.2 3.193-2.51 1.162-.32 2.306-.084 3.433.706a4.683 4.683 0 011.466 1.672c.361.683.514 1.483.457 2.4-.06.896-.415 1.918-1.062 3.066zm1.782 10.802l-3.008.237 5.135-7.333c.413-.59.59-1.15.531-1.679-.059-.53-.344-.973-.855-1.332-.51-.358-1.04-.465-1.59-.323-.562.134-1.087.548-1.573 1.243l-4.24 6.055-2.79-1.956 3.854-5.505c.33-.471.468-.96.413-1.468-.06-.53-.331-.965-.816-1.304-.393-.276-.81-.363-1.252-.262-.455.091-.861.393-1.22.904l-4.624 6.606-.82-2.89 6.933 3.364 5.922 5.643zm9.901-16.66l-2.93-2.734 8.462-9.075 2.93 2.735-8.462 9.074zM55.03 57.062l18.742 6.295-3.617 3.88-16.298-5.82.982-1.053 6.919 15.877-3.617 3.879-7.58-18.266 4.47-4.792zm13.06-9.42l3.824-3.209 10.163 12.12-3.825 3.208L68.09 47.642zm-6.661 2.739l14.34-12.033 2.837 3.383-14.34 12.033-2.837-3.383zm27.619.596l-9.534-15.268 4.213-2.632 8.645 13.842-3.076-.71 5.944-3.714c.692-.432 1.117-.944 1.277-1.534.173-.599.073-1.196-.3-1.794-.38-.61-.874-.962-1.48-1.056-.591-.102-1.233.064-1.925.496l-6.31 3.943-2.085-3.339 6.575-4.108c1.288-.805 2.534-1.272 3.736-1.401 1.208-.15 2.302.015 3.282.497.993.473 1.82 1.24 2.482 2.298.661 1.058.99 2.145.988 3.26.003 1.092-.328 2.147-.993 3.167-.651 1.01-1.622 1.919-2.91 2.724l-8.529 5.329zm35.917-37.437l2.869-.877.884 3.47 2.812-2.216 1.707 2.465-3.002 1.922 2.971 2.003-1.806 2.384-2.775-2.264-1.035 3.429-2.83-.967 1.367-3.33-3.563.086.038-2.998 3.592.257-1.229-3.364z" fill="#12CE75"/></svg>