<svg width="66" height="47" fill="none" xmlns="http://www.w3.org/2000/svg"><path d="M11.966 21.655l-.51.55a11.93 11.93 0 01-2.86-4.009c-.65-1.5-.966-3.108-.927-4.727-.039-1.62.278-3.227.928-4.727a11.93 11.93 0 012.86-4.01 12.995 12.995 0 014.311-2.631 13.75 13.75 0 015.05-.848 13.75 13.75 0 015.051.848 12.991 12.991 0 014.312 2.631 11.923 11.923 0 012.86 4.01c.65 1.5.966 3.108.928 4.727a11.214 11.214 0 01-.928 4.727 11.925 11.925 0 01-2.86 4.01 12.99 12.99 0 01-4.312 2.631l-13.903-3.182zm0 0l-.51.55a12.994 12.994 0 004.312 2.632 13.75 13.75 0 005.05.848 13.75 13.75 0 005.051-.848l-13.903-3.182zm43.703-8.186v-.75h-7.7v8.6h-9.3v7.232h9.3v8.6h7.7v-8.6h9.3v-7.233h-9.3v-7.85zm-29.4-.04l-.001.04.002.04a4.352 4.352 0 01-.334 1.908 4.703 4.703 0 01-1.154 1.637 5.238 5.238 0 01-1.797 1.08 5.605 5.605 0 01-2.133.319l-.033-.002-.034.002a5.605 5.605 0 01-2.133-.319l-.252.707.252-.707a5.238 5.238 0 01-1.797-1.08 4.703 4.703 0 01-1.154-1.637 4.355 4.355 0 01-.333-1.909l.002-.04-.002-.038a4.36 4.36 0 01.333-1.909 4.702 4.702 0 011.154-1.637 5.239 5.239 0 011.797-1.08l-.252-.707.252.707a5.608 5.608 0 012.133-.319l.034.002.033-.002a5.608 5.608 0 012.133.319l.253-.707-.253.707a5.22 5.22 0 011.797 1.08c.508.469.9 1.027 1.154 1.637.255.61.368 1.26.334 1.909zM32.47 45v.75h7.7v-3.617c0-1.989-.424-3.957-1.246-5.79a15.065 15.065 0 00-3.535-4.895 16.392 16.392 0 00-5.27-3.256h0a17.356 17.356 0 00-6.2-1.14h-6.2c-4.29 0-8.417 1.575-11.469 4.396-3.053 2.824-4.78 6.666-4.78 10.685v3.617h7.7v-3.617c0-2.061.885-4.052 2.483-5.53 1.6-1.479 3.781-2.319 6.067-2.319h6.2c2.285 0 4.467.84 6.067 2.32 1.597 1.477 2.483 3.468 2.483 5.53V45z" fill="#fff" stroke="#fff" stroke-width="1.5"/></svg>