<svg width="109" height="44" fill="none" xmlns="http://www.w3.org/2000/svg"><path d="M24.177 43.896c-4.742 0-8.848-.915-12.32-2.744-3.472-1.83-6.16-4.368-8.064-7.616C1.889 30.251.937 26.406.937 22c0-4.368.952-8.195 2.856-11.48s4.592-5.843 8.064-7.672c3.472-1.83 7.578-2.744 12.32-2.744 4.704 0 8.792.915 12.264 2.744 3.472 1.83 6.16 4.387 8.064 7.672 1.904 3.248 2.856 7.075 2.856 11.48 0 4.368-.952 8.195-2.856 11.48s-4.592 5.843-8.064 7.672c-3.472 1.83-7.56 2.744-12.264 2.744zm0-8.624c3.994 0 7.093-1.157 9.296-3.472 2.24-2.315 3.36-5.581 3.36-9.8s-1.12-7.485-3.36-9.8c-2.203-2.315-5.302-3.472-9.296-3.472-3.995 0-7.112 1.157-9.352 3.472s-3.36 5.581-3.36 9.8 1.12 7.485 3.36 9.8c2.24 2.315 5.357 3.472 9.352 3.472zm32.181 8.288c-1.12 0-2.146-.261-3.08-.784a6.269 6.269 0 01-2.128-2.184c-.522-.896-.784-1.904-.784-3.024s.262-2.128.784-3.024a5.817 5.817 0 012.128-2.128c.934-.56 1.96-.84 3.08-.84s2.128.28 3.024.84a5.817 5.817 0 012.128 2.128c.56.896.84 1.904.84 3.024s-.28 2.128-.84 3.024a6.27 6.27 0 01-2.128 2.184c-.896.523-1.904.784-3.024.784zM88.361.104c3.584 0 6.74.541 9.464 1.624 2.763 1.083 5.003 2.557 6.72 4.424 1.718 1.83 2.763 3.92 3.136 6.272h-9.856c-.56-1.27-1.549-2.315-2.968-3.136C93.44 8.429 91.367 8 88.641 8c-2.912 0-5.32.541-7.224 1.624-1.866 1.083-3.248 2.632-4.144 4.648-.896 1.979-1.344 4.424-1.344 7.336 0 3.099.486 5.712 1.456 7.84 1.008 2.128 2.483 3.752 4.424 4.872 1.942 1.083 4.312 1.624 7.112 1.624 1.98 0 3.64-.261 4.984-.784 1.382-.56 2.408-1.325 3.08-2.296a5.375 5.375 0 001.064-3.248c0-1.195-.336-2.24-1.008-3.136-.634-.896-1.586-1.587-2.856-2.072-1.269-.523-2.893-.784-4.872-.784-2.576 0-5.04.597-7.392 1.792-2.314 1.157-4.368 2.8-6.16 4.928l-3.752-2.576a23.277 23.277 0 014.592-6.16c1.867-1.83 4.07-3.267 6.608-4.312 2.54-1.083 5.414-1.624 8.624-1.624 3.435 0 6.403.579 8.904 1.736 2.539 1.12 4.48 2.707 5.824 4.76 1.382 2.053 2.072 4.424 2.072 7.112 0 2.837-.784 5.357-2.352 7.56-1.568 2.203-3.826 3.939-6.776 5.208-2.949 1.232-6.514 1.848-10.696 1.848-5.077 0-9.314-.933-12.712-2.8-3.397-1.867-5.936-4.443-7.616-7.728-1.68-3.323-2.52-7.112-2.52-11.368s.84-8.027 2.52-11.312c1.68-3.285 4.182-5.861 7.504-7.728C79.345 1.056 83.471.104 88.361.104z" fill="#fff"/></svg>