<svg width="88" height="44" fill="none" xmlns="http://www.w3.org/2000/svg"><path d="M22.51.104c3.584 0 6.738.541 9.464 1.624 2.762 1.083 5.003 2.557 6.72 4.424 1.717 1.83 2.762 3.92 3.136 6.272h-9.856c-.56-1.27-1.55-2.315-2.968-3.136C27.587 8.429 25.516 8 22.79 8c-2.912 0-5.32.541-7.224 1.624-1.867 1.083-3.248 2.632-4.144 4.648-.896 1.979-1.344 4.424-1.344 7.336 0 3.099.485 5.712 1.456 7.84 1.008 2.128 2.482 3.752 4.424 4.872 1.941 1.083 4.312 1.624 7.112 1.624 1.979 0 3.64-.261 4.984-.784 1.381-.56 2.408-1.325 3.08-2.296a5.374 5.374 0 001.064-3.248c0-1.195-.336-2.24-1.008-3.136-.635-.896-1.587-1.587-2.856-2.072-1.27-.523-2.893-.784-4.872-.784-2.576 0-5.04.597-7.392 1.792-2.315 1.157-4.368 2.8-6.16 4.928l-3.752-2.576a23.278 23.278 0 014.592-6.16c1.867-1.83 4.07-3.267 6.608-4.312 2.538-1.083 5.413-1.624 8.624-1.624 3.434 0 6.403.579 8.904 1.736 2.538 1.12 4.48 2.707 5.824 4.76 1.381 2.053 2.072 4.424 2.072 7.112 0 2.837-.784 5.357-2.352 7.56-1.568 2.203-3.827 3.939-6.776 5.208-2.95 1.232-6.515 1.848-10.696 1.848-5.077 0-9.315-.933-12.712-2.8-3.397-1.867-5.936-4.443-7.616-7.728C.95 30.045.11 26.256.11 22s.84-8.027 2.52-11.312c1.68-3.285 4.18-5.861 7.504-7.728C13.494 1.056 17.619.104 22.51.104zM52.057 1h32.368v7.952H55.25l4.256-2.016-2.352 15.792h-2.688c.822-1.381 1.942-2.65 3.36-3.808 1.456-1.157 3.23-2.09 5.32-2.8 2.09-.71 4.518-1.064 7.28-1.064 3.584 0 6.664.597 9.24 1.792 2.576 1.195 4.555 2.837 5.936 4.928 1.419 2.09 2.128 4.499 2.128 7.224 0 2.875-.802 5.432-2.408 7.672-1.605 2.24-3.92 4.013-6.944 5.32-2.986 1.27-6.57 1.904-10.752 1.904-4.106 0-7.672-.597-10.696-1.792s-5.394-2.819-7.112-4.872c-1.717-2.09-2.725-4.405-3.024-6.944h10.528c.41 1.643 1.494 2.95 3.248 3.92 1.792.97 4.144 1.456 7.056 1.456 1.979 0 3.678-.261 5.096-.784 1.419-.56 2.52-1.344 3.304-2.352.784-1.008 1.176-2.203 1.176-3.584 0-1.307-.354-2.464-1.064-3.472-.672-1.008-1.698-1.792-3.08-2.352-1.344-.56-3.024-.84-5.04-.84-1.68 0-3.192.187-4.536.56-1.306.373-2.464.859-3.472 1.456-.97.597-1.773 1.213-2.408 1.848H48.53L52.057 1z" fill="#fff"/></svg>