<svg width="92" height="23" fill="none" xmlns="http://www.w3.org/2000/svg"><path d="M3.017 9.86h16.29v4.83H3.017V9.86zM19.847.5v4.83H3.137l2.79-2.79V23H.257V.5h19.59zm7.221 9.9h8.43c1.06 0 1.9-.24 2.52-.72.62-.5.93-1.19.93-2.07 0-.88-.31-1.56-.93-2.04-.62-.5-1.46-.75-2.52-.75h-9.24l2.55-2.79V23h-5.67V.5h13.11c1.68 0 3.15.3 4.41.9 1.26.6 2.24 1.43 2.94 2.49.7 1.06 1.05 2.3 1.05 3.72 0 1.4-.35 2.63-1.05 3.69-.7 1.06-1.68 1.89-2.94 2.49-1.26.6-2.73.9-4.41.9h-9.18V10.4zm3.63 2.07h6.39L45.368 23h-6.57l-8.1-10.53zm36.566-2.82v4.2h-16.29v-4.2h16.29zm-12.45 2.1l-1.5 9.3-2.37-2.7h17.28V23h-20.58l1.74-11.25L47.644.5h20.43v4.65h-17.13l2.37-2.7 1.5 9.3zm36.063-2.1v4.2h-16.29v-4.2h16.29zm-12.45 2.1l-1.5 9.3-2.37-2.7h17.28V23h-20.58l1.74-11.25L71.257.5h20.43v4.65h-17.13l2.37-2.7 1.5 9.3z" fill="#fff"/></svg>