<svg width="51" height="50" fill="none" xmlns="http://www.w3.org/2000/svg"><circle cx="25.667" cy="25" r="25" fill="#fff" fill-opacity=".1"/><circle cx="25.667" cy="25" r="24.5" stroke="url(#paint0_linear_6217_20722)" stroke-opacity=".6"/><path d="M21 28.35c-.23 0-.385.022-.465.045v1.473c.095.022.214.028.378.028.599 0 .967-.302.967-.814 0-.457-.317-.732-.88-.732zm4.36.015c-.25 0-.413.023-.51.045v3.262c.097.023.252.023.392.023 1.02.008 1.686-.555 1.686-1.745.007-1.037-.599-1.585-1.569-1.585z" fill="#fff" fill-opacity=".1"/><path d="M21 28.35c-.23 0-.385.022-.465.045v1.473c.095.022.214.028.378.028.599 0 .967-.302.967-.814 0-.457-.317-.732-.88-.732zm4.36.015c-.25 0-.413.023-.51.045v3.262c.097.023.252.023.392.023 1.02.008 1.686-.555 1.686-1.745.007-1.037-.599-1.585-1.569-1.585z" fill="url(#paint1_radial_6217_20722)" fill-opacity=".5"/><path d="M28.167 12.5h-10a2.5 2.5 0 00-2.5 2.5v20a2.5 2.5 0 002.5 2.5h15a2.5 2.5 0 002.5-2.5V20l-7.5-7.5zm-5.628 17.738c-.386.362-.956.524-1.62.524a2.783 2.783 0 01-.385-.022v1.783h-1.117v-4.92a9.452 9.452 0 011.523-.103c.697 0 1.192.133 1.525.399.318.252.533.666.533 1.153-.001.49-.164.904-.459 1.186zm4.759 1.693c-.525.436-1.324.644-2.3.644a9.63 9.63 0 01-1.28-.075v-4.896a9.922 9.922 0 011.524-.104c.946 0 1.56.17 2.04.532.52.386.845 1 .845 1.88 0 .954-.35 1.613-.83 2.02zm4.619-3.469h-1.915v1.14h1.79v.917h-1.79v2.005h-1.133v-4.986h3.048v.924zm-3.75-7.212h-1.25V15l6.25 6.25h-5z" fill="#fff" fill-opacity=".1"/><path d="M28.167 12.5h-10a2.5 2.5 0 00-2.5 2.5v20a2.5 2.5 0 002.5 2.5h15a2.5 2.5 0 002.5-2.5V20l-7.5-7.5zm-5.628 17.738c-.386.362-.956.524-1.62.524a2.783 2.783 0 01-.385-.022v1.783h-1.117v-4.92a9.452 9.452 0 011.523-.103c.697 0 1.192.133 1.525.399.318.252.533.666.533 1.153-.001.49-.164.904-.459 1.186zm4.759 1.693c-.525.436-1.324.644-2.3.644a9.63 9.63 0 01-1.28-.075v-4.896a9.922 9.922 0 011.524-.104c.946 0 1.56.17 2.04.532.52.386.845 1 .845 1.88 0 .954-.35 1.613-.83 2.02zm4.619-3.469h-1.915v1.14h1.79v.917h-1.79v2.005h-1.133v-4.986h3.048v.924zm-3.75-7.212h-1.25V15l6.25 6.25h-5z" fill="url(#paint2_radial_6217_20722)" fill-opacity=".5"/><defs><radialGradient id="paint1_radial_6217_20722" cx="0" cy="0" r="1" gradientUnits="userSpaceOnUse" gradientTransform="rotate(118.776 3.225 21.625) scale(4.58994 9.0059)"><stop offset=".205" stop-color="#00FF94"/><stop offset=".745" stop-color="#00FF94" stop-opacity="0"/></radialGradient><radialGradient id="paint2_radial_6217_20722" cx="0" cy="0" r="1" gradientUnits="userSpaceOnUse" gradientTransform="matrix(-6.9129 30.06755 -30.53194 -7.01967 25.667 18.919)"><stop offset=".205" stop-color="#00FF94"/><stop offset=".745" stop-color="#00FF94" stop-opacity="0"/></radialGradient><linearGradient id="paint0_linear_6217_20722" x1="46.172" y1="8.567" x2="-.457" y2="27.247" gradientUnits="userSpaceOnUse"><stop stop-color="#047586"/><stop offset=".759" stop-color="#439596"/></linearGradient></defs></svg>