<svg width="10" height="7" fill="none" xmlns="http://www.w3.org/2000/svg"><path d="M.544 1.112a.34.34 0 01.08-.224C.677.824.757.792.864.792h.272a.46.46 0 01.256.064c.075.054.155.144.24.272l3.2 4.624 3.2-4.624a1.31 1.31 0 01.224-.272.54.54 0 01.272-.064H8.8c.107 0 .187.032.24.096a.34.34 0 01.08.224.458.458 0 01-.08.24c-.043.086-.08.15-.112.192l-3.264 4.72c-.117.17-.235.288-.352.352a.653.653 0 01-.384.112h-.192a.701.701 0 01-.384-.112A1.092 1.092 0 014 6.264L.736 1.544a2.932 2.932 0 01-.128-.192.54.54 0 01-.064-.24z" fill="#fff"/></svg>