<svg width="52" height="52" fill="none" xmlns="http://www.w3.org/2000/svg"><path d="M12.927 35.91a2.116 2.116 0 01-.942-4.126c9.966-2.278 18.576-1.31 25.548 2.951a2.116 2.116 0 01.701 2.91l-25.307-1.736zm0 0c8.934-2.042 16.453-1.194 22.397 2.437m-22.397-2.438l22.397 2.438m0 0c.998.61 2.301.295 2.91-.701l-2.91.7zM.5 25.92C.5 11.966 11.745.637 25.667.501h.253c14.041 0 25.421 11.381 25.421 25.42 0 14.039-11.38 25.419-25.42 25.419C11.88 51.34.5 39.96.5 25.92zm12.016 2.53v-.001c8.113-2.463 18.584-1.235 25.423 2.97a2.52 2.52 0 002.638-4.297c-8.13-4.996-19.982-6.392-29.525-3.497a2.524 2.524 0 00-1.681 3.143v.001a2.524 2.524 0 003.145 1.68zm28.481-5.044l.118.07h.008a2.923 2.923 0 003.882-1.092 2.921 2.921 0 00-1.023-4.008c-4.895-2.906-11.186-4.48-17.386-4.985-6.2-.505-12.36.058-17.01 1.47a2.924 2.924 0 101.698 5.597c3.915-1.189 9.29-1.679 14.73-1.25 5.443.428 10.895 1.77 14.983 4.198z" fill="#fff"/><path d="M12.927 35.91h0a2.116 2.116 0 01-.942-4.126c9.966-2.278 18.576-1.31 25.548 2.951h0a2.116 2.116 0 01.701 2.91l-25.307-1.736zm0 0c8.934-2.042 16.453-1.194 22.397 2.437m-22.397-2.438l22.397 2.438m0 0c.998.61 2.301.295 2.91-.701l-2.91.7zM.5 25.92C.5 11.966 11.745.637 25.667.501h.253c14.041 0 25.421 11.381 25.421 25.42 0 14.039-11.38 25.419-25.42 25.419C11.88 51.34.5 39.96.5 25.92zm12.016 2.53v-.001c8.113-2.463 18.584-1.235 25.423 2.97a2.52 2.52 0 002.638-4.297h0c-8.13-4.996-19.982-6.392-29.525-3.497h0a2.524 2.524 0 00-1.681 3.143v.001a2.524 2.524 0 003.145 1.68zm28.481-5.044l.118.07h.008a2.923 2.923 0 003.882-1.092 2.921 2.921 0 00-1.023-4.008c-4.895-2.906-11.186-4.48-17.386-4.985-6.2-.505-12.36.058-17.01 1.47h0a2.925 2.925 0 00-1.949 3.647h0a2.924 2.924 0 003.647 1.95h0c3.915-1.189 9.29-1.679 14.73-1.25 5.443.428 10.895 1.77 14.983 4.198z" stroke="#fff" stroke-opacity=".6"/><path d="M12.927 35.91h0a2.116 2.116 0 01-.942-4.126c9.966-2.278 18.576-1.31 25.548 2.951h0a2.116 2.116 0 01.701 2.91l-25.307-1.736zm0 0c8.934-2.042 16.453-1.194 22.397 2.437m-22.397-2.438l22.397 2.438m0 0c.998.61 2.301.295 2.91-.701l-2.91.7zM.5 25.92C.5 11.966 11.745.637 25.667.501h.253c14.041 0 25.421 11.381 25.421 25.42 0 14.039-11.38 25.419-25.42 25.419C11.88 51.34.5 39.96.5 25.92zm12.016 2.53v-.001c8.113-2.463 18.584-1.235 25.423 2.97a2.52 2.52 0 002.638-4.297h0c-8.13-4.996-19.982-6.392-29.525-3.497h0a2.524 2.524 0 00-1.681 3.143v.001a2.524 2.524 0 003.145 1.68zm28.481-5.044l.118.07h.008a2.923 2.923 0 003.882-1.092 2.921 2.921 0 00-1.023-4.008c-4.895-2.906-11.186-4.48-17.386-4.985-6.2-.505-12.36.058-17.01 1.47h0a2.925 2.925 0 00-1.949 3.647h0a2.924 2.924 0 003.647 1.95h0c3.915-1.189 9.29-1.679 14.73-1.25 5.443.428 10.895 1.77 14.983 4.198z" stroke="url(#paint0_linear_6355_399)"/><defs><linearGradient id="paint0_linear_6355_399" x1="25.921" y1="0" x2="25.921" y2="51.84" gradientUnits="userSpaceOnUse"><stop stop-color="#fff" stop-opacity=".38"/><stop offset="1" stop-color="#fff" stop-opacity=".16"/></linearGradient></defs></svg>