<svg width="59" height="58" fill="none" xmlns="http://www.w3.org/2000/svg"><g clip-path="url(#clip0_6387_341)"><path d="M49.636 50.52l.41.287-.41-.287c-1.635 2.331-2.949 3.907-3.935 4.764l-.005.005-.006.004c-1.53 1.407-3.134 2.1-4.83 2.142-1.23-.001-2.754-.354-4.572-1.101h-.002c-1.904-.778-3.68-1.173-5.322-1.173-1.717 0-3.54.394-5.467 1.172h0c-1.864.754-3.317 1.127-4.391 1.163H21.1c-1.589.068-3.224-.626-4.917-2.2l-.006-.006-.006-.005c-1.074-.938-2.448-2.573-4.122-4.939h0c-1.77-2.492-3.231-5.387-4.378-8.7-1.227-3.573-1.838-7.023-1.838-10.354 0-3.814.823-7.074 2.45-9.792h0l.003-.004c1.28-2.185 2.98-3.903 5.106-5.166a13.71 13.71 0 016.89-1.945c1.313 0 3.083.41 5.345 1.254 1.144.43 2.092.756 2.839.976.73.215 1.318.344 1.718.344.184 0 .426-.045.691-.109.278-.067.624-.166 1.034-.294a75.32 75.32 0 003.304-1.145c2.568-.924 4.69-1.288 6.39-1.144h.003c4.55.367 7.967 2.089 10.302 5.146-4.194 2.71-6.301 6.472-6.258 11.242v.001c.04 3.833 1.437 7.044 4.178 9.585a13.744 13.744 0 003.734 2.542 42.18 42.18 0 01-.859 2.22 31.031 31.031 0 01-3.068 5.517zM33.497 4.738l.002-.003c1.026-1.177 2.337-2.165 3.943-2.957 1.424-.694 2.761-1.104 4.013-1.24.012.208.018.415.018.623v0c0 2.767-1.007 5.363-3.053 7.792-2.377 2.778-5.167 4.365-8.14 4.279a8.467 8.467 0 01-.023-.624c0-2.644 1.155-5.51 3.24-7.87z" fill="#fff" stroke="url(#paint0_linear_6387_341)"/></g><defs><linearGradient id="paint0_linear_6387_341" x1="29.761" y1=".001" x2="29.761" y2="58.001" gradientUnits="userSpaceOnUse"><stop stop-color="#fff" stop-opacity=".38"/><stop offset="1" stop-color="#fff" stop-opacity=".16"/></linearGradient><clipPath id="clip0_6387_341"><path fill="#fff" transform="translate(.5)" d="M0 0h58v58H0z"/></clipPath></defs></svg>