<svg width="56" height="56" fill="none" xmlns="http://www.w3.org/2000/svg"><path d="M32.938 14.915c-1.306.114-2.816.227-4.325.45-2.311.326-4.623.771-6.532 1.762-3.718 1.664-6.232 5.197-6.232 10.392 0 6.524 3.82 9.833 8.643 9.833 1.611 0 2.917-.216 4.121-.55 1.913-.662 3.522-1.879 5.43-4.085 1.11 1.657 1.408 2.432 3.32 4.2.502.222 1.003.222 1.406-.111a181.524 181.524 0 004.423-4.198c.5-.447.4-1.104.1-1.66-1.108-1.546-2.21-2.875-2.21-5.854v-9.947c0-4.206.297-8.07-2.511-10.94C36.256 1.879 32.638 1 29.827 1h-1.208c-5.126.33-10.552 2.756-11.76 9.726-.2.878.406 1.215.807 1.327l5.628.776c.603-.117.904-.666 1.003-1.222.508-2.425 2.314-3.641 4.324-3.864h.404c1.204 0 2.51.556 3.215 1.652.798 1.33.703 3.101.703 4.644l-.005.876zm-1.105 13.151c-.703 1.548-1.91 2.542-3.217 2.875-.2 0-.498.114-.802.114-2.21 0-3.522-1.88-3.522-4.644 0-3.532 1.912-5.195 4.324-5.967 1.307-.33 2.816-.443 4.324-.443v1.327c-.002 2.544.093 4.53-1.107 6.738zM55 43.412v.36c-.053 2.16-1.092 6.306-3.55 8.587-.49.418-.983.18-.766-.425.715-1.916 2.35-6.365 1.585-7.384-.54-.778-2.784-.72-4.694-.54-.872.121-1.639.177-2.24.307-.544.055-.657-.48-.108-.899a8.44 8.44 0 012.35-1.265c3.108-1.017 6.717-.418 7.21.245.106.17.213.53.213 1.014zm-5.187 4.2a20.877 20.877 0 01-2.238 1.629C41.841 53.025 34.415 55 27.975 55c-10.38 0-19.662-4.204-26.704-11.228-.604-.543-.112-1.321.599-.902 7.59 4.863 16.981 7.809 26.7 7.809 6.12 0 12.72-1.262 19.003-3.968.434-.175.927-.422 1.364-.596.983-.487 1.859.723.875 1.498z" fill="#fff" stroke="#fff" stroke-opacity=".6"/></svg>