<svg width="48" height="48" fill="none" xmlns="http://www.w3.org/2000/svg"><path d="M24 11.28l4.747-5.802s8.13.172 16.232 3.939c-2.074 3.136-6.191 4.671-6.191 4.671-.278-2.755-2.208-3.428-8.348-3.428l-6.439 36.341-6.483-36.348c-6.095 0-8.025.674-8.303 3.428 0 0-4.118-1.52-6.191-4.657 8.1-3.766 16.232-3.939 16.232-3.939l4.747 5.795h-.007H24zm0-7.473c6.544-.06 14.039 1.011 21.712 4.365C46.738 6.314 47 5.499 47 5.499 38.615 2.174 30.76 1.03 24 1c-6.76.03-14.615 1.169-23 4.5 0 0 .374 1.01 1.288 2.68C9.963 4.81 17.456 3.75 24 3.8v.007z" fill="#fff" stroke="url(#paint0_linear_6355_208)"/><defs><linearGradient id="paint0_linear_6355_208" x1="24" y1="1" x2="24" y2="47.001" gradientUnits="userSpaceOnUse"><stop stop-color="#fff" stop-opacity=".38"/><stop offset="1" stop-color="#fff" stop-opacity=".16"/></linearGradient></defs></svg>