<svg width="96" height="46" fill="none" xmlns="http://www.w3.org/2000/svg"><path d="M52.544 16.848c.224-3.248 1.288-6.048 3.192-8.4 1.904-2.39 4.424-4.219 7.56-5.488C66.468 1.653 70.052 1 74.047 1c3.808 0 7.13.579 9.968 1.736 2.874 1.157 5.096 2.781 6.663 4.872 1.606 2.09 2.409 4.499 2.409 7.224 0 2.128-.56 4.107-1.68 5.936-1.12 1.792-2.894 3.584-5.32 5.376-2.427 1.792-5.62 3.696-9.576 5.712L64.415 38.24l-.616-2.8h30.464v8.456H53.271v-7.392l18.032-10.36c2.875-1.643 5.115-3.043 6.72-4.2 1.643-1.195 2.8-2.296 3.473-3.304.672-1.008 1.008-2.09 1.008-3.248 0-1.195-.337-2.259-1.008-3.192-.635-.933-1.606-1.661-2.912-2.184-1.307-.523-2.95-.784-4.928-.784-2.353 0-4.294.355-5.825 1.064-1.53.672-2.669 1.587-3.416 2.744a8.64 8.64 0 00-1.344 3.808H52.544z" fill="#fff" fill-opacity=".1"/><path d="M52.544 16.848c.224-3.248 1.288-6.048 3.192-8.4 1.904-2.39 4.424-4.219 7.56-5.488C66.468 1.653 70.052 1 74.047 1c3.808 0 7.13.579 9.968 1.736 2.874 1.157 5.096 2.781 6.663 4.872 1.606 2.09 2.409 4.499 2.409 7.224 0 2.128-.56 4.107-1.68 5.936-1.12 1.792-2.894 3.584-5.32 5.376-2.427 1.792-5.62 3.696-9.576 5.712L64.415 38.24l-.616-2.8h30.464v8.456H53.271v-7.392l18.032-10.36c2.875-1.643 5.115-3.043 6.72-4.2 1.643-1.195 2.8-2.296 3.473-3.304.672-1.008 1.008-2.09 1.008-3.248 0-1.195-.337-2.259-1.008-3.192-.635-.933-1.606-1.661-2.912-2.184-1.307-.523-2.95-.784-4.928-.784-2.353 0-4.294.355-5.825 1.064-1.53.672-2.669 1.587-3.416 2.744a8.64 8.64 0 00-1.344 3.808H52.544z" fill="url(#paint0_radial_6386_694)" fill-opacity=".1"/><path d="M52.045 16.814l-.037.534H63.52l.049-.446a8.141 8.141 0 011.267-3.59c.683-1.06 1.736-1.917 3.197-2.558h0l.009-.004c1.444-.67 3.307-1.018 5.614-1.018 1.938 0 3.513.257 4.742.748 1.237.495 2.118 1.168 2.684 2.001h0l.008.011c.608.845.913 1.806.913 2.9 0 1.054-.304 2.04-.924 2.97-.624.937-1.727 1.997-3.349 3.177-1.585 1.142-3.807 2.532-6.675 4.17v.002L53.021 36.07l-.25.144v8.182h41.991V34.94H71.74l5-2.639.003-.001c3.97-2.023 7.187-3.94 9.642-5.754 2.458-1.814 4.283-3.65 5.448-5.513l.002-.004a11.663 11.663 0 001.754-6.197c0-2.83-.837-5.346-2.51-7.526-1.632-2.175-3.933-3.849-6.875-5.033C81.293 1.086 77.905.5 74.047.5c-4.048 0-7.698.662-10.94 1.997-3.206 1.298-5.799 3.175-7.761 5.638-1.973 2.438-3.07 5.337-3.301 8.679z" stroke="url(#paint1_linear_6386_694)" stroke-opacity=".6"/><path d="M24.88 44.792c-4.742 0-8.848-.915-12.32-2.744-3.472-1.83-6.16-4.368-8.064-7.616-1.904-3.285-2.856-7.13-2.856-11.536 0-4.368.952-8.195 2.856-11.48s4.592-5.843 8.064-7.672C16.032 1.914 20.138 1 24.88 1c4.704 0 8.792.915 12.264 2.744 3.472 1.83 6.16 4.387 8.064 7.672 1.904 3.248 2.856 7.075 2.856 11.48 0 4.368-.952 8.195-2.856 11.48s-4.592 5.843-8.064 7.672c-3.472 1.83-7.56 2.744-12.264 2.744zm0-8.624c3.994 0 7.093-1.157 9.296-3.472 2.24-2.315 3.36-5.581 3.36-9.8s-1.12-7.485-3.36-9.8c-2.203-2.315-5.302-3.472-9.296-3.472-3.995 0-7.112 1.157-9.352 3.472s-3.36 5.581-3.36 9.8 1.12 7.485 3.36 9.8c2.24 2.315 5.357 3.472 9.352 3.472z" fill="#fff" fill-opacity=".1"/><path d="M24.88 44.792c-4.742 0-8.848-.915-12.32-2.744-3.472-1.83-6.16-4.368-8.064-7.616-1.904-3.285-2.856-7.13-2.856-11.536 0-4.368.952-8.195 2.856-11.48s4.592-5.843 8.064-7.672C16.032 1.914 20.138 1 24.88 1c4.704 0 8.792.915 12.264 2.744 3.472 1.83 6.16 4.387 8.064 7.672 1.904 3.248 2.856 7.075 2.856 11.48 0 4.368-.952 8.195-2.856 11.48s-4.592 5.843-8.064 7.672c-3.472 1.83-7.56 2.744-12.264 2.744zm0-8.624c3.994 0 7.093-1.157 9.296-3.472 2.24-2.315 3.36-5.581 3.36-9.8s-1.12-7.485-3.36-9.8c-2.203-2.315-5.302-3.472-9.296-3.472-3.995 0-7.112 1.157-9.352 3.472s-3.36 5.581-3.36 9.8 1.12 7.485 3.36 9.8c2.24 2.315 5.357 3.472 9.352 3.472z" fill="url(#paint2_radial_6386_694)" fill-opacity=".1"/><path d="M4.063 34.683l.001.002c1.953 3.332 4.712 5.934 8.263 7.805 3.557 1.875 7.747 2.802 12.553 2.802 4.769 0 8.94-.928 12.497-2.802 3.552-1.871 6.31-4.494 8.263-7.863 1.955-3.373 2.924-7.288 2.924-11.731 0-4.479-.969-8.395-2.925-11.732-1.952-3.369-4.71-5.991-8.262-7.862C33.82 1.428 29.649.5 24.88.5c-4.806 0-8.996.927-12.553 2.802-3.553 1.871-6.311 4.494-8.264 7.863C2.11 14.538 1.14 18.453 1.14 22.896c0 4.48.968 8.414 2.923 11.787zm29.753-2.335l-.003.003c-2.085 2.192-5.04 3.317-8.933 3.317-3.894 0-6.869-1.125-8.993-3.32-2.125-2.195-3.22-5.322-3.22-9.452s1.095-7.257 3.22-9.452c2.124-2.195 5.099-3.32 8.993-3.32s6.848 1.125 8.933 3.317l.003.003c2.125 2.195 3.22 5.321 3.22 9.452 0 4.13-1.095 7.257-3.22 9.452z" stroke="url(#paint3_linear_6386_694)" stroke-opacity=".6"/><defs><radialGradient id="paint0_radial_6386_694" cx="0" cy="0" r="1" gradientUnits="userSpaceOnUse" gradientTransform="rotate(116.699 21.093 19.401) scale(75.3893 140.72)"><stop offset=".205" stop-color="#00FF94"/><stop offset=".745" stop-color="#00FF94" stop-opacity="0"/></radialGradient><radialGradient id="paint2_radial_6386_694" cx="0" cy="0" r="1" gradientUnits="userSpaceOnUse" gradientTransform="rotate(116.699 21.093 19.401) scale(75.3893 140.72)"><stop offset=".205" stop-color="#00FF94"/><stop offset=".745" stop-color="#00FF94" stop-opacity="0"/></radialGradient><linearGradient id="paint1_linear_6386_694" x1="90.513" y1="8.35" x2="51.313" y2="23.623" gradientUnits="userSpaceOnUse"><stop stop-color="#047586"/><stop offset=".759" stop-color="#439596"/></linearGradient><linearGradient id="paint3_linear_6386_694" x1="43.891" y1="8.504" x2="1.325" y2="26.58" gradientUnits="userSpaceOnUse"><stop stop-color="#047586"/><stop offset=".759" stop-color="#439596"/></linearGradient></defs></svg>