<svg width="75" height="46" fill="none" xmlns="http://www.w3.org/2000/svg"><path d="M73.64 1.896v42H63.168V5.48l5.096 4.648-17.976 3.136V5.088l15.568-3.192h7.784z" fill="#fff" fill-opacity=".1"/><path d="M73.64 1.896v42H63.168V5.48l5.096 4.648-17.976 3.136V5.088l15.568-3.192h7.784z" fill="url(#paint0_radial_6386_695)" fill-opacity=".1"/><path d="M74.14 1.896v-.5h-8.335l-.05.01-15.568 3.192-.4.082v9.179l.587-.102 12.294-2.145v32.784H74.14v-42.5z" stroke="url(#paint1_linear_6386_695)" stroke-opacity=".6"/><path d="M24.24 44.792c-4.741 0-8.848-.915-12.32-2.744-3.472-1.83-6.16-4.368-8.064-7.616C1.952 31.147 1 27.302 1 22.896c0-4.368.952-8.195 2.856-11.48s4.592-5.843 8.064-7.672C15.392 1.914 19.499 1 24.24 1c4.704 0 8.792.915 12.264 2.744 3.472 1.83 6.16 4.387 8.064 7.672 1.904 3.248 2.856 7.075 2.856 11.48 0 4.368-.952 8.195-2.856 11.48s-4.592 5.843-8.064 7.672c-3.472 1.83-7.56 2.744-12.264 2.744zm0-8.624c3.995 0 7.093-1.157 9.296-3.472 2.24-2.315 3.36-5.581 3.36-9.8s-1.12-7.485-3.36-9.8c-2.203-2.315-5.301-3.472-9.296-3.472-3.995 0-7.112 1.157-9.352 3.472s-3.36 5.581-3.36 9.8 1.12 7.485 3.36 9.8c2.24 2.315 5.357 3.472 9.352 3.472z" fill="#fff" fill-opacity=".1"/><path d="M24.24 44.792c-4.741 0-8.848-.915-12.32-2.744-3.472-1.83-6.16-4.368-8.064-7.616C1.952 31.147 1 27.302 1 22.896c0-4.368.952-8.195 2.856-11.48s4.592-5.843 8.064-7.672C15.392 1.914 19.499 1 24.24 1c4.704 0 8.792.915 12.264 2.744 3.472 1.83 6.16 4.387 8.064 7.672 1.904 3.248 2.856 7.075 2.856 11.48 0 4.368-.952 8.195-2.856 11.48s-4.592 5.843-8.064 7.672c-3.472 1.83-7.56 2.744-12.264 2.744zm0-8.624c3.995 0 7.093-1.157 9.296-3.472 2.24-2.315 3.36-5.581 3.36-9.8s-1.12-7.485-3.36-9.8c-2.203-2.315-5.301-3.472-9.296-3.472-3.995 0-7.112 1.157-9.352 3.472s-3.36 5.581-3.36 9.8 1.12 7.485 3.36 9.8c2.24 2.315 5.357 3.472 9.352 3.472z" fill="url(#paint2_radial_6386_695)" fill-opacity=".1"/><path d="M3.423 34.683l.002.002c1.953 3.332 4.711 5.934 8.262 7.805 3.557 1.875 7.747 2.802 12.553 2.802 4.77 0 8.94-.928 12.497-2.802 3.552-1.871 6.31-4.494 8.264-7.863 1.954-3.373 2.923-7.288 2.923-11.731 0-4.479-.968-8.395-2.924-11.732-1.953-3.369-4.711-5.991-8.263-7.862C33.18 1.428 29.01.5 24.24.5c-4.806 0-8.996.927-12.553 2.802-3.552 1.871-6.31 4.494-8.264 7.863C1.47 14.538.5 18.453.5 22.896c0 4.48.969 8.414 2.923 11.787zm29.754-2.335l-.003.003c-2.086 2.192-5.04 3.317-8.934 3.317-3.894 0-6.868-1.125-8.993-3.32-2.124-2.195-3.219-5.322-3.219-9.452s1.095-7.257 3.22-9.452c2.124-2.195 5.098-3.32 8.992-3.32 3.894 0 6.848 1.125 8.934 3.317l.003.003c2.124 2.195 3.219 5.321 3.219 9.452 0 4.13-1.095 7.257-3.22 9.452z" stroke="url(#paint3_linear_6386_695)" stroke-opacity=".6"/><defs><radialGradient id="paint0_radial_6386_695" cx="0" cy="0" r="1" gradientUnits="userSpaceOnUse" gradientTransform="rotate(113.062 15.893 17.52) scale(70.5872 118.307)"><stop offset=".205" stop-color="#00FF94"/><stop offset=".745" stop-color="#00FF94" stop-opacity="0"/></radialGradient><radialGradient id="paint2_radial_6386_695" cx="0" cy="0" r="1" gradientUnits="userSpaceOnUse" gradientTransform="rotate(113.062 15.893 17.52) scale(70.5872 118.307)"><stop offset=".205" stop-color="#00FF94"/><stop offset=".745" stop-color="#00FF94" stop-opacity="0"/></radialGradient><linearGradient id="paint1_linear_6386_695" x1="71.54" y1="9.093" x2="47.462" y2="14.456" gradientUnits="userSpaceOnUse"><stop stop-color="#047586"/><stop offset=".759" stop-color="#439596"/></linearGradient><linearGradient id="paint3_linear_6386_695" x1="43.251" y1="8.504" x2=".686" y2="26.58" gradientUnits="userSpaceOnUse"><stop stop-color="#047586"/><stop offset=".759" stop-color="#439596"/></linearGradient></defs></svg>