<svg width="145" height="20" fill="none" xmlns="http://www.w3.org/2000/svg"><path d="M4.015 19.827c.387.302.877.198 1.461-.226l4.985-3.666 4.995 3.666c.584.424 1.064.528 1.46.226.386-.292.471-.773.236-1.46l-1.97-5.862 5.032-3.619c.585-.414.82-.848.67-1.319-.151-.452-.594-.678-1.32-.669l-6.172.038-1.876-5.89C11.29.349 10.951 0 10.461 0c-.48 0-.82.349-1.046 1.046L7.54 6.936l-6.173-.038c-.725-.01-1.168.217-1.319.67-.16.47.085.904.67 1.318l5.031 3.619-1.97 5.861c-.235.688-.15 1.169.236 1.461z" fill="#fff" fill-opacity=".1"/><path d="M4.015 19.827c.387.302.877.198 1.461-.226l4.985-3.666 4.995 3.666c.584.424 1.064.528 1.46.226.386-.292.471-.773.236-1.46l-1.97-5.862 5.032-3.619c.585-.414.82-.848.67-1.319-.151-.452-.594-.678-1.32-.669l-6.172.038-1.876-5.89C11.29.349 10.951 0 10.461 0c-.48 0-.82.349-1.046 1.046L7.54 6.936l-6.173-.038c-.725-.01-1.168.217-1.319.67-.16.47.085.904.67 1.318l5.031 3.619-1.97 5.861c-.235.688-.15 1.169.236 1.461z" fill="url(#paint0_radial_6214_10836)" fill-opacity=".8"/><path d="M4.323 19.433h0l-.006-.005a.386.386 0 01-.16-.264c-.021-.133-.007-.337.096-.636v-.002l1.97-5.862.118-.35-.3-.215L1.01 8.48h0l-.003-.001c-.258-.184-.396-.34-.46-.462a.336.336 0 01-.025-.289l.001-.003a.36.36 0 01.197-.22c.122-.062.325-.111.642-.107h.003l6.173.038.368.002.111-.35L9.891 1.2v0c.1-.309.21-.488.306-.585A.342.342 0 0110.461.5c.11 0 .19.033.273.115.097.097.206.275.306.584V1.2l1.875 5.887.112.351.368-.002 6.172-.038h.004c.316-.004.52.045.642.107a.359.359 0 01.195.217.36.36 0 01-.028.297c-.062.12-.198.277-.455.46l-.003.001-5.032 3.62-.3.215.118.35 1.97 5.86v.003c.103.3.118.504.096.636a.385.385 0 01-.16.264v.001a.318.318 0 01-.274.064c-.135-.023-.328-.106-.59-.296 0 0 0 0 0 0l-4.993-3.665-.296-.217-.296.217-4.983 3.664v.001c-.262.19-.457.273-.594.296a.305.305 0 01-.265-.06zM1.367 6.898c-.725-.01-1.168.217-1.319.67l1.32-.67z" stroke="url(#paint1_linear_6214_10836)" stroke-opacity=".6"/><path d="M34.943 19.827c.386.302.876.198 1.46-.226l4.986-3.666 4.994 3.666c.584.424 1.065.528 1.46.226.387-.292.472-.773.236-1.46l-1.97-5.862 5.033-3.619c.584-.414.82-.848.67-1.319-.152-.452-.594-.678-1.32-.669l-6.172.038-1.876-5.89C42.218.349 41.88 0 41.39 0c-.48 0-.82.349-1.046 1.046l-1.876 5.89-6.172-.038c-.726-.01-1.169.217-1.32.67-.16.47.086.904.67 1.318l5.032 3.619-1.97 5.861c-.235.688-.15 1.169.236 1.461z" fill="#fff" fill-opacity=".1"/><path d="M34.943 19.827c.386.302.876.198 1.46-.226l4.986-3.666 4.994 3.666c.584.424 1.065.528 1.46.226.387-.292.472-.773.236-1.46l-1.97-5.862 5.033-3.619c.584-.414.82-.848.67-1.319-.152-.452-.594-.678-1.32-.669l-6.172.038-1.876-5.89C42.218.349 41.88 0 41.39 0c-.48 0-.82.349-1.046 1.046l-1.876 5.89-6.172-.038c-.726-.01-1.169.217-1.32.67-.16.47.086.904.67 1.318l5.032 3.619-1.97 5.861c-.235.688-.15 1.169.236 1.461z" fill="url(#paint2_radial_6214_10836)" fill-opacity=".8"/><path d="M35.25 19.433h0l-.005-.005a.385.385 0 01-.16-.264c-.022-.133-.007-.337.096-.636v-.002l1.97-5.862.117-.35-.3-.215-5.031-3.619h0l-.003-.001c-.259-.184-.396-.34-.46-.462a.336.336 0 01-.025-.289l.001-.003a.359.359 0 01.196-.22c.123-.062.326-.111.643-.107h.003l6.172.038.368.002.112-.35L40.818 1.2v0c.101-.309.21-.488.307-.585A.342.342 0 0141.39.5c.11 0 .19.033.273.115.096.097.206.275.306.584V1.2l1.875 5.887.112.351.367-.002 6.173-.038h.003c.317-.004.52.045.643.107a.36.36 0 01.195.217.36.36 0 01-.028.297c-.063.12-.198.277-.455.46l-.003.001-5.032 3.62-.3.215.118.35 1.97 5.86v.003c.103.3.117.504.096.636a.386.386 0 01-.16.264l-.001.001a.318.318 0 01-.273.064c-.135-.023-.328-.106-.59-.296h-.001l-4.992-3.665-.297-.217-.295.217-4.983 3.664-.001.001c-.26.19-.456.273-.593.296a.305.305 0 01-.265-.06zM32.296 6.898c-.726-.01-1.169.217-1.32.67l1.32-.67z" stroke="url(#paint3_linear_6214_10836)" stroke-opacity=".6"/><path d="M65.87 19.827c.387.302.877.198 1.461-.226l4.985-3.666 4.995 3.666c.584.424 1.065.528 1.46.226.387-.292.472-.773.236-1.46l-1.97-5.862 5.033-3.619c.584-.414.82-.848.669-1.319-.15-.452-.594-.678-1.32-.669l-6.172.038-1.875-5.89C73.146.349 72.806 0 72.316 0c-.48 0-.82.349-1.046 1.046l-1.875 5.89-6.172-.038c-.726-.01-1.169.217-1.32.67-.16.47.085.904.67 1.318l5.032 3.619-1.97 5.861c-.235.688-.15 1.169.236 1.461z" fill="#fff" fill-opacity=".1"/><path d="M65.87 19.827c.387.302.877.198 1.461-.226l4.985-3.666 4.995 3.666c.584.424 1.065.528 1.46.226.387-.292.472-.773.236-1.46l-1.97-5.862 5.033-3.619c.584-.414.82-.848.669-1.319-.15-.452-.594-.678-1.32-.669l-6.172.038-1.875-5.89C73.146.349 72.806 0 72.316 0c-.48 0-.82.349-1.046 1.046l-1.875 5.89-6.172-.038c-.726-.01-1.169.217-1.32.67-.16.47.085.904.67 1.318l5.032 3.619-1.97 5.861c-.235.688-.15 1.169.236 1.461z" fill="url(#paint4_radial_6214_10836)" fill-opacity=".8"/><path d="M66.178 19.433h0l-.006-.005a.385.385 0 01-.159-.264c-.022-.133-.007-.337.095-.636l.001-.002 1.97-5.862.117-.35-.3-.215-5.032-3.619h0l-.002-.001c-.259-.184-.397-.34-.46-.462a.336.336 0 01-.025-.289v-.003a.36.36 0 01.197-.22c.123-.062.326-.111.642-.107h.004l6.172.038.368.002.112-.35L71.746 1.2v0c.1-.309.21-.488.307-.585A.342.342 0 0172.316.5c.11 0 .191.033.274.115.096.097.206.275.306.584V1.2l1.875 5.887.111.351.368-.002 6.173-.038h.003c.317-.004.52.045.642.107a.359.359 0 01.196.217.36.36 0 01-.028.297c-.063.12-.198.277-.456.46l-.002.001-5.032 3.62-.3.215.118.35 1.97 5.86v.003c.103.3.117.504.095.636a.385.385 0 01-.159.264l-.001.001a.318.318 0 01-.273.064c-.135-.023-.328-.106-.59-.296h-.001l-4.993-3.665-.296-.217-.296.217-4.982 3.664-.001.001c-.261.19-.457.273-.593.296a.305.305 0 01-.266-.06zM63.223 6.898c-.726-.01-1.169.217-1.32.67l1.32-.67z" stroke="url(#paint5_linear_6214_10836)" stroke-opacity=".6"/><path d="M96.799 19.827c.386.302.876.198 1.46-.226l4.986-3.666 4.994 3.666c.584.424 1.065.528 1.461.226.386-.292.471-.773.235-1.46l-1.969-5.862 5.032-3.619c.584-.414.82-.848.669-1.319-.151-.452-.594-.678-1.319-.669l-6.173.038-1.875-5.89C104.074.349 103.735 0 103.245 0c-.481 0-.82.349-1.046 1.046l-1.876 5.89-6.172-.038c-.726-.01-1.168.217-1.32.67-.16.47.085.904.67 1.318l5.032 3.619-1.97 5.861c-.235.688-.15 1.169.236 1.461z" fill="#fff" fill-opacity=".1"/><path d="M96.799 19.827c.386.302.876.198 1.46-.226l4.986-3.666 4.994 3.666c.584.424 1.065.528 1.461.226.386-.292.471-.773.235-1.46l-1.969-5.862 5.032-3.619c.584-.414.82-.848.669-1.319-.151-.452-.594-.678-1.319-.669l-6.173.038-1.875-5.89C104.074.349 103.735 0 103.245 0c-.481 0-.82.349-1.046 1.046l-1.876 5.89-6.172-.038c-.726-.01-1.168.217-1.32.67-.16.47.085.904.67 1.318l5.032 3.619-1.97 5.861c-.235.688-.15 1.169.236 1.461z" fill="url(#paint6_radial_6214_10836)" fill-opacity=".8"/><path d="M97.107 19.433h0l-.007-.005a.385.385 0 01-.159-.264c-.022-.133-.007-.337.096-.636v-.002l1.97-5.862.117-.35-.3-.215-5.031-3.619h0l-.003-.001c-.259-.184-.396-.34-.46-.462a.336.336 0 01-.025-.289l.001-.003a.359.359 0 01.196-.22c.123-.062.326-.111.642-.107h.004l6.172.038.368.002.112-.35 1.874-5.888.001-.001c.1-.309.21-.488.306-.585a.341.341 0 01.264-.114c.11 0 .191.033.273.115.096.097.206.275.306.584V1.2l1.875 5.887.112.351.367-.002 6.173-.038h.003c.317-.004.52.045.643.107a.36.36 0 01.195.217.36.36 0 01-.028.297c-.063.12-.198.277-.455.46l-.003.001-5.032 3.62-.3.215.118.35 1.969 5.86.001.003c.103.3.117.504.096.636a.387.387 0 01-.16.264l-.001.001a.318.318 0 01-.273.064c-.135-.023-.328-.106-.59-.296h-.001l-4.992-3.665-.297-.217-.296.217-4.982 3.664-.001.001c-.26.19-.456.273-.593.296a.305.305 0 01-.265-.06zM94.15 6.898c-.726-.01-1.168.217-1.32.67l1.32-.67z" stroke="url(#paint7_linear_6214_10836)" stroke-opacity=".6"/><path d="M127.727 19.827c.386.302.876.198 1.46-.226l4.985-3.666 4.995 3.666c.584.424 1.065.528 1.461.226.386-.292.471-.773.235-1.46l-1.969-5.862 5.032-3.619c.584-.414.82-.848.669-1.319-.151-.452-.594-.678-1.319-.669l-6.173.038-1.875-5.89C135.002.349 134.662 0 134.172 0c-.48 0-.819.349-1.046 1.046l-1.875 5.89-6.172-.038c-.726-.01-1.169.217-1.32.67-.16.47.085.904.67 1.318l5.032 3.619-1.97 5.861c-.235.688-.151 1.169.236 1.461z" fill="#fff" fill-opacity=".1"/><path d="M127.727 19.827c.386.302.876.198 1.46-.226l4.985-3.666 4.995 3.666c.584.424 1.065.528 1.461.226.386-.292.471-.773.235-1.46l-1.969-5.862 5.032-3.619c.584-.414.82-.848.669-1.319-.151-.452-.594-.678-1.319-.669l-6.173.038-1.875-5.89C135.002.349 134.662 0 134.172 0c-.48 0-.819.349-1.046 1.046l-1.875 5.89-6.172-.038c-.726-.01-1.169.217-1.32.67-.16.47.085.904.67 1.318l5.032 3.619-1.97 5.861c-.235.688-.151 1.169.236 1.461z" fill="url(#paint8_radial_6214_10836)" fill-opacity=".8"/><path d="M128.034 19.433h0l-.006-.005a.386.386 0 01-.159-.264c-.022-.133-.007-.337.095-.636l.001-.002 1.97-5.862.117-.35-.299-.215-5.033-3.619h0l-.002-.001c-.259-.184-.397-.34-.46-.462a.333.333 0 01-.025-.289l.001-.003a.358.358 0 01.196-.22c.123-.062.326-.111.642-.107h.004l6.172.038.368.002.112-.35 1.874-5.888v0c.101-.309.21-.488.307-.585a.34.34 0 01.263-.114c.11 0 .191.033.274.115.096.097.205.275.306.584v0l1.875 5.887.111.351.368-.002 6.173-.038h.003c.316-.004.52.045.642.107a.364.364 0 01.168.513c-.063.122-.198.278-.456.46l-.002.002-5.032 3.62-.3.215.118.35 1.969 5.86.001.003c.103.3.117.504.095.636a.386.386 0 01-.159.264l-.001.001a.318.318 0 01-.273.064c-.135-.023-.328-.106-.59-.296h-.001l-4.993-3.665-.296-.217-.296.217-4.982 3.664-.001.001c-.261.19-.457.273-.593.296a.307.307 0 01-.266-.06zm-2.955-12.535c-.726-.01-1.169.217-1.32.67l1.32-.67z" stroke="url(#paint9_linear_6214_10836)" stroke-opacity=".6"/><defs><radialGradient id="paint0_radial_6214_10836" cx="0" cy="0" r="1" gradientUnits="userSpaceOnUse" gradientTransform="matrix(-7.23349 24.05402 -30.84759 -9.27644 10.464 5.135)"><stop offset=".205" stop-color="#00FF94"/><stop offset=".745" stop-color="#00FF94" stop-opacity="0"/></radialGradient><radialGradient id="paint2_radial_6214_10836" cx="0" cy="0" r="1" gradientUnits="userSpaceOnUse" gradientTransform="matrix(-7.23349 24.05402 -30.84759 -9.27644 41.392 5.135)"><stop offset=".205" stop-color="#00FF94"/><stop offset=".745" stop-color="#00FF94" stop-opacity="0"/></radialGradient><radialGradient id="paint4_radial_6214_10836" cx="0" cy="0" r="1" gradientUnits="userSpaceOnUse" gradientTransform="matrix(-7.23349 24.05402 -30.84759 -9.27644 72.32 5.135)"><stop offset=".205" stop-color="#00FF94"/><stop offset=".745" stop-color="#00FF94" stop-opacity="0"/></radialGradient><radialGradient id="paint6_radial_6214_10836" cx="0" cy="0" r="1" gradientUnits="userSpaceOnUse" gradientTransform="matrix(-7.23349 24.05402 -30.84759 -9.27644 103.248 5.135)"><stop offset=".205" stop-color="#00FF94"/><stop offset=".745" stop-color="#00FF94" stop-opacity="0"/></radialGradient><radialGradient id="paint8_radial_6214_10836" cx="0" cy="0" r="1" gradientUnits="userSpaceOnUse" gradientTransform="matrix(-7.23349 24.05402 -30.84759 -9.27644 134.175 5.135)"><stop offset=".205" stop-color="#00FF94"/><stop offset=".745" stop-color="#00FF94" stop-opacity="0"/></radialGradient><linearGradient id="paint1_linear_6214_10836" x1="19.047" y1="3.427" x2="-.217" y2="11.502" gradientUnits="userSpaceOnUse"><stop stop-color="#047586"/><stop offset=".759" stop-color="#439596"/></linearGradient><linearGradient id="paint3_linear_6214_10836" x1="49.974" y1="3.427" x2="30.71" y2="11.502" gradientUnits="userSpaceOnUse"><stop stop-color="#047586"/><stop offset=".759" stop-color="#439596"/></linearGradient><linearGradient id="paint5_linear_6214_10836" x1="80.902" y1="3.427" x2="61.638" y2="11.502" gradientUnits="userSpaceOnUse"><stop stop-color="#047586"/><stop offset=".759" stop-color="#439596"/></linearGradient><linearGradient id="paint7_linear_6214_10836" x1="111.83" y1="3.427" x2="92.566" y2="11.502" gradientUnits="userSpaceOnUse"><stop stop-color="#047586"/><stop offset=".759" stop-color="#439596"/></linearGradient><linearGradient id="paint9_linear_6214_10836" x1="142.758" y1="3.427" x2="123.494" y2="11.502" gradientUnits="userSpaceOnUse"><stop stop-color="#047586"/><stop offset=".759" stop-color="#439596"/></linearGradient></defs></svg>