<svg width="16" height="16" fill="none" xmlns="http://www.w3.org/2000/svg"><path fill-rule="evenodd" clip-rule="evenodd" d="M3.17 6.708a5 5 0 017.103-3.16.5.5 0 10.454-.892 6 6 0 102.728 2.846.5.5 0 00-.91.417 5 5 0 11-9.375.789z" fill="#B5B5B5"/><path fill-rule="evenodd" clip-rule="evenodd" d="M8.168.146A.615.615 0 018.572 0a.62.62 0 01.404.146l2.856 2.5a.501.501 0 01.124.162.446.446 0 010 .384.501.501 0 01-.124.162l-2.856 2.5a.583.583 0 01-.186.108.643.643 0 01-.623-.109A.47.47 0 018 5.5c0-.065.015-.13.044-.191a.501.501 0 01.124-.162L10.62 3 8.168.854a.501.501 0 01-.124-.162.446.446 0 010-.383.501.501 0 01.124-.163z" fill="#B5B5B5"/></svg>